<svg width="346" height="121" viewBox="0 0 346 121" fill="none" xmlns="http://www.w3.org/2000/svg">
<g style="mix-blend-mode:luminosity">
<g filter="url(#filter0_di_71_107257)">
<mask id="path-1-outside-1_71_107257" maskUnits="userSpaceOnUse" x="0" y="0.690918" width="346" height="118" fill="black">
<rect fill="white" y="0.690918" width="346" height="118"/>
<path fill-rule="evenodd" clip-rule="evenodd" d="M8.25 2.69092H88.058C88.5194 6.63723 91.6754 9.69092 95.5 9.69092C99.3246 9.69092 102.481 6.63723 102.942 2.69092H337.753C341.203 2.69092 344 5.4876 344 8.93749V110.444C344 113.894 341.203 116.691 337.753 116.691H102.764C101.931 113.24 98.9947 110.691 95.5 110.691C92.0053 110.691 89.0689 113.24 88.2363 116.691H8.25C4.79822 116.691 2 113.893 2 110.441V8.94092C2 5.48914 4.79822 2.69092 8.25 2.69092Z"/>
</mask>
<path fill-rule="evenodd" clip-rule="evenodd" d="M8.25 2.69092H88.058C88.5194 6.63723 91.6754 9.69092 95.5 9.69092C99.3246 9.69092 102.481 6.63723 102.942 2.69092H337.753C341.203 2.69092 344 5.4876 344 8.93749V110.444C344 113.894 341.203 116.691 337.753 116.691H102.764C101.931 113.24 98.9947 110.691 95.5 110.691C92.0053 110.691 89.0689 113.24 88.2363 116.691H8.25C4.79822 116.691 2 113.893 2 110.441V8.94092C2 5.48914 4.79822 2.69092 8.25 2.69092Z" fill="url(#paint0_linear_71_107257)"/>
<path d="M88.058 2.69092L90.0445 2.45869L89.8378 0.690918H88.058V2.69092ZM102.942 2.69092V0.690918H101.162L100.955 2.45869L102.942 2.69092ZM102.764 116.691L100.82 117.16L101.189 118.691H102.764V116.691ZM88.2363 116.691V118.691H89.8111L90.1805 117.16L88.2363 116.691ZM88.058 0.690918H8.25V4.69092H88.058V0.690918ZM95.5 7.69092C92.8017 7.69092 90.4015 5.51202 90.0445 2.45869L86.0716 2.92315C86.6373 7.76244 90.549 11.6909 95.5 11.6909V7.69092ZM100.955 2.45869C100.599 5.51202 98.1983 7.69092 95.5 7.69092V11.6909C100.451 11.6909 104.363 7.76244 104.928 2.92315L100.955 2.45869ZM337.753 0.690918H102.942V4.69092H337.753V0.690918ZM346 8.93749C346 4.38303 342.308 0.690918 337.753 0.690918V4.69092C340.099 4.69092 342 6.59217 342 8.93749H346ZM346 110.444V8.93749H342V110.444H346ZM337.753 118.691C342.308 118.691 346 114.999 346 110.444H342C342 112.79 340.099 114.691 337.753 114.691V118.691ZM102.764 118.691H337.753V114.691H102.764V118.691ZM95.5 112.691C97.9691 112.691 100.179 114.505 100.82 117.16L104.708 116.222C103.683 111.976 100.02 108.691 95.5 108.691V112.691ZM90.1805 117.16C90.8212 114.505 93.0309 112.691 95.5 112.691V108.691C90.9797 108.691 87.3166 111.976 86.2921 116.222L90.1805 117.16ZM8.25 118.691H88.2363V114.691H8.25V118.691ZM0 110.441C0 114.997 3.69365 118.691 8.25 118.691V114.691C5.90279 114.691 4 112.788 4 110.441H0ZM0 8.94092V110.441H4V8.94092H0ZM8.25 0.690918C3.69365 0.690918 0 4.38457 0 8.94092H4C4 6.59371 5.90279 4.69092 8.25 4.69092V0.690918Z" fill="#53978F" mask="url(#path-1-outside-1_71_107257)"/>
<g filter="url(#filter1_i_71_107257)">
<rect x="16" y="12.6909" width="66.0508" height="66.2509" rx="2.72374" fill="#78C9C0"/>
</g>
<rect x="15.3191" y="12.01" width="67.4127" height="67.6128" rx="3.40468" stroke="#53978F" stroke-width="1.36187"/>
<g filter="url(#filter2_ii_71_107257)">
<path d="M36.5008 59.6909L55.8608 31.7709H60.5008L41.1408 59.6909H36.5008ZM38.4208 47.1309C36.1541 47.1309 34.4208 46.4643 33.2208 45.1309C32.0474 43.7709 31.4608 41.7976 31.4608 39.2109C31.4608 36.6243 32.0474 34.6643 33.2208 33.3309C34.4208 31.9709 36.1541 31.2909 38.4208 31.2909C40.6874 31.2909 42.4074 31.9709 43.5808 33.3309C44.7541 34.6643 45.3408 36.6243 45.3408 39.2109C45.3408 41.7976 44.7541 43.7709 43.5808 45.1309C42.4074 46.4643 40.6874 47.1309 38.4208 47.1309ZM38.4208 44.0909C40.0741 44.0909 40.9008 42.8243 40.9008 40.2909V38.1309C40.9008 35.5976 40.0741 34.3309 38.4208 34.3309C36.7674 34.3309 35.9408 35.5976 35.9408 38.1309V40.2909C35.9408 42.8243 36.7674 44.0909 38.4208 44.0909ZM58.5808 60.1709C56.3408 60.1709 54.6208 59.5043 53.4208 58.1709C52.2474 56.8109 51.6608 54.8376 51.6608 52.2509C51.6608 49.6643 52.2474 47.7043 53.4208 46.3709C54.6208 45.0109 56.3408 44.3309 58.5808 44.3309C60.8474 44.3309 62.5674 45.0109 63.7408 46.3709C64.9408 47.7043 65.5408 49.6643 65.5408 52.2509C65.5408 54.8376 64.9408 56.8109 63.7408 58.1709C62.5674 59.5043 60.8474 60.1709 58.5808 60.1709ZM58.5808 57.1309C60.2341 57.1309 61.0608 55.8643 61.0608 53.3309V51.1709C61.0608 48.6376 60.2341 47.3709 58.5808 47.3709C56.9274 47.3709 56.1008 48.6376 56.1008 51.1709V53.3309C56.1008 55.8643 56.9274 57.1309 58.5808 57.1309Z" fill="#F3F3F3"/>
<path d="M36.5008 59.6909L55.8608 31.7709H60.5008L41.1408 59.6909H36.5008ZM38.4208 47.1309C36.1541 47.1309 34.4208 46.4643 33.2208 45.1309C32.0474 43.7709 31.4608 41.7976 31.4608 39.2109C31.4608 36.6243 32.0474 34.6643 33.2208 33.3309C34.4208 31.9709 36.1541 31.2909 38.4208 31.2909C40.6874 31.2909 42.4074 31.9709 43.5808 33.3309C44.7541 34.6643 45.3408 36.6243 45.3408 39.2109C45.3408 41.7976 44.7541 43.7709 43.5808 45.1309C42.4074 46.4643 40.6874 47.1309 38.4208 47.1309ZM38.4208 44.0909C40.0741 44.0909 40.9008 42.8243 40.9008 40.2909V38.1309C40.9008 35.5976 40.0741 34.3309 38.4208 34.3309C36.7674 34.3309 35.9408 35.5976 35.9408 38.1309V40.2909C35.9408 42.8243 36.7674 44.0909 38.4208 44.0909ZM58.5808 60.1709C56.3408 60.1709 54.6208 59.5043 53.4208 58.1709C52.2474 56.8109 51.6608 54.8376 51.6608 52.2509C51.6608 49.6643 52.2474 47.7043 53.4208 46.3709C54.6208 45.0109 56.3408 44.3309 58.5808 44.3309C60.8474 44.3309 62.5674 45.0109 63.7408 46.3709C64.9408 47.7043 65.5408 49.6643 65.5408 52.2509C65.5408 54.8376 64.9408 56.8109 63.7408 58.1709C62.5674 59.5043 60.8474 60.1709 58.5808 60.1709ZM58.5808 57.1309C60.2341 57.1309 61.0608 55.8643 61.0608 53.3309V51.1709C61.0608 48.6376 60.2341 47.3709 58.5808 47.3709C56.9274 47.3709 56.1008 48.6376 56.1008 51.1709V53.3309C56.1008 55.8643 56.9274 57.1309 58.5808 57.1309Z" fill="url(#paint1_linear_71_107257)"/>
</g>
<path d="M36.5008 59.6909L35.859 59.2459L35.009 60.4718H36.5008V59.6909ZM55.8608 31.7709V30.99H55.452L55.219 31.3259L55.8608 31.7709ZM60.5008 31.7709L61.1425 32.2159L61.9926 30.99H60.5008V31.7709ZM41.1408 59.6909V60.4718H41.5496L41.7825 60.1359L41.1408 59.6909ZM33.2208 45.1309L32.6295 45.641L32.6348 45.6472L32.6403 45.6533L33.2208 45.1309ZM33.2208 33.3309L32.6352 32.8142L32.6345 32.815L33.2208 33.3309ZM43.5808 33.3309L42.9895 33.8411L42.9945 33.8468L43.5808 33.3309ZM43.5808 45.1309L44.1671 45.6468L44.1721 45.641L43.5808 45.1309ZM53.4208 58.1709L52.8295 58.681L52.8348 58.6872L52.8403 58.6933L53.4208 58.1709ZM53.4208 46.3709L52.8352 45.8542L52.8345 45.855L53.4208 46.3709ZM63.7408 46.3709L63.1495 46.881L63.1548 46.8872L63.1603 46.8933L63.7408 46.3709ZM63.7408 58.1709L63.1552 57.6542L63.1545 57.655L63.7408 58.1709ZM37.1425 60.1359L56.5025 32.2159L55.219 31.3259L35.859 59.2459L37.1425 60.1359ZM55.8608 32.5518H60.5008V30.99H55.8608V32.5518ZM59.859 31.3259L40.499 59.2459L41.7825 60.1359L61.1425 32.2159L59.859 31.3259ZM41.1408 58.91H36.5008V60.4718H41.1408V58.91ZM38.4208 46.35C36.313 46.35 34.8159 45.736 33.8012 44.6085L32.6403 45.6533C34.0256 47.1925 35.9952 47.9118 38.4208 47.9118V46.35ZM33.8121 44.6208C32.8052 43.4538 32.2417 41.6913 32.2417 39.2109H30.6799C30.6799 41.9039 31.2897 44.088 32.6295 45.641L33.8121 44.6208ZM32.2417 39.2109C32.2417 36.7291 32.8058 34.9846 33.807 33.8468L32.6345 32.815C31.2891 34.3439 30.6799 36.5194 30.6799 39.2109H32.2417ZM33.8064 33.8476C34.8224 32.6961 36.3179 32.0718 38.4208 32.0718V30.51C35.9904 30.51 34.0192 31.2458 32.6352 32.8142L33.8064 33.8476ZM38.4208 32.0718C40.5245 32.0718 42.0018 32.6963 42.9895 33.841L44.1721 32.8208C42.8131 31.2456 40.8504 30.51 38.4208 30.51V32.0718ZM42.9945 33.8468C43.9957 34.9846 44.5599 36.7291 44.5599 39.2109H46.1217C46.1217 36.5194 45.5125 34.3439 44.167 32.815L42.9945 33.8468ZM44.5599 39.2109C44.5599 41.6913 43.9963 43.4538 42.9895 44.6208L44.1721 45.641C45.5119 44.088 46.1217 41.9039 46.1217 39.2109H44.5599ZM42.9945 44.615C42.0083 45.7357 40.5294 46.35 38.4208 46.35V47.9118C40.8455 47.9118 42.8066 47.1928 44.167 45.6468L42.9945 44.615ZM38.4208 44.8718C39.4821 44.8718 40.362 44.4453 40.9348 43.5677C41.4698 42.748 41.6817 41.6176 41.6817 40.2909H40.1199C40.1199 41.4975 39.9185 42.2672 39.6268 42.7141C39.3729 43.1032 39.0128 43.31 38.4208 43.31V44.8718ZM41.6817 40.2909V38.1309H40.1199V40.2909H41.6817ZM41.6817 38.1309C41.6817 36.8042 41.4698 35.6739 40.9348 34.8541C40.362 33.9765 39.4821 33.55 38.4208 33.55V35.1118C39.0128 35.1118 39.3729 35.3187 39.6268 35.7077C39.9185 36.1546 40.1199 36.9243 40.1199 38.1309H41.6817ZM38.4208 33.55C37.3594 33.55 36.4796 33.9765 35.9068 34.8541C35.3718 35.6739 35.1599 36.8042 35.1599 38.1309H36.7217C36.7217 36.9243 36.9231 36.1546 37.2148 35.7077C37.4687 35.3187 37.8288 35.1118 38.4208 35.1118V33.55ZM35.1599 38.1309V40.2909H36.7217V38.1309H35.1599ZM35.1599 40.2909C35.1599 41.6176 35.3718 42.748 35.9068 43.5677C36.4796 44.4453 37.3594 44.8718 38.4208 44.8718V43.31C37.8288 43.31 37.4687 43.1032 37.2148 42.7141C36.9231 42.2672 36.7217 41.4975 36.7217 40.2909H35.1599ZM58.5808 59.39C56.503 59.39 55.0177 58.7779 54.0012 57.6485L52.8403 58.6933C54.2239 60.2306 56.1786 60.9518 58.5808 60.9518V59.39ZM54.0121 57.6608C53.0052 56.4938 52.4417 54.7313 52.4417 52.2509H50.8799C50.8799 54.9439 51.4897 57.128 52.8295 58.681L54.0121 57.6608ZM52.4417 52.2509C52.4417 49.7691 53.0058 48.0246 54.007 46.8868L52.8345 45.855C51.4891 47.3839 50.8799 49.5594 50.8799 52.2509H52.4417ZM54.0064 46.8876C55.0242 45.7341 56.5078 45.1118 58.5808 45.1118V43.55C56.1737 43.55 54.2174 44.2878 52.8352 45.8542L54.0064 46.8876ZM58.5808 45.1118C60.6845 45.1118 62.1618 45.7363 63.1495 46.881L64.3321 45.8608C62.9731 44.2856 61.0104 43.55 58.5808 43.55V45.1118ZM63.1603 46.8933C64.1842 48.031 64.7599 49.7729 64.7599 52.2509H66.3217C66.3217 49.5556 65.6973 47.3775 64.3212 45.8485L63.1603 46.8933ZM64.7599 52.2509C64.7599 54.7276 64.1848 56.4874 63.1552 57.6542L64.3264 58.6876C65.6968 57.1345 66.3217 54.9476 66.3217 52.2509H64.7599ZM63.1545 57.655C62.1683 58.7757 60.6894 59.39 58.5808 59.39V60.9518C61.0055 60.9518 62.9666 60.2328 64.327 58.6868L63.1545 57.655ZM58.5808 57.9118C59.6421 57.9118 60.522 57.4853 61.0948 56.6077C61.6298 55.788 61.8417 54.6576 61.8417 53.3309H60.2799C60.2799 54.5375 60.0785 55.3072 59.7868 55.7541C59.5329 56.1432 59.1728 56.35 58.5808 56.35V57.9118ZM61.8417 53.3309V51.1709H60.2799V53.3309H61.8417ZM61.8417 51.1709C61.8417 49.8442 61.6298 48.7139 61.0948 47.8941C60.522 47.0165 59.6421 46.59 58.5808 46.59V48.1518C59.1728 48.1518 59.5329 48.3587 59.7868 48.7477C60.0785 49.1946 60.2799 49.9643 60.2799 51.1709H61.8417ZM58.5808 46.59C57.5194 46.59 56.6396 47.0165 56.0668 47.8941C55.5318 48.7139 55.3199 49.8442 55.3199 51.1709H56.8817C56.8817 49.9643 57.0831 49.1946 57.3748 48.7477C57.6287 48.3587 57.9888 48.1518 58.5808 48.1518V46.59ZM55.3199 51.1709V53.3309H56.8817V51.1709H55.3199ZM55.3199 53.3309C55.3199 54.6576 55.5318 55.788 56.0668 56.6077C56.6396 57.4853 57.5194 57.9118 58.5808 57.9118V56.35C57.9888 56.35 57.6287 56.1432 57.3748 55.7541C57.0831 55.3072 56.8817 54.5375 56.8817 53.3309H55.3199Z" fill="#3F2436"/>
<path d="M36.5008 59.6909L35.859 59.2459L35.009 60.4718H36.5008V59.6909ZM55.8608 31.7709V30.99H55.452L55.219 31.3259L55.8608 31.7709ZM60.5008 31.7709L61.1425 32.2159L61.9926 30.99H60.5008V31.7709ZM41.1408 59.6909V60.4718H41.5496L41.7825 60.1359L41.1408 59.6909ZM33.2208 45.1309L32.6295 45.641L32.6348 45.6472L32.6403 45.6533L33.2208 45.1309ZM33.2208 33.3309L32.6352 32.8142L32.6345 32.815L33.2208 33.3309ZM43.5808 33.3309L42.9895 33.8411L42.9945 33.8468L43.5808 33.3309ZM43.5808 45.1309L44.1671 45.6468L44.1721 45.641L43.5808 45.1309ZM53.4208 58.1709L52.8295 58.681L52.8348 58.6872L52.8403 58.6933L53.4208 58.1709ZM53.4208 46.3709L52.8352 45.8542L52.8345 45.855L53.4208 46.3709ZM63.7408 46.3709L63.1495 46.881L63.1548 46.8872L63.1603 46.8933L63.7408 46.3709ZM63.7408 58.1709L63.1552 57.6542L63.1545 57.655L63.7408 58.1709ZM37.1425 60.1359L56.5025 32.2159L55.219 31.3259L35.859 59.2459L37.1425 60.1359ZM55.8608 32.5518H60.5008V30.99H55.8608V32.5518ZM59.859 31.3259L40.499 59.2459L41.7825 60.1359L61.1425 32.2159L59.859 31.3259ZM41.1408 58.91H36.5008V60.4718H41.1408V58.91ZM38.4208 46.35C36.313 46.35 34.8159 45.736 33.8012 44.6085L32.6403 45.6533C34.0256 47.1925 35.9952 47.9118 38.4208 47.9118V46.35ZM33.8121 44.6208C32.8052 43.4538 32.2417 41.6913 32.2417 39.2109H30.6799C30.6799 41.9039 31.2897 44.088 32.6295 45.641L33.8121 44.6208ZM32.2417 39.2109C32.2417 36.7291 32.8058 34.9846 33.807 33.8468L32.6345 32.815C31.2891 34.3439 30.6799 36.5194 30.6799 39.2109H32.2417ZM33.8064 33.8476C34.8224 32.6961 36.3179 32.0718 38.4208 32.0718V30.51C35.9904 30.51 34.0192 31.2458 32.6352 32.8142L33.8064 33.8476ZM38.4208 32.0718C40.5245 32.0718 42.0018 32.6963 42.9895 33.841L44.1721 32.8208C42.8131 31.2456 40.8504 30.51 38.4208 30.51V32.0718ZM42.9945 33.8468C43.9957 34.9846 44.5599 36.7291 44.5599 39.2109H46.1217C46.1217 36.5194 45.5125 34.3439 44.167 32.815L42.9945 33.8468ZM44.5599 39.2109C44.5599 41.6913 43.9963 43.4538 42.9895 44.6208L44.1721 45.641C45.5119 44.088 46.1217 41.9039 46.1217 39.2109H44.5599ZM42.9945 44.615C42.0083 45.7357 40.5294 46.35 38.4208 46.35V47.9118C40.8455 47.9118 42.8066 47.1928 44.167 45.6468L42.9945 44.615ZM38.4208 44.8718C39.4821 44.8718 40.362 44.4453 40.9348 43.5677C41.4698 42.748 41.6817 41.6176 41.6817 40.2909H40.1199C40.1199 41.4975 39.9185 42.2672 39.6268 42.7141C39.3729 43.1032 39.0128 43.31 38.4208 43.31V44.8718ZM41.6817 40.2909V38.1309H40.1199V40.2909H41.6817ZM41.6817 38.1309C41.6817 36.8042 41.4698 35.6739 40.9348 34.8541C40.362 33.9765 39.4821 33.55 38.4208 33.55V35.1118C39.0128 35.1118 39.3729 35.3187 39.6268 35.7077C39.9185 36.1546 40.1199 36.9243 40.1199 38.1309H41.6817ZM38.4208 33.55C37.3594 33.55 36.4796 33.9765 35.9068 34.8541C35.3718 35.6739 35.1599 36.8042 35.1599 38.1309H36.7217C36.7217 36.9243 36.9231 36.1546 37.2148 35.7077C37.4687 35.3187 37.8288 35.1118 38.4208 35.1118V33.55ZM35.1599 38.1309V40.2909H36.7217V38.1309H35.1599ZM35.1599 40.2909C35.1599 41.6176 35.3718 42.748 35.9068 43.5677C36.4796 44.4453 37.3594 44.8718 38.4208 44.8718V43.31C37.8288 43.31 37.4687 43.1032 37.2148 42.7141C36.9231 42.2672 36.7217 41.4975 36.7217 40.2909H35.1599ZM58.5808 59.39C56.503 59.39 55.0177 58.7779 54.0012 57.6485L52.8403 58.6933C54.2239 60.2306 56.1786 60.9518 58.5808 60.9518V59.39ZM54.0121 57.6608C53.0052 56.4938 52.4417 54.7313 52.4417 52.2509H50.8799C50.8799 54.9439 51.4897 57.128 52.8295 58.681L54.0121 57.6608ZM52.4417 52.2509C52.4417 49.7691 53.0058 48.0246 54.007 46.8868L52.8345 45.855C51.4891 47.3839 50.8799 49.5594 50.8799 52.2509H52.4417ZM54.0064 46.8876C55.0242 45.7341 56.5078 45.1118 58.5808 45.1118V43.55C56.1737 43.55 54.2174 44.2878 52.8352 45.8542L54.0064 46.8876ZM58.5808 45.1118C60.6845 45.1118 62.1618 45.7363 63.1495 46.881L64.3321 45.8608C62.9731 44.2856 61.0104 43.55 58.5808 43.55V45.1118ZM63.1603 46.8933C64.1842 48.031 64.7599 49.7729 64.7599 52.2509H66.3217C66.3217 49.5556 65.6973 47.3775 64.3212 45.8485L63.1603 46.8933ZM64.7599 52.2509C64.7599 54.7276 64.1848 56.4874 63.1552 57.6542L64.3264 58.6876C65.6968 57.1345 66.3217 54.9476 66.3217 52.2509H64.7599ZM63.1545 57.655C62.1683 58.7757 60.6894 59.39 58.5808 59.39V60.9518C61.0055 60.9518 62.9666 60.2328 64.327 58.6868L63.1545 57.655ZM58.5808 57.9118C59.6421 57.9118 60.522 57.4853 61.0948 56.6077C61.6298 55.788 61.8417 54.6576 61.8417 53.3309H60.2799C60.2799 54.5375 60.0785 55.3072 59.7868 55.7541C59.5329 56.1432 59.1728 56.35 58.5808 56.35V57.9118ZM61.8417 53.3309V51.1709H60.2799V53.3309H61.8417ZM61.8417 51.1709C61.8417 49.8442 61.6298 48.7139 61.0948 47.8941C60.522 47.0165 59.6421 46.59 58.5808 46.59V48.1518C59.1728 48.1518 59.5329 48.3587 59.7868 48.7477C60.0785 49.1946 60.2799 49.9643 60.2799 51.1709H61.8417ZM58.5808 46.59C57.5194 46.59 56.6396 47.0165 56.0668 47.8941C55.5318 48.7139 55.3199 49.8442 55.3199 51.1709H56.8817C56.8817 49.9643 57.0831 49.1946 57.3748 48.7477C57.6287 48.3587 57.9888 48.1518 58.5808 48.1518V46.59ZM55.3199 51.1709V53.3309H56.8817V51.1709H55.3199ZM55.3199 53.3309C55.3199 54.6576 55.5318 55.788 56.0668 56.6077C56.6396 57.4853 57.5194 57.9118 58.5808 57.9118V56.35C57.9888 56.35 57.6287 56.1432 57.3748 55.7541C57.0831 55.3072 56.8817 54.5375 56.8817 53.3309H55.3199Z" fill="#D26211"/>
<g filter="url(#filter3_ii_71_107257)">
<rect x="16" y="87.0552" width="66" height="19.7086" rx="4.01952" fill="#FFEFA5"/>
<rect x="16" y="87.0552" width="66" height="19.7086" rx="4.01952" fill="url(#paint2_linear_71_107257)"/>
<rect x="16" y="87.0552" width="66" height="19.7086" rx="4.01952" fill="url(#paint3_linear_71_107257)"/>
</g>
<rect x="16" y="87.0552" width="66" height="19.7086" rx="4.01952" stroke="#3F2436" stroke-width="1.23179"/>
<path d="M34.2512 99.4097C33.7445 99.4097 33.3712 99.2863 33.1312 99.0397C32.8978 98.793 32.7812 98.4363 32.7812 97.9697V93.8697H34.2612V98.2597H34.9512V99.4097H34.2512ZM37.4529 99.5097C36.9196 99.5097 36.4929 99.3797 36.1729 99.1197C35.8596 98.853 35.7029 98.4397 35.7029 97.8797C35.7029 97.3597 35.8529 96.9563 36.1529 96.6697C36.4529 96.383 36.8862 96.2397 37.4529 96.2397H39.1029V95.9497C39.1029 95.6163 39.0129 95.363 38.8329 95.1897C38.6596 95.0097 38.3729 94.9197 37.9729 94.9197C37.7796 94.9197 37.6096 94.943 37.4629 94.9897C37.3162 95.0363 37.1829 95.0997 37.0629 95.1797C36.9429 95.253 36.8362 95.3397 36.7429 95.4397C36.6496 95.533 36.5662 95.633 36.4929 95.7397L35.5529 94.9197C35.8062 94.5597 36.1262 94.2763 36.5129 94.0697C36.8996 93.8563 37.4196 93.7497 38.0729 93.7497C38.7662 93.7497 39.3229 93.883 39.7429 94.1497C39.7962 93.9563 39.8929 93.813 40.0329 93.7197C40.1796 93.6263 40.3629 93.5797 40.5829 93.5797H41.6829V94.7997H40.3629V94.8397C40.5096 95.1263 40.5829 95.4797 40.5829 95.8997V99.4097H39.1029V97.1797H37.9829C37.4629 97.1797 37.2029 97.393 37.2029 97.8197V97.9897C37.2029 98.1963 37.2562 98.363 37.3629 98.4897C37.4696 98.6097 37.6262 98.6697 37.8329 98.6697C37.8729 98.6697 37.9129 98.6697 37.9529 98.6697C37.9929 98.6697 38.0329 98.663 38.0729 98.6497L38.1729 99.4397C38.1396 99.453 38.0929 99.463 38.0329 99.4697C37.9796 99.483 37.9162 99.4897 37.8429 99.4897C37.7762 99.4963 37.7062 99.4997 37.6329 99.4997C37.5662 99.5063 37.5062 99.5097 37.4529 99.5097ZM44.2517 99.5297C43.7184 99.5297 43.2651 99.443 42.8917 99.2697C42.5251 99.0963 42.2017 98.853 41.9217 98.5397L42.8117 97.6797C43.0051 97.893 43.2251 98.0663 43.4717 98.1997C43.7251 98.3263 44.0084 98.3897 44.3217 98.3897C44.6284 98.3897 44.8517 98.3397 44.9917 98.2397C45.1317 98.1397 45.2017 98.0097 45.2017 97.8497C45.2017 97.6763 45.1451 97.553 45.0317 97.4797C44.9184 97.3997 44.7651 97.3463 44.5717 97.3197L44.0017 97.2497C43.3951 97.1763 42.9284 96.9997 42.6017 96.7197C42.2817 96.4397 42.1217 96.0497 42.1217 95.5497C42.1217 95.2697 42.1717 95.0197 42.2717 94.7997C42.3784 94.5797 42.5251 94.393 42.7117 94.2397C42.9051 94.0797 43.1317 93.9597 43.3917 93.8797C43.6584 93.793 43.9517 93.7497 44.2717 93.7497C44.5384 93.7497 44.7784 93.7697 44.9917 93.8097C45.2051 93.843 45.3984 93.8963 45.5717 93.9697C45.7517 94.043 45.9151 94.133 46.0617 94.2397C46.2084 94.3463 46.3517 94.4697 46.4917 94.6097L45.6217 95.4697C45.4617 95.2963 45.2651 95.1563 45.0317 95.0497C44.7984 94.943 44.5551 94.8897 44.3017 94.8897C44.0284 94.8897 43.8284 94.9397 43.7017 95.0397C43.5751 95.1397 43.5117 95.2697 43.5117 95.4297C43.5117 95.5897 43.5617 95.7197 43.6617 95.8197C43.7684 95.913 43.9484 95.9763 44.2017 96.0097L44.7717 96.0897C45.0584 96.1297 45.3117 96.1897 45.5317 96.2697C45.7584 96.3497 45.9484 96.4563 46.1017 96.5897C46.2617 96.7163 46.3817 96.873 46.4617 97.0597C46.5484 97.2463 46.5917 97.4697 46.5917 97.7297C46.5917 97.9897 46.5351 98.2297 46.4217 98.4497C46.3084 98.6697 46.1484 98.8597 45.9417 99.0197C45.7417 99.1797 45.4951 99.3063 45.2017 99.3997C44.9151 99.4863 44.5984 99.5297 44.2517 99.5297ZM43.371 93.1497C43.031 93.1497 42.7577 93.0397 42.551 92.8197C42.3377 92.5997 42.231 92.2963 42.231 91.9097C42.231 91.4963 42.3577 91.163 42.611 90.9097C42.8643 90.6563 43.2143 90.5297 43.661 90.5297H46.541V91.3997H43.691C43.5643 91.3997 43.4677 91.4463 43.401 91.5397C43.3343 91.6263 43.301 91.7397 43.301 91.8797C43.301 92.013 43.331 92.1197 43.391 92.1997C43.4443 92.273 43.5277 92.3097 43.641 92.3097C43.7143 92.3097 43.7743 92.293 43.821 92.2597C43.8677 92.2263 43.9043 92.183 43.931 92.1297C43.951 92.0763 43.9677 92.0197 43.981 91.9597C43.9877 91.8997 43.991 91.843 43.991 91.7897H44.771C44.7843 91.903 44.8177 92.0197 44.871 92.1397C44.9243 92.253 45.0177 92.3097 45.151 92.3097C45.2377 92.3097 45.3143 92.2763 45.381 92.2097C45.441 92.1363 45.471 92.033 45.471 91.8997V91.6397H46.541V91.9997C46.541 92.373 46.441 92.6597 46.241 92.8597C46.0343 93.053 45.7543 93.1497 45.401 93.1497C45.3143 93.1497 45.221 93.1397 45.121 93.1197C45.021 93.0997 44.9277 93.0663 44.841 93.0197C44.7477 92.9663 44.6643 92.8997 44.591 92.8197C44.511 92.733 44.4543 92.6263 44.421 92.4997H44.371C44.2977 92.7463 44.1677 92.9163 43.981 93.0097C43.7943 93.103 43.591 93.1497 43.371 93.1497ZM48.1393 97.3697H47.6093V96.2197H48.3693C48.6226 96.2197 48.8193 96.2697 48.9593 96.3697C49.0993 96.4697 49.2093 96.633 49.2893 96.8597L49.7993 98.3097H50.0693C50.276 98.3097 50.4426 98.203 50.5693 97.9897C50.696 97.7697 50.7593 97.463 50.7593 97.0697V96.1497C50.7593 95.763 50.6493 95.463 50.4293 95.2497C50.216 95.0297 49.9126 94.9197 49.5193 94.9197C49.306 94.9197 49.116 94.9497 48.9493 95.0097C48.7893 95.0697 48.646 95.143 48.5193 95.2297C48.3926 95.3097 48.286 95.3997 48.1993 95.4997C48.1126 95.5997 48.0426 95.6897 47.9893 95.7697L47.0893 94.9697C47.196 94.8097 47.3226 94.6563 47.4693 94.5097C47.6226 94.363 47.7993 94.233 47.9993 94.1197C48.206 94.0063 48.4393 93.9163 48.6993 93.8497C48.9593 93.783 49.256 93.7497 49.5893 93.7497C50.0093 93.7497 50.386 93.8163 50.7193 93.9497C51.0593 94.0763 51.346 94.263 51.5793 94.5097C51.8126 94.7563 51.9893 95.0563 52.1093 95.4097C52.236 95.763 52.2993 96.163 52.2993 96.6097C52.2993 97.0497 52.246 97.443 52.1393 97.7897C52.0326 98.1363 51.8793 98.4297 51.6793 98.6697C51.486 98.9097 51.2493 99.093 50.9693 99.2197C50.696 99.3463 50.386 99.4097 50.0393 99.4097H48.8893L48.1393 97.3697ZM54.9431 99.5097C54.4098 99.5097 53.9831 99.3797 53.6631 99.1197C53.3498 98.853 53.1931 98.4397 53.1931 97.8797C53.1931 97.3597 53.3431 96.9563 53.6431 96.6697C53.9431 96.383 54.3765 96.2397 54.9431 96.2397H56.5931V95.9497C56.5931 95.6163 56.5031 95.363 56.3231 95.1897C56.1498 95.0097 55.8631 94.9197 55.4631 94.9197C55.2698 94.9197 55.0998 94.943 54.9531 94.9897C54.8065 95.0363 54.6731 95.0997 54.5531 95.1797C54.4331 95.253 54.3265 95.3397 54.2331 95.4397C54.1398 95.533 54.0565 95.633 53.9831 95.7397L53.0431 94.9197C53.2965 94.5597 53.6165 94.2763 54.0031 94.0697C54.3898 93.8563 54.9098 93.7497 55.5631 93.7497C56.2565 93.7497 56.8131 93.883 57.2331 94.1497C57.2865 93.9563 57.3831 93.813 57.5231 93.7197C57.6698 93.6263 57.8531 93.5797 58.0731 93.5797H59.1731V94.7997H57.8531V94.8397C57.9998 95.1263 58.0731 95.4797 58.0731 95.8997V99.4097H56.5931V97.1797H55.4731C54.9531 97.1797 54.6931 97.393 54.6931 97.8197V97.9897C54.6931 98.1963 54.7465 98.363 54.8531 98.4897C54.9598 98.6097 55.1165 98.6697 55.3231 98.6697C55.3631 98.6697 55.4031 98.6697 55.4431 98.6697C55.4831 98.6697 55.5231 98.663 55.5631 98.6497L55.6631 99.4397C55.6298 99.453 55.5831 99.463 55.5231 99.4697C55.4698 99.483 55.4065 99.4897 55.3331 99.4897C55.2665 99.4963 55.1965 99.4997 55.1231 99.4997C55.0565 99.5063 54.9965 99.5097 54.9431 99.5097ZM53.4542 91.9397H58.0742V93.0197H53.4542V91.9397ZM56.0142 90.7797H56.5942V90.4397C56.5942 90.3463 56.5742 90.2797 56.5342 90.2397C56.4876 90.193 56.4042 90.1697 56.2842 90.1697H56.0142V89.3297H56.7742C57.0542 89.3297 57.2709 89.3897 57.4242 89.5097C57.5709 89.6297 57.6442 89.7963 57.6442 90.0097C57.6442 90.1497 57.6009 90.2863 57.5142 90.4197C57.4276 90.5463 57.3142 90.643 57.1742 90.7097V90.7797H58.7342V91.6297H56.0142V90.7797ZM61.4796 99.5297C60.9063 99.5297 60.4696 99.343 60.1696 98.9697C59.8763 98.5897 59.7296 98.0497 59.7296 97.3497V93.8697H61.2096V97.2197C61.2096 97.3797 61.2229 97.5297 61.2496 97.6697C61.2763 97.803 61.3229 97.9197 61.3896 98.0197C61.4563 98.113 61.5463 98.1897 61.6596 98.2497C61.7796 98.303 61.9263 98.3297 62.0996 98.3297C62.2196 98.3297 62.3396 98.313 62.4596 98.2797C62.5863 98.2397 62.6963 98.183 62.7896 98.1097C62.8829 98.0363 62.9596 97.9463 63.0196 97.8397C63.0796 97.733 63.1096 97.6097 63.1096 97.4697V93.8697H64.5896V98.2597H65.0796V99.4097H64.1896C63.5896 99.4097 63.2796 99.0663 63.2596 98.3797H63.1896C63.1363 98.533 63.0629 98.6797 62.9696 98.8197C62.8829 98.953 62.7696 99.073 62.6296 99.1797C62.4963 99.2863 62.3329 99.3697 62.1396 99.4297C61.9529 99.4963 61.7329 99.5297 61.4796 99.5297Z" fill="#3F2436"/>
<line x1="95.6396" y1="104.691" x2="95.6396" y2="13.6909" stroke="white" stroke-width="0.720759" stroke-dasharray="3.6 3.6"/>
</g>
<rect x="111" y="13.6909" width="218" height="92" rx="7" fill="white" stroke="#53978F" stroke-width="2"/>
<g filter="url(#filter4_i_71_107257)">
<path d="M110 20.6909C110 16.2726 113.582 12.6909 118 12.6909H322C326.418 12.6909 330 16.2726 330 20.6909V35.6909H110V20.6909Z" fill="#53978F"/>
</g>
<path d="M111 20.6909C111 16.8249 114.134 13.6909 118 13.6909H322C325.866 13.6909 329 16.8249 329 20.6909V34.6909H111V20.6909Z" stroke="#53978F" stroke-width="2"/>
<path d="M193.115 29.6909C192.583 29.6909 192.191 29.5556 191.939 29.2849C191.687 29.0143 191.561 28.6363 191.561 28.1509V22.0049H193.087V28.4449H194.179V29.6909H193.115ZM189.363 29.6909C188.831 29.6909 188.439 29.5556 188.187 29.2849C187.935 29.0143 187.809 28.6363 187.809 28.1509V22.0049H189.335V28.4449H190.427V29.6909H189.363ZM197.915 29.8309C197.159 29.8309 196.553 29.6443 196.095 29.2709C195.647 28.8976 195.423 28.3329 195.423 27.5769C195.423 26.8583 195.638 26.3029 196.067 25.9109C196.506 25.5189 197.122 25.3229 197.915 25.3229H200.295V24.7349C200.295 24.1936 200.146 23.7829 199.847 23.5029C199.558 23.2229 199.105 23.0829 198.489 23.0829C197.939 23.0829 197.486 23.1996 197.131 23.4329C196.786 23.6663 196.501 23.9603 196.277 24.3149L195.297 23.4609C195.596 22.9849 196.002 22.5976 196.515 22.2989C197.038 21.9909 197.729 21.8369 198.587 21.8369C199.642 21.8369 200.445 22.0843 200.995 22.5789C201.546 23.0643 201.821 23.7643 201.821 24.6789V29.6909H200.295V26.3449H198.377C197.929 26.3449 197.584 26.4383 197.341 26.6249C197.108 26.8116 196.991 27.0823 196.991 27.4369V27.7169C196.991 28.0716 197.099 28.3516 197.313 28.5569C197.528 28.7623 197.822 28.8649 198.195 28.8649C198.382 28.8649 198.531 28.8509 198.643 28.8229L198.769 29.7469C198.685 29.7656 198.555 29.7843 198.377 29.8029C198.2 29.8216 198.046 29.8309 197.915 29.8309ZM204.62 25.4489L203.416 24.9449C203.453 24.4876 203.565 24.0676 203.752 23.6849C203.948 23.3023 204.204 22.9756 204.522 22.7049C204.839 22.4249 205.212 22.2103 205.642 22.0609C206.071 21.9116 206.538 21.8369 207.042 21.8369C208.152 21.8369 209.016 22.1216 209.632 22.6909C210.248 23.2509 210.556 24.0116 210.556 24.9729V29.6909H209.03V25.1689C209.03 24.4969 208.848 23.9836 208.484 23.6289C208.12 23.2649 207.62 23.0829 206.986 23.0829C206.472 23.0829 206.02 23.1996 205.628 23.4329C205.245 23.6569 204.984 23.9603 204.844 24.3429L205.446 24.5809C205.707 24.6836 205.889 24.8049 205.992 24.9449C206.094 25.0756 206.146 25.2716 206.146 25.5329V29.6909H204.62V25.4489ZM214.882 29.8309C214.126 29.8309 213.519 29.6443 213.062 29.2709C212.614 28.8976 212.39 28.3329 212.39 27.5769C212.39 26.8583 212.605 26.3029 213.034 25.9109C213.473 25.5189 214.089 25.3229 214.882 25.3229H217.262V24.7349C217.262 24.1936 217.113 23.7829 216.814 23.5029C216.525 23.2229 216.072 23.0829 215.456 23.0829C214.905 23.0829 214.453 23.1996 214.098 23.4329C213.753 23.6663 213.468 23.9603 213.244 24.3149L212.264 23.4609C212.563 22.9849 212.969 22.5976 213.482 22.2989C214.005 21.9909 214.695 21.8369 215.554 21.8369C216.441 21.8369 217.145 22.0096 217.668 22.3549C217.752 21.8509 218.069 21.5989 218.62 21.5989H220.342V22.9289H218.256V22.9569C218.611 23.4143 218.788 23.9883 218.788 24.6789V29.6909H217.262V26.3449H215.344C214.896 26.3449 214.551 26.4383 214.308 26.6249C214.075 26.8116 213.958 27.0823 213.958 27.4369V27.7169C213.958 28.0716 214.065 28.3516 214.28 28.5569C214.495 28.7623 214.789 28.8649 215.162 28.8649C215.349 28.8649 215.498 28.8509 215.61 28.8229L215.736 29.7469C215.652 29.7656 215.521 29.7843 215.344 29.8029C215.167 29.8216 215.013 29.8309 214.882 29.8309ZM217.313 17.9169H218.741V20.6329H217.313V17.9169ZM223.813 29.8589C223.421 29.8589 223.048 29.8123 222.693 29.7189C222.338 29.6256 222.026 29.4856 221.755 29.2989L222.329 28.2069C222.516 28.3189 222.721 28.4169 222.945 28.5009C223.178 28.5756 223.444 28.6129 223.743 28.6129C224.303 28.6129 224.732 28.4263 225.031 28.0529C225.339 27.6703 225.493 27.1476 225.493 26.4849V25.2109C225.493 24.5576 225.344 24.0396 225.045 23.6569C224.756 23.2743 224.326 23.0829 223.757 23.0829C223.3 23.0829 222.926 23.1903 222.637 23.4049C222.348 23.6103 222.138 23.8903 222.007 24.2449L220.761 23.6569C220.994 23.0969 221.368 22.6536 221.881 22.3269C222.394 22.0003 223.038 21.8369 223.813 21.8369C224.345 21.8369 224.816 21.9303 225.227 22.1169C225.638 22.3036 225.983 22.5696 226.263 22.9149C226.543 23.2603 226.753 23.6803 226.893 24.1749C227.042 24.6696 227.117 25.2249 227.117 25.8409C227.117 26.4569 227.042 27.0169 226.893 27.5209C226.744 28.0156 226.529 28.4356 226.249 28.7809C225.969 29.1263 225.624 29.3923 225.213 29.5789C224.802 29.7656 224.336 29.8589 223.813 29.8589ZM231.376 29.8589C230.573 29.8589 229.953 29.6023 229.514 29.0889C229.075 28.5663 228.856 27.8289 228.856 26.8769V22.0049H230.382V26.7089C230.382 27.3063 230.503 27.7636 230.746 28.0809C230.998 28.3889 231.399 28.5429 231.95 28.5429C232.155 28.5429 232.361 28.5196 232.566 28.4729C232.771 28.4169 232.953 28.3329 233.112 28.2209C233.28 28.1089 233.411 27.9689 233.504 27.8009C233.607 27.6236 233.658 27.4183 233.658 27.1849V22.0049H235.184V28.4449H235.996V29.6909H234.988C234.596 29.6909 234.302 29.5789 234.106 29.3549C233.91 29.1216 233.803 28.7996 233.784 28.3889H233.714C233.555 28.8183 233.28 29.1729 232.888 29.4529C232.505 29.7236 232.001 29.8589 231.376 29.8589ZM239.779 29.8309C239.023 29.8309 238.416 29.6443 237.959 29.2709C237.511 28.8976 237.287 28.3329 237.287 27.5769C237.287 26.8583 237.501 26.3029 237.931 25.9109C238.369 25.5189 238.985 25.3229 239.779 25.3229H242.159V24.7349C242.159 24.1936 242.009 23.7829 241.711 23.5029C241.421 23.2229 240.969 23.0829 240.353 23.0829C239.802 23.0829 239.349 23.1996 238.995 23.4329C238.649 23.6663 238.365 23.9603 238.141 24.3149L237.161 23.4609C237.459 22.9849 237.865 22.5976 238.379 22.2989C238.901 21.9909 239.592 21.8369 240.451 21.8369C241.505 21.8369 242.308 22.0843 242.859 22.5789C243.409 23.0643 243.685 23.7643 243.685 24.6789V29.6909H242.159V26.3449H240.241C239.793 26.3449 239.447 26.4383 239.205 26.6249C238.971 26.8116 238.855 27.0823 238.855 27.4369V27.7169C238.855 28.0716 238.962 28.3516 239.177 28.5569C239.391 28.7623 239.685 28.8649 240.059 28.8649C240.245 28.8649 240.395 28.8509 240.507 28.8229L240.633 29.7469C240.549 29.7656 240.418 29.7843 240.241 29.8029C240.063 29.8216 239.909 29.8309 239.779 29.8309ZM248.779 29.8589C247.715 29.8589 246.889 29.5043 246.301 28.7949C245.713 28.0763 245.419 27.0916 245.419 25.8409C245.419 25.2343 245.503 24.6836 245.671 24.1889C245.848 23.6943 246.096 23.2743 246.413 22.9289C246.74 22.5743 247.132 22.3036 247.589 22.1169C248.046 21.9303 248.56 21.8369 249.129 21.8369C249.652 21.8369 250.128 21.9163 250.557 22.0749C250.986 22.2243 251.35 22.4389 251.649 22.7189C251.957 22.9989 252.19 23.3396 252.349 23.7409C252.517 24.1329 252.601 24.5716 252.601 25.0569V29.6909H251.075V25.1829C251.075 24.5203 250.898 24.0069 250.543 23.6429C250.188 23.2696 249.703 23.0829 249.087 23.0829C248.443 23.0829 247.939 23.2836 247.575 23.6849C247.22 24.0863 247.043 24.6323 247.043 25.3229V26.3449C247.043 27.0823 247.202 27.6469 247.519 28.0389C247.846 28.4216 248.34 28.6129 249.003 28.6129C249.208 28.6129 249.4 28.5943 249.577 28.5569L249.759 29.7609C249.619 29.7983 249.451 29.8216 249.255 29.8309C249.068 29.8496 248.91 29.8589 248.779 29.8589Z" fill="white"/>
<path d="M124.6 65.8909C123.52 65.8909 122.66 65.6309 122.02 65.1109C121.38 64.5776 121.06 63.7576 121.06 62.6509C121.06 61.6109 121.367 60.8109 121.98 60.2509C122.593 59.6909 123.467 59.4109 124.6 59.4109H127.96V58.6909C127.96 57.9709 127.767 57.4243 127.38 57.0509C126.993 56.6643 126.38 56.4709 125.54 56.4709C124.753 56.4709 124.12 56.6443 123.64 56.9909C123.16 57.3243 122.767 57.7176 122.46 58.1709L120.84 56.7509C121.067 56.4043 121.327 56.0909 121.62 55.8109C121.927 55.5176 122.273 55.2709 122.66 55.0709C123.06 54.8576 123.507 54.6976 124 54.5909C124.507 54.4709 125.073 54.4109 125.7 54.4109C126.993 54.4109 128.053 54.6709 128.88 55.1909C128.947 54.8043 129.107 54.5309 129.36 54.3709C129.627 54.1976 129.967 54.1109 130.38 54.1109H132.72V56.2309H129.92V56.3109C130.32 56.9109 130.52 57.6709 130.52 58.5909V65.6909H127.96V61.0709H125.46C124.273 61.0709 123.68 61.5443 123.68 62.4909V62.8709C123.68 63.3376 123.813 63.7043 124.08 63.9709C124.347 64.2376 124.713 64.3709 125.18 64.3709C125.393 64.3709 125.58 64.3509 125.74 64.3109L125.92 65.7509C125.813 65.7909 125.62 65.8243 125.34 65.8509C125.06 65.8776 124.813 65.8909 124.6 65.8909ZM128.087 48.8109H130.447V52.8309H128.087V48.8109ZM137.537 65.9309C136.95 65.9309 136.39 65.8576 135.857 65.7109C135.337 65.5776 134.877 65.3709 134.477 65.0909L135.417 63.2709C135.67 63.4176 135.957 63.5576 136.277 63.6909C136.597 63.8109 136.977 63.8709 137.417 63.8709C138.137 63.8709 138.683 63.6309 139.057 63.1509C139.443 62.6576 139.637 61.9909 139.637 61.1509V59.2109C139.637 58.3709 139.45 57.7043 139.077 57.2109C138.703 56.7176 138.15 56.4709 137.417 56.4709C136.803 56.4709 136.31 56.6243 135.937 56.9309C135.563 57.2376 135.303 57.6243 135.157 58.0909L133.077 57.1709C133.41 56.3176 133.95 55.6443 134.697 55.1509C135.457 54.6576 136.403 54.4109 137.537 54.4109C138.31 54.4109 138.99 54.5443 139.577 54.8109C140.177 55.0776 140.677 55.4643 141.077 55.9709C141.49 56.4643 141.797 57.0643 141.997 57.7709C142.21 58.4776 142.317 59.2709 142.317 60.1509C142.317 61.0443 142.21 61.8509 141.997 62.5709C141.797 63.2776 141.49 63.8843 141.077 64.3909C140.677 64.8843 140.177 65.2643 139.577 65.5309C138.99 65.7976 138.31 65.9309 137.537 65.9309ZM148.162 65.9309C147.016 65.9309 146.136 65.5576 145.522 64.8109C144.909 64.0643 144.602 62.9976 144.602 61.6109V54.6509H147.162V61.3709C147.162 62.1309 147.309 62.7309 147.602 63.1709C147.909 63.6109 148.436 63.8309 149.182 63.8309C149.462 63.8309 149.736 63.7909 150.002 63.7109C150.269 63.6309 150.502 63.5176 150.702 63.3709C150.916 63.2109 151.089 63.0176 151.222 62.7909C151.356 62.5509 151.422 62.2776 151.422 61.9709V54.6509H153.982V63.6509H155.042V65.6909H153.442C152.296 65.6909 151.702 65.0376 151.662 63.7309H151.542C151.316 64.3443 150.929 64.8643 150.382 65.2909C149.849 65.7176 149.109 65.9309 148.162 65.9309ZM160.323 65.8909C159.243 65.8909 158.383 65.6309 157.743 65.1109C157.103 64.5776 156.783 63.7576 156.783 62.6509C156.783 61.6109 157.089 60.8109 157.703 60.2509C158.316 59.6909 159.189 59.4109 160.323 59.4109H163.683V58.6909C163.683 57.9709 163.489 57.4243 163.103 57.0509C162.716 56.6643 162.103 56.4709 161.263 56.4709C160.476 56.4709 159.843 56.6443 159.363 56.9909C158.883 57.3243 158.489 57.7176 158.183 58.1709L156.563 56.7509C156.789 56.4043 157.049 56.0909 157.343 55.8109C157.649 55.5176 157.996 55.2709 158.383 55.0709C158.783 54.8576 159.229 54.6976 159.723 54.5909C160.229 54.4709 160.796 54.4109 161.423 54.4109C163.009 54.4109 164.209 54.7709 165.023 55.4909C165.836 56.2109 166.243 57.2443 166.243 58.5909V65.6909H163.683V61.0709H161.183C159.996 61.0709 159.403 61.5443 159.403 62.4909V62.8709C159.403 63.3376 159.536 63.7043 159.803 63.9709C160.069 64.2376 160.436 64.3709 160.903 64.3709C161.116 64.3709 161.303 64.3509 161.463 64.3109L161.643 65.7509C161.536 65.7909 161.343 65.8243 161.063 65.8509C160.783 65.8776 160.536 65.8909 160.323 65.8909ZM173.378 65.9309C172.618 65.9309 171.931 65.7976 171.318 65.5309C170.718 65.2643 170.211 64.8843 169.798 64.3909C169.384 63.8976 169.064 63.2976 168.838 62.5909C168.624 61.8709 168.518 61.0643 168.518 60.1709C168.518 59.2909 168.638 58.4976 168.878 57.7909C169.131 57.0843 169.484 56.4843 169.938 55.9909C170.404 55.4843 170.964 55.0976 171.618 54.8309C172.284 54.5509 173.024 54.4109 173.838 54.4109C174.611 54.4109 175.311 54.5243 175.938 54.7509C176.564 54.9643 177.098 55.2776 177.538 55.6909C177.978 56.0909 178.318 56.5843 178.558 57.1709C178.798 57.7443 178.918 58.3909 178.918 59.1109V65.6909H176.358V59.2709C176.358 58.3909 176.131 57.7043 175.678 57.2109C175.238 56.7176 174.618 56.4709 173.818 56.4709C172.991 56.4709 172.344 56.7376 171.878 57.2709C171.424 57.7909 171.198 58.5109 171.198 59.4309V60.8909C171.198 62.8776 172.031 63.8709 173.698 63.8709C173.844 63.8709 173.971 63.8709 174.078 63.8709C174.198 63.8576 174.318 63.8376 174.438 63.8109L174.738 65.8109C174.524 65.8643 174.284 65.8976 174.018 65.9109C173.764 65.9243 173.551 65.9309 173.378 65.9309ZM186.82 65.6909V63.5509H190.66V53.6309H190.48L187.44 57.2309L185.8 55.8509L189.26 51.7309H193.24V63.5509H196.44V65.6909H186.82ZM202.992 65.9309C202.099 65.9309 201.326 65.7709 200.672 65.4509C200.019 65.1176 199.479 64.6443 199.052 64.0309C198.626 63.4176 198.306 62.6643 198.092 61.7709C197.892 60.8776 197.792 59.8576 197.792 58.7109C197.792 57.5776 197.892 56.5643 198.092 55.6709C198.306 54.7643 198.626 54.0043 199.052 53.3909C199.479 52.7776 200.019 52.3109 200.672 51.9909C201.326 51.6576 202.099 51.4909 202.992 51.4909C204.766 51.4909 206.072 52.1243 206.912 53.3909C207.766 54.6576 208.192 56.4309 208.192 58.7109C208.192 60.9909 207.766 62.7643 206.912 64.0309C206.072 65.2976 204.766 65.9309 202.992 65.9309ZM202.992 63.7109C203.886 63.7109 204.506 63.3776 204.852 62.7109C205.212 62.0309 205.392 61.1176 205.392 59.9709V57.4509C205.392 56.3043 205.212 55.3976 204.852 54.7309C204.506 54.0509 203.886 53.7109 202.992 53.7109C202.099 53.7109 201.472 54.0509 201.112 54.7309C200.766 55.3976 200.592 56.3043 200.592 57.4509V59.9709C200.592 61.1176 200.766 62.0309 201.112 62.7109C201.472 63.3776 202.099 63.7109 202.992 63.7109ZM212.584 65.6909L222.264 51.7309H224.584L214.904 65.6909H212.584ZM213.544 59.4109C212.411 59.4109 211.544 59.0776 210.944 58.4109C210.358 57.7309 210.064 56.7443 210.064 55.4509C210.064 54.1576 210.358 53.1776 210.944 52.5109C211.544 51.8309 212.411 51.4909 213.544 51.4909C214.678 51.4909 215.538 51.8309 216.124 52.5109C216.711 53.1776 217.004 54.1576 217.004 55.4509C217.004 56.7443 216.711 57.7309 216.124 58.4109C215.538 59.0776 214.678 59.4109 213.544 59.4109ZM213.544 57.8909C214.371 57.8909 214.784 57.2576 214.784 55.9909V54.9109C214.784 53.6443 214.371 53.0109 213.544 53.0109C212.718 53.0109 212.304 53.6443 212.304 54.9109V55.9909C212.304 57.2576 212.718 57.8909 213.544 57.8909ZM223.624 65.9309C222.504 65.9309 221.644 65.5976 221.044 64.9309C220.458 64.2509 220.164 63.2643 220.164 61.9709C220.164 60.6776 220.458 59.6976 221.044 59.0309C221.644 58.3509 222.504 58.0109 223.624 58.0109C224.758 58.0109 225.618 58.3509 226.204 59.0309C226.804 59.6976 227.104 60.6776 227.104 61.9709C227.104 63.2643 226.804 64.2509 226.204 64.9309C225.618 65.5976 224.758 65.9309 223.624 65.9309ZM223.624 64.4109C224.451 64.4109 224.864 63.7776 224.864 62.5109V61.4309C224.864 60.1643 224.451 59.5309 223.624 59.5309C222.798 59.5309 222.384 60.1643 222.384 61.4309V62.5109C222.384 63.7776 222.798 64.4109 223.624 64.4109Z" fill="#3F2436"/>
<path d="M121.304 92.0989L120.696 91.6749L121.544 90.6189L120.272 90.2509L120.504 89.5549L121.728 90.0349L121.672 88.7149H122.432L122.376 90.0349L123.6 89.5549L123.84 90.2509L122.56 90.6189L123.408 91.6749L122.8 92.0989L122.048 90.9789L121.304 92.0989ZM125.813 94.6909C125.509 94.6909 125.285 94.6136 125.141 94.4589C124.997 94.3043 124.925 94.0883 124.925 93.8109V90.2989H125.797V93.9789H126.421V94.6909H125.813ZM129.488 94.7869C129.301 94.7869 129.136 94.7629 128.992 94.7149C128.853 94.6723 128.733 94.6136 128.632 94.5389C128.531 94.4589 128.445 94.3709 128.376 94.2749C128.307 94.1736 128.253 94.0696 128.216 93.9629H128.176V94.6909H127.304V90.2989H128.176V93.2589C128.176 93.3923 128.205 93.5096 128.264 93.6109C128.323 93.7069 128.397 93.7869 128.488 93.8509C128.579 93.9149 128.683 93.9629 128.8 93.9949C128.917 94.0216 129.037 94.0349 129.16 94.0349C129.496 94.0349 129.733 93.9443 129.872 93.7629C130.016 93.5763 130.088 93.3176 130.088 92.9869V90.2989H130.96V93.0829C130.96 93.6323 130.832 94.0536 130.576 94.3469C130.32 94.6403 129.957 94.7869 129.488 94.7869ZM127.505 88.8269H128.921V88.1949H129.641V88.8909H130.233V88.1949H130.953V89.5149H127.505V88.8269ZM130.193 86.5309H130.953V87.7549H130.193V86.5309ZM133.805 94.7869C133.538 94.7869 133.288 94.7496 133.053 94.6749C132.824 94.5949 132.624 94.4883 132.453 94.3549C132.288 94.2163 132.157 94.0509 132.061 93.8589C131.965 93.6669 131.917 93.4536 131.917 93.2189V92.8189C131.917 92.6323 131.96 92.4883 132.045 92.3869C132.13 92.2803 132.285 92.2269 132.509 92.2269H133.405V92.9149H132.741V93.1549C132.741 93.4749 132.84 93.7096 133.037 93.8589C133.24 94.0029 133.509 94.0749 133.845 94.0749C134.192 94.0749 134.458 93.9683 134.645 93.7549C134.837 93.5416 134.933 93.2403 134.933 92.8509V92.1629C134.933 91.7683 134.826 91.4616 134.613 91.2429C134.405 91.0243 134.109 90.9149 133.725 90.9149C133.405 90.9149 133.13 90.9816 132.901 91.1149C132.677 91.2483 132.506 91.4083 132.389 91.5949L131.845 91.1069C132 90.8509 132.237 90.6376 132.557 90.4669C132.877 90.2909 133.28 90.2029 133.765 90.2029C134.426 90.2029 134.941 90.4056 135.309 90.8109C135.677 91.2109 135.861 91.7709 135.861 92.4909C135.861 92.8429 135.816 93.1629 135.725 93.4509C135.634 93.7336 135.501 93.9736 135.325 94.1709C135.149 94.3683 134.933 94.5203 134.677 94.6269C134.421 94.7336 134.13 94.7869 133.805 94.7869ZM140.114 94.6909C139.81 94.6909 139.586 94.6136 139.442 94.4589C139.298 94.3043 139.226 94.0883 139.226 93.8109V90.2989H140.098V93.9789H140.722V94.6909H140.114ZM137.97 94.6909C137.666 94.6909 137.442 94.6136 137.298 94.4589C137.154 94.3043 137.082 94.0883 137.082 93.8109V90.2989H137.954V93.9789H138.578V94.6909H137.97ZM142.857 94.7709C142.425 94.7709 142.078 94.6643 141.817 94.4509C141.561 94.2376 141.433 93.9149 141.433 93.4829C141.433 93.0723 141.555 92.7549 141.801 92.5309C142.051 92.3069 142.403 92.1949 142.857 92.1949H144.217V91.8589C144.217 91.5496 144.131 91.3149 143.961 91.1549C143.795 90.9949 143.537 90.9149 143.185 90.9149C142.87 90.9149 142.611 90.9816 142.409 91.1149C142.211 91.2483 142.049 91.4163 141.921 91.6189L141.361 91.1309C141.531 90.8589 141.763 90.6376 142.057 90.4669C142.355 90.2909 142.75 90.2029 143.241 90.2029C143.843 90.2029 144.302 90.3443 144.617 90.6269C144.931 90.9043 145.089 91.3043 145.089 91.8269V94.6909H144.217V92.7789H143.121C142.865 92.7789 142.667 92.8323 142.529 92.9389C142.395 93.0456 142.329 93.2003 142.329 93.4029V93.5629C142.329 93.7656 142.39 93.9256 142.513 94.0429C142.635 94.1603 142.803 94.2189 143.017 94.2189C143.123 94.2189 143.209 94.2109 143.273 94.1949L143.345 94.7229C143.297 94.7336 143.222 94.7443 143.121 94.7549C143.019 94.7656 142.931 94.7709 142.857 94.7709ZM146.688 92.2669L146 91.9789C146.021 91.7176 146.085 91.4776 146.192 91.2589C146.304 91.0403 146.451 90.8536 146.632 90.6989C146.813 90.5389 147.027 90.4163 147.272 90.3309C147.517 90.2456 147.784 90.2029 148.072 90.2029C148.707 90.2029 149.2 90.3656 149.552 90.6909C149.904 91.0109 150.08 91.4456 150.08 91.9949V94.6909H149.208V92.1069C149.208 91.7229 149.104 91.4296 148.896 91.2269C148.688 91.0189 148.403 90.9149 148.04 90.9149C147.747 90.9149 147.488 90.9816 147.264 91.1149C147.045 91.2429 146.896 91.4163 146.816 91.6349L147.16 91.7709C147.309 91.8296 147.413 91.8989 147.472 91.9789C147.531 92.0536 147.56 92.1656 147.56 92.3149V94.6909H146.688V92.2669ZM154.512 94.6909C154.208 94.6909 153.984 94.6136 153.84 94.4589C153.696 94.3043 153.624 94.0883 153.624 93.8109V90.2989H154.496V93.9789H155.12V94.6909H154.512ZM152.368 94.6909C152.064 94.6909 151.84 94.6136 151.696 94.4589C151.552 94.3043 151.48 94.0883 151.48 93.8109V90.2989H152.352V93.9789H152.976V94.6909H152.368ZM157.255 94.7709C156.823 94.7709 156.477 94.6643 156.215 94.4509C155.959 94.2376 155.831 93.9149 155.831 93.4829C155.831 93.0723 155.954 92.7549 156.199 92.5309C156.45 92.3069 156.802 92.1949 157.255 92.1949H158.615V91.8589C158.615 91.5496 158.53 91.3149 158.359 91.1549C158.194 90.9949 157.935 90.9149 157.583 90.9149C157.269 90.9149 157.01 90.9816 156.807 91.1149C156.61 91.2483 156.447 91.4163 156.319 91.6189L155.759 91.1309C155.93 90.8589 156.162 90.6376 156.455 90.4669C156.754 90.2909 157.149 90.2029 157.639 90.2029C158.242 90.2029 158.701 90.3443 159.015 90.6269C159.33 90.9043 159.487 91.3043 159.487 91.8269V94.6909H158.615V92.7789H157.519C157.263 92.7789 157.066 92.8323 156.927 92.9389C156.794 93.0456 156.727 93.2003 156.727 93.4029V93.5629C156.727 93.7656 156.789 93.9256 156.911 94.0429C157.034 94.1603 157.202 94.2189 157.415 94.2189C157.522 94.2189 157.607 94.2109 157.671 94.1949L157.743 94.7229C157.695 94.7336 157.621 94.7443 157.519 94.7549C157.418 94.7656 157.33 94.7709 157.255 94.7709ZM158.044 88.8269H158.612V88.5469C158.612 88.4296 158.588 88.3469 158.54 88.2989C158.487 88.2456 158.394 88.2189 158.26 88.2189H158.044V87.5949H158.58C158.836 87.5949 159.031 87.6509 159.164 87.7629C159.292 87.8696 159.356 88.0163 159.356 88.2029C159.356 88.3149 159.327 88.4269 159.268 88.5389C159.204 88.6456 159.111 88.7283 158.988 88.7869V88.8269H160.428V89.4509H158.044V88.8269ZM162.038 94.7869C161.814 94.7869 161.601 94.7603 161.398 94.7069C161.196 94.6536 161.017 94.5736 160.862 94.4669L161.19 93.8429C161.297 93.9069 161.414 93.9629 161.542 94.0109C161.676 94.0536 161.828 94.0749 161.998 94.0749C162.318 94.0749 162.564 93.9683 162.734 93.7549C162.91 93.5363 162.998 93.2376 162.998 92.8589V92.1309C162.998 91.7576 162.913 91.4616 162.742 91.2429C162.577 91.0243 162.332 90.9149 162.006 90.9149C161.745 90.9149 161.532 90.9763 161.366 91.0989C161.201 91.2163 161.081 91.3763 161.006 91.5789L160.294 91.2429C160.428 90.9229 160.641 90.6696 160.934 90.4829C161.228 90.2963 161.596 90.2029 162.038 90.2029C162.342 90.2029 162.612 90.2563 162.846 90.3629C163.081 90.4696 163.278 90.6216 163.438 90.8189C163.598 91.0163 163.718 91.2563 163.798 91.5389C163.884 91.8216 163.926 92.1389 163.926 92.4909C163.926 92.8429 163.884 93.1629 163.798 93.4509C163.713 93.7336 163.59 93.9736 163.43 94.1709C163.27 94.3683 163.073 94.5203 162.838 94.6269C162.604 94.7336 162.337 94.7869 162.038 94.7869ZM166.224 94.7709C165.792 94.7709 165.445 94.6643 165.184 94.4509C164.928 94.2376 164.8 93.9149 164.8 93.4829C164.8 93.0723 164.923 92.7549 165.168 92.5309C165.419 92.3069 165.771 92.1949 166.224 92.1949H167.584V91.8589C167.584 91.5496 167.499 91.3149 167.328 91.1549C167.163 90.9949 166.904 90.9149 166.552 90.9149C166.237 90.9149 165.979 90.9816 165.776 91.1149C165.579 91.2483 165.416 91.4163 165.288 91.6189L164.728 91.1309C164.899 90.8589 165.131 90.6376 165.424 90.4669C165.723 90.2909 166.117 90.2029 166.608 90.2029C167.115 90.2029 167.517 90.3016 167.816 90.4989C167.864 90.2109 168.045 90.0669 168.36 90.0669H169.344V90.8269H168.152V90.8429C168.355 91.1043 168.456 91.4323 168.456 91.8269V94.6909H167.584V92.7789H166.488C166.232 92.7789 166.035 92.8323 165.896 92.9389C165.763 93.0456 165.696 93.2003 165.696 93.4029V93.5629C165.696 93.7656 165.757 93.9256 165.88 94.0429C166.003 94.1603 166.171 94.2189 166.384 94.2189C166.491 94.2189 166.576 94.2109 166.64 94.1949L166.712 94.7229C166.664 94.7336 166.589 94.7443 166.488 94.7549C166.387 94.7656 166.299 94.7709 166.224 94.7709ZM171.895 91.7149C171.895 91.4589 171.829 91.2616 171.695 91.1229C171.562 90.9843 171.351 90.9149 171.063 90.9149C170.818 90.9149 170.621 90.9683 170.471 91.0749C170.322 91.1763 170.194 91.3096 170.087 91.4749L169.559 91.0109C169.703 90.7709 169.898 90.5763 170.143 90.4269C170.389 90.2776 170.714 90.2029 171.119 90.2029C171.653 90.2029 172.061 90.3283 172.343 90.5789C172.626 90.8296 172.767 91.1896 172.767 91.6589V94.6909H171.895V91.7149ZM176.168 94.7869C175.981 94.7869 175.816 94.7629 175.672 94.7149C175.533 94.6723 175.413 94.6136 175.312 94.5389C175.21 94.4589 175.125 94.3709 175.056 94.2749C174.986 94.1736 174.933 94.0696 174.896 93.9629H174.856V94.6909H173.984V90.2989H174.856V93.2589C174.856 93.3923 174.885 93.5096 174.944 93.6109C175.002 93.7069 175.077 93.7869 175.168 93.8509C175.258 93.9149 175.362 93.9629 175.48 93.9949C175.597 94.0216 175.717 94.0349 175.84 94.0349C176.176 94.0349 176.413 93.9443 176.552 93.7629C176.696 93.5763 176.768 93.3176 176.768 92.9869V90.2989H177.64V93.0829C177.64 93.6323 177.512 94.0536 177.256 94.3469C177 94.6403 176.637 94.7869 176.168 94.7869ZM180.755 91.7149C180.755 91.4589 180.688 91.2616 180.555 91.1229C180.421 90.9843 180.211 90.9149 179.923 90.9149C179.677 90.9149 179.48 90.9683 179.331 91.0749C179.181 91.1763 179.053 91.3096 178.947 91.4749L178.419 91.0109C178.563 90.7709 178.757 90.5763 179.003 90.4269C179.248 90.2776 179.573 90.2029 179.979 90.2029C180.512 90.2029 180.92 90.3283 181.203 90.5789C181.485 90.8296 181.627 91.1896 181.627 91.6589V94.6909H180.755V91.7149ZM184.403 94.7869C183.992 94.7869 183.643 94.7176 183.355 94.5789C183.072 94.4349 182.824 94.2349 182.611 93.9789L183.163 93.4589C183.323 93.6616 183.51 93.8163 183.723 93.9229C183.936 94.0296 184.179 94.0829 184.451 94.0829C184.739 94.0829 184.952 94.0323 185.091 93.9309C185.235 93.8243 185.307 93.6749 185.307 93.4829C185.307 93.3123 185.251 93.1816 185.139 93.0909C185.032 92.9949 184.862 92.9309 184.627 92.8989L184.219 92.8429C184.022 92.8163 183.835 92.7736 183.659 92.7149C183.483 92.6563 183.328 92.5763 183.195 92.4749C183.067 92.3736 182.963 92.2483 182.883 92.0989C182.808 91.9496 182.771 91.7656 182.771 91.5469C182.771 91.3336 182.811 91.1443 182.891 90.9789C182.971 90.8083 183.083 90.6669 183.227 90.5549C183.371 90.4376 183.542 90.3496 183.739 90.2909C183.942 90.2323 184.163 90.2029 184.403 90.2029C184.803 90.2029 185.131 90.2643 185.387 90.3869C185.643 90.5043 185.87 90.6696 186.067 90.8829L185.539 91.4109C185.416 91.2723 185.259 91.1549 185.067 91.0589C184.875 90.9629 184.654 90.9149 184.403 90.9149C184.142 90.9149 183.944 90.9656 183.811 91.0669C183.678 91.1683 183.611 91.3069 183.611 91.4829C183.611 91.6696 183.672 91.8083 183.795 91.8989C183.918 91.9896 184.099 92.0509 184.339 92.0829L184.747 92.1469C184.955 92.1789 185.144 92.2243 185.315 92.2829C185.491 92.3416 185.64 92.4216 185.763 92.5229C185.886 92.6189 185.979 92.7389 186.043 92.8829C186.112 93.0269 186.147 93.2003 186.147 93.4029C186.147 93.6109 186.104 93.8003 186.019 93.9709C185.939 94.1416 185.822 94.2883 185.667 94.4109C185.518 94.5283 185.334 94.6216 185.115 94.6909C184.902 94.7549 184.664 94.7869 184.403 94.7869ZM188.459 94.6909C188.155 94.6909 187.928 94.6136 187.779 94.4589C187.635 94.3043 187.563 94.0883 187.563 93.8109V92.2669L186.875 91.9789C186.896 91.7176 186.96 91.4776 187.067 91.2589C187.179 91.0403 187.326 90.8536 187.507 90.6989C187.694 90.5389 187.91 90.4163 188.155 90.3309C188.4 90.2456 188.667 90.2029 188.955 90.2029C189.59 90.2029 190.08 90.3656 190.427 90.6909C190.779 91.0109 190.955 91.4456 190.955 91.9949V94.6909H190.083V92.1069C190.083 91.7229 189.979 91.4296 189.771 91.2269C189.568 91.0189 189.286 90.9149 188.923 90.9149C188.624 90.9149 188.363 90.9816 188.139 91.1149C187.92 91.2429 187.771 91.4163 187.691 91.6349L188.035 91.7709C188.184 91.8296 188.288 91.8989 188.347 91.9789C188.406 92.0536 188.435 92.1656 188.435 92.3149V93.9789H188.899V94.6909H188.459ZM193.251 94.6909C192.947 94.6909 192.72 94.6136 192.571 94.4589C192.427 94.3043 192.355 94.0883 192.355 93.8109V90.5709C192.355 90.4429 192.374 90.3283 192.411 90.2269C192.448 90.1256 192.496 90.0349 192.555 89.9549C192.614 89.8696 192.678 89.7923 192.747 89.7229C192.822 89.6483 192.894 89.5763 192.963 89.5069C193.064 89.4109 193.15 89.3096 193.219 89.2029C193.294 89.0963 193.331 88.9709 193.331 88.8269C193.331 88.6403 193.275 88.4989 193.163 88.4029C193.056 88.3069 192.915 88.2589 192.739 88.2589C192.542 88.2589 192.379 88.3176 192.251 88.4349C192.128 88.5469 192.035 88.7123 191.971 88.9309L191.315 88.5629C191.422 88.2696 191.595 88.0296 191.835 87.8429C192.075 87.6509 192.406 87.5549 192.827 87.5549C193.243 87.5549 193.571 87.6643 193.811 87.8829C194.051 88.0963 194.171 88.3789 194.171 88.7309C194.171 88.9656 194.118 89.1603 194.011 89.3149C193.91 89.4696 193.798 89.6136 193.675 89.7469C193.563 89.8696 193.459 89.9923 193.363 90.1149C193.272 90.2376 193.227 90.3789 193.227 90.5389V93.9789H193.851V94.6909H193.251ZM196.366 94.7869C196.099 94.7869 195.856 94.7549 195.638 94.6909C195.424 94.6269 195.24 94.5309 195.086 94.4029C194.931 94.2749 194.811 94.1123 194.726 93.9149C194.64 93.7176 194.598 93.4856 194.598 93.2189C194.598 92.9149 194.638 92.6749 194.718 92.4989C194.803 92.3176 194.899 92.1549 195.006 92.0109C195.107 91.8776 195.19 91.7416 195.254 91.6029C195.318 91.4643 195.35 91.3229 195.35 91.1789V91.0269H194.542V90.2989H195.454C195.694 90.2989 195.878 90.3576 196.006 90.4749C196.139 90.5869 196.206 90.7416 196.206 90.9389V90.9949C196.206 91.1709 196.174 91.3416 196.11 91.5069C196.051 91.6669 195.96 91.8536 195.838 92.0669C195.742 92.2376 195.664 92.3949 195.606 92.5389C195.552 92.6776 195.526 92.8403 195.526 93.0269V93.2589C195.526 93.5256 195.598 93.7283 195.742 93.8669C195.891 94.0056 196.094 94.0749 196.35 94.0749C196.606 94.0749 196.806 94.0056 196.95 93.8669C197.099 93.7283 197.174 93.5256 197.174 93.2589V92.6429C197.174 92.3976 197.131 92.2083 197.046 92.0749C196.966 91.9416 196.832 91.8749 196.646 91.8749H196.494V91.2109H196.686C196.846 91.2109 196.976 91.1656 197.078 91.0749C197.179 90.9789 197.23 90.8243 197.23 90.6109V90.1389H198.086V90.5469C198.086 90.7869 198.014 90.9896 197.87 91.1549C197.731 91.3149 197.531 91.4163 197.27 91.4589V91.5069C197.542 91.5923 197.747 91.7603 197.886 92.0109C198.03 92.2563 198.102 92.5789 198.102 92.9789C198.102 93.5389 197.958 93.9816 197.67 94.3069C197.387 94.6269 196.952 94.7869 196.366 94.7869ZM196.646 88.8269H197.214V88.5469C197.214 88.4296 197.19 88.3469 197.142 88.2989C197.089 88.2456 196.995 88.2189 196.862 88.2189H196.646V87.5949H197.182C197.438 87.5949 197.633 87.6509 197.766 87.7629C197.894 87.8696 197.958 88.0163 197.958 88.2029C197.958 88.3149 197.929 88.4269 197.87 88.5389C197.806 88.6456 197.713 88.7283 197.59 88.7869V88.8269H199.03V89.4509H196.646V88.8269ZM201.087 94.6909C200.783 94.6909 200.556 94.6136 200.407 94.4589C200.263 94.3043 200.191 94.0883 200.191 93.8109V89.4589C200.191 89.2989 200.212 89.1576 200.255 89.0349C200.298 88.9123 200.354 88.8083 200.423 88.7229C200.492 88.6323 200.572 88.5576 200.663 88.4989C200.759 88.4403 200.858 88.3949 200.959 88.3629V88.3309H199.223V87.6349H201.895V88.3309H201.799C201.564 88.3309 201.383 88.4003 201.255 88.5389C201.127 88.6723 201.063 88.8643 201.063 89.1149V93.9789H201.687V94.6909H201.087ZM204.266 94.7869C203.658 94.7869 203.186 94.5843 202.85 94.1789C202.514 93.7683 202.346 93.2056 202.346 92.4909C202.346 92.1443 202.394 91.8296 202.49 91.5469C202.591 91.2643 202.732 91.0243 202.914 90.8269C203.1 90.6243 203.324 90.4696 203.586 90.3629C203.847 90.2563 204.14 90.2029 204.466 90.2029C204.764 90.2029 205.036 90.2483 205.282 90.3389C205.527 90.4243 205.735 90.5469 205.906 90.7069C206.082 90.8669 206.215 91.0616 206.306 91.2909C206.402 91.5149 206.45 91.7656 206.45 92.0429V94.6909H205.578V92.1149C205.578 91.7363 205.476 91.4429 205.274 91.2349C205.071 91.0216 204.794 90.9149 204.442 90.9149C204.074 90.9149 203.786 91.0296 203.578 91.2589C203.375 91.4883 203.274 91.8003 203.274 92.1949V92.7789C203.274 93.2003 203.364 93.5229 203.546 93.7469C203.732 93.9656 204.015 94.0749 204.394 94.0749C204.511 94.0749 204.62 94.0643 204.722 94.0429L204.826 94.7309C204.746 94.7523 204.65 94.7656 204.538 94.7709C204.431 94.7816 204.34 94.7869 204.266 94.7869ZM205.013 88.8269H205.581V88.5469C205.581 88.4296 205.557 88.3469 205.509 88.2989C205.456 88.2456 205.362 88.2189 205.229 88.2189H205.013V87.5949H205.549C205.805 87.5949 206 87.6509 206.133 87.7629C206.261 87.8696 206.325 88.0163 206.325 88.2029C206.325 88.3149 206.296 88.4269 206.237 88.5389C206.173 88.6456 206.08 88.7283 205.957 88.7869V88.8269H207.397V89.4509H205.013V88.8269ZM207.647 93.9789H208.111V92.2669L207.423 91.9789C207.439 91.7176 207.501 91.4776 207.607 91.2589C207.719 91.0403 207.863 90.8536 208.039 90.6989C208.221 90.5389 208.431 90.4163 208.671 90.3309C208.917 90.2456 209.183 90.2029 209.471 90.2029C209.786 90.2029 210.066 90.2456 210.311 90.3309C210.557 90.4163 210.762 90.5363 210.927 90.6909C211.098 90.8456 211.226 91.0349 211.311 91.2589C211.402 91.4776 211.447 91.7229 211.447 91.9949V94.6909H210.575V92.1069C210.575 91.7229 210.474 91.4296 210.271 91.2269C210.074 91.0189 209.799 90.9149 209.447 90.9149C209.154 90.9149 208.898 90.9816 208.679 91.1149C208.461 91.2429 208.314 91.4163 208.239 91.6349L208.583 91.7709C208.733 91.8296 208.837 91.8989 208.895 91.9789C208.954 92.0536 208.983 92.1656 208.983 92.3149V93.8109C208.983 94.0883 208.911 94.3043 208.767 94.4589C208.623 94.6136 208.399 94.6909 208.095 94.6909H207.647V93.9789ZM214.489 91.7149C214.489 91.4589 214.422 91.2616 214.289 91.1229C214.156 90.9843 213.945 90.9149 213.657 90.9149C213.412 90.9149 213.214 90.9683 213.065 91.0749C212.916 91.1763 212.788 91.3096 212.681 91.4749L212.153 91.0109C212.297 90.7709 212.492 90.5763 212.737 90.4269C212.982 90.2776 213.308 90.2029 213.713 90.2029C214.246 90.2029 214.654 90.3283 214.937 90.5789C215.22 90.8296 215.361 91.1896 215.361 91.6589V94.6909H214.489V91.7149ZM218.193 94.7869C217.639 94.7869 217.207 94.6723 216.897 94.4429C216.588 94.2136 216.433 93.8909 216.433 93.4749C216.433 93.2189 216.508 93.0003 216.657 92.8189C216.812 92.6376 217.009 92.5123 217.249 92.4429V92.4029C216.983 92.3389 216.775 92.2136 216.625 92.0269C216.476 91.8403 216.401 91.6109 216.401 91.3389C216.401 90.9976 216.511 90.7229 216.729 90.5149C216.953 90.3069 217.257 90.2029 217.641 90.2029C217.759 90.2029 217.884 90.2136 218.017 90.2349C218.156 90.2563 218.281 90.2963 218.393 90.3549L218.209 90.9949C218.087 90.9363 217.951 90.9069 217.801 90.9069C217.615 90.9069 217.465 90.9576 217.353 91.0589C217.247 91.1603 217.193 91.2963 217.193 91.4669C217.193 91.5469 217.204 91.6243 217.225 91.6989C217.247 91.7683 217.284 91.8323 217.337 91.8909C217.391 91.9443 217.463 91.9869 217.553 92.0189C217.644 92.0509 217.759 92.0669 217.897 92.0669H218.337V92.6589H217.961C217.785 92.6589 217.633 92.7096 217.505 92.8109C217.377 92.9123 217.313 93.0536 217.313 93.2349V93.4189C217.313 93.6323 217.383 93.7949 217.521 93.9069C217.66 94.0189 217.889 94.0749 218.209 94.0749C218.545 94.0749 218.809 93.9869 219.001 93.8109C219.199 93.6296 219.297 93.3709 219.297 93.0349V90.2989H220.169V93.1549C220.169 93.4056 220.121 93.6323 220.025 93.8349C219.935 94.0323 219.801 94.2029 219.625 94.3469C219.455 94.4856 219.247 94.5949 219.001 94.6749C218.761 94.7496 218.492 94.7869 218.193 94.7869ZM222.462 94.6909C222.158 94.6909 221.931 94.6136 221.782 94.4589C221.638 94.3043 221.566 94.0883 221.566 93.8109V90.5709C221.566 90.4429 221.585 90.3283 221.622 90.2269C221.659 90.1256 221.707 90.0349 221.766 89.9549C221.825 89.8696 221.889 89.7923 221.958 89.7229C222.033 89.6483 222.105 89.5763 222.174 89.5069C222.275 89.4109 222.361 89.3096 222.43 89.2029C222.505 89.0963 222.542 88.9709 222.542 88.8269C222.542 88.6403 222.486 88.4989 222.374 88.4029C222.267 88.3069 222.126 88.2589 221.95 88.2589C221.753 88.2589 221.59 88.3176 221.462 88.4349C221.339 88.5469 221.246 88.7123 221.182 88.9309L220.526 88.5629C220.633 88.2696 220.806 88.0296 221.046 87.8429C221.286 87.6509 221.617 87.5549 222.038 87.5549C222.454 87.5549 222.782 87.6643 223.022 87.8829C223.262 88.0963 223.382 88.3789 223.382 88.7309C223.382 88.9656 223.329 89.1603 223.222 89.3149C223.121 89.4696 223.009 89.6136 222.886 89.7469C222.774 89.8696 222.67 89.9923 222.574 90.1149C222.483 90.2376 222.438 90.3789 222.438 90.5389V93.9789H223.062V94.6909H222.462ZM225.337 94.7869C224.878 94.7869 224.523 94.6403 224.273 94.3469C224.022 94.0483 223.897 93.6269 223.897 93.0829V90.2989H224.769V92.9869C224.769 93.3283 224.838 93.5896 224.977 93.7709C225.121 93.9469 225.35 94.0349 225.664 94.0349C225.782 94.0349 225.899 94.0216 226.017 93.9949C226.134 93.9629 226.238 93.9149 226.329 93.8509C226.425 93.7869 226.499 93.7069 226.553 93.6109C226.611 93.5096 226.641 93.3923 226.641 93.2589V90.2989H227.513V93.9789H227.977V94.6909H227.401C227.177 94.6909 227.009 94.6269 226.897 94.4989C226.785 94.3656 226.723 94.1816 226.713 93.9469H226.673C226.582 94.1923 226.425 94.3949 226.201 94.5549C225.982 94.7096 225.694 94.7869 225.337 94.7869Z" fill="#3F2436"/>
<path d="M234.469 94.6909H230.677V93.8269L232.461 92.2349C232.743 91.9789 232.959 91.7363 233.109 91.5069C233.263 91.2723 233.341 91.0269 233.341 90.7709V90.6669C233.341 90.3949 233.258 90.1816 233.093 90.0269C232.933 89.8723 232.714 89.7949 232.437 89.7949C232.282 89.7949 232.146 89.8189 232.029 89.8669C231.917 89.9096 231.818 89.9709 231.733 90.0509C231.647 90.1309 231.575 90.2243 231.517 90.3309C231.463 90.4376 231.421 90.5523 231.389 90.6749L230.597 90.3709C230.655 90.1949 230.735 90.0269 230.837 89.8669C230.938 89.7016 231.066 89.5549 231.221 89.4269C231.375 89.2989 231.557 89.1976 231.765 89.1229C231.978 89.0483 232.226 89.0109 232.509 89.0109C232.791 89.0109 233.045 89.0536 233.269 89.1389C233.493 89.2189 233.679 89.3336 233.829 89.4829C233.983 89.6269 234.101 89.8003 234.181 90.0029C234.261 90.2056 234.301 90.4269 234.301 90.6669C234.301 90.8909 234.266 91.0989 234.197 91.2909C234.127 91.4829 234.031 91.6643 233.909 91.8349C233.786 92.0056 233.642 92.1683 233.477 92.3229C233.317 92.4776 233.146 92.6349 232.965 92.7949L231.653 93.9229H234.469V94.6909ZM237.338 94.7869C236.991 94.7869 236.69 94.7229 236.434 94.5949C236.178 94.4616 235.967 94.2723 235.802 94.0269C235.636 93.7816 235.514 93.4803 235.434 93.1229C235.354 92.7656 235.314 92.3576 235.314 91.8989C235.314 91.4456 235.354 91.0403 235.434 90.6829C235.514 90.3203 235.636 90.0163 235.802 89.7709C235.967 89.5256 236.178 89.3389 236.434 89.2109C236.69 89.0776 236.991 89.0109 237.338 89.0109C238.031 89.0109 238.54 89.2643 238.866 89.7709C239.196 90.2776 239.362 90.9869 239.362 91.8989C239.362 92.8109 239.196 93.5203 238.866 94.0269C238.54 94.5336 238.031 94.7869 237.338 94.7869ZM237.338 94.0189C237.53 94.0189 237.692 93.9816 237.826 93.9069C237.964 93.8269 238.076 93.7149 238.162 93.5709C238.247 93.4269 238.308 93.2563 238.346 93.0589C238.383 92.8563 238.402 92.6323 238.402 92.3869V91.4109C238.402 91.1656 238.383 90.9443 238.346 90.7469C238.308 90.5443 238.247 90.3709 238.162 90.2269C238.076 90.0829 237.964 89.9736 237.826 89.8989C237.692 89.8189 237.53 89.7789 237.338 89.7789C237.146 89.7789 236.98 89.8189 236.842 89.8989C236.708 89.9736 236.599 90.0829 236.514 90.2269C236.428 90.3709 236.367 90.5443 236.33 90.7469C236.292 90.9443 236.274 91.1656 236.274 91.4109V92.3869C236.274 92.6323 236.292 92.8563 236.33 93.0589C236.367 93.2563 236.428 93.4269 236.514 93.5709C236.599 93.7149 236.708 93.8269 236.842 93.9069C236.98 93.9816 237.146 94.0189 237.338 94.0189ZM239.79 95.8989L242.006 88.7709H242.758L240.542 95.8989H239.79ZM245.47 94.7869C245.124 94.7869 244.822 94.7229 244.566 94.5949C244.31 94.4616 244.1 94.2723 243.934 94.0269C243.769 93.7816 243.646 93.4803 243.566 93.1229C243.486 92.7656 243.446 92.3576 243.446 91.8989C243.446 91.4456 243.486 91.0403 243.566 90.6829C243.646 90.3203 243.769 90.0163 243.934 89.7709C244.1 89.5256 244.31 89.3389 244.566 89.2109C244.822 89.0776 245.124 89.0109 245.47 89.0109C246.164 89.0109 246.673 89.2643 246.998 89.7709C247.329 90.2776 247.494 90.9869 247.494 91.8989C247.494 92.8109 247.329 93.5203 246.998 94.0269C246.673 94.5336 246.164 94.7869 245.47 94.7869ZM245.47 94.0189C245.662 94.0189 245.825 93.9816 245.958 93.9069C246.097 93.8269 246.209 93.7149 246.294 93.5709C246.38 93.4269 246.441 93.2563 246.478 93.0589C246.516 92.8563 246.534 92.6323 246.534 92.3869V91.4109C246.534 91.1656 246.516 90.9443 246.478 90.7469C246.441 90.5443 246.38 90.3709 246.294 90.2269C246.209 90.0829 246.097 89.9736 245.958 89.8989C245.825 89.8189 245.662 89.7789 245.47 89.7789C245.278 89.7789 245.113 89.8189 244.974 89.8989C244.841 89.9736 244.732 90.0829 244.646 90.2269C244.561 90.3709 244.5 90.5443 244.462 90.7469C244.425 90.9443 244.406 91.1656 244.406 91.4109V92.3869C244.406 92.6323 244.425 92.8563 244.462 93.0589C244.5 93.2563 244.561 93.4269 244.646 93.5709C244.732 93.7149 244.841 93.8269 244.974 93.9069C245.113 93.9816 245.278 94.0189 245.47 94.0189ZM250.267 94.7869C249.942 94.7869 249.654 94.7469 249.403 94.6669C249.158 94.5816 248.95 94.4669 248.779 94.3229C248.614 94.1789 248.486 94.0083 248.395 93.8109C248.31 93.6136 248.267 93.4003 248.267 93.1709C248.267 92.7976 248.369 92.4989 248.571 92.2749C248.779 92.0456 249.051 91.8856 249.387 91.7949V91.7309C249.099 91.6296 248.867 91.4696 248.691 91.2509C248.521 91.0323 248.435 90.7629 248.435 90.4429C248.435 90.2296 248.475 90.0349 248.555 89.8589C248.641 89.6829 248.761 89.5336 248.915 89.4109C249.07 89.2829 249.262 89.1843 249.491 89.1149C249.721 89.0456 249.979 89.0109 250.267 89.0109C250.555 89.0109 250.814 89.0456 251.043 89.1149C251.273 89.1843 251.465 89.2829 251.619 89.4109C251.774 89.5336 251.891 89.6829 251.971 89.8589C252.057 90.0349 252.099 90.2296 252.099 90.4429C252.099 90.7629 252.011 91.0323 251.835 91.2509C251.665 91.4696 251.435 91.6296 251.147 91.7309V91.7949C251.483 91.8856 251.753 92.0456 251.955 92.2749C252.163 92.4989 252.267 92.7976 252.267 93.1709C252.267 93.4003 252.222 93.6136 252.131 93.8109C252.046 94.0083 251.918 94.1789 251.747 94.3229C251.582 94.4669 251.374 94.5816 251.123 94.6669C250.878 94.7469 250.593 94.7869 250.267 94.7869ZM250.267 94.0589C250.603 94.0589 250.862 93.9816 251.043 93.8269C251.23 93.6723 251.323 93.4563 251.323 93.1789V93.0189C251.323 92.7416 251.23 92.5256 251.043 92.3709C250.862 92.2163 250.603 92.1389 250.267 92.1389C249.931 92.1389 249.67 92.2163 249.483 92.3709C249.302 92.5256 249.211 92.7416 249.211 93.0189V93.1789C249.211 93.4563 249.302 93.6723 249.483 93.8269C249.67 93.9816 249.931 94.0589 250.267 94.0589ZM250.267 91.4429C250.577 91.4429 250.811 91.3763 250.971 91.2429C251.137 91.1096 251.219 90.9149 251.219 90.6589V90.5229C251.219 90.2669 251.137 90.0723 250.971 89.9389C250.811 89.8056 250.577 89.7389 250.267 89.7389C249.958 89.7389 249.721 89.8056 249.555 89.9389C249.395 90.0723 249.315 90.2669 249.315 90.5229V90.6589C249.315 90.9149 249.395 91.1096 249.555 91.2429C249.721 91.3763 249.958 91.4429 250.267 91.4429ZM252.72 95.8989L254.936 88.7709H255.688L253.472 95.8989H252.72ZM260.328 94.6909H256.536V93.8269L258.32 92.2349C258.603 91.9789 258.819 91.7363 258.968 91.5069C259.123 91.2723 259.2 91.0269 259.2 90.7709V90.6669C259.2 90.3949 259.117 90.1816 258.952 90.0269C258.792 89.8723 258.573 89.7949 258.296 89.7949C258.141 89.7949 258.005 89.8189 257.888 89.8669C257.776 89.9096 257.677 89.9709 257.592 90.0509C257.507 90.1309 257.435 90.2243 257.376 90.3309C257.323 90.4376 257.28 90.5523 257.248 90.6749L256.456 90.3709C256.515 90.1949 256.595 90.0269 256.696 89.8669C256.797 89.7016 256.925 89.5549 257.08 89.4269C257.235 89.2989 257.416 89.1976 257.624 89.1229C257.837 89.0483 258.085 89.0109 258.368 89.0109C258.651 89.0109 258.904 89.0536 259.128 89.1389C259.352 89.2189 259.539 89.3336 259.688 89.4829C259.843 89.6269 259.96 89.8003 260.04 90.0029C260.12 90.2056 260.16 90.4269 260.16 90.6669C260.16 90.8909 260.125 91.0989 260.056 91.2909C259.987 91.4829 259.891 91.6643 259.768 91.8349C259.645 92.0056 259.501 92.1683 259.336 92.3229C259.176 92.4776 259.005 92.6349 258.824 92.7949L257.512 93.9229H260.328V94.6909ZM262.893 91.4029C263.24 91.4029 263.496 91.3309 263.661 91.1869C263.826 91.0376 263.909 90.8483 263.909 90.6189V90.5629C263.909 90.3069 263.829 90.1123 263.669 89.9789C263.509 89.8403 263.293 89.7709 263.021 89.7709C262.754 89.7709 262.528 89.8323 262.341 89.9549C262.154 90.0723 261.997 90.2376 261.869 90.4509L261.269 89.9309C261.354 89.8083 261.45 89.6909 261.557 89.5789C261.664 89.4669 261.789 89.3709 261.933 89.2909C262.077 89.2056 262.24 89.1389 262.421 89.0909C262.602 89.0376 262.81 89.0109 263.045 89.0109C263.306 89.0109 263.549 89.0429 263.773 89.1069C263.997 89.1709 264.189 89.2669 264.349 89.3949C264.509 89.5176 264.634 89.6696 264.725 89.8509C264.816 90.0269 264.861 90.2269 264.861 90.4509C264.861 90.6269 264.832 90.7869 264.773 90.9309C264.72 91.0749 264.642 91.2029 264.541 91.3149C264.445 91.4216 264.33 91.5096 264.197 91.5789C264.069 91.6483 263.933 91.6989 263.789 91.7309V91.7709C263.949 91.8029 264.098 91.8563 264.237 91.9309C264.381 92.0003 264.506 92.0936 264.613 92.2109C264.72 92.3229 264.802 92.4589 264.861 92.6189C264.925 92.7736 264.957 92.9523 264.957 93.1549C264.957 93.4003 264.909 93.6243 264.813 93.8269C264.717 94.0243 264.581 94.1949 264.405 94.3389C264.234 94.4829 264.026 94.5949 263.781 94.6749C263.536 94.7496 263.264 94.7869 262.965 94.7869C262.704 94.7869 262.474 94.7576 262.277 94.6989C262.08 94.6456 261.904 94.5736 261.749 94.4829C261.6 94.3869 261.466 94.2803 261.349 94.1629C261.237 94.0403 261.138 93.9149 261.053 93.7869L261.717 93.2669C261.786 93.3789 261.858 93.4829 261.933 93.5789C262.013 93.6696 262.101 93.7496 262.197 93.8189C262.298 93.8829 262.41 93.9336 262.533 93.9709C262.661 94.0083 262.805 94.0269 262.965 94.0269C263.306 94.0269 263.568 93.9469 263.749 93.7869C263.93 93.6216 264.021 93.3949 264.021 93.1069V93.0509C264.021 92.7629 263.925 92.5443 263.733 92.3949C263.541 92.2456 263.269 92.1709 262.917 92.1709H262.325V91.4029H262.893Z" fill="#D42525"/>
<g filter="url(#filter5_d_71_107257)">
<mask id="path-16-outside-2_71_107257" maskUnits="userSpaceOnUse" x="0" y="0.690918" width="346" height="118" fill="black">
<rect fill="white" y="0.690918" width="346" height="118"/>
<path fill-rule="evenodd" clip-rule="evenodd" d="M8.25 2.69092H88.058C88.5194 6.63723 91.6754 9.69092 95.5 9.69092C99.3246 9.69092 102.481 6.63723 102.942 2.69092H337.753C341.203 2.69092 344 5.4876 344 8.93749V110.444C344 113.894 341.203 116.691 337.753 116.691H102.764C101.931 113.24 98.9947 110.691 95.5 110.691C92.0053 110.691 89.0689 113.24 88.2363 116.691H8.25C4.79822 116.691 2 113.893 2 110.441V8.94092C2 5.48914 4.79822 2.69092 8.25 2.69092Z"/>
</mask>
<path fill-rule="evenodd" clip-rule="evenodd" d="M8.25 2.69092H88.058C88.5194 6.63723 91.6754 9.69092 95.5 9.69092C99.3246 9.69092 102.481 6.63723 102.942 2.69092H337.753C341.203 2.69092 344 5.4876 344 8.93749V110.444C344 113.894 341.203 116.691 337.753 116.691H102.764C101.931 113.24 98.9947 110.691 95.5 110.691C92.0053 110.691 89.0689 113.24 88.2363 116.691H8.25C4.79822 116.691 2 113.893 2 110.441V8.94092C2 5.48914 4.79822 2.69092 8.25 2.69092Z" fill="url(#paint4_linear_71_107257)" fill-opacity="0.8"/>
<path d="M88.058 2.69092L90.0445 2.45869L89.8378 0.690918H88.058V2.69092ZM102.942 2.69092V0.690918H101.162L100.955 2.45869L102.942 2.69092ZM102.764 116.691L100.82 117.16L101.189 118.691H102.764V116.691ZM88.2363 116.691V118.691H89.8111L90.1805 117.16L88.2363 116.691ZM88.058 0.690918H8.25V4.69092H88.058V0.690918ZM95.5 7.69092C92.8017 7.69092 90.4015 5.51202 90.0445 2.45869L86.0716 2.92315C86.6373 7.76244 90.549 11.6909 95.5 11.6909V7.69092ZM100.955 2.45869C100.599 5.51202 98.1983 7.69092 95.5 7.69092V11.6909C100.451 11.6909 104.363 7.76244 104.928 2.92315L100.955 2.45869ZM337.753 0.690918H102.942V4.69092H337.753V0.690918ZM346 8.93749C346 4.38303 342.308 0.690918 337.753 0.690918V4.69092C340.099 4.69092 342 6.59217 342 8.93749H346ZM346 110.444V8.93749H342V110.444H346ZM337.753 118.691C342.308 118.691 346 114.999 346 110.444H342C342 112.79 340.099 114.691 337.753 114.691V118.691ZM102.764 118.691H337.753V114.691H102.764V118.691ZM95.5 112.691C97.9691 112.691 100.179 114.505 100.82 117.16L104.708 116.222C103.683 111.976 100.02 108.691 95.5 108.691V112.691ZM90.1805 117.16C90.8212 114.505 93.0309 112.691 95.5 112.691V108.691C90.9797 108.691 87.3166 111.976 86.2921 116.222L90.1805 117.16ZM8.25 118.691H88.2363V114.691H8.25V118.691ZM0 110.441C0 114.997 3.69365 118.691 8.25 118.691V114.691C5.90279 114.691 4 112.788 4 110.441H0ZM0 8.94092V110.441H4V8.94092H0ZM8.25 0.690918C3.69365 0.690918 0 4.38457 0 8.94092H4C4 6.59371 5.90279 4.69092 8.25 4.69092V0.690918Z" fill="#2A4C48" mask="url(#path-16-outside-2_71_107257)"/>
</g>
<circle cx="49" cy="45.6909" r="22.2069" stroke="#CDCDCD" stroke-width="1.58621"/>
<path d="M57.1617 39.5796L46.2018 50.5387C46.1281 50.6127 46.0406 50.6714 45.9441 50.7114C45.8477 50.7515 45.7443 50.7721 45.6399 50.7721C45.5355 50.7721 45.4321 50.7515 45.3357 50.7114C45.2393 50.6714 45.1517 50.6127 45.078 50.5387L40.8397 46.2964C40.766 46.2224 40.6784 46.1637 40.582 46.1237C40.4855 46.0836 40.3822 46.063 40.2777 46.063C40.1733 46.063 40.0699 46.0836 39.9735 46.1237C39.8771 46.1637 39.7895 46.2224 39.7158 46.2964C39.6418 46.3701 39.5831 46.4576 39.5431 46.5541C39.503 46.6505 39.4824 46.7539 39.4824 46.8583C39.4824 46.9627 39.503 47.0661 39.5431 47.1625C39.5831 47.259 39.6418 47.3465 39.7158 47.4202L43.9558 51.6594C44.403 52.1058 45.0092 52.3565 45.6411 52.3565C46.273 52.3565 46.8792 52.1058 47.3264 51.6594L58.2855 40.7026C58.3594 40.629 58.418 40.5414 58.458 40.4451C58.498 40.3487 58.5186 40.2454 58.5186 40.1411C58.5186 40.0368 58.498 39.9335 58.458 39.8371C58.418 39.7408 58.3594 39.6533 58.2855 39.5796C58.2119 39.5056 58.1243 39.4469 58.0279 39.4069C57.9314 39.3668 57.8281 39.3462 57.7236 39.3462C57.6192 39.3462 57.5158 39.3668 57.4194 39.4069C57.323 39.4469 57.2354 39.5056 57.1617 39.5796Z" fill="#CDCDCD"/>
</g>
<defs>
<filter id="filter0_di_71_107257" x="0" y="0.690918" width="346" height="120" filterUnits="userSpaceOnUse" color-interpolation-filters="sRGB">
<feFlood flood-opacity="0" result="BackgroundImageFix"/>
<feColorMatrix in="SourceAlpha" type="matrix" values="0 0 0 0 0 0 0 0 0 0 0 0 0 0 0 0 0 0 127 0" result="hardAlpha"/>
<feOffset dy="2"/>
<feComposite in2="hardAlpha" operator="out"/>
<feColorMatrix type="matrix" values="0 0 0 0 0.32549 0 0 0 0 0.592157 0 0 0 0 0.560784 0 0 0 1 0"/>
<feBlend mode="normal" in2="BackgroundImageFix" result="effect1_dropShadow_71_107257"/>
<feBlend mode="normal" in="SourceGraphic" in2="effect1_dropShadow_71_107257" result="shape"/>
<feColorMatrix in="SourceAlpha" type="matrix" values="0 0 0 0 0 0 0 0 0 0 0 0 0 0 0 0 0 0 127 0" result="hardAlpha"/>
<feOffset dy="2"/>
<feComposite in2="hardAlpha" operator="arithmetic" k2="-1" k3="1"/>
<feColorMatrix type="matrix" values="0 0 0 0 0.32549 0 0 0 0 0.592157 0 0 0 0 0.560784 0 0 0 1 0"/>
<feBlend mode="normal" in2="shape" result="effect2_innerShadow_71_107257"/>
</filter>
<filter id="filter1_i_71_107257" x="14.6377" y="11.3291" width="68.7754" height="68.9746" filterUnits="userSpaceOnUse" color-interpolation-filters="sRGB">
<feFlood flood-opacity="0" result="BackgroundImageFix"/>
<feBlend mode="normal" in="SourceGraphic" in2="BackgroundImageFix" result="shape"/>
<feColorMatrix in="SourceAlpha" type="matrix" values="0 0 0 0 0 0 0 0 0 0 0 0 0 0 0 0 0 0 127 0" result="hardAlpha"/>
<feOffset dy="2.72374"/>
<feComposite in2="hardAlpha" operator="arithmetic" k2="-1" k3="1"/>
<feColorMatrix type="matrix" values="0 0 0 0 0.998333 0 0 0 0 0.998333 0 0 0 0 0.998333 0 0 0 0.5 0"/>
<feBlend mode="normal" in2="shape" result="effect1_innerShadow_71_107257"/>
</filter>
<filter id="filter2_ii_71_107257" x="31.4609" y="31.291" width="34.0801" height="28.8799" filterUnits="userSpaceOnUse" color-interpolation-filters="sRGB">
<feFlood flood-opacity="0" result="BackgroundImageFix"/>
<feBlend mode="normal" in="SourceGraphic" in2="BackgroundImageFix" result="shape"/>
<feColorMatrix in="SourceAlpha" type="matrix" values="0 0 0 0 0 0 0 0 0 0 0 0 0 0 0 0 0 0 127 0" result="hardAlpha"/>
<feOffset dy="-1.31558"/>
<feComposite in2="hardAlpha" operator="arithmetic" k2="-1" k3="1"/>
<feColorMatrix type="matrix" values="0 0 0 0 0.825 0 0 0 0 0.38478 0 0 0 0 0.0660003 0 0 0 1 0"/>
<feBlend mode="normal" in2="shape" result="effect1_innerShadow_71_107257"/>
<feColorMatrix in="SourceAlpha" type="matrix" values="0 0 0 0 0 0 0 0 0 0 0 0 0 0 0 0 0 0 127 0" result="hardAlpha"/>
<feOffset dy="1.31558"/>
<feComposite in2="hardAlpha" operator="arithmetic" k2="-1" k3="1"/>
<feColorMatrix type="matrix" values="0 0 0 0 0.998333 0 0 0 0 0.998333 0 0 0 0 0.998333 0 0 0 0.8 0"/>
<feBlend mode="normal" in2="effect1_innerShadow_71_107257" result="effect2_innerShadow_71_107257"/>
</filter>
<filter id="filter3_ii_71_107257" x="15.3838" y="86.4392" width="67.2324" height="20.9404" filterUnits="userSpaceOnUse" color-interpolation-filters="sRGB">
<feFlood flood-opacity="0" result="BackgroundImageFix"/>
<feBlend mode="normal" in="SourceGraphic" in2="BackgroundImageFix" result="shape"/>
<feColorMatrix in="SourceAlpha" type="matrix" values="0 0 0 0 0 0 0 0 0 0 0 0 0 0 0 0 0 0 127 0" result="hardAlpha"/>
<feOffset dy="-3.69536"/>
<feComposite in2="hardAlpha" operator="arithmetic" k2="-1" k3="1"/>
<feColorMatrix type="matrix" values="0 0 0 0 0.825 0 0 0 0 0.38478 0 0 0 0 0.0660003 0 0 0 1 0"/>
<feBlend mode="normal" in2="shape" result="effect1_innerShadow_71_107257"/>
<feColorMatrix in="SourceAlpha" type="matrix" values="0 0 0 0 0 0 0 0 0 0 0 0 0 0 0 0 0 0 127 0" result="hardAlpha"/>
<feOffset dy="3.69536"/>
<feComposite in2="hardAlpha" operator="arithmetic" k2="-1" k3="1"/>
<feColorMatrix type="matrix" values="0 0 0 0 0.998333 0 0 0 0 0.998333 0 0 0 0 0.998333 0 0 0 0.8 0"/>
<feBlend mode="normal" in2="effect1_innerShadow_71_107257" result="effect2_innerShadow_71_107257"/>
</filter>
<filter id="filter4_i_71_107257" x="110" y="12.6909" width="220" height="23" filterUnits="userSpaceOnUse" color-interpolation-filters="sRGB">
<feFlood flood-opacity="0" result="BackgroundImageFix"/>
<feBlend mode="normal" in="SourceGraphic" in2="BackgroundImageFix" result="shape"/>
<feColorMatrix in="SourceAlpha" type="matrix" values="0 0 0 0 0 0 0 0 0 0 0 0 0 0 0 0 0 0 127 0" result="hardAlpha"/>
<feOffset dy="4"/>
<feComposite in2="hardAlpha" operator="arithmetic" k2="-1" k3="1"/>
<feColorMatrix type="matrix" values="0 0 0 0 0.998333 0 0 0 0 0.998333 0 0 0 0 0.998333 0 0 0 0.2 0"/>
<feBlend mode="normal" in2="shape" result="effect1_innerShadow_71_107257"/>
</filter>
<filter id="filter5_d_71_107257" x="0" y="0.690918" width="346" height="120" filterUnits="userSpaceOnUse" color-interpolation-filters="sRGB">
<feFlood flood-opacity="0" result="BackgroundImageFix"/>
<feColorMatrix in="SourceAlpha" type="matrix" values="0 0 0 0 0 0 0 0 0 0 0 0 0 0 0 0 0 0 127 0" result="hardAlpha"/>
<feOffset dy="2"/>
<feComposite in2="hardAlpha" operator="out"/>
<feColorMatrix type="matrix" values="0 0 0 0 0.164706 0 0 0 0 0.298039 0 0 0 0 0.282353 0 0 0 1 0"/>
<feBlend mode="normal" in2="BackgroundImageFix" result="effect1_dropShadow_71_107257"/>
<feBlend mode="normal" in="SourceGraphic" in2="effect1_dropShadow_71_107257" result="shape"/>
</filter>
<linearGradient id="paint0_linear_71_107257" x1="219" y1="2.69092" x2="219" y2="116.691" gradientUnits="userSpaceOnUse">
<stop stop-color="#FCEDB2"/>
<stop offset="1" stop-color="#CDEBD9"/>
</linearGradient>
<linearGradient id="paint1_linear_71_107257" x1="48.5" y1="19.6909" x2="48.5" y2="75.6909" gradientUnits="userSpaceOnUse">
<stop stop-color="#FFD15B"/>
<stop offset="1" stop-color="#FF970E"/>
</linearGradient>
<linearGradient id="paint2_linear_71_107257" x1="49" y1="87.0552" x2="49" y2="106.764" gradientUnits="userSpaceOnUse">
<stop stop-color="#FFD15B"/>
<stop offset="1" stop-color="#FF970E"/>
</linearGradient>
<linearGradient id="paint3_linear_71_107257" x1="49" y1="87.0552" x2="49" y2="106.764" gradientUnits="userSpaceOnUse">
<stop stop-color="#FFD15B"/>
<stop offset="1" stop-color="#FF970E"/>
</linearGradient>
<linearGradient id="paint4_linear_71_107257" x1="173" y1="2.69092" x2="173" y2="116.691" gradientUnits="userSpaceOnUse">
<stop stop-color="#727272" stop-opacity="0.94"/>
<stop offset="1" stop-color="#252525"/>
</linearGradient>
</defs>
</svg>
