<svg width="346" height="121" viewBox="0 0 346 121" fill="none" xmlns="http://www.w3.org/2000/svg">
<g style="mix-blend-mode:luminosity">
<g filter="url(#filter0_di_25_151334)">
<mask id="path-1-outside-1_25_151334" maskUnits="userSpaceOnUse" x="0" y="0.690918" width="346" height="118" fill="black">
<rect fill="white" y="0.690918" width="346" height="118"/>
<path fill-rule="evenodd" clip-rule="evenodd" d="M8.25 2.69092H88.058C88.5194 6.63723 91.6754 9.69092 95.5 9.69092C99.3246 9.69092 102.481 6.63723 102.942 2.69092H337.753C341.203 2.69092 344 5.4876 344 8.93749V110.444C344 113.894 341.203 116.691 337.753 116.691H102.764C101.931 113.24 98.9947 110.691 95.5 110.691C92.0053 110.691 89.0689 113.24 88.2363 116.691H8.25C4.79822 116.691 2 113.893 2 110.441V8.94092C2 5.48914 4.79822 2.69092 8.25 2.69092Z"/>
</mask>
<path fill-rule="evenodd" clip-rule="evenodd" d="M8.25 2.69092H88.058C88.5194 6.63723 91.6754 9.69092 95.5 9.69092C99.3246 9.69092 102.481 6.63723 102.942 2.69092H337.753C341.203 2.69092 344 5.4876 344 8.93749V110.444C344 113.894 341.203 116.691 337.753 116.691H102.764C101.931 113.24 98.9947 110.691 95.5 110.691C92.0053 110.691 89.0689 113.24 88.2363 116.691H8.25C4.79822 116.691 2 113.893 2 110.441V8.94092C2 5.48914 4.79822 2.69092 8.25 2.69092Z" fill="url(#paint0_linear_25_151334)"/>
<path d="M88.058 2.69092L90.0445 2.45869L89.8378 0.690918H88.058V2.69092ZM102.942 2.69092V0.690918H101.162L100.955 2.45869L102.942 2.69092ZM102.764 116.691L100.82 117.16L101.189 118.691H102.764V116.691ZM88.2363 116.691V118.691H89.8111L90.1805 117.16L88.2363 116.691ZM88.058 0.690918H8.25V4.69092H88.058V0.690918ZM95.5 7.69092C92.8017 7.69092 90.4015 5.51202 90.0445 2.45869L86.0716 2.92315C86.6373 7.76244 90.549 11.6909 95.5 11.6909V7.69092ZM100.955 2.45869C100.599 5.51202 98.1983 7.69092 95.5 7.69092V11.6909C100.451 11.6909 104.363 7.76244 104.928 2.92315L100.955 2.45869ZM337.753 0.690918H102.942V4.69092H337.753V0.690918ZM346 8.93749C346 4.38303 342.308 0.690918 337.753 0.690918V4.69092C340.099 4.69092 342 6.59217 342 8.93749H346ZM346 110.444V8.93749H342V110.444H346ZM337.753 118.691C342.308 118.691 346 114.999 346 110.444H342C342 112.79 340.099 114.691 337.753 114.691V118.691ZM102.764 118.691H337.753V114.691H102.764V118.691ZM95.5 112.691C97.9691 112.691 100.179 114.505 100.82 117.16L104.708 116.222C103.683 111.976 100.02 108.691 95.5 108.691V112.691ZM90.1805 117.16C90.8212 114.505 93.0309 112.691 95.5 112.691V108.691C90.9797 108.691 87.3166 111.976 86.2921 116.222L90.1805 117.16ZM8.25 118.691H88.2363V114.691H8.25V118.691ZM0 110.441C0 114.997 3.69365 118.691 8.25 118.691V114.691C5.90279 114.691 4 112.788 4 110.441H0ZM0 8.94092V110.441H4V8.94092H0ZM8.25 0.690918C3.69365 0.690918 0 4.38457 0 8.94092H4C4 6.59371 5.90279 4.69092 8.25 4.69092V0.690918Z" fill="#53978F" mask="url(#path-1-outside-1_25_151334)"/>
<g filter="url(#filter1_ii_25_151334)">
<rect x="16" y="87.0552" width="66" height="19.7086" rx="4.01952" fill="#FFEFA5"/>
<rect x="16" y="87.0552" width="66" height="19.7086" rx="4.01952" fill="url(#paint1_linear_25_151334)"/>
<rect x="16" y="87.0552" width="66" height="19.7086" rx="4.01952" fill="url(#paint2_linear_25_151334)"/>
</g>
<rect x="16" y="87.0552" width="66" height="19.7086" rx="4.01952" stroke="#3F2436" stroke-width="1.23179"/>
<path d="M34.2512 99.4097C33.7445 99.4097 33.3712 99.2863 33.1312 99.0397C32.8978 98.793 32.7812 98.4363 32.7812 97.9697V93.8697H34.2612V98.2597H34.9512V99.4097H34.2512ZM37.4529 99.5097C36.9196 99.5097 36.4929 99.3797 36.1729 99.1197C35.8596 98.853 35.7029 98.4397 35.7029 97.8797C35.7029 97.3597 35.8529 96.9563 36.1529 96.6697C36.4529 96.383 36.8862 96.2397 37.4529 96.2397H39.1029V95.9497C39.1029 95.6163 39.0129 95.363 38.8329 95.1897C38.6596 95.0097 38.3729 94.9197 37.9729 94.9197C37.7796 94.9197 37.6096 94.943 37.4629 94.9897C37.3162 95.0363 37.1829 95.0997 37.0629 95.1797C36.9429 95.253 36.8362 95.3397 36.7429 95.4397C36.6496 95.533 36.5662 95.633 36.4929 95.7397L35.5529 94.9197C35.8062 94.5597 36.1262 94.2763 36.5129 94.0697C36.8996 93.8563 37.4196 93.7497 38.0729 93.7497C38.7662 93.7497 39.3229 93.883 39.7429 94.1497C39.7962 93.9563 39.8929 93.813 40.0329 93.7197C40.1796 93.6263 40.3629 93.5797 40.5829 93.5797H41.6829V94.7997H40.3629V94.8397C40.5096 95.1263 40.5829 95.4797 40.5829 95.8997V99.4097H39.1029V97.1797H37.9829C37.4629 97.1797 37.2029 97.393 37.2029 97.8197V97.9897C37.2029 98.1963 37.2562 98.363 37.3629 98.4897C37.4696 98.6097 37.6262 98.6697 37.8329 98.6697C37.8729 98.6697 37.9129 98.6697 37.9529 98.6697C37.9929 98.6697 38.0329 98.663 38.0729 98.6497L38.1729 99.4397C38.1396 99.453 38.0929 99.463 38.0329 99.4697C37.9796 99.483 37.9162 99.4897 37.8429 99.4897C37.7762 99.4963 37.7062 99.4997 37.6329 99.4997C37.5662 99.5063 37.5062 99.5097 37.4529 99.5097ZM44.2517 99.5297C43.7184 99.5297 43.2651 99.443 42.8917 99.2697C42.5251 99.0963 42.2017 98.853 41.9217 98.5397L42.8117 97.6797C43.0051 97.893 43.2251 98.0663 43.4717 98.1997C43.7251 98.3263 44.0084 98.3897 44.3217 98.3897C44.6284 98.3897 44.8517 98.3397 44.9917 98.2397C45.1317 98.1397 45.2017 98.0097 45.2017 97.8497C45.2017 97.6763 45.1451 97.553 45.0317 97.4797C44.9184 97.3997 44.7651 97.3463 44.5717 97.3197L44.0017 97.2497C43.3951 97.1763 42.9284 96.9997 42.6017 96.7197C42.2817 96.4397 42.1217 96.0497 42.1217 95.5497C42.1217 95.2697 42.1717 95.0197 42.2717 94.7997C42.3784 94.5797 42.5251 94.393 42.7117 94.2397C42.9051 94.0797 43.1317 93.9597 43.3917 93.8797C43.6584 93.793 43.9517 93.7497 44.2717 93.7497C44.5384 93.7497 44.7784 93.7697 44.9917 93.8097C45.2051 93.843 45.3984 93.8963 45.5717 93.9697C45.7517 94.043 45.9151 94.133 46.0617 94.2397C46.2084 94.3463 46.3517 94.4697 46.4917 94.6097L45.6217 95.4697C45.4617 95.2963 45.2651 95.1563 45.0317 95.0497C44.7984 94.943 44.5551 94.8897 44.3017 94.8897C44.0284 94.8897 43.8284 94.9397 43.7017 95.0397C43.5751 95.1397 43.5117 95.2697 43.5117 95.4297C43.5117 95.5897 43.5617 95.7197 43.6617 95.8197C43.7684 95.913 43.9484 95.9763 44.2017 96.0097L44.7717 96.0897C45.0584 96.1297 45.3117 96.1897 45.5317 96.2697C45.7584 96.3497 45.9484 96.4563 46.1017 96.5897C46.2617 96.7163 46.3817 96.873 46.4617 97.0597C46.5484 97.2463 46.5917 97.4697 46.5917 97.7297C46.5917 97.9897 46.5351 98.2297 46.4217 98.4497C46.3084 98.6697 46.1484 98.8597 45.9417 99.0197C45.7417 99.1797 45.4951 99.3063 45.2017 99.3997C44.9151 99.4863 44.5984 99.5297 44.2517 99.5297ZM43.371 93.1497C43.031 93.1497 42.7577 93.0397 42.551 92.8197C42.3377 92.5997 42.231 92.2963 42.231 91.9097C42.231 91.4963 42.3577 91.163 42.611 90.9097C42.8643 90.6563 43.2143 90.5297 43.661 90.5297H46.541V91.3997H43.691C43.5643 91.3997 43.4677 91.4463 43.401 91.5397C43.3343 91.6263 43.301 91.7397 43.301 91.8797C43.301 92.013 43.331 92.1197 43.391 92.1997C43.4443 92.273 43.5277 92.3097 43.641 92.3097C43.7143 92.3097 43.7743 92.293 43.821 92.2597C43.8677 92.2263 43.9043 92.183 43.931 92.1297C43.951 92.0763 43.9677 92.0197 43.981 91.9597C43.9877 91.8997 43.991 91.843 43.991 91.7897H44.771C44.7843 91.903 44.8177 92.0197 44.871 92.1397C44.9243 92.253 45.0177 92.3097 45.151 92.3097C45.2377 92.3097 45.3143 92.2763 45.381 92.2097C45.441 92.1363 45.471 92.033 45.471 91.8997V91.6397H46.541V91.9997C46.541 92.373 46.441 92.6597 46.241 92.8597C46.0343 93.053 45.7543 93.1497 45.401 93.1497C45.3143 93.1497 45.221 93.1397 45.121 93.1197C45.021 93.0997 44.9277 93.0663 44.841 93.0197C44.7477 92.9663 44.6643 92.8997 44.591 92.8197C44.511 92.733 44.4543 92.6263 44.421 92.4997H44.371C44.2977 92.7463 44.1677 92.9163 43.981 93.0097C43.7943 93.103 43.591 93.1497 43.371 93.1497ZM48.1393 97.3697H47.6093V96.2197H48.3693C48.6226 96.2197 48.8193 96.2697 48.9593 96.3697C49.0993 96.4697 49.2093 96.633 49.2893 96.8597L49.7993 98.3097H50.0693C50.276 98.3097 50.4426 98.203 50.5693 97.9897C50.696 97.7697 50.7593 97.463 50.7593 97.0697V96.1497C50.7593 95.763 50.6493 95.463 50.4293 95.2497C50.216 95.0297 49.9126 94.9197 49.5193 94.9197C49.306 94.9197 49.116 94.9497 48.9493 95.0097C48.7893 95.0697 48.646 95.143 48.5193 95.2297C48.3926 95.3097 48.286 95.3997 48.1993 95.4997C48.1126 95.5997 48.0426 95.6897 47.9893 95.7697L47.0893 94.9697C47.196 94.8097 47.3226 94.6563 47.4693 94.5097C47.6226 94.363 47.7993 94.233 47.9993 94.1197C48.206 94.0063 48.4393 93.9163 48.6993 93.8497C48.9593 93.783 49.256 93.7497 49.5893 93.7497C50.0093 93.7497 50.386 93.8163 50.7193 93.9497C51.0593 94.0763 51.346 94.263 51.5793 94.5097C51.8126 94.7563 51.9893 95.0563 52.1093 95.4097C52.236 95.763 52.2993 96.163 52.2993 96.6097C52.2993 97.0497 52.246 97.443 52.1393 97.7897C52.0326 98.1363 51.8793 98.4297 51.6793 98.6697C51.486 98.9097 51.2493 99.093 50.9693 99.2197C50.696 99.3463 50.386 99.4097 50.0393 99.4097H48.8893L48.1393 97.3697ZM54.9431 99.5097C54.4098 99.5097 53.9831 99.3797 53.6631 99.1197C53.3498 98.853 53.1931 98.4397 53.1931 97.8797C53.1931 97.3597 53.3431 96.9563 53.6431 96.6697C53.9431 96.383 54.3765 96.2397 54.9431 96.2397H56.5931V95.9497C56.5931 95.6163 56.5031 95.363 56.3231 95.1897C56.1498 95.0097 55.8631 94.9197 55.4631 94.9197C55.2698 94.9197 55.0998 94.943 54.9531 94.9897C54.8065 95.0363 54.6731 95.0997 54.5531 95.1797C54.4331 95.253 54.3265 95.3397 54.2331 95.4397C54.1398 95.533 54.0565 95.633 53.9831 95.7397L53.0431 94.9197C53.2965 94.5597 53.6165 94.2763 54.0031 94.0697C54.3898 93.8563 54.9098 93.7497 55.5631 93.7497C56.2565 93.7497 56.8131 93.883 57.2331 94.1497C57.2865 93.9563 57.3831 93.813 57.5231 93.7197C57.6698 93.6263 57.8531 93.5797 58.0731 93.5797H59.1731V94.7997H57.8531V94.8397C57.9998 95.1263 58.0731 95.4797 58.0731 95.8997V99.4097H56.5931V97.1797H55.4731C54.9531 97.1797 54.6931 97.393 54.6931 97.8197V97.9897C54.6931 98.1963 54.7465 98.363 54.8531 98.4897C54.9598 98.6097 55.1165 98.6697 55.3231 98.6697C55.3631 98.6697 55.4031 98.6697 55.4431 98.6697C55.4831 98.6697 55.5231 98.663 55.5631 98.6497L55.6631 99.4397C55.6298 99.453 55.5831 99.463 55.5231 99.4697C55.4698 99.483 55.4065 99.4897 55.3331 99.4897C55.2665 99.4963 55.1965 99.4997 55.1231 99.4997C55.0565 99.5063 54.9965 99.5097 54.9431 99.5097ZM53.4542 91.9397H58.0742V93.0197H53.4542V91.9397ZM56.0142 90.7797H56.5942V90.4397C56.5942 90.3463 56.5742 90.2797 56.5342 90.2397C56.4876 90.193 56.4042 90.1697 56.2842 90.1697H56.0142V89.3297H56.7742C57.0542 89.3297 57.2709 89.3897 57.4242 89.5097C57.5709 89.6297 57.6442 89.7963 57.6442 90.0097C57.6442 90.1497 57.6009 90.2863 57.5142 90.4197C57.4276 90.5463 57.3142 90.643 57.1742 90.7097V90.7797H58.7342V91.6297H56.0142V90.7797ZM61.4796 99.5297C60.9063 99.5297 60.4696 99.343 60.1696 98.9697C59.8763 98.5897 59.7296 98.0497 59.7296 97.3497V93.8697H61.2096V97.2197C61.2096 97.3797 61.2229 97.5297 61.2496 97.6697C61.2763 97.803 61.3229 97.9197 61.3896 98.0197C61.4563 98.113 61.5463 98.1897 61.6596 98.2497C61.7796 98.303 61.9263 98.3297 62.0996 98.3297C62.2196 98.3297 62.3396 98.313 62.4596 98.2797C62.5863 98.2397 62.6963 98.183 62.7896 98.1097C62.8829 98.0363 62.9596 97.9463 63.0196 97.8397C63.0796 97.733 63.1096 97.6097 63.1096 97.4697V93.8697H64.5896V98.2597H65.0796V99.4097H64.1896C63.5896 99.4097 63.2796 99.0663 63.2596 98.3797H63.1896C63.1363 98.533 63.0629 98.6797 62.9696 98.8197C62.8829 98.953 62.7696 99.073 62.6296 99.1797C62.4963 99.2863 62.3329 99.3697 62.1396 99.4297C61.9529 99.4963 61.7329 99.5297 61.4796 99.5297Z" fill="#3F2436"/>
<line x1="95.6396" y1="104.691" x2="95.6396" y2="13.6909" stroke="white" stroke-width="0.720759" stroke-dasharray="3.6 3.6"/>
<g filter="url(#filter2_i_25_151334)">
<rect x="16" y="12.6909" width="66.0508" height="66.2509" rx="2.72374" fill="#78C9C0"/>
</g>
<rect x="15.3191" y="12.01" width="67.4127" height="67.6128" rx="3.40468" stroke="#53978F" stroke-width="1.36187"/>
<g filter="url(#filter3_ii_25_151334)">
<rect x="20.3594" y="17.2173" width="17.3697" height="17.3697" rx="1.24792" fill="#F3F3F3"/>
</g>
<rect x="20.3594" y="17.2173" width="17.3697" height="17.3697" rx="1.24792" stroke="#C6C6C6" stroke-width="1.36206"/>
<g filter="url(#filter4_ii_25_151334)">
<rect x="40.7881" y="17.2173" width="17.3697" height="17.3697" rx="1.24792" fill="#F3F3F3"/>
</g>
<rect x="40.7881" y="17.2173" width="17.3697" height="17.3697" rx="1.24792" stroke="#C6C6C6" stroke-width="1.36206"/>
<g filter="url(#filter5_ii_25_151334)">
<rect x="61.2178" y="17.2173" width="17.2027" height="17.3697" rx="1.24792" fill="#F3F3F3"/>
<rect x="61.2178" y="17.2173" width="17.2027" height="17.3697" rx="1.24792" fill="url(#paint3_linear_25_151334)"/>
</g>
<rect x="61.2178" y="17.2173" width="17.2027" height="17.3697" rx="1.24792" stroke="#3F2436" stroke-width="1.36206"/>
<rect x="61.2178" y="17.2173" width="17.2027" height="17.3697" rx="1.24792" stroke="#D26211" stroke-width="1.36206"/>
<g filter="url(#filter6_i_25_151334)">
<rect x="20.3594" y="37.6465" width="17.2027" height="17.3697" rx="1.24792" fill="#F3F3F3"/>
</g>
<rect x="20.3594" y="37.6465" width="17.2027" height="17.3697" rx="1.24792" stroke="#C6C6C6" stroke-width="1.36206"/>
<g filter="url(#filter7_ii_25_151334)">
<rect x="40.6211" y="37.6465" width="17.3697" height="17.3697" rx="1.24792" fill="#F3F3F3"/>
<rect x="40.6211" y="37.6465" width="17.3697" height="17.3697" rx="1.24792" fill="url(#paint4_linear_25_151334)"/>
</g>
<rect x="40.6211" y="37.6465" width="17.3697" height="17.3697" rx="1.24792" stroke="#3F2436" stroke-width="1.36206"/>
<rect x="40.6211" y="37.6465" width="17.3697" height="17.3697" rx="1.24792" stroke="#D26211" stroke-width="1.36206"/>
<g filter="url(#filter8_i_25_151334)">
<rect x="61.0508" y="37.6465" width="17.3697" height="17.3697" rx="1.24792" fill="#F3F3F3"/>
</g>
<rect x="61.0508" y="37.6465" width="17.3697" height="17.3697" rx="1.24792" stroke="#C6C6C6" stroke-width="1.36206"/>
<g filter="url(#filter9_ii_25_151334)">
<rect x="20.3594" y="58.0754" width="17.2027" height="17.3697" rx="1.24792" fill="#F3F3F3"/>
<rect x="20.3594" y="58.0754" width="17.2027" height="17.3697" rx="1.24792" fill="url(#paint5_linear_25_151334)"/>
</g>
<rect x="20.3594" y="58.0754" width="17.2027" height="17.3697" rx="1.24792" stroke="#3F2436" stroke-width="1.36206"/>
<rect x="20.3594" y="58.0754" width="17.2027" height="17.3697" rx="1.24792" stroke="#D26211" stroke-width="1.36206"/>
<g filter="url(#filter10_i_25_151334)">
<rect x="40.6211" y="58.0754" width="17.3697" height="17.3697" rx="1.24792" fill="#F3F3F3"/>
</g>
<rect x="40.6211" y="58.0754" width="17.3697" height="17.3697" rx="1.24792" stroke="#C6C6C6" stroke-width="1.36206"/>
<g filter="url(#filter11_i_25_151334)">
<rect x="61.0508" y="58.0754" width="17.3697" height="17.3697" rx="1.24792" fill="#F3F3F3"/>
</g>
<rect x="61.0508" y="58.0754" width="17.3697" height="17.3697" rx="1.24792" stroke="#C6C6C6" stroke-width="1.36206"/>
</g>
<rect x="111" y="13.6909" width="218" height="92" rx="7" fill="white" stroke="#53978F" stroke-width="2"/>
<g filter="url(#filter12_i_25_151334)">
<path d="M110 20.6909C110 16.2726 113.582 12.6909 118 12.6909H322C326.418 12.6909 330 16.2726 330 20.6909V35.6909H110V20.6909Z" fill="#53978F"/>
</g>
<path d="M111 20.6909C111 16.8249 114.134 13.6909 118 13.6909H322C325.866 13.6909 329 16.8249 329 20.6909V34.6909H111V20.6909Z" stroke="#53978F" stroke-width="2"/>
<path d="M189.734 29.6909C189.202 29.6909 188.81 29.5556 188.558 29.2849C188.306 29.0143 188.18 28.6363 188.18 28.1509V22.0049H189.706V28.4449H190.798V29.6909H189.734ZM185.982 29.6909C185.45 29.6909 185.058 29.5556 184.806 29.2849C184.554 29.0143 184.428 28.6363 184.428 28.1509V22.0049H185.954V28.4449H187.046V29.6909H185.982ZM194.534 29.8309C193.778 29.8309 193.172 29.6443 192.714 29.2709C192.266 28.8976 192.042 28.3329 192.042 27.5769C192.042 26.8583 192.257 26.3029 192.686 25.9109C193.125 25.5189 193.741 25.3229 194.534 25.3229H196.914V24.7349C196.914 24.1936 196.765 23.7829 196.466 23.5029C196.177 23.2229 195.724 23.0829 195.108 23.0829C194.558 23.0829 194.105 23.1996 193.75 23.4329C193.405 23.6663 193.12 23.9603 192.896 24.3149L191.916 23.4609C192.215 22.9849 192.621 22.5976 193.134 22.2989C193.657 21.9909 194.348 21.8369 195.206 21.8369C196.261 21.8369 197.064 22.0843 197.614 22.5789C198.165 23.0643 198.44 23.7643 198.44 24.6789V29.6909H196.914V26.3449H194.996C194.548 26.3449 194.203 26.4383 193.96 26.6249C193.727 26.8116 193.61 27.0823 193.61 27.4369V27.7169C193.61 28.0716 193.718 28.3516 193.932 28.5569C194.147 28.7623 194.441 28.8649 194.814 28.8649C195.001 28.8649 195.15 28.8509 195.262 28.8229L195.388 29.7469C195.304 29.7656 195.174 29.7843 194.996 29.8029C194.819 29.8216 194.665 29.8309 194.534 29.8309ZM201.239 25.4489L200.035 24.9449C200.072 24.4876 200.184 24.0676 200.371 23.6849C200.567 23.3023 200.824 22.9756 201.141 22.7049C201.458 22.4249 201.832 22.2103 202.261 22.0609C202.69 21.9116 203.157 21.8369 203.661 21.8369C204.772 21.8369 205.635 22.1216 206.251 22.6909C206.867 23.2509 207.175 24.0116 207.175 24.9729V29.6909H205.649V25.1689C205.649 24.4969 205.467 23.9836 205.103 23.6289C204.739 23.2649 204.24 23.0829 203.605 23.0829C203.092 23.0829 202.639 23.1996 202.247 23.4329C201.864 23.6569 201.603 23.9603 201.463 24.3429L202.065 24.5809C202.326 24.6836 202.508 24.8049 202.611 24.9449C202.714 25.0756 202.765 25.2716 202.765 25.5329V29.6909H201.239V25.4489ZM212.033 29.8589C211.315 29.8589 210.703 29.7376 210.199 29.4949C209.705 29.2429 209.271 28.8929 208.897 28.4449L209.863 27.5349C210.143 27.8896 210.47 28.1603 210.843 28.3469C211.217 28.5336 211.641 28.6269 212.117 28.6269C212.621 28.6269 212.995 28.5383 213.237 28.3609C213.489 28.1743 213.615 27.9129 213.615 27.5769C213.615 27.2783 213.517 27.0496 213.321 26.8909C213.135 26.7229 212.836 26.6109 212.425 26.5549L211.711 26.4569C211.366 26.4103 211.039 26.3356 210.731 26.2329C210.423 26.1303 210.153 25.9903 209.919 25.8129C209.695 25.6356 209.513 25.4163 209.373 25.1549C209.243 24.8936 209.177 24.5716 209.177 24.1889C209.177 23.8156 209.247 23.4843 209.387 23.1949C209.527 22.8963 209.723 22.6489 209.975 22.4529C210.227 22.2476 210.526 22.0936 210.871 21.9909C211.226 21.8883 211.613 21.8369 212.033 21.8369C212.733 21.8369 213.307 21.9443 213.755 22.1589C214.203 22.3643 214.6 22.6536 214.945 23.0269L214.021 23.9509C213.807 23.7083 213.531 23.5029 213.195 23.3349C212.859 23.1669 212.472 23.0829 212.033 23.0829C211.576 23.0829 211.231 23.1716 210.997 23.3489C210.764 23.5263 210.647 23.7689 210.647 24.0769C210.647 24.4036 210.755 24.6463 210.969 24.8049C211.184 24.9636 211.501 25.0709 211.921 25.1269L212.635 25.2389C212.999 25.2949 213.331 25.3743 213.629 25.4769C213.937 25.5796 214.199 25.7196 214.413 25.8969C214.628 26.0649 214.791 26.2749 214.903 26.5269C215.025 26.7789 215.085 27.0823 215.085 27.4369C215.085 27.8009 215.011 28.1323 214.861 28.4309C214.721 28.7296 214.516 28.9863 214.245 29.2009C213.984 29.4063 213.662 29.5696 213.279 29.6909C212.906 29.8029 212.491 29.8589 212.033 29.8589ZM213.563 20.6329C213.077 20.6329 212.713 20.5163 212.471 20.2829C212.228 20.0496 212.107 19.7229 212.107 19.3029V18.3229H213.451V19.4289H217.091V20.6329H213.563ZM220.111 29.8589C219.598 29.8589 219.136 29.7889 218.725 29.6489C218.324 29.4996 217.978 29.2943 217.689 29.0329C217.409 28.7623 217.19 28.4403 217.031 28.0669C216.882 27.6843 216.807 27.2596 216.807 26.7929V22.0049H218.333V26.6809C218.333 27.2969 218.487 27.7729 218.795 28.1089C219.112 28.4449 219.551 28.6129 220.111 28.6129C220.671 28.6129 221.105 28.4449 221.413 28.1089C221.73 27.7729 221.889 27.2969 221.889 26.6809V22.0049H223.415V26.7929C223.415 27.2596 223.336 27.6843 223.177 28.0669C223.028 28.4403 222.808 28.7623 222.519 29.0329C222.239 29.2943 221.894 29.4996 221.483 29.6489C221.082 29.7889 220.624 29.8589 220.111 29.8589ZM227.743 29.8309C226.987 29.8309 226.381 29.6443 225.923 29.2709C225.475 28.8976 225.251 28.3329 225.251 27.5769C225.251 26.8583 225.466 26.3029 225.895 25.9109C226.334 25.5189 226.95 25.3229 227.743 25.3229H230.123V24.7349C230.123 24.1936 229.974 23.7829 229.675 23.5029C229.386 23.2229 228.933 23.0829 228.317 23.0829C227.767 23.0829 227.314 23.1996 226.959 23.4329C226.614 23.6663 226.329 23.9603 226.105 24.3149L225.125 23.4609C225.424 22.9849 225.83 22.5976 226.343 22.2989C226.866 21.9909 227.557 21.8369 228.415 21.8369C229.302 21.8369 230.007 22.0096 230.529 22.3549C230.613 21.8509 230.931 21.5989 231.481 21.5989H233.203V22.9289H231.117V22.9569C231.472 23.4143 231.649 23.9883 231.649 24.6789V29.6909H230.123V26.3449H228.205C227.757 26.3449 227.412 26.4383 227.169 26.6249C226.936 26.8116 226.819 27.0823 226.819 27.4369V27.7169C226.819 28.0716 226.927 28.3516 227.141 28.5569C227.356 28.7623 227.65 28.8649 228.023 28.8649C228.21 28.8649 228.359 28.8509 228.471 28.8229L228.597 29.7469C228.513 29.7656 228.383 29.7843 228.205 29.8029C228.028 29.8216 227.874 29.8309 227.743 29.8309ZM225.611 19.4289H231.645V20.6329H225.611V19.4289ZM236.772 29.8589C235.97 29.8589 235.349 29.6023 234.91 29.0889C234.472 28.5663 234.252 27.8289 234.252 26.8769V22.0049H235.778V26.7089C235.778 27.3063 235.9 27.7636 236.142 28.0809C236.394 28.3889 236.796 28.5429 237.346 28.5429C237.552 28.5429 237.757 28.5196 237.962 28.4729C238.168 28.4169 238.35 28.3329 238.508 28.2209C238.676 28.1089 238.807 27.9689 238.9 27.8009C239.003 27.6236 239.054 27.4183 239.054 27.1849V22.0049H240.58V28.4449H241.392V29.6909H240.384C239.992 29.6909 239.698 29.5789 239.502 29.3549C239.306 29.1216 239.199 28.7996 239.18 28.3889H239.11C238.952 28.8183 238.676 29.1729 238.284 29.4529C237.902 29.7236 237.398 29.8589 236.772 29.8589ZM242.893 24.9729C242.893 24.4969 242.972 24.0676 243.131 23.6849C243.299 23.2929 243.537 22.9616 243.845 22.6909C244.153 22.4109 244.522 22.2009 244.951 22.0609C245.39 21.9116 245.88 21.8369 246.421 21.8369C246.962 21.8369 247.448 21.9116 247.877 22.0609C248.316 22.2009 248.689 22.4109 248.997 22.6909C249.305 22.9616 249.538 23.2929 249.697 23.6849C249.865 24.0676 249.949 24.4969 249.949 24.9729V29.6909H248.423V25.0709C248.423 24.4269 248.246 23.9369 247.891 23.6009C247.536 23.2556 247.046 23.0829 246.421 23.0829C245.796 23.0829 245.306 23.2556 244.951 23.6009C244.596 23.9369 244.419 24.4269 244.419 25.0709V26.8349H244.489C244.545 26.6483 244.624 26.4663 244.727 26.2889C244.83 26.1116 244.96 25.9576 245.119 25.8269C245.278 25.6869 245.469 25.5749 245.693 25.4909C245.917 25.4069 246.178 25.3649 246.477 25.3649H246.897V26.8349H246.309C245.702 26.8349 245.236 26.9376 244.909 27.1429C244.582 27.3389 244.419 27.6469 244.419 28.0669V29.6909H242.893V24.9729ZM247.431 19.4289H248.425V18.9389C248.425 18.7336 248.383 18.5889 248.299 18.5049C248.206 18.4116 248.043 18.3649 247.809 18.3649H247.431V17.2729H248.369C248.817 17.2729 249.158 17.3709 249.391 17.5669C249.615 17.7536 249.727 18.0103 249.727 18.3369C249.727 18.5329 249.676 18.7289 249.573 18.9249C249.461 19.1116 249.298 19.2563 249.083 19.3589V19.4289H251.603V20.5209H247.431V19.4289ZM255.278 24.4829C255.278 24.0349 255.161 23.6896 254.928 23.4469C254.695 23.2043 254.326 23.0829 253.822 23.0829C253.393 23.0829 253.047 23.1763 252.786 23.3629C252.525 23.5403 252.301 23.7736 252.114 24.0629L251.19 23.2509C251.442 22.8309 251.783 22.4903 252.212 22.2289C252.641 21.9676 253.211 21.8369 253.92 21.8369C254.853 21.8369 255.567 22.0563 256.062 22.4949C256.557 22.9336 256.804 23.5636 256.804 24.3849V29.6909H255.278V24.4829Z" fill="white"/>
<path d="M125.928 54.6909C125.4 54.6909 125.012 54.5589 124.764 54.2949C124.516 54.0309 124.392 53.6589 124.392 53.1789V48.0669H125.928V53.4669H126.804V54.6909H125.928ZM122.652 54.6909C122.124 54.6909 121.736 54.5589 121.488 54.2949C121.24 54.0309 121.116 53.6589 121.116 53.1789V48.0669H122.652V53.4669H123.528V54.6909H122.652ZM129.908 54.8109C129.26 54.8109 128.744 54.6549 128.36 54.3429C127.976 54.0229 127.784 53.5309 127.784 52.8669C127.784 52.2429 127.968 51.7629 128.336 51.4269C128.704 51.0909 129.228 50.9229 129.908 50.9229H131.924V50.4909C131.924 50.0589 131.808 49.7309 131.576 49.5069C131.344 49.2749 130.976 49.1589 130.472 49.1589C130 49.1589 129.62 49.2629 129.332 49.4709C129.044 49.6709 128.808 49.9069 128.624 50.1789L127.652 49.3269C127.788 49.1189 127.944 48.9309 128.12 48.7629C128.304 48.5869 128.512 48.4389 128.744 48.3189C128.984 48.1909 129.252 48.0949 129.548 48.0309C129.852 47.9589 130.192 47.9229 130.568 47.9229C131.52 47.9229 132.24 48.1389 132.728 48.5709C133.216 49.0029 133.46 49.6229 133.46 50.4309V54.6909H131.924V51.9189H130.424C129.712 51.9189 129.356 52.2029 129.356 52.7709V52.9989C129.356 53.2789 129.436 53.4989 129.596 53.6589C129.756 53.8189 129.976 53.8989 130.256 53.8989C130.384 53.8989 130.496 53.8869 130.592 53.8629L130.7 54.7269C130.636 54.7509 130.52 54.7709 130.352 54.7869C130.184 54.8029 130.036 54.8109 129.908 54.8109ZM135.737 51.1269L134.705 50.7069C134.737 50.2909 134.837 49.9109 135.005 49.5669C135.173 49.2229 135.397 48.9309 135.677 48.6909C135.965 48.4429 136.301 48.2549 136.685 48.1269C137.077 47.9909 137.501 47.9229 137.957 47.9229C138.437 47.9229 138.865 47.9869 139.241 48.1149C139.625 48.2429 139.949 48.4269 140.213 48.6669C140.477 48.9069 140.677 49.1989 140.813 49.5429C140.957 49.8789 141.029 50.2549 141.029 50.6709V54.6909H139.493V50.8749C139.493 50.3229 139.353 49.8989 139.073 49.6029C138.793 49.3069 138.389 49.1589 137.861 49.1589C137.445 49.1589 137.081 49.2509 136.769 49.4349C136.465 49.6109 136.253 49.8429 136.133 50.1309L136.601 50.3109C136.857 50.4069 137.033 50.5189 137.129 50.6469C137.225 50.7749 137.273 50.9669 137.273 51.2229V54.6909H135.737V51.1269ZM145.12 54.8349C144.496 54.8349 143.964 54.7309 143.524 54.5229C143.092 54.3149 142.712 54.0189 142.384 53.6349L143.332 52.7349C143.564 53.0149 143.836 53.2349 144.148 53.3949C144.46 53.5469 144.812 53.6229 145.204 53.6229C145.612 53.6229 145.904 53.5549 146.08 53.4189C146.264 53.2829 146.356 53.0949 146.356 52.8549C146.356 52.6149 146.284 52.4389 146.14 52.3269C145.996 52.2069 145.78 52.1269 145.492 52.0869L144.844 52.0029C144.516 51.9629 144.216 51.8949 143.944 51.7989C143.672 51.7029 143.436 51.5749 143.236 51.4149C143.044 51.2549 142.892 51.0589 142.78 50.8269C142.676 50.5949 142.624 50.3229 142.624 50.0109C142.624 49.6909 142.684 49.4029 142.804 49.1469C142.932 48.8829 143.104 48.6629 143.32 48.4869C143.544 48.3029 143.808 48.1629 144.112 48.0669C144.424 47.9709 144.768 47.9229 145.144 47.9229C145.76 47.9229 146.264 48.0149 146.656 48.1989C147.048 48.3829 147.4 48.6349 147.712 48.9549L146.8 49.8669C146.616 49.6589 146.38 49.4869 146.092 49.3509C145.804 49.2069 145.492 49.1349 145.156 49.1349C144.796 49.1349 144.528 49.2069 144.352 49.3509C144.184 49.4869 144.1 49.6709 144.1 49.9029C144.1 50.1349 144.172 50.3149 144.316 50.4429C144.468 50.5629 144.712 50.6469 145.048 50.6949L145.696 50.7909C146.352 50.8869 146.872 51.0789 147.256 51.3669C147.64 51.6549 147.832 52.1069 147.832 52.7229C147.832 53.0349 147.768 53.3229 147.64 53.5869C147.512 53.8429 147.328 54.0629 147.088 54.2469C146.856 54.4309 146.572 54.5749 146.236 54.6789C145.9 54.7829 145.528 54.8349 145.12 54.8349ZM146.333 46.9749C145.877 46.9749 145.533 46.8669 145.301 46.6509C145.069 46.4349 144.953 46.1269 144.953 45.7269V44.8149H146.225V45.8109H149.393V46.9749H146.333ZM152.115 54.8349C151.667 54.8349 151.263 54.7749 150.903 54.6549C150.543 54.5269 150.235 54.3469 149.979 54.1149C149.731 53.8829 149.539 53.6029 149.403 53.2749C149.275 52.9469 149.211 52.5789 149.211 52.1709V48.0669H150.747V52.0869C150.747 52.5669 150.867 52.9389 151.107 53.2029C151.347 53.4669 151.683 53.5989 152.115 53.5989C152.547 53.5989 152.883 53.4669 153.123 53.2029C153.363 52.9389 153.483 52.5669 153.483 52.0869V48.0669H155.019V52.1709C155.019 52.5789 154.951 52.9469 154.815 53.2749C154.687 53.6029 154.495 53.8829 154.239 54.1149C153.991 54.3469 153.687 54.5269 153.327 54.6549C152.967 54.7749 152.563 54.8349 152.115 54.8349ZM165.98 48.6789H165.932L165.284 50.0109L163.568 53.1789L161.852 50.0109L161.204 48.6789H161.156V54.6909H159.656V46.3149H161.444L163.592 50.4069H163.64L165.764 46.3149H167.48V54.6909H165.98V48.6789ZM173.965 54.6909C173.629 54.6909 173.361 54.5949 173.161 54.4029C172.969 54.2029 172.849 53.9389 172.801 53.6109H172.729C172.625 54.0189 172.413 54.3269 172.093 54.5349C171.773 54.7349 171.377 54.8349 170.905 54.8349C170.265 54.8349 169.773 54.6669 169.429 54.3309C169.085 53.9949 168.913 53.5469 168.913 52.9869C168.913 52.3389 169.145 51.8589 169.609 51.5469C170.073 51.2269 170.733 51.0669 171.589 51.0669H172.657V50.6109C172.657 50.2589 172.565 49.9869 172.381 49.7949C172.197 49.6029 171.901 49.5069 171.493 49.5069C171.133 49.5069 170.841 49.5869 170.617 49.7469C170.401 49.8989 170.217 50.0829 170.065 50.2989L169.153 49.4829C169.385 49.1229 169.693 48.8349 170.077 48.6189C170.461 48.3949 170.969 48.2829 171.601 48.2829C172.449 48.2829 173.093 48.4749 173.533 48.8589C173.973 49.2429 174.193 49.7949 174.193 50.5149V53.4669H174.817V54.6909H173.965ZM171.421 53.7189C171.765 53.7189 172.057 53.6429 172.297 53.4909C172.537 53.3389 172.657 53.1149 172.657 52.8189V51.9909H171.673C170.873 51.9909 170.473 52.2469 170.473 52.7589V52.9629C170.473 53.2189 170.553 53.4109 170.713 53.5389C170.881 53.6589 171.117 53.7189 171.421 53.7189ZM176.828 47.5149C176.508 47.5149 176.276 47.4429 176.132 47.2989C175.996 47.1549 175.928 46.9709 175.928 46.7469V46.5069C175.928 46.2829 175.996 46.0989 176.132 45.9549C176.276 45.8109 176.508 45.7389 176.828 45.7389C177.14 45.7389 177.368 45.8109 177.512 45.9549C177.656 46.0989 177.728 46.2829 177.728 46.5069V46.7469C177.728 46.9709 177.656 47.1549 177.512 47.2989C177.368 47.4429 177.14 47.5149 176.828 47.5149ZM176.06 48.4269H177.596V54.6909H176.06V48.4269ZM181.332 54.6909C180.804 54.6909 180.4 54.5549 180.12 54.2829C179.848 54.0029 179.712 53.6069 179.712 53.0949V49.6509H178.788V48.4269H179.268C179.5 48.4269 179.656 48.3749 179.736 48.2709C179.824 48.1589 179.868 47.9949 179.868 47.7789V46.7109H181.248V48.4269H182.532V49.6509H181.248V53.4669H182.436V54.6909H181.332ZM183.865 45.8109H185.401V49.4709H185.461C185.589 49.1349 185.789 48.8549 186.061 48.6309C186.341 48.3989 186.725 48.2829 187.213 48.2829C187.861 48.2829 188.357 48.4949 188.701 48.9189C189.045 49.3429 189.217 49.9469 189.217 50.7309V54.6909H187.681V50.8869C187.681 50.4389 187.601 50.1029 187.441 49.8789C187.281 49.6549 187.017 49.5429 186.649 49.5429C186.489 49.5429 186.333 49.5669 186.181 49.6149C186.037 49.6549 185.905 49.7189 185.785 49.8069C185.673 49.8869 185.581 49.9909 185.509 50.1189C185.437 50.2389 185.401 50.3829 185.401 50.5509V54.6909H183.865V45.8109ZM195.527 54.6909C195.191 54.6909 194.923 54.5949 194.723 54.4029C194.531 54.2029 194.411 53.9389 194.363 53.6109H194.291C194.187 54.0189 193.975 54.3269 193.655 54.5349C193.335 54.7349 192.939 54.8349 192.467 54.8349C191.827 54.8349 191.335 54.6669 190.991 54.3309C190.647 53.9949 190.475 53.5469 190.475 52.9869C190.475 52.3389 190.707 51.8589 191.171 51.5469C191.635 51.2269 192.295 51.0669 193.151 51.0669H194.219V50.6109C194.219 50.2589 194.127 49.9869 193.943 49.7949C193.759 49.6029 193.463 49.5069 193.055 49.5069C192.695 49.5069 192.403 49.5869 192.179 49.7469C191.963 49.8989 191.779 50.0829 191.627 50.2989L190.715 49.4829C190.947 49.1229 191.255 48.8349 191.639 48.6189C192.023 48.3949 192.531 48.2829 193.163 48.2829C194.011 48.2829 194.655 48.4749 195.095 48.8589C195.535 49.2429 195.755 49.7949 195.755 50.5149V53.4669H196.379V54.6909H195.527ZM192.983 53.7189C193.327 53.7189 193.619 53.6429 193.859 53.4909C194.099 53.3389 194.219 53.1149 194.219 52.8189V51.9909H193.235C192.435 51.9909 192.035 52.2469 192.035 52.7589V52.9629C192.035 53.2189 192.115 53.4109 192.275 53.5389C192.443 53.6589 192.679 53.7189 192.983 53.7189ZM198.39 47.5149C198.07 47.5149 197.838 47.4429 197.694 47.2989C197.558 47.1549 197.49 46.9709 197.49 46.7469V46.5069C197.49 46.2829 197.558 46.0989 197.694 45.9549C197.838 45.8109 198.07 45.7389 198.39 45.7389C198.702 45.7389 198.93 45.8109 199.074 45.9549C199.218 46.0989 199.29 46.2829 199.29 46.5069V46.7469C199.29 46.9709 199.218 47.1549 199.074 47.2989C198.93 47.4429 198.702 47.5149 198.39 47.5149ZM197.622 48.4269H199.158V54.6909H197.622V48.4269ZM207.123 54.8349C206.571 54.8349 206.071 54.7469 205.623 54.5709C205.183 54.3869 204.803 54.1149 204.483 53.7549C204.171 53.3949 203.931 52.9509 203.763 52.4229C203.595 51.8869 203.511 51.2669 203.511 50.5629C203.511 49.8589 203.595 49.2349 203.763 48.6909C203.931 48.1389 204.171 47.6789 204.483 47.3109C204.803 46.9349 205.183 46.6509 205.623 46.4589C206.071 46.2669 206.571 46.1709 207.123 46.1709C207.875 46.1709 208.499 46.3309 208.995 46.6509C209.491 46.9709 209.887 47.4549 210.183 48.1029L208.827 48.8229C208.707 48.4469 208.511 48.1469 208.239 47.9229C207.967 47.6909 207.595 47.5749 207.123 47.5749C206.531 47.5749 206.059 47.7749 205.707 48.1749C205.363 48.5749 205.191 49.1349 205.191 49.8549V51.1749C205.191 51.9029 205.363 52.4629 205.707 52.8549C206.059 53.2389 206.531 53.4309 207.123 53.4309C207.595 53.4309 207.979 53.3029 208.275 53.0469C208.579 52.7909 208.799 52.4749 208.935 52.0989L210.219 52.8549C209.915 53.4789 209.511 53.9669 209.007 54.3189C208.503 54.6629 207.875 54.8349 207.123 54.8349ZM213.958 54.8349C213.51 54.8349 213.106 54.7589 212.746 54.6069C212.394 54.4549 212.09 54.2349 211.834 53.9469C211.586 53.6589 211.394 53.3149 211.258 52.9149C211.122 52.5069 211.054 52.0509 211.054 51.5469C211.054 51.0429 211.122 50.5909 211.258 50.1909C211.394 49.7909 211.586 49.4509 211.834 49.1709C212.09 48.8829 212.394 48.6629 212.746 48.5109C213.106 48.3589 213.51 48.2829 213.958 48.2829C214.406 48.2829 214.81 48.3589 215.17 48.5109C215.53 48.6629 215.834 48.8829 216.082 49.1709C216.338 49.4509 216.534 49.7909 216.67 50.1909C216.806 50.5909 216.874 51.0429 216.874 51.5469C216.874 52.0509 216.806 52.5069 216.67 52.9149C216.534 53.3149 216.338 53.6589 216.082 53.9469C215.834 54.2349 215.53 54.4549 215.17 54.6069C214.81 54.7589 214.406 54.8349 213.958 54.8349ZM213.958 53.5989C214.366 53.5989 214.686 53.4749 214.918 53.2269C215.15 52.9789 215.266 52.6149 215.266 52.1349V50.9709C215.266 50.4989 215.15 50.1389 214.918 49.8909C214.686 49.6429 214.366 49.5189 213.958 49.5189C213.558 49.5189 213.242 49.6429 213.01 49.8909C212.778 50.1389 212.662 50.4989 212.662 50.9709V52.1349C212.662 52.6149 212.778 52.9789 213.01 53.2269C213.242 53.4749 213.558 53.5989 213.958 53.5989ZM220.708 54.8349C220.244 54.8349 219.832 54.7589 219.472 54.6069C219.112 54.4549 218.808 54.2349 218.56 53.9469C218.32 53.6589 218.136 53.3149 218.008 52.9149C217.88 52.5069 217.816 52.0509 217.816 51.5469C217.816 51.0429 217.88 50.5909 218.008 50.1909C218.136 49.7909 218.32 49.4509 218.56 49.1709C218.808 48.8829 219.112 48.6629 219.472 48.5109C219.832 48.3589 220.244 48.2829 220.708 48.2829C221.34 48.2829 221.86 48.4229 222.268 48.7029C222.684 48.9829 222.984 49.3709 223.168 49.8669L221.908 50.4309C221.836 50.1669 221.7 49.9509 221.5 49.7829C221.308 49.6069 221.044 49.5189 220.708 49.5189C220.276 49.5189 219.952 49.6549 219.736 49.9269C219.528 50.1989 219.424 50.5549 219.424 50.9949V52.1349C219.424 52.5749 219.528 52.9309 219.736 53.2029C219.952 53.4669 220.276 53.5989 220.708 53.5989C221.076 53.5989 221.36 53.5069 221.56 53.3229C221.76 53.1309 221.916 52.8949 222.028 52.6149L223.204 53.1789C222.996 53.7309 222.68 54.1469 222.256 54.4269C221.832 54.6989 221.316 54.8349 220.708 54.8349ZM224.388 45.8109H225.924V51.1629H225.984L226.812 50.0349L228.216 48.4269H229.956L227.796 50.8509L230.184 54.6909H228.36L226.752 51.8829L225.924 52.7829V54.6909H224.388V45.8109ZM232.965 54.6909C232.437 54.6909 232.033 54.5549 231.753 54.2829C231.481 54.0029 231.345 53.6069 231.345 53.0949V49.6509H230.421V48.4269H230.901C231.133 48.4269 231.289 48.3749 231.369 48.2709C231.457 48.1589 231.501 47.9949 231.501 47.7789V46.7109H232.881V48.4269H234.165V49.6509H232.881V53.4669H234.069V54.6909H232.965ZM240.105 54.6909C239.769 54.6909 239.501 54.5949 239.301 54.4029C239.109 54.2029 238.989 53.9389 238.941 53.6109H238.869C238.765 54.0189 238.553 54.3269 238.233 54.5349C237.913 54.7349 237.517 54.8349 237.045 54.8349C236.405 54.8349 235.913 54.6669 235.569 54.3309C235.225 53.9949 235.053 53.5469 235.053 52.9869C235.053 52.3389 235.285 51.8589 235.749 51.5469C236.213 51.2269 236.873 51.0669 237.729 51.0669H238.797V50.6109C238.797 50.2589 238.705 49.9869 238.521 49.7949C238.337 49.6029 238.041 49.5069 237.633 49.5069C237.273 49.5069 236.981 49.5869 236.757 49.7469C236.541 49.8989 236.357 50.0829 236.205 50.2989L235.293 49.4829C235.525 49.1229 235.833 48.8349 236.217 48.6189C236.601 48.3949 237.109 48.2829 237.741 48.2829C238.589 48.2829 239.233 48.4749 239.673 48.8589C240.113 49.2429 240.333 49.7949 240.333 50.5149V53.4669H240.957V54.6909H240.105ZM237.561 53.7189C237.905 53.7189 238.197 53.6429 238.437 53.4909C238.677 53.3389 238.797 53.1149 238.797 52.8189V51.9909H237.813C237.013 51.9909 236.613 52.2469 236.613 52.7589V52.9629C236.613 53.2189 236.693 53.4109 236.853 53.5389C237.021 53.6589 237.257 53.7189 237.561 53.7189ZM242.969 47.5149C242.649 47.5149 242.417 47.4429 242.273 47.2989C242.137 47.1549 242.069 46.9709 242.069 46.7469V46.5069C242.069 46.2829 242.137 46.0989 242.273 45.9549C242.417 45.8109 242.649 45.7389 242.969 45.7389C243.281 45.7389 243.509 45.8109 243.653 45.9549C243.797 46.0989 243.869 46.2829 243.869 46.5069V46.7469C243.869 46.9709 243.797 47.1549 243.653 47.2989C243.509 47.4429 243.281 47.5149 242.969 47.5149ZM242.201 48.4269H243.737V54.6909H242.201V48.4269ZM247.053 54.6909C246.525 54.6909 246.137 54.5589 245.889 54.2949C245.641 54.0309 245.517 53.6589 245.517 53.1789V45.8109H247.053V53.4669H247.881V54.6909H247.053ZM252.084 54.6909V53.4069H254.388V47.4549H254.28L252.456 49.6149L251.472 48.7869L253.548 46.3149H255.936V53.4069H257.856V54.6909H252.084ZM266.951 54.6909C266.423 54.6909 266.035 54.5589 265.787 54.2949C265.539 54.0309 265.415 53.6589 265.415 53.1789V48.0669H266.951V53.4669H267.827V54.6909H266.951ZM263.675 54.6909C263.147 54.6909 262.759 54.5589 262.511 54.2949C262.263 54.0309 262.139 53.6589 262.139 53.1789V48.0669H263.675V53.4669H264.551V54.6909H263.675ZM269.636 51.1269L268.604 50.7069C268.636 50.2909 268.736 49.9109 268.904 49.5669C269.072 49.2229 269.296 48.9309 269.576 48.6909C269.864 48.4429 270.2 48.2549 270.584 48.1269C270.976 47.9909 271.4 47.9229 271.856 47.9229C272.336 47.9229 272.764 47.9869 273.14 48.1149C273.524 48.2429 273.848 48.4269 274.112 48.6669C274.376 48.9069 274.576 49.1989 274.712 49.5429C274.856 49.8789 274.928 50.2549 274.928 50.6709V54.6909H273.392V50.8749C273.392 50.3229 273.252 49.8989 272.972 49.6029C272.692 49.3069 272.288 49.1589 271.76 49.1589C271.344 49.1589 270.98 49.2509 270.668 49.4349C270.364 49.6109 270.152 49.8429 270.032 50.1309L270.5 50.3109C270.756 50.4069 270.932 50.5189 271.028 50.6469C271.124 50.7749 271.172 50.9669 271.172 51.2229V54.6909H269.636V51.1269ZM272.594 45.8109H273.398V45.3909C273.398 45.2389 273.362 45.1309 273.29 45.0669C273.218 44.9949 273.086 44.9589 272.894 44.9589H272.594V43.8789H273.494C273.878 43.8789 274.174 43.9669 274.382 44.1429C274.59 44.3109 274.694 44.5349 274.694 44.8149C274.694 44.9989 274.642 45.1789 274.538 45.3549C274.426 45.5229 274.27 45.6509 274.07 45.7389V45.8109H276.266V46.8909H272.594V45.8109ZM278.682 54.8349C278.33 54.8349 277.994 54.7909 277.674 54.7029C277.362 54.6229 277.086 54.4989 276.846 54.3309L277.41 53.2389C277.562 53.3269 277.734 53.4109 277.926 53.4909C278.118 53.5629 278.346 53.5989 278.61 53.5989C279.042 53.5989 279.37 53.4549 279.594 53.1669C279.826 52.8709 279.942 52.4709 279.942 51.9669V50.8029C279.942 50.2989 279.83 49.8989 279.606 49.6029C279.382 49.3069 279.05 49.1589 278.61 49.1589C278.242 49.1589 277.946 49.2509 277.722 49.4349C277.498 49.6189 277.342 49.8509 277.254 50.1309L276.006 49.5789C276.206 49.0669 276.53 48.6629 276.978 48.3669C277.434 48.0709 278.002 47.9229 278.682 47.9229C279.146 47.9229 279.554 48.0029 279.906 48.1629C280.266 48.3229 280.566 48.5549 280.806 48.8589C281.054 49.1549 281.238 49.5149 281.358 49.9389C281.486 50.3629 281.55 50.8389 281.55 51.3669C281.55 51.9029 281.486 52.3869 281.358 52.8189C281.238 53.2429 281.054 53.6069 280.806 53.9109C280.566 54.2069 280.266 54.4349 279.906 54.5949C279.554 54.7549 279.146 54.8349 278.682 54.8349Z" fill="#3F2436"/>
<path d="M124.392 73.8349C124.112 73.8349 123.864 73.7989 123.648 73.7269C123.44 73.6629 123.256 73.5749 123.096 73.4629C122.944 73.3429 122.816 73.2069 122.712 73.0549C122.616 72.9029 122.54 72.7469 122.484 72.5869H122.424V73.6909H120.888V67.0669H122.424V71.4589C122.424 71.6429 122.464 71.8069 122.544 71.9509C122.624 72.0869 122.728 72.2029 122.856 72.2989C122.984 72.3869 123.128 72.4549 123.288 72.5029C123.448 72.5509 123.608 72.5749 123.768 72.5749C124.008 72.5749 124.208 72.5389 124.368 72.4669C124.528 72.3869 124.656 72.2829 124.752 72.1549C124.856 72.0189 124.928 71.8629 124.968 71.6869C125.008 71.5029 125.028 71.3069 125.028 71.0989V67.0669H126.564V71.2429C126.564 72.0749 126.376 72.7149 126 73.1629C125.632 73.6109 125.096 73.8349 124.392 73.8349ZM124.654 77.9629C124.014 77.9629 123.558 77.8189 123.286 77.5309C123.006 77.2429 122.866 76.8789 122.866 76.4389V76.0069H122.086V74.9749H123.046C123.406 74.9749 123.662 75.0429 123.814 75.1789C123.966 75.3229 124.042 75.5109 124.042 75.7429V76.1989C124.042 76.4469 124.086 76.6309 124.174 76.7509C124.262 76.8709 124.422 76.9309 124.654 76.9309C124.886 76.9309 125.046 76.8709 125.134 76.7509C125.222 76.6309 125.266 76.4469 125.266 76.1989V74.9749H126.562V76.1389C126.562 76.6669 126.406 77.1029 126.094 77.4469C125.782 77.7909 125.302 77.9629 124.654 77.9629ZM130.143 73.8109C129.495 73.8109 128.979 73.6549 128.595 73.3429C128.211 73.0229 128.019 72.5309 128.019 71.8669C128.019 71.2429 128.203 70.7629 128.571 70.4269C128.939 70.0909 129.463 69.9229 130.143 69.9229H132.159V69.4909C132.159 69.0589 132.043 68.7309 131.811 68.5069C131.579 68.2749 131.211 68.1589 130.707 68.1589C130.235 68.1589 129.855 68.2629 129.567 68.4709C129.279 68.6709 129.043 68.9069 128.859 69.1789L127.887 68.3269C128.023 68.1189 128.179 67.9309 128.355 67.7629C128.539 67.5869 128.747 67.4389 128.979 67.3189C129.219 67.1909 129.487 67.0949 129.783 67.0309C130.087 66.9589 130.427 66.9229 130.803 66.9229C131.755 66.9229 132.475 67.1389 132.963 67.5709C133.451 68.0029 133.695 68.6229 133.695 69.4309V73.6909H132.159V70.9189H130.659C129.947 70.9189 129.591 71.2029 129.591 71.7709V71.9989C129.591 72.2789 129.671 72.4989 129.831 72.6589C129.991 72.8189 130.211 72.8989 130.491 72.8989C130.619 72.8989 130.731 72.8869 130.827 72.8629L130.935 73.7269C130.871 73.7509 130.755 73.7709 130.587 73.7869C130.419 73.8029 130.271 73.8109 130.143 73.8109ZM135.324 69.6829C135.324 69.2669 135.396 68.8909 135.54 68.5549C135.684 68.2109 135.892 67.9189 136.164 67.6789C136.436 67.4389 136.764 67.2549 137.148 67.1269C137.54 66.9909 137.98 66.9229 138.468 66.9229C138.948 66.9229 139.38 66.9909 139.764 67.1269C140.156 67.2549 140.488 67.4389 140.76 67.6789C141.032 67.9189 141.24 68.2109 141.384 68.5549C141.536 68.8909 141.612 69.2669 141.612 69.6829V73.6909H140.076V69.7669C140.076 69.2549 139.932 68.8589 139.644 68.5789C139.364 68.2989 138.972 68.1589 138.468 68.1589C137.964 68.1589 137.568 68.2989 137.28 68.5789C137 68.8589 136.86 69.2549 136.86 69.7669V71.2309H136.92C136.96 71.0629 137.02 70.9029 137.1 70.7509C137.188 70.5909 137.3 70.4509 137.436 70.3309C137.572 70.2109 137.732 70.1149 137.916 70.0429C138.108 69.9629 138.328 69.9229 138.576 69.9229H138.912V71.3749H138.432C137.92 71.3749 137.528 71.4549 137.256 71.6149C136.992 71.7669 136.86 72.0229 136.86 72.3829V73.6909H135.324V69.6829ZM140.145 63.5629H141.561V65.9749H140.145V63.5629ZM146.057 69.2629C146.057 68.9109 145.965 68.6389 145.781 68.4469C145.605 68.2549 145.321 68.1589 144.929 68.1589C144.569 68.1589 144.281 68.2349 144.065 68.3869C143.857 68.5389 143.681 68.7269 143.537 68.9509L142.625 68.1349C142.857 67.7669 143.157 67.4749 143.525 67.2589C143.901 67.0349 144.405 66.9229 145.037 66.9229C145.877 66.9229 146.513 67.1189 146.945 67.5109C147.377 67.8949 147.593 68.4509 147.593 69.1789V73.6909H146.057V69.2629ZM157.794 73.6909H151.986V72.2269L154.614 69.9229C155.062 69.5309 155.39 69.1789 155.598 68.8669C155.806 68.5469 155.91 68.2029 155.91 67.8349V67.6789C155.91 67.3109 155.79 67.0309 155.55 66.8389C155.31 66.6389 155.018 66.5389 154.674 66.5389C154.242 66.5389 153.914 66.6629 153.69 66.9109C153.466 67.1509 153.306 67.4429 153.21 67.7869L151.842 67.2589C151.93 66.9789 152.054 66.7149 152.214 66.4669C152.374 66.2109 152.574 65.9869 152.814 65.7949C153.062 65.6029 153.35 65.4509 153.678 65.3389C154.006 65.2269 154.382 65.1709 154.806 65.1709C155.246 65.1709 155.638 65.2349 155.982 65.3629C156.326 65.4829 156.614 65.6549 156.846 65.8789C157.086 66.1029 157.266 66.3669 157.386 66.6709C157.514 66.9749 157.578 67.3069 157.578 67.6669C157.578 68.0189 157.522 68.3389 157.41 68.6269C157.298 68.9149 157.146 69.1909 156.954 69.4549C156.762 69.7109 156.538 69.9589 156.282 70.1989C156.026 70.4309 155.754 70.6669 155.466 70.9069L153.702 72.3589H157.794V73.6909ZM164.99 73.6909H159.182V72.2269L161.81 69.9229C162.258 69.5309 162.586 69.1789 162.794 68.8669C163.002 68.5469 163.106 68.2029 163.106 67.8349V67.6789C163.106 67.3109 162.986 67.0309 162.746 66.8389C162.506 66.6389 162.214 66.5389 161.87 66.5389C161.438 66.5389 161.11 66.6629 160.886 66.9109C160.662 67.1509 160.502 67.4429 160.406 67.7869L159.038 67.2589C159.126 66.9789 159.25 66.7149 159.41 66.4669C159.57 66.2109 159.77 65.9869 160.01 65.7949C160.258 65.6029 160.546 65.4509 160.874 65.3389C161.202 65.2269 161.578 65.1709 162.002 65.1709C162.442 65.1709 162.834 65.2349 163.178 65.3629C163.522 65.4829 163.81 65.6549 164.042 65.8789C164.282 66.1029 164.462 66.3669 164.582 66.6709C164.71 66.9749 164.773 67.3069 164.773 67.6669C164.773 68.0189 164.717 68.3389 164.605 68.6269C164.493 68.9149 164.342 69.1909 164.15 69.4549C163.958 69.7109 163.734 69.9589 163.478 70.1989C163.222 70.4309 162.95 70.6669 162.662 70.9069L160.898 72.3589H164.99V73.6909ZM169.233 73.8349C168.697 73.8349 168.233 73.7389 167.841 73.5469C167.449 73.3469 167.125 73.0629 166.869 72.6949C166.613 72.3269 166.421 71.8749 166.293 71.3389C166.173 70.8029 166.113 70.1909 166.113 69.5029C166.113 68.8229 166.173 68.2149 166.293 67.6789C166.421 67.1349 166.613 66.6789 166.869 66.3109C167.125 65.9429 167.449 65.6629 167.841 65.4709C168.233 65.2709 168.697 65.1709 169.233 65.1709C170.297 65.1709 171.081 65.5509 171.585 66.3109C172.097 67.0709 172.353 68.1349 172.353 69.5029C172.353 70.8709 172.097 71.9349 171.585 72.6949C171.081 73.4549 170.297 73.8349 169.233 73.8349ZM169.233 72.5029C169.769 72.5029 170.141 72.3029 170.349 71.9029C170.565 71.4949 170.673 70.9469 170.673 70.2589V68.7469C170.673 68.0589 170.565 67.5149 170.349 67.1149C170.141 66.7069 169.769 66.5029 169.233 66.5029C168.697 66.5029 168.321 66.7069 168.105 67.1149C167.897 67.5149 167.793 68.0589 167.793 68.7469V70.2589C167.793 70.9469 167.897 71.4949 168.105 71.9029C168.321 72.3029 168.697 72.5029 169.233 72.5029ZM179.384 73.8349C178.936 73.8349 178.532 73.7749 178.172 73.6549C177.812 73.5269 177.504 73.3469 177.248 73.1149C177 72.8829 176.808 72.6029 176.672 72.2749C176.544 71.9469 176.48 71.5789 176.48 71.1709V67.0669H178.016V71.0869C178.016 71.5669 178.136 71.9389 178.376 72.2029C178.616 72.4669 178.952 72.5989 179.384 72.5989C179.816 72.5989 180.152 72.4669 180.392 72.2029C180.632 71.9389 180.752 71.5669 180.752 71.0869V67.0669H182.288V71.1709C182.288 71.5789 182.22 71.9469 182.084 72.2749C181.956 72.6029 181.764 72.8829 181.508 73.1149C181.26 73.3469 180.956 73.5269 180.596 73.6549C180.236 73.7749 179.832 73.8349 179.384 73.8349ZM186.849 69.2629C186.849 68.9109 186.757 68.6389 186.573 68.4469C186.397 68.2549 186.113 68.1589 185.721 68.1589C185.361 68.1589 185.073 68.2349 184.857 68.3869C184.649 68.5389 184.473 68.7269 184.329 68.9509L183.417 68.1349C183.649 67.7669 183.949 67.4749 184.317 67.2589C184.693 67.0349 185.197 66.9229 185.829 66.9229C186.669 66.9229 187.305 67.1189 187.737 67.5109C188.169 67.8949 188.385 68.4509 188.385 69.1789V73.6909H186.849V69.2629ZM190.087 67.0669H191.623V68.1709H191.683C191.739 68.0109 191.819 67.8549 191.923 67.7029C192.027 67.5509 192.155 67.4189 192.307 67.3069C192.467 67.1869 192.651 67.0949 192.859 67.0309C193.075 66.9589 193.327 66.9229 193.615 66.9229C194.319 66.9229 194.859 67.1469 195.235 67.5949C195.611 68.0429 195.799 68.6829 195.799 69.5149V73.6909H194.263V69.6589C194.263 69.1789 194.163 68.8149 193.963 68.5669C193.763 68.3109 193.443 68.1829 193.003 68.1829C192.835 68.1829 192.667 68.2069 192.499 68.2549C192.331 68.3029 192.183 68.3749 192.055 68.4709C191.927 68.5669 191.823 68.6869 191.743 68.8309C191.663 68.9669 191.623 69.1269 191.623 69.3109V73.6909H190.087V67.0669Z" fill="#3F2436"/>
<path d="M121.304 92.0989L120.696 91.6749L121.544 90.6189L120.272 90.2509L120.504 89.5549L121.728 90.0349L121.672 88.7149H122.432L122.376 90.0349L123.6 89.5549L123.84 90.2509L122.56 90.6189L123.408 91.6749L122.8 92.0989L122.048 90.9789L121.304 92.0989ZM125.813 94.6909C125.509 94.6909 125.285 94.6136 125.141 94.4589C124.997 94.3043 124.925 94.0883 124.925 93.8109V90.2989H125.797V93.9789H126.421V94.6909H125.813ZM129.488 94.7869C129.301 94.7869 129.136 94.7629 128.992 94.7149C128.853 94.6723 128.733 94.6136 128.632 94.5389C128.531 94.4589 128.445 94.3709 128.376 94.2749C128.307 94.1736 128.253 94.0696 128.216 93.9629H128.176V94.6909H127.304V90.2989H128.176V93.2589C128.176 93.3923 128.205 93.5096 128.264 93.6109C128.323 93.7069 128.397 93.7869 128.488 93.8509C128.579 93.9149 128.683 93.9629 128.8 93.9949C128.917 94.0216 129.037 94.0349 129.16 94.0349C129.496 94.0349 129.733 93.9443 129.872 93.7629C130.016 93.5763 130.088 93.3176 130.088 92.9869V90.2989H130.96V93.0829C130.96 93.6323 130.832 94.0536 130.576 94.3469C130.32 94.6403 129.957 94.7869 129.488 94.7869ZM127.505 88.8269H128.921V88.1949H129.641V88.8909H130.233V88.1949H130.953V89.5149H127.505V88.8269ZM130.193 86.5309H130.953V87.7549H130.193V86.5309ZM133.805 94.7869C133.538 94.7869 133.288 94.7496 133.053 94.6749C132.824 94.5949 132.624 94.4883 132.453 94.3549C132.288 94.2163 132.157 94.0509 132.061 93.8589C131.965 93.6669 131.917 93.4536 131.917 93.2189V92.8189C131.917 92.6323 131.96 92.4883 132.045 92.3869C132.13 92.2803 132.285 92.2269 132.509 92.2269H133.405V92.9149H132.741V93.1549C132.741 93.4749 132.84 93.7096 133.037 93.8589C133.24 94.0029 133.509 94.0749 133.845 94.0749C134.192 94.0749 134.458 93.9683 134.645 93.7549C134.837 93.5416 134.933 93.2403 134.933 92.8509V92.1629C134.933 91.7683 134.826 91.4616 134.613 91.2429C134.405 91.0243 134.109 90.9149 133.725 90.9149C133.405 90.9149 133.13 90.9816 132.901 91.1149C132.677 91.2483 132.506 91.4083 132.389 91.5949L131.845 91.1069C132 90.8509 132.237 90.6376 132.557 90.4669C132.877 90.2909 133.28 90.2029 133.765 90.2029C134.426 90.2029 134.941 90.4056 135.309 90.8109C135.677 91.2109 135.861 91.7709 135.861 92.4909C135.861 92.8429 135.816 93.1629 135.725 93.4509C135.634 93.7336 135.501 93.9736 135.325 94.1709C135.149 94.3683 134.933 94.5203 134.677 94.6269C134.421 94.7336 134.13 94.7869 133.805 94.7869ZM140.114 94.6909C139.81 94.6909 139.586 94.6136 139.442 94.4589C139.298 94.3043 139.226 94.0883 139.226 93.8109V90.2989H140.098V93.9789H140.722V94.6909H140.114ZM137.97 94.6909C137.666 94.6909 137.442 94.6136 137.298 94.4589C137.154 94.3043 137.082 94.0883 137.082 93.8109V90.2989H137.954V93.9789H138.578V94.6909H137.97ZM142.857 94.7709C142.425 94.7709 142.078 94.6643 141.817 94.4509C141.561 94.2376 141.433 93.9149 141.433 93.4829C141.433 93.0723 141.555 92.7549 141.801 92.5309C142.051 92.3069 142.403 92.1949 142.857 92.1949H144.217V91.8589C144.217 91.5496 144.131 91.3149 143.961 91.1549C143.795 90.9949 143.537 90.9149 143.185 90.9149C142.87 90.9149 142.611 90.9816 142.409 91.1149C142.211 91.2483 142.049 91.4163 141.921 91.6189L141.361 91.1309C141.531 90.8589 141.763 90.6376 142.057 90.4669C142.355 90.2909 142.75 90.2029 143.241 90.2029C143.843 90.2029 144.302 90.3443 144.617 90.6269C144.931 90.9043 145.089 91.3043 145.089 91.8269V94.6909H144.217V92.7789H143.121C142.865 92.7789 142.667 92.8323 142.529 92.9389C142.395 93.0456 142.329 93.2003 142.329 93.4029V93.5629C142.329 93.7656 142.39 93.9256 142.513 94.0429C142.635 94.1603 142.803 94.2189 143.017 94.2189C143.123 94.2189 143.209 94.2109 143.273 94.1949L143.345 94.7229C143.297 94.7336 143.222 94.7443 143.121 94.7549C143.019 94.7656 142.931 94.7709 142.857 94.7709ZM146.688 92.2669L146 91.9789C146.021 91.7176 146.085 91.4776 146.192 91.2589C146.304 91.0403 146.451 90.8536 146.632 90.6989C146.813 90.5389 147.027 90.4163 147.272 90.3309C147.517 90.2456 147.784 90.2029 148.072 90.2029C148.707 90.2029 149.2 90.3656 149.552 90.6909C149.904 91.0109 150.08 91.4456 150.08 91.9949V94.6909H149.208V92.1069C149.208 91.7229 149.104 91.4296 148.896 91.2269C148.688 91.0189 148.403 90.9149 148.04 90.9149C147.747 90.9149 147.488 90.9816 147.264 91.1149C147.045 91.2429 146.896 91.4163 146.816 91.6349L147.16 91.7709C147.309 91.8296 147.413 91.8989 147.472 91.9789C147.531 92.0536 147.56 92.1656 147.56 92.3149V94.6909H146.688V92.2669ZM154.512 94.6909C154.208 94.6909 153.984 94.6136 153.84 94.4589C153.696 94.3043 153.624 94.0883 153.624 93.8109V90.2989H154.496V93.9789H155.12V94.6909H154.512ZM152.368 94.6909C152.064 94.6909 151.84 94.6136 151.696 94.4589C151.552 94.3043 151.48 94.0883 151.48 93.8109V90.2989H152.352V93.9789H152.976V94.6909H152.368ZM157.255 94.7709C156.823 94.7709 156.477 94.6643 156.215 94.4509C155.959 94.2376 155.831 93.9149 155.831 93.4829C155.831 93.0723 155.954 92.7549 156.199 92.5309C156.45 92.3069 156.802 92.1949 157.255 92.1949H158.615V91.8589C158.615 91.5496 158.53 91.3149 158.359 91.1549C158.194 90.9949 157.935 90.9149 157.583 90.9149C157.269 90.9149 157.01 90.9816 156.807 91.1149C156.61 91.2483 156.447 91.4163 156.319 91.6189L155.759 91.1309C155.93 90.8589 156.162 90.6376 156.455 90.4669C156.754 90.2909 157.149 90.2029 157.639 90.2029C158.242 90.2029 158.701 90.3443 159.015 90.6269C159.33 90.9043 159.487 91.3043 159.487 91.8269V94.6909H158.615V92.7789H157.519C157.263 92.7789 157.066 92.8323 156.927 92.9389C156.794 93.0456 156.727 93.2003 156.727 93.4029V93.5629C156.727 93.7656 156.789 93.9256 156.911 94.0429C157.034 94.1603 157.202 94.2189 157.415 94.2189C157.522 94.2189 157.607 94.2109 157.671 94.1949L157.743 94.7229C157.695 94.7336 157.621 94.7443 157.519 94.7549C157.418 94.7656 157.33 94.7709 157.255 94.7709ZM158.044 88.8269H158.612V88.5469C158.612 88.4296 158.588 88.3469 158.54 88.2989C158.487 88.2456 158.394 88.2189 158.26 88.2189H158.044V87.5949H158.58C158.836 87.5949 159.031 87.6509 159.164 87.7629C159.292 87.8696 159.356 88.0163 159.356 88.2029C159.356 88.3149 159.327 88.4269 159.268 88.5389C159.204 88.6456 159.111 88.7283 158.988 88.7869V88.8269H160.428V89.4509H158.044V88.8269ZM162.038 94.7869C161.814 94.7869 161.601 94.7603 161.398 94.7069C161.196 94.6536 161.017 94.5736 160.862 94.4669L161.19 93.8429C161.297 93.9069 161.414 93.9629 161.542 94.0109C161.676 94.0536 161.828 94.0749 161.998 94.0749C162.318 94.0749 162.564 93.9683 162.734 93.7549C162.91 93.5363 162.998 93.2376 162.998 92.8589V92.1309C162.998 91.7576 162.913 91.4616 162.742 91.2429C162.577 91.0243 162.332 90.9149 162.006 90.9149C161.745 90.9149 161.532 90.9763 161.366 91.0989C161.201 91.2163 161.081 91.3763 161.006 91.5789L160.294 91.2429C160.428 90.9229 160.641 90.6696 160.934 90.4829C161.228 90.2963 161.596 90.2029 162.038 90.2029C162.342 90.2029 162.612 90.2563 162.846 90.3629C163.081 90.4696 163.278 90.6216 163.438 90.8189C163.598 91.0163 163.718 91.2563 163.798 91.5389C163.884 91.8216 163.926 92.1389 163.926 92.4909C163.926 92.8429 163.884 93.1629 163.798 93.4509C163.713 93.7336 163.59 93.9736 163.43 94.1709C163.27 94.3683 163.073 94.5203 162.838 94.6269C162.604 94.7336 162.337 94.7869 162.038 94.7869ZM166.224 94.7709C165.792 94.7709 165.445 94.6643 165.184 94.4509C164.928 94.2376 164.8 93.9149 164.8 93.4829C164.8 93.0723 164.923 92.7549 165.168 92.5309C165.419 92.3069 165.771 92.1949 166.224 92.1949H167.584V91.8589C167.584 91.5496 167.499 91.3149 167.328 91.1549C167.163 90.9949 166.904 90.9149 166.552 90.9149C166.237 90.9149 165.979 90.9816 165.776 91.1149C165.579 91.2483 165.416 91.4163 165.288 91.6189L164.728 91.1309C164.899 90.8589 165.131 90.6376 165.424 90.4669C165.723 90.2909 166.117 90.2029 166.608 90.2029C167.115 90.2029 167.517 90.3016 167.816 90.4989C167.864 90.2109 168.045 90.0669 168.36 90.0669H169.344V90.8269H168.152V90.8429C168.355 91.1043 168.456 91.4323 168.456 91.8269V94.6909H167.584V92.7789H166.488C166.232 92.7789 166.035 92.8323 165.896 92.9389C165.763 93.0456 165.696 93.2003 165.696 93.4029V93.5629C165.696 93.7656 165.757 93.9256 165.88 94.0429C166.003 94.1603 166.171 94.2189 166.384 94.2189C166.491 94.2189 166.576 94.2109 166.64 94.1949L166.712 94.7229C166.664 94.7336 166.589 94.7443 166.488 94.7549C166.387 94.7656 166.299 94.7709 166.224 94.7709ZM171.895 91.7149C171.895 91.4589 171.829 91.2616 171.695 91.1229C171.562 90.9843 171.351 90.9149 171.063 90.9149C170.818 90.9149 170.621 90.9683 170.471 91.0749C170.322 91.1763 170.194 91.3096 170.087 91.4749L169.559 91.0109C169.703 90.7709 169.898 90.5763 170.143 90.4269C170.389 90.2776 170.714 90.2029 171.119 90.2029C171.653 90.2029 172.061 90.3283 172.343 90.5789C172.626 90.8296 172.767 91.1896 172.767 91.6589V94.6909H171.895V91.7149ZM176.168 94.7869C175.981 94.7869 175.816 94.7629 175.672 94.7149C175.533 94.6723 175.413 94.6136 175.312 94.5389C175.21 94.4589 175.125 94.3709 175.056 94.2749C174.986 94.1736 174.933 94.0696 174.896 93.9629H174.856V94.6909H173.984V90.2989H174.856V93.2589C174.856 93.3923 174.885 93.5096 174.944 93.6109C175.002 93.7069 175.077 93.7869 175.168 93.8509C175.258 93.9149 175.362 93.9629 175.48 93.9949C175.597 94.0216 175.717 94.0349 175.84 94.0349C176.176 94.0349 176.413 93.9443 176.552 93.7629C176.696 93.5763 176.768 93.3176 176.768 92.9869V90.2989H177.64V93.0829C177.64 93.6323 177.512 94.0536 177.256 94.3469C177 94.6403 176.637 94.7869 176.168 94.7869ZM180.755 91.7149C180.755 91.4589 180.688 91.2616 180.555 91.1229C180.421 90.9843 180.211 90.9149 179.923 90.9149C179.677 90.9149 179.48 90.9683 179.331 91.0749C179.181 91.1763 179.053 91.3096 178.947 91.4749L178.419 91.0109C178.563 90.7709 178.757 90.5763 179.003 90.4269C179.248 90.2776 179.573 90.2029 179.979 90.2029C180.512 90.2029 180.92 90.3283 181.203 90.5789C181.485 90.8296 181.627 91.1896 181.627 91.6589V94.6909H180.755V91.7149ZM184.403 94.7869C183.992 94.7869 183.643 94.7176 183.355 94.5789C183.072 94.4349 182.824 94.2349 182.611 93.9789L183.163 93.4589C183.323 93.6616 183.51 93.8163 183.723 93.9229C183.936 94.0296 184.179 94.0829 184.451 94.0829C184.739 94.0829 184.952 94.0323 185.091 93.9309C185.235 93.8243 185.307 93.6749 185.307 93.4829C185.307 93.3123 185.251 93.1816 185.139 93.0909C185.032 92.9949 184.862 92.9309 184.627 92.8989L184.219 92.8429C184.022 92.8163 183.835 92.7736 183.659 92.7149C183.483 92.6563 183.328 92.5763 183.195 92.4749C183.067 92.3736 182.963 92.2483 182.883 92.0989C182.808 91.9496 182.771 91.7656 182.771 91.5469C182.771 91.3336 182.811 91.1443 182.891 90.9789C182.971 90.8083 183.083 90.6669 183.227 90.5549C183.371 90.4376 183.542 90.3496 183.739 90.2909C183.942 90.2323 184.163 90.2029 184.403 90.2029C184.803 90.2029 185.131 90.2643 185.387 90.3869C185.643 90.5043 185.87 90.6696 186.067 90.8829L185.539 91.4109C185.416 91.2723 185.259 91.1549 185.067 91.0589C184.875 90.9629 184.654 90.9149 184.403 90.9149C184.142 90.9149 183.944 90.9656 183.811 91.0669C183.678 91.1683 183.611 91.3069 183.611 91.4829C183.611 91.6696 183.672 91.8083 183.795 91.8989C183.918 91.9896 184.099 92.0509 184.339 92.0829L184.747 92.1469C184.955 92.1789 185.144 92.2243 185.315 92.2829C185.491 92.3416 185.64 92.4216 185.763 92.5229C185.886 92.6189 185.979 92.7389 186.043 92.8829C186.112 93.0269 186.147 93.2003 186.147 93.4029C186.147 93.6109 186.104 93.8003 186.019 93.9709C185.939 94.1416 185.822 94.2883 185.667 94.4109C185.518 94.5283 185.334 94.6216 185.115 94.6909C184.902 94.7549 184.664 94.7869 184.403 94.7869ZM188.459 94.6909C188.155 94.6909 187.928 94.6136 187.779 94.4589C187.635 94.3043 187.563 94.0883 187.563 93.8109V92.2669L186.875 91.9789C186.896 91.7176 186.96 91.4776 187.067 91.2589C187.179 91.0403 187.326 90.8536 187.507 90.6989C187.694 90.5389 187.91 90.4163 188.155 90.3309C188.4 90.2456 188.667 90.2029 188.955 90.2029C189.59 90.2029 190.08 90.3656 190.427 90.6909C190.779 91.0109 190.955 91.4456 190.955 91.9949V94.6909H190.083V92.1069C190.083 91.7229 189.979 91.4296 189.771 91.2269C189.568 91.0189 189.286 90.9149 188.923 90.9149C188.624 90.9149 188.363 90.9816 188.139 91.1149C187.92 91.2429 187.771 91.4163 187.691 91.6349L188.035 91.7709C188.184 91.8296 188.288 91.8989 188.347 91.9789C188.406 92.0536 188.435 92.1656 188.435 92.3149V93.9789H188.899V94.6909H188.459ZM193.251 94.6909C192.947 94.6909 192.72 94.6136 192.571 94.4589C192.427 94.3043 192.355 94.0883 192.355 93.8109V90.5709C192.355 90.4429 192.374 90.3283 192.411 90.2269C192.448 90.1256 192.496 90.0349 192.555 89.9549C192.614 89.8696 192.678 89.7923 192.747 89.7229C192.822 89.6483 192.894 89.5763 192.963 89.5069C193.064 89.4109 193.15 89.3096 193.219 89.2029C193.294 89.0963 193.331 88.9709 193.331 88.8269C193.331 88.6403 193.275 88.4989 193.163 88.4029C193.056 88.3069 192.915 88.2589 192.739 88.2589C192.542 88.2589 192.379 88.3176 192.251 88.4349C192.128 88.5469 192.035 88.7123 191.971 88.9309L191.315 88.5629C191.422 88.2696 191.595 88.0296 191.835 87.8429C192.075 87.6509 192.406 87.5549 192.827 87.5549C193.243 87.5549 193.571 87.6643 193.811 87.8829C194.051 88.0963 194.171 88.3789 194.171 88.7309C194.171 88.9656 194.118 89.1603 194.011 89.3149C193.91 89.4696 193.798 89.6136 193.675 89.7469C193.563 89.8696 193.459 89.9923 193.363 90.1149C193.272 90.2376 193.227 90.3789 193.227 90.5389V93.9789H193.851V94.6909H193.251ZM196.366 94.7869C196.099 94.7869 195.856 94.7549 195.638 94.6909C195.424 94.6269 195.24 94.5309 195.086 94.4029C194.931 94.2749 194.811 94.1123 194.726 93.9149C194.64 93.7176 194.598 93.4856 194.598 93.2189C194.598 92.9149 194.638 92.6749 194.718 92.4989C194.803 92.3176 194.899 92.1549 195.006 92.0109C195.107 91.8776 195.19 91.7416 195.254 91.6029C195.318 91.4643 195.35 91.3229 195.35 91.1789V91.0269H194.542V90.2989H195.454C195.694 90.2989 195.878 90.3576 196.006 90.4749C196.139 90.5869 196.206 90.7416 196.206 90.9389V90.9949C196.206 91.1709 196.174 91.3416 196.11 91.5069C196.051 91.6669 195.96 91.8536 195.838 92.0669C195.742 92.2376 195.664 92.3949 195.606 92.5389C195.552 92.6776 195.526 92.8403 195.526 93.0269V93.2589C195.526 93.5256 195.598 93.7283 195.742 93.8669C195.891 94.0056 196.094 94.0749 196.35 94.0749C196.606 94.0749 196.806 94.0056 196.95 93.8669C197.099 93.7283 197.174 93.5256 197.174 93.2589V92.6429C197.174 92.3976 197.131 92.2083 197.046 92.0749C196.966 91.9416 196.832 91.8749 196.646 91.8749H196.494V91.2109H196.686C196.846 91.2109 196.976 91.1656 197.078 91.0749C197.179 90.9789 197.23 90.8243 197.23 90.6109V90.1389H198.086V90.5469C198.086 90.7869 198.014 90.9896 197.87 91.1549C197.731 91.3149 197.531 91.4163 197.27 91.4589V91.5069C197.542 91.5923 197.747 91.7603 197.886 92.0109C198.03 92.2563 198.102 92.5789 198.102 92.9789C198.102 93.5389 197.958 93.9816 197.67 94.3069C197.387 94.6269 196.952 94.7869 196.366 94.7869ZM196.646 88.8269H197.214V88.5469C197.214 88.4296 197.19 88.3469 197.142 88.2989C197.089 88.2456 196.995 88.2189 196.862 88.2189H196.646V87.5949H197.182C197.438 87.5949 197.633 87.6509 197.766 87.7629C197.894 87.8696 197.958 88.0163 197.958 88.2029C197.958 88.3149 197.929 88.4269 197.87 88.5389C197.806 88.6456 197.713 88.7283 197.59 88.7869V88.8269H199.03V89.4509H196.646V88.8269ZM201.087 94.6909C200.783 94.6909 200.556 94.6136 200.407 94.4589C200.263 94.3043 200.191 94.0883 200.191 93.8109V89.4589C200.191 89.2989 200.212 89.1576 200.255 89.0349C200.298 88.9123 200.354 88.8083 200.423 88.7229C200.492 88.6323 200.572 88.5576 200.663 88.4989C200.759 88.4403 200.858 88.3949 200.959 88.3629V88.3309H199.223V87.6349H201.895V88.3309H201.799C201.564 88.3309 201.383 88.4003 201.255 88.5389C201.127 88.6723 201.063 88.8643 201.063 89.1149V93.9789H201.687V94.6909H201.087ZM204.266 94.7869C203.658 94.7869 203.186 94.5843 202.85 94.1789C202.514 93.7683 202.346 93.2056 202.346 92.4909C202.346 92.1443 202.394 91.8296 202.49 91.5469C202.591 91.2643 202.732 91.0243 202.914 90.8269C203.1 90.6243 203.324 90.4696 203.586 90.3629C203.847 90.2563 204.14 90.2029 204.466 90.2029C204.764 90.2029 205.036 90.2483 205.282 90.3389C205.527 90.4243 205.735 90.5469 205.906 90.7069C206.082 90.8669 206.215 91.0616 206.306 91.2909C206.402 91.5149 206.45 91.7656 206.45 92.0429V94.6909H205.578V92.1149C205.578 91.7363 205.476 91.4429 205.274 91.2349C205.071 91.0216 204.794 90.9149 204.442 90.9149C204.074 90.9149 203.786 91.0296 203.578 91.2589C203.375 91.4883 203.274 91.8003 203.274 92.1949V92.7789C203.274 93.2003 203.364 93.5229 203.546 93.7469C203.732 93.9656 204.015 94.0749 204.394 94.0749C204.511 94.0749 204.62 94.0643 204.722 94.0429L204.826 94.7309C204.746 94.7523 204.65 94.7656 204.538 94.7709C204.431 94.7816 204.34 94.7869 204.266 94.7869ZM205.013 88.8269H205.581V88.5469C205.581 88.4296 205.557 88.3469 205.509 88.2989C205.456 88.2456 205.362 88.2189 205.229 88.2189H205.013V87.5949H205.549C205.805 87.5949 206 87.6509 206.133 87.7629C206.261 87.8696 206.325 88.0163 206.325 88.2029C206.325 88.3149 206.296 88.4269 206.237 88.5389C206.173 88.6456 206.08 88.7283 205.957 88.7869V88.8269H207.397V89.4509H205.013V88.8269ZM207.647 93.9789H208.111V92.2669L207.423 91.9789C207.439 91.7176 207.501 91.4776 207.607 91.2589C207.719 91.0403 207.863 90.8536 208.039 90.6989C208.221 90.5389 208.431 90.4163 208.671 90.3309C208.917 90.2456 209.183 90.2029 209.471 90.2029C209.786 90.2029 210.066 90.2456 210.311 90.3309C210.557 90.4163 210.762 90.5363 210.927 90.6909C211.098 90.8456 211.226 91.0349 211.311 91.2589C211.402 91.4776 211.447 91.7229 211.447 91.9949V94.6909H210.575V92.1069C210.575 91.7229 210.474 91.4296 210.271 91.2269C210.074 91.0189 209.799 90.9149 209.447 90.9149C209.154 90.9149 208.898 90.9816 208.679 91.1149C208.461 91.2429 208.314 91.4163 208.239 91.6349L208.583 91.7709C208.733 91.8296 208.837 91.8989 208.895 91.9789C208.954 92.0536 208.983 92.1656 208.983 92.3149V93.8109C208.983 94.0883 208.911 94.3043 208.767 94.4589C208.623 94.6136 208.399 94.6909 208.095 94.6909H207.647V93.9789ZM214.489 91.7149C214.489 91.4589 214.422 91.2616 214.289 91.1229C214.156 90.9843 213.945 90.9149 213.657 90.9149C213.412 90.9149 213.214 90.9683 213.065 91.0749C212.916 91.1763 212.788 91.3096 212.681 91.4749L212.153 91.0109C212.297 90.7709 212.492 90.5763 212.737 90.4269C212.982 90.2776 213.308 90.2029 213.713 90.2029C214.246 90.2029 214.654 90.3283 214.937 90.5789C215.22 90.8296 215.361 91.1896 215.361 91.6589V94.6909H214.489V91.7149ZM218.193 94.7869C217.639 94.7869 217.207 94.6723 216.897 94.4429C216.588 94.2136 216.433 93.8909 216.433 93.4749C216.433 93.2189 216.508 93.0003 216.657 92.8189C216.812 92.6376 217.009 92.5123 217.249 92.4429V92.4029C216.983 92.3389 216.775 92.2136 216.625 92.0269C216.476 91.8403 216.401 91.6109 216.401 91.3389C216.401 90.9976 216.511 90.7229 216.729 90.5149C216.953 90.3069 217.257 90.2029 217.641 90.2029C217.759 90.2029 217.884 90.2136 218.017 90.2349C218.156 90.2563 218.281 90.2963 218.393 90.3549L218.209 90.9949C218.087 90.9363 217.951 90.9069 217.801 90.9069C217.615 90.9069 217.465 90.9576 217.353 91.0589C217.247 91.1603 217.193 91.2963 217.193 91.4669C217.193 91.5469 217.204 91.6243 217.225 91.6989C217.247 91.7683 217.284 91.8323 217.337 91.8909C217.391 91.9443 217.463 91.9869 217.553 92.0189C217.644 92.0509 217.759 92.0669 217.897 92.0669H218.337V92.6589H217.961C217.785 92.6589 217.633 92.7096 217.505 92.8109C217.377 92.9123 217.313 93.0536 217.313 93.2349V93.4189C217.313 93.6323 217.383 93.7949 217.521 93.9069C217.66 94.0189 217.889 94.0749 218.209 94.0749C218.545 94.0749 218.809 93.9869 219.001 93.8109C219.199 93.6296 219.297 93.3709 219.297 93.0349V90.2989H220.169V93.1549C220.169 93.4056 220.121 93.6323 220.025 93.8349C219.935 94.0323 219.801 94.2029 219.625 94.3469C219.455 94.4856 219.247 94.5949 219.001 94.6749C218.761 94.7496 218.492 94.7869 218.193 94.7869ZM222.462 94.6909C222.158 94.6909 221.931 94.6136 221.782 94.4589C221.638 94.3043 221.566 94.0883 221.566 93.8109V90.5709C221.566 90.4429 221.585 90.3283 221.622 90.2269C221.659 90.1256 221.707 90.0349 221.766 89.9549C221.825 89.8696 221.889 89.7923 221.958 89.7229C222.033 89.6483 222.105 89.5763 222.174 89.5069C222.275 89.4109 222.361 89.3096 222.43 89.2029C222.505 89.0963 222.542 88.9709 222.542 88.8269C222.542 88.6403 222.486 88.4989 222.374 88.4029C222.267 88.3069 222.126 88.2589 221.95 88.2589C221.753 88.2589 221.59 88.3176 221.462 88.4349C221.339 88.5469 221.246 88.7123 221.182 88.9309L220.526 88.5629C220.633 88.2696 220.806 88.0296 221.046 87.8429C221.286 87.6509 221.617 87.5549 222.038 87.5549C222.454 87.5549 222.782 87.6643 223.022 87.8829C223.262 88.0963 223.382 88.3789 223.382 88.7309C223.382 88.9656 223.329 89.1603 223.222 89.3149C223.121 89.4696 223.009 89.6136 222.886 89.7469C222.774 89.8696 222.67 89.9923 222.574 90.1149C222.483 90.2376 222.438 90.3789 222.438 90.5389V93.9789H223.062V94.6909H222.462ZM225.337 94.7869C224.878 94.7869 224.523 94.6403 224.273 94.3469C224.022 94.0483 223.897 93.6269 223.897 93.0829V90.2989H224.769V92.9869C224.769 93.3283 224.838 93.5896 224.977 93.7709C225.121 93.9469 225.35 94.0349 225.664 94.0349C225.782 94.0349 225.899 94.0216 226.017 93.9949C226.134 93.9629 226.238 93.9149 226.329 93.8509C226.425 93.7869 226.499 93.7069 226.553 93.6109C226.611 93.5096 226.641 93.3923 226.641 93.2589V90.2989H227.513V93.9789H227.977V94.6909H227.401C227.177 94.6909 227.009 94.6269 226.897 94.4989C226.785 94.3656 226.723 94.1816 226.713 93.9469H226.673C226.582 94.1923 226.425 94.3949 226.201 94.5549C225.982 94.7096 225.694 94.7869 225.337 94.7869Z" fill="#3F2436"/>
<path d="M234.469 94.6909H230.677V93.8269L232.461 92.2349C232.743 91.9789 232.959 91.7363 233.109 91.5069C233.263 91.2723 233.341 91.0269 233.341 90.7709V90.6669C233.341 90.3949 233.258 90.1816 233.093 90.0269C232.933 89.8723 232.714 89.7949 232.437 89.7949C232.282 89.7949 232.146 89.8189 232.029 89.8669C231.917 89.9096 231.818 89.9709 231.733 90.0509C231.647 90.1309 231.575 90.2243 231.517 90.3309C231.463 90.4376 231.421 90.5523 231.389 90.6749L230.597 90.3709C230.655 90.1949 230.735 90.0269 230.837 89.8669C230.938 89.7016 231.066 89.5549 231.221 89.4269C231.375 89.2989 231.557 89.1976 231.765 89.1229C231.978 89.0483 232.226 89.0109 232.509 89.0109C232.791 89.0109 233.045 89.0536 233.269 89.1389C233.493 89.2189 233.679 89.3336 233.829 89.4829C233.983 89.6269 234.101 89.8003 234.181 90.0029C234.261 90.2056 234.301 90.4269 234.301 90.6669C234.301 90.8909 234.266 91.0989 234.197 91.2909C234.127 91.4829 234.031 91.6643 233.909 91.8349C233.786 92.0056 233.642 92.1683 233.477 92.3229C233.317 92.4776 233.146 92.6349 232.965 92.7949L231.653 93.9229H234.469V94.6909ZM237.338 94.7869C236.991 94.7869 236.69 94.7229 236.434 94.5949C236.178 94.4616 235.967 94.2723 235.802 94.0269C235.636 93.7816 235.514 93.4803 235.434 93.1229C235.354 92.7656 235.314 92.3576 235.314 91.8989C235.314 91.4456 235.354 91.0403 235.434 90.6829C235.514 90.3203 235.636 90.0163 235.802 89.7709C235.967 89.5256 236.178 89.3389 236.434 89.2109C236.69 89.0776 236.991 89.0109 237.338 89.0109C238.031 89.0109 238.54 89.2643 238.866 89.7709C239.196 90.2776 239.362 90.9869 239.362 91.8989C239.362 92.8109 239.196 93.5203 238.866 94.0269C238.54 94.5336 238.031 94.7869 237.338 94.7869ZM237.338 94.0189C237.53 94.0189 237.692 93.9816 237.826 93.9069C237.964 93.8269 238.076 93.7149 238.162 93.5709C238.247 93.4269 238.308 93.2563 238.346 93.0589C238.383 92.8563 238.402 92.6323 238.402 92.3869V91.4109C238.402 91.1656 238.383 90.9443 238.346 90.7469C238.308 90.5443 238.247 90.3709 238.162 90.2269C238.076 90.0829 237.964 89.9736 237.826 89.8989C237.692 89.8189 237.53 89.7789 237.338 89.7789C237.146 89.7789 236.98 89.8189 236.842 89.8989C236.708 89.9736 236.599 90.0829 236.514 90.2269C236.428 90.3709 236.367 90.5443 236.33 90.7469C236.292 90.9443 236.274 91.1656 236.274 91.4109V92.3869C236.274 92.6323 236.292 92.8563 236.33 93.0589C236.367 93.2563 236.428 93.4269 236.514 93.5709C236.599 93.7149 236.708 93.8269 236.842 93.9069C236.98 93.9816 237.146 94.0189 237.338 94.0189ZM239.79 95.8989L242.006 88.7709H242.758L240.542 95.8989H239.79ZM245.47 94.7869C245.124 94.7869 244.822 94.7229 244.566 94.5949C244.31 94.4616 244.1 94.2723 243.934 94.0269C243.769 93.7816 243.646 93.4803 243.566 93.1229C243.486 92.7656 243.446 92.3576 243.446 91.8989C243.446 91.4456 243.486 91.0403 243.566 90.6829C243.646 90.3203 243.769 90.0163 243.934 89.7709C244.1 89.5256 244.31 89.3389 244.566 89.2109C244.822 89.0776 245.124 89.0109 245.47 89.0109C246.164 89.0109 246.673 89.2643 246.998 89.7709C247.329 90.2776 247.494 90.9869 247.494 91.8989C247.494 92.8109 247.329 93.5203 246.998 94.0269C246.673 94.5336 246.164 94.7869 245.47 94.7869ZM245.47 94.0189C245.662 94.0189 245.825 93.9816 245.958 93.9069C246.097 93.8269 246.209 93.7149 246.294 93.5709C246.38 93.4269 246.441 93.2563 246.478 93.0589C246.516 92.8563 246.534 92.6323 246.534 92.3869V91.4109C246.534 91.1656 246.516 90.9443 246.478 90.7469C246.441 90.5443 246.38 90.3709 246.294 90.2269C246.209 90.0829 246.097 89.9736 245.958 89.8989C245.825 89.8189 245.662 89.7789 245.47 89.7789C245.278 89.7789 245.113 89.8189 244.974 89.8989C244.841 89.9736 244.732 90.0829 244.646 90.2269C244.561 90.3709 244.5 90.5443 244.462 90.7469C244.425 90.9443 244.406 91.1656 244.406 91.4109V92.3869C244.406 92.6323 244.425 92.8563 244.462 93.0589C244.5 93.2563 244.561 93.4269 244.646 93.5709C244.732 93.7149 244.841 93.8269 244.974 93.9069C245.113 93.9816 245.278 94.0189 245.47 94.0189ZM250.267 94.7869C249.942 94.7869 249.654 94.7469 249.403 94.6669C249.158 94.5816 248.95 94.4669 248.779 94.3229C248.614 94.1789 248.486 94.0083 248.395 93.8109C248.31 93.6136 248.267 93.4003 248.267 93.1709C248.267 92.7976 248.369 92.4989 248.571 92.2749C248.779 92.0456 249.051 91.8856 249.387 91.7949V91.7309C249.099 91.6296 248.867 91.4696 248.691 91.2509C248.521 91.0323 248.435 90.7629 248.435 90.4429C248.435 90.2296 248.475 90.0349 248.555 89.8589C248.641 89.6829 248.761 89.5336 248.915 89.4109C249.07 89.2829 249.262 89.1843 249.491 89.1149C249.721 89.0456 249.979 89.0109 250.267 89.0109C250.555 89.0109 250.814 89.0456 251.043 89.1149C251.273 89.1843 251.465 89.2829 251.619 89.4109C251.774 89.5336 251.891 89.6829 251.971 89.8589C252.057 90.0349 252.099 90.2296 252.099 90.4429C252.099 90.7629 252.011 91.0323 251.835 91.2509C251.665 91.4696 251.435 91.6296 251.147 91.7309V91.7949C251.483 91.8856 251.753 92.0456 251.955 92.2749C252.163 92.4989 252.267 92.7976 252.267 93.1709C252.267 93.4003 252.222 93.6136 252.131 93.8109C252.046 94.0083 251.918 94.1789 251.747 94.3229C251.582 94.4669 251.374 94.5816 251.123 94.6669C250.878 94.7469 250.593 94.7869 250.267 94.7869ZM250.267 94.0589C250.603 94.0589 250.862 93.9816 251.043 93.8269C251.23 93.6723 251.323 93.4563 251.323 93.1789V93.0189C251.323 92.7416 251.23 92.5256 251.043 92.3709C250.862 92.2163 250.603 92.1389 250.267 92.1389C249.931 92.1389 249.67 92.2163 249.483 92.3709C249.302 92.5256 249.211 92.7416 249.211 93.0189V93.1789C249.211 93.4563 249.302 93.6723 249.483 93.8269C249.67 93.9816 249.931 94.0589 250.267 94.0589ZM250.267 91.4429C250.577 91.4429 250.811 91.3763 250.971 91.2429C251.137 91.1096 251.219 90.9149 251.219 90.6589V90.5229C251.219 90.2669 251.137 90.0723 250.971 89.9389C250.811 89.8056 250.577 89.7389 250.267 89.7389C249.958 89.7389 249.721 89.8056 249.555 89.9389C249.395 90.0723 249.315 90.2669 249.315 90.5229V90.6589C249.315 90.9149 249.395 91.1096 249.555 91.2429C249.721 91.3763 249.958 91.4429 250.267 91.4429ZM252.72 95.8989L254.936 88.7709H255.688L253.472 95.8989H252.72ZM260.328 94.6909H256.536V93.8269L258.32 92.2349C258.603 91.9789 258.819 91.7363 258.968 91.5069C259.123 91.2723 259.2 91.0269 259.2 90.7709V90.6669C259.2 90.3949 259.117 90.1816 258.952 90.0269C258.792 89.8723 258.573 89.7949 258.296 89.7949C258.141 89.7949 258.005 89.8189 257.888 89.8669C257.776 89.9096 257.677 89.9709 257.592 90.0509C257.507 90.1309 257.435 90.2243 257.376 90.3309C257.323 90.4376 257.28 90.5523 257.248 90.6749L256.456 90.3709C256.515 90.1949 256.595 90.0269 256.696 89.8669C256.797 89.7016 256.925 89.5549 257.08 89.4269C257.235 89.2989 257.416 89.1976 257.624 89.1229C257.837 89.0483 258.085 89.0109 258.368 89.0109C258.651 89.0109 258.904 89.0536 259.128 89.1389C259.352 89.2189 259.539 89.3336 259.688 89.4829C259.843 89.6269 259.96 89.8003 260.04 90.0029C260.12 90.2056 260.16 90.4269 260.16 90.6669C260.16 90.8909 260.125 91.0989 260.056 91.2909C259.987 91.4829 259.891 91.6643 259.768 91.8349C259.645 92.0056 259.501 92.1683 259.336 92.3229C259.176 92.4776 259.005 92.6349 258.824 92.7949L257.512 93.9229H260.328V94.6909ZM262.893 91.4029C263.24 91.4029 263.496 91.3309 263.661 91.1869C263.826 91.0376 263.909 90.8483 263.909 90.6189V90.5629C263.909 90.3069 263.829 90.1123 263.669 89.9789C263.509 89.8403 263.293 89.7709 263.021 89.7709C262.754 89.7709 262.528 89.8323 262.341 89.9549C262.154 90.0723 261.997 90.2376 261.869 90.4509L261.269 89.9309C261.354 89.8083 261.45 89.6909 261.557 89.5789C261.664 89.4669 261.789 89.3709 261.933 89.2909C262.077 89.2056 262.24 89.1389 262.421 89.0909C262.602 89.0376 262.81 89.0109 263.045 89.0109C263.306 89.0109 263.549 89.0429 263.773 89.1069C263.997 89.1709 264.189 89.2669 264.349 89.3949C264.509 89.5176 264.634 89.6696 264.725 89.8509C264.816 90.0269 264.861 90.2269 264.861 90.4509C264.861 90.6269 264.832 90.7869 264.773 90.9309C264.72 91.0749 264.642 91.2029 264.541 91.3149C264.445 91.4216 264.33 91.5096 264.197 91.5789C264.069 91.6483 263.933 91.6989 263.789 91.7309V91.7709C263.949 91.8029 264.098 91.8563 264.237 91.9309C264.381 92.0003 264.506 92.0936 264.613 92.2109C264.72 92.3229 264.802 92.4589 264.861 92.6189C264.925 92.7736 264.957 92.9523 264.957 93.1549C264.957 93.4003 264.909 93.6243 264.813 93.8269C264.717 94.0243 264.581 94.1949 264.405 94.3389C264.234 94.4829 264.026 94.5949 263.781 94.6749C263.536 94.7496 263.264 94.7869 262.965 94.7869C262.704 94.7869 262.474 94.7576 262.277 94.6989C262.08 94.6456 261.904 94.5736 261.749 94.4829C261.6 94.3869 261.466 94.2803 261.349 94.1629C261.237 94.0403 261.138 93.9149 261.053 93.7869L261.717 93.2669C261.786 93.3789 261.858 93.4829 261.933 93.5789C262.013 93.6696 262.101 93.7496 262.197 93.8189C262.298 93.8829 262.41 93.9336 262.533 93.9709C262.661 94.0083 262.805 94.0269 262.965 94.0269C263.306 94.0269 263.568 93.9469 263.749 93.7869C263.93 93.6216 264.021 93.3949 264.021 93.1069V93.0509C264.021 92.7629 263.925 92.5443 263.733 92.3949C263.541 92.2456 263.269 92.1709 262.917 92.1709H262.325V91.4029H262.893Z" fill="#D42525"/>
<g filter="url(#filter13_d_25_151334)">
<mask id="path-24-outside-2_25_151334" maskUnits="userSpaceOnUse" x="0" y="0.690918" width="346" height="118" fill="black">
<rect fill="white" y="0.690918" width="346" height="118"/>
<path fill-rule="evenodd" clip-rule="evenodd" d="M8.25 2.69092H88.058C88.5194 6.63723 91.6754 9.69092 95.5 9.69092C99.3246 9.69092 102.481 6.63723 102.942 2.69092H337.753C341.203 2.69092 344 5.4876 344 8.93749V110.444C344 113.894 341.203 116.691 337.753 116.691H102.764C101.931 113.24 98.9947 110.691 95.5 110.691C92.0053 110.691 89.0689 113.24 88.2363 116.691H8.25C4.79822 116.691 2 113.893 2 110.441V8.94092C2 5.48914 4.79822 2.69092 8.25 2.69092Z"/>
</mask>
<path fill-rule="evenodd" clip-rule="evenodd" d="M8.25 2.69092H88.058C88.5194 6.63723 91.6754 9.69092 95.5 9.69092C99.3246 9.69092 102.481 6.63723 102.942 2.69092H337.753C341.203 2.69092 344 5.4876 344 8.93749V110.444C344 113.894 341.203 116.691 337.753 116.691H102.764C101.931 113.24 98.9947 110.691 95.5 110.691C92.0053 110.691 89.0689 113.24 88.2363 116.691H8.25C4.79822 116.691 2 113.893 2 110.441V8.94092C2 5.48914 4.79822 2.69092 8.25 2.69092Z" fill="url(#paint6_linear_25_151334)" fill-opacity="0.8"/>
<path d="M88.058 2.69092L90.0445 2.45869L89.8378 0.690918H88.058V2.69092ZM102.942 2.69092V0.690918H101.162L100.955 2.45869L102.942 2.69092ZM102.764 116.691L100.82 117.16L101.189 118.691H102.764V116.691ZM88.2363 116.691V118.691H89.8111L90.1805 117.16L88.2363 116.691ZM88.058 0.690918H8.25V4.69092H88.058V0.690918ZM95.5 7.69092C92.8017 7.69092 90.4015 5.51202 90.0445 2.45869L86.0716 2.92315C86.6373 7.76244 90.549 11.6909 95.5 11.6909V7.69092ZM100.955 2.45869C100.599 5.51202 98.1983 7.69092 95.5 7.69092V11.6909C100.451 11.6909 104.363 7.76244 104.928 2.92315L100.955 2.45869ZM337.753 0.690918H102.942V4.69092H337.753V0.690918ZM346 8.93749C346 4.38303 342.308 0.690918 337.753 0.690918V4.69092C340.099 4.69092 342 6.59217 342 8.93749H346ZM346 110.444V8.93749H342V110.444H346ZM337.753 118.691C342.308 118.691 346 114.999 346 110.444H342C342 112.79 340.099 114.691 337.753 114.691V118.691ZM102.764 118.691H337.753V114.691H102.764V118.691ZM95.5 112.691C97.9691 112.691 100.179 114.505 100.82 117.16L104.708 116.222C103.683 111.976 100.02 108.691 95.5 108.691V112.691ZM90.1805 117.16C90.8212 114.505 93.0309 112.691 95.5 112.691V108.691C90.9797 108.691 87.3166 111.976 86.2921 116.222L90.1805 117.16ZM8.25 118.691H88.2363V114.691H8.25V118.691ZM0 110.441C0 114.997 3.69365 118.691 8.25 118.691V114.691C5.90279 114.691 4 112.788 4 110.441H0ZM0 8.94092V110.441H4V8.94092H0ZM8.25 0.690918C3.69365 0.690918 0 4.38457 0 8.94092H4C4 6.59371 5.90279 4.69092 8.25 4.69092V0.690918Z" fill="#2A4C48" mask="url(#path-24-outside-2_25_151334)"/>
</g>
<circle cx="49" cy="45.6909" r="22.2069" stroke="#CDCDCD" stroke-width="1.58621"/>
<path d="M57.1617 39.5796L46.2018 50.5387C46.1281 50.6127 46.0406 50.6714 45.9441 50.7114C45.8477 50.7515 45.7443 50.7721 45.6399 50.7721C45.5355 50.7721 45.4321 50.7515 45.3357 50.7114C45.2393 50.6714 45.1517 50.6127 45.078 50.5387L40.8397 46.2964C40.766 46.2224 40.6784 46.1637 40.582 46.1237C40.4855 46.0836 40.3822 46.063 40.2777 46.063C40.1733 46.063 40.0699 46.0836 39.9735 46.1237C39.8771 46.1637 39.7895 46.2224 39.7158 46.2964C39.6418 46.3701 39.5831 46.4576 39.5431 46.5541C39.503 46.6505 39.4824 46.7539 39.4824 46.8583C39.4824 46.9627 39.503 47.0661 39.5431 47.1625C39.5831 47.259 39.6418 47.3465 39.7158 47.4202L43.9558 51.6594C44.403 52.1058 45.0092 52.3565 45.6411 52.3565C46.273 52.3565 46.8792 52.1058 47.3264 51.6594L58.2855 40.7026C58.3594 40.629 58.418 40.5414 58.458 40.4451C58.498 40.3487 58.5186 40.2454 58.5186 40.1411C58.5186 40.0368 58.498 39.9335 58.458 39.8371C58.418 39.7408 58.3594 39.6533 58.2855 39.5796C58.2119 39.5056 58.1243 39.4469 58.0279 39.4069C57.9314 39.3668 57.8281 39.3462 57.7236 39.3462C57.6192 39.3462 57.5158 39.3668 57.4194 39.4069C57.323 39.4469 57.2354 39.5056 57.1617 39.5796Z" fill="#CDCDCD"/>
</g>
<defs>
<filter id="filter0_di_25_151334" x="0" y="0.690918" width="346" height="120" filterUnits="userSpaceOnUse" color-interpolation-filters="sRGB">
<feFlood flood-opacity="0" result="BackgroundImageFix"/>
<feColorMatrix in="SourceAlpha" type="matrix" values="0 0 0 0 0 0 0 0 0 0 0 0 0 0 0 0 0 0 127 0" result="hardAlpha"/>
<feOffset dy="2"/>
<feComposite in2="hardAlpha" operator="out"/>
<feColorMatrix type="matrix" values="0 0 0 0 0.32549 0 0 0 0 0.592157 0 0 0 0 0.560784 0 0 0 1 0"/>
<feBlend mode="normal" in2="BackgroundImageFix" result="effect1_dropShadow_25_151334"/>
<feBlend mode="normal" in="SourceGraphic" in2="effect1_dropShadow_25_151334" result="shape"/>
<feColorMatrix in="SourceAlpha" type="matrix" values="0 0 0 0 0 0 0 0 0 0 0 0 0 0 0 0 0 0 127 0" result="hardAlpha"/>
<feOffset dy="2"/>
<feComposite in2="hardAlpha" operator="arithmetic" k2="-1" k3="1"/>
<feColorMatrix type="matrix" values="0 0 0 0 0.32549 0 0 0 0 0.592157 0 0 0 0 0.560784 0 0 0 1 0"/>
<feBlend mode="normal" in2="shape" result="effect2_innerShadow_25_151334"/>
</filter>
<filter id="filter1_ii_25_151334" x="15.3838" y="86.4392" width="67.2324" height="20.9404" filterUnits="userSpaceOnUse" color-interpolation-filters="sRGB">
<feFlood flood-opacity="0" result="BackgroundImageFix"/>
<feBlend mode="normal" in="SourceGraphic" in2="BackgroundImageFix" result="shape"/>
<feColorMatrix in="SourceAlpha" type="matrix" values="0 0 0 0 0 0 0 0 0 0 0 0 0 0 0 0 0 0 127 0" result="hardAlpha"/>
<feOffset dy="-3.69536"/>
<feComposite in2="hardAlpha" operator="arithmetic" k2="-1" k3="1"/>
<feColorMatrix type="matrix" values="0 0 0 0 0.825 0 0 0 0 0.38478 0 0 0 0 0.0660003 0 0 0 1 0"/>
<feBlend mode="normal" in2="shape" result="effect1_innerShadow_25_151334"/>
<feColorMatrix in="SourceAlpha" type="matrix" values="0 0 0 0 0 0 0 0 0 0 0 0 0 0 0 0 0 0 127 0" result="hardAlpha"/>
<feOffset dy="3.69536"/>
<feComposite in2="hardAlpha" operator="arithmetic" k2="-1" k3="1"/>
<feColorMatrix type="matrix" values="0 0 0 0 0.998333 0 0 0 0 0.998333 0 0 0 0 0.998333 0 0 0 0.8 0"/>
<feBlend mode="normal" in2="effect1_innerShadow_25_151334" result="effect2_innerShadow_25_151334"/>
</filter>
<filter id="filter2_i_25_151334" x="14.6377" y="11.3291" width="68.7754" height="68.9746" filterUnits="userSpaceOnUse" color-interpolation-filters="sRGB">
<feFlood flood-opacity="0" result="BackgroundImageFix"/>
<feBlend mode="normal" in="SourceGraphic" in2="BackgroundImageFix" result="shape"/>
<feColorMatrix in="SourceAlpha" type="matrix" values="0 0 0 0 0 0 0 0 0 0 0 0 0 0 0 0 0 0 127 0" result="hardAlpha"/>
<feOffset dy="2.72374"/>
<feComposite in2="hardAlpha" operator="arithmetic" k2="-1" k3="1"/>
<feColorMatrix type="matrix" values="0 0 0 0 0.998333 0 0 0 0 0.998333 0 0 0 0 0.998333 0 0 0 0.5 0"/>
<feBlend mode="normal" in2="shape" result="effect1_innerShadow_25_151334"/>
</filter>
<filter id="filter3_ii_25_151334" x="19.6787" y="16.5364" width="18.7314" height="18.7317" filterUnits="userSpaceOnUse" color-interpolation-filters="sRGB">
<feFlood flood-opacity="0" result="BackgroundImageFix"/>
<feBlend mode="normal" in="SourceGraphic" in2="BackgroundImageFix" result="shape"/>
<feColorMatrix in="SourceAlpha" type="matrix" values="0 0 0 0 0 0 0 0 0 0 0 0 0 0 0 0 0 0 127 0" result="hardAlpha"/>
<feOffset dy="-1.14729"/>
<feComposite in2="hardAlpha" operator="arithmetic" k2="-1" k3="1"/>
<feColorMatrix type="matrix" values="0 0 0 0 0.776471 0 0 0 0 0.776471 0 0 0 0 0.776471 0 0 0 1 0"/>
<feBlend mode="normal" in2="shape" result="effect1_innerShadow_25_151334"/>
<feColorMatrix in="SourceAlpha" type="matrix" values="0 0 0 0 0 0 0 0 0 0 0 0 0 0 0 0 0 0 127 0" result="hardAlpha"/>
<feOffset dy="1.14729"/>
<feComposite in2="hardAlpha" operator="arithmetic" k2="-1" k3="1"/>
<feColorMatrix type="matrix" values="0 0 0 0 0.998333 0 0 0 0 0.998333 0 0 0 0 0.998333 0 0 0 0.25 0"/>
<feBlend mode="normal" in2="effect1_innerShadow_25_151334" result="effect2_innerShadow_25_151334"/>
</filter>
<filter id="filter4_ii_25_151334" x="40.1074" y="16.5364" width="18.7314" height="18.7317" filterUnits="userSpaceOnUse" color-interpolation-filters="sRGB">
<feFlood flood-opacity="0" result="BackgroundImageFix"/>
<feBlend mode="normal" in="SourceGraphic" in2="BackgroundImageFix" result="shape"/>
<feColorMatrix in="SourceAlpha" type="matrix" values="0 0 0 0 0 0 0 0 0 0 0 0 0 0 0 0 0 0 127 0" result="hardAlpha"/>
<feOffset dy="-1.14729"/>
<feComposite in2="hardAlpha" operator="arithmetic" k2="-1" k3="1"/>
<feColorMatrix type="matrix" values="0 0 0 0 0.776471 0 0 0 0 0.776471 0 0 0 0 0.776471 0 0 0 1 0"/>
<feBlend mode="normal" in2="shape" result="effect1_innerShadow_25_151334"/>
<feColorMatrix in="SourceAlpha" type="matrix" values="0 0 0 0 0 0 0 0 0 0 0 0 0 0 0 0 0 0 127 0" result="hardAlpha"/>
<feOffset dy="1.14729"/>
<feComposite in2="hardAlpha" operator="arithmetic" k2="-1" k3="1"/>
<feColorMatrix type="matrix" values="0 0 0 0 0.998333 0 0 0 0 0.998333 0 0 0 0 0.998333 0 0 0 0.25 0"/>
<feBlend mode="normal" in2="effect1_innerShadow_25_151334" result="effect2_innerShadow_25_151334"/>
</filter>
<filter id="filter5_ii_25_151334" x="60.5371" y="16.5364" width="18.5645" height="18.7317" filterUnits="userSpaceOnUse" color-interpolation-filters="sRGB">
<feFlood flood-opacity="0" result="BackgroundImageFix"/>
<feBlend mode="normal" in="SourceGraphic" in2="BackgroundImageFix" result="shape"/>
<feColorMatrix in="SourceAlpha" type="matrix" values="0 0 0 0 0 0 0 0 0 0 0 0 0 0 0 0 0 0 127 0" result="hardAlpha"/>
<feOffset dy="-1.14729"/>
<feComposite in2="hardAlpha" operator="arithmetic" k2="-1" k3="1"/>
<feColorMatrix type="matrix" values="0 0 0 0 0.825 0 0 0 0 0.38478 0 0 0 0 0.0660003 0 0 0 1 0"/>
<feBlend mode="normal" in2="shape" result="effect1_innerShadow_25_151334"/>
<feColorMatrix in="SourceAlpha" type="matrix" values="0 0 0 0 0 0 0 0 0 0 0 0 0 0 0 0 0 0 127 0" result="hardAlpha"/>
<feOffset dy="1.14729"/>
<feComposite in2="hardAlpha" operator="arithmetic" k2="-1" k3="1"/>
<feColorMatrix type="matrix" values="0 0 0 0 0.998333 0 0 0 0 0.998333 0 0 0 0 0.998333 0 0 0 0.8 0"/>
<feBlend mode="normal" in2="effect1_innerShadow_25_151334" result="effect2_innerShadow_25_151334"/>
</filter>
<filter id="filter6_i_25_151334" x="19.6787" y="36.9656" width="18.5645" height="18.7317" filterUnits="userSpaceOnUse" color-interpolation-filters="sRGB">
<feFlood flood-opacity="0" result="BackgroundImageFix"/>
<feBlend mode="normal" in="SourceGraphic" in2="BackgroundImageFix" result="shape"/>
<feColorMatrix in="SourceAlpha" type="matrix" values="0 0 0 0 0 0 0 0 0 0 0 0 0 0 0 0 0 0 127 0" result="hardAlpha"/>
<feOffset dy="1.14729"/>
<feComposite in2="hardAlpha" operator="arithmetic" k2="-1" k3="1"/>
<feColorMatrix type="matrix" values="0 0 0 0 0.998333 0 0 0 0 0.998333 0 0 0 0 0.998333 0 0 0 0.25 0"/>
<feBlend mode="normal" in2="shape" result="effect1_innerShadow_25_151334"/>
</filter>
<filter id="filter7_ii_25_151334" x="39.9404" y="36.9656" width="18.7314" height="18.7317" filterUnits="userSpaceOnUse" color-interpolation-filters="sRGB">
<feFlood flood-opacity="0" result="BackgroundImageFix"/>
<feBlend mode="normal" in="SourceGraphic" in2="BackgroundImageFix" result="shape"/>
<feColorMatrix in="SourceAlpha" type="matrix" values="0 0 0 0 0 0 0 0 0 0 0 0 0 0 0 0 0 0 127 0" result="hardAlpha"/>
<feOffset dy="-1.14729"/>
<feComposite in2="hardAlpha" operator="arithmetic" k2="-1" k3="1"/>
<feColorMatrix type="matrix" values="0 0 0 0 0.825 0 0 0 0 0.38478 0 0 0 0 0.0660003 0 0 0 1 0"/>
<feBlend mode="normal" in2="shape" result="effect1_innerShadow_25_151334"/>
<feColorMatrix in="SourceAlpha" type="matrix" values="0 0 0 0 0 0 0 0 0 0 0 0 0 0 0 0 0 0 127 0" result="hardAlpha"/>
<feOffset dy="1.14729"/>
<feComposite in2="hardAlpha" operator="arithmetic" k2="-1" k3="1"/>
<feColorMatrix type="matrix" values="0 0 0 0 0.998333 0 0 0 0 0.998333 0 0 0 0 0.998333 0 0 0 0.8 0"/>
<feBlend mode="normal" in2="effect1_innerShadow_25_151334" result="effect2_innerShadow_25_151334"/>
</filter>
<filter id="filter8_i_25_151334" x="60.3701" y="36.9656" width="18.7314" height="18.7317" filterUnits="userSpaceOnUse" color-interpolation-filters="sRGB">
<feFlood flood-opacity="0" result="BackgroundImageFix"/>
<feBlend mode="normal" in="SourceGraphic" in2="BackgroundImageFix" result="shape"/>
<feColorMatrix in="SourceAlpha" type="matrix" values="0 0 0 0 0 0 0 0 0 0 0 0 0 0 0 0 0 0 127 0" result="hardAlpha"/>
<feOffset dy="1.14729"/>
<feComposite in2="hardAlpha" operator="arithmetic" k2="-1" k3="1"/>
<feColorMatrix type="matrix" values="0 0 0 0 0.998333 0 0 0 0 0.998333 0 0 0 0 0.998333 0 0 0 0.25 0"/>
<feBlend mode="normal" in2="shape" result="effect1_innerShadow_25_151334"/>
</filter>
<filter id="filter9_ii_25_151334" x="19.6787" y="57.3945" width="18.5645" height="18.7317" filterUnits="userSpaceOnUse" color-interpolation-filters="sRGB">
<feFlood flood-opacity="0" result="BackgroundImageFix"/>
<feBlend mode="normal" in="SourceGraphic" in2="BackgroundImageFix" result="shape"/>
<feColorMatrix in="SourceAlpha" type="matrix" values="0 0 0 0 0 0 0 0 0 0 0 0 0 0 0 0 0 0 127 0" result="hardAlpha"/>
<feOffset dy="-1.14729"/>
<feComposite in2="hardAlpha" operator="arithmetic" k2="-1" k3="1"/>
<feColorMatrix type="matrix" values="0 0 0 0 0.825 0 0 0 0 0.38478 0 0 0 0 0.0660003 0 0 0 1 0"/>
<feBlend mode="normal" in2="shape" result="effect1_innerShadow_25_151334"/>
<feColorMatrix in="SourceAlpha" type="matrix" values="0 0 0 0 0 0 0 0 0 0 0 0 0 0 0 0 0 0 127 0" result="hardAlpha"/>
<feOffset dy="1.14729"/>
<feComposite in2="hardAlpha" operator="arithmetic" k2="-1" k3="1"/>
<feColorMatrix type="matrix" values="0 0 0 0 0.998333 0 0 0 0 0.998333 0 0 0 0 0.998333 0 0 0 0.8 0"/>
<feBlend mode="normal" in2="effect1_innerShadow_25_151334" result="effect2_innerShadow_25_151334"/>
</filter>
<filter id="filter10_i_25_151334" x="39.9404" y="57.3945" width="18.7314" height="18.7317" filterUnits="userSpaceOnUse" color-interpolation-filters="sRGB">
<feFlood flood-opacity="0" result="BackgroundImageFix"/>
<feBlend mode="normal" in="SourceGraphic" in2="BackgroundImageFix" result="shape"/>
<feColorMatrix in="SourceAlpha" type="matrix" values="0 0 0 0 0 0 0 0 0 0 0 0 0 0 0 0 0 0 127 0" result="hardAlpha"/>
<feOffset dy="1.14729"/>
<feComposite in2="hardAlpha" operator="arithmetic" k2="-1" k3="1"/>
<feColorMatrix type="matrix" values="0 0 0 0 0.998333 0 0 0 0 0.998333 0 0 0 0 0.998333 0 0 0 0.25 0"/>
<feBlend mode="normal" in2="shape" result="effect1_innerShadow_25_151334"/>
</filter>
<filter id="filter11_i_25_151334" x="60.3701" y="57.3945" width="18.7314" height="18.7317" filterUnits="userSpaceOnUse" color-interpolation-filters="sRGB">
<feFlood flood-opacity="0" result="BackgroundImageFix"/>
<feBlend mode="normal" in="SourceGraphic" in2="BackgroundImageFix" result="shape"/>
<feColorMatrix in="SourceAlpha" type="matrix" values="0 0 0 0 0 0 0 0 0 0 0 0 0 0 0 0 0 0 127 0" result="hardAlpha"/>
<feOffset dy="1.14729"/>
<feComposite in2="hardAlpha" operator="arithmetic" k2="-1" k3="1"/>
<feColorMatrix type="matrix" values="0 0 0 0 0.998333 0 0 0 0 0.998333 0 0 0 0 0.998333 0 0 0 0.25 0"/>
<feBlend mode="normal" in2="shape" result="effect1_innerShadow_25_151334"/>
</filter>
<filter id="filter12_i_25_151334" x="110" y="12.6909" width="220" height="23" filterUnits="userSpaceOnUse" color-interpolation-filters="sRGB">
<feFlood flood-opacity="0" result="BackgroundImageFix"/>
<feBlend mode="normal" in="SourceGraphic" in2="BackgroundImageFix" result="shape"/>
<feColorMatrix in="SourceAlpha" type="matrix" values="0 0 0 0 0 0 0 0 0 0 0 0 0 0 0 0 0 0 127 0" result="hardAlpha"/>
<feOffset dy="4"/>
<feComposite in2="hardAlpha" operator="arithmetic" k2="-1" k3="1"/>
<feColorMatrix type="matrix" values="0 0 0 0 0.998333 0 0 0 0 0.998333 0 0 0 0 0.998333 0 0 0 0.2 0"/>
<feBlend mode="normal" in2="shape" result="effect1_innerShadow_25_151334"/>
</filter>
<filter id="filter13_d_25_151334" x="0" y="0.690918" width="346" height="120" filterUnits="userSpaceOnUse" color-interpolation-filters="sRGB">
<feFlood flood-opacity="0" result="BackgroundImageFix"/>
<feColorMatrix in="SourceAlpha" type="matrix" values="0 0 0 0 0 0 0 0 0 0 0 0 0 0 0 0 0 0 127 0" result="hardAlpha"/>
<feOffset dy="2"/>
<feComposite in2="hardAlpha" operator="out"/>
<feColorMatrix type="matrix" values="0 0 0 0 0.164706 0 0 0 0 0.298039 0 0 0 0 0.282353 0 0 0 1 0"/>
<feBlend mode="normal" in2="BackgroundImageFix" result="effect1_dropShadow_25_151334"/>
<feBlend mode="normal" in="SourceGraphic" in2="effect1_dropShadow_25_151334" result="shape"/>
</filter>
<linearGradient id="paint0_linear_25_151334" x1="219" y1="2.69092" x2="219" y2="116.691" gradientUnits="userSpaceOnUse">
<stop stop-color="#FCEDB2"/>
<stop offset="1" stop-color="#CDEBD9"/>
</linearGradient>
<linearGradient id="paint1_linear_25_151334" x1="49" y1="87.0552" x2="49" y2="106.764" gradientUnits="userSpaceOnUse">
<stop stop-color="#FFD15B"/>
<stop offset="1" stop-color="#FF970E"/>
</linearGradient>
<linearGradient id="paint2_linear_25_151334" x1="49" y1="87.0552" x2="49" y2="106.764" gradientUnits="userSpaceOnUse">
<stop stop-color="#FFD15B"/>
<stop offset="1" stop-color="#FF970E"/>
</linearGradient>
<linearGradient id="paint3_linear_25_151334" x1="69.8191" y1="17.2173" x2="69.8191" y2="34.587" gradientUnits="userSpaceOnUse">
<stop stop-color="#FFD15B"/>
<stop offset="1" stop-color="#FF970E"/>
</linearGradient>
<linearGradient id="paint4_linear_25_151334" x1="49.3059" y1="37.6465" x2="49.3059" y2="55.0162" gradientUnits="userSpaceOnUse">
<stop stop-color="#FFD15B"/>
<stop offset="1" stop-color="#FF970E"/>
</linearGradient>
<linearGradient id="paint5_linear_25_151334" x1="28.9607" y1="58.0754" x2="28.9607" y2="75.4451" gradientUnits="userSpaceOnUse">
<stop stop-color="#FFD15B"/>
<stop offset="1" stop-color="#FF970E"/>
</linearGradient>
<linearGradient id="paint6_linear_25_151334" x1="173" y1="2.69092" x2="173" y2="116.691" gradientUnits="userSpaceOnUse">
<stop stop-color="#727272" stop-opacity="0.94"/>
<stop offset="1" stop-color="#252525"/>
</linearGradient>
</defs>
</svg>
