<svg width="347" height="255" viewBox="0 0 347 255" fill="none" xmlns="http://www.w3.org/2000/svg">
<g filter="url(#filter0_d_71_69676)">
<rect x="2" y="2.06641" width="343" height="246" rx="8" fill="white"/>
<rect x="1" y="1.06641" width="345" height="248" rx="9" stroke="#3F2436" stroke-width="2"/>
<path d="M87.3603 45.3064C85.907 45.3064 84.767 45.0264 83.9403 44.4664C83.1136 43.8931 82.7003 43.0864 82.7003 42.0464C82.7003 41.4064 82.887 40.8597 83.2603 40.4064C83.647 39.9531 84.1403 39.6331 84.7403 39.4464V39.3264C84.0736 39.1531 83.5536 38.8264 83.1803 38.3464C82.807 37.8664 82.6203 37.2931 82.6203 36.6264C82.6203 36.1997 82.7003 35.8131 82.8603 35.4664C83.0203 35.1064 83.2403 34.7997 83.5203 34.5464C83.8136 34.2931 84.1603 34.0997 84.5603 33.9664C84.9736 33.8197 85.4203 33.7464 85.9003 33.7464C86.207 33.7464 86.5536 33.7797 86.9403 33.8464C87.3403 33.8997 87.6936 34.0131 88.0003 34.1864L87.3803 36.3064C87.2203 36.2131 87.0603 36.1531 86.9003 36.1264C86.7536 36.0864 86.5936 36.0664 86.4203 36.0664C86.1136 36.0664 85.8403 36.1597 85.6003 36.3464C85.3736 36.5197 85.2603 36.7797 85.2603 37.1264C85.2603 37.8597 85.727 38.2264 86.6603 38.2264H87.7003V40.1864H86.6603C86.367 40.1864 86.127 40.2864 85.9403 40.4864C85.7536 40.6731 85.6603 40.9264 85.6603 41.2464V41.6264C85.6603 42.0797 85.8136 42.4197 86.1203 42.6464C86.427 42.8597 86.8736 42.9664 87.4603 42.9664C88.127 42.9664 88.6536 42.7864 89.0403 42.4264C89.427 42.0531 89.6203 41.5131 89.6203 40.8064V33.9864H92.5803V41.1864C92.5803 41.8131 92.4536 42.3797 92.2003 42.8864C91.9603 43.3931 91.6136 43.8264 91.1603 44.1864C90.707 44.5464 90.1603 44.8264 89.5203 45.0264C88.8803 45.2131 88.1603 45.3064 87.3603 45.3064ZM83.342 30.1264H86.542V28.3664H88.762V30.3864H90.302V28.3664H92.582V32.2864H83.342V30.1264ZM98.592 45.3064C97.4454 45.3064 96.572 44.9331 95.972 44.1864C95.3854 43.4264 95.092 42.3464 95.092 40.9464V33.9864H98.052V40.6864C98.052 41.0064 98.0787 41.3064 98.132 41.5864C98.1854 41.8531 98.2787 42.0864 98.412 42.2864C98.5454 42.4731 98.7254 42.6264 98.952 42.7464C99.192 42.8531 99.4854 42.9064 99.832 42.9064C100.072 42.9064 100.312 42.8731 100.552 42.8064C100.805 42.7264 101.025 42.6131 101.212 42.4664C101.399 42.3197 101.552 42.1397 101.672 41.9264C101.792 41.7131 101.852 41.4664 101.852 41.1864V33.9864H104.812V42.7664H105.792V45.0664H104.012C102.812 45.0664 102.192 44.3797 102.152 43.0064H102.012C101.905 43.3131 101.759 43.6064 101.572 43.8864C101.399 44.1531 101.172 44.3931 100.892 44.6064C100.625 44.8197 100.299 44.9864 99.912 45.1064C99.5387 45.2397 99.0987 45.3064 98.592 45.3064ZM111.989 45.3064C110.536 45.3064 109.396 45.0264 108.569 44.4664C107.743 43.8931 107.329 43.0864 107.329 42.0464C107.329 41.4064 107.516 40.8597 107.889 40.4064C108.276 39.9531 108.769 39.6331 109.369 39.4464V39.3264C108.703 39.1531 108.183 38.8264 107.809 38.3464C107.436 37.8664 107.249 37.2931 107.249 36.6264C107.249 36.1997 107.329 35.8131 107.489 35.4664C107.649 35.1064 107.869 34.7997 108.149 34.5464C108.443 34.2931 108.789 34.0997 109.189 33.9664C109.603 33.8197 110.049 33.7464 110.529 33.7464C110.836 33.7464 111.183 33.7797 111.569 33.8464C111.969 33.8997 112.323 34.0131 112.629 34.1864L112.009 36.3064C111.849 36.2131 111.689 36.1531 111.529 36.1264C111.383 36.0864 111.223 36.0664 111.049 36.0664C110.743 36.0664 110.469 36.1597 110.229 36.3464C110.003 36.5197 109.889 36.7797 109.889 37.1264C109.889 37.8597 110.356 38.2264 111.289 38.2264H112.329V40.1864H111.289C110.996 40.1864 110.756 40.2864 110.569 40.4864C110.383 40.6731 110.289 40.9264 110.289 41.2464V41.6264C110.289 42.0797 110.443 42.4197 110.749 42.6464C111.056 42.8597 111.503 42.9664 112.089 42.9664C112.756 42.9664 113.283 42.7864 113.669 42.4264C114.056 42.0531 114.249 41.5131 114.249 40.8064V33.9864H117.209V41.1864C117.209 41.8131 117.083 42.3797 116.829 42.8864C116.589 43.3931 116.243 43.8264 115.789 44.1864C115.336 44.5464 114.789 44.8264 114.149 45.0264C113.509 45.2131 112.789 45.3064 111.989 45.3064ZM114.451 32.2864C113.624 32.2864 112.998 32.0931 112.571 31.7064C112.131 31.3197 111.911 30.7531 111.911 30.0064V28.3664H114.251V30.1264H119.611V32.2864H114.451ZM123.221 45.3064C122.074 45.3064 121.201 44.9331 120.601 44.1864C120.014 43.4264 119.721 42.3464 119.721 40.9464V33.9864H122.681V40.6864C122.681 41.0064 122.708 41.3064 122.761 41.5864C122.814 41.8531 122.908 42.0864 123.041 42.2864C123.174 42.4731 123.354 42.6264 123.581 42.7464C123.821 42.8531 124.114 42.9064 124.461 42.9064C124.701 42.9064 124.941 42.8731 125.181 42.8064C125.434 42.7264 125.654 42.6131 125.841 42.4664C126.028 42.3197 126.181 42.1397 126.301 41.9264C126.421 41.7131 126.481 41.4664 126.481 41.1864V33.9864H129.441V42.7664H130.421V45.0664H128.641C127.441 45.0664 126.821 44.3797 126.781 43.0064H126.641C126.534 43.3131 126.388 43.6064 126.201 43.8864C126.028 44.1531 125.801 44.3931 125.521 44.6064C125.254 44.8197 124.928 44.9864 124.541 45.1064C124.168 45.2397 123.728 45.3064 123.221 45.3064ZM133.32 39.2464L131.58 38.5464C131.634 37.8131 131.807 37.1531 132.1 36.5664C132.407 35.9664 132.807 35.4597 133.3 35.0464C133.794 34.6331 134.374 34.3131 135.04 34.0864C135.72 33.8597 136.46 33.7464 137.26 33.7464C138.074 33.7464 138.8 33.8597 139.44 34.0864C140.094 34.2997 140.647 34.6131 141.1 35.0264C141.554 35.4264 141.9 35.9197 142.14 36.5064C142.394 37.0797 142.52 37.7197 142.52 38.4264V45.0664H139.56V38.8064C139.56 37.9531 139.34 37.2864 138.9 36.8064C138.474 36.3264 137.84 36.0864 137 36.0864C136.36 36.0864 135.807 36.2197 135.34 36.4864C134.887 36.7531 134.554 37.0864 134.34 37.4864L135.04 37.7464C135.52 37.9331 135.847 38.1464 136.02 38.3864C136.194 38.6264 136.28 38.9864 136.28 39.4664V45.0664H133.32V39.2464ZM149.738 37.7264C149.738 37.2197 149.605 36.8197 149.338 36.5264C149.085 36.2331 148.658 36.0864 148.058 36.0864C147.485 36.0864 147.031 36.2131 146.698 36.4664C146.365 36.7064 146.085 36.9864 145.858 37.3064L144.098 35.7464C144.525 35.1197 145.051 34.6331 145.678 34.2864C146.318 33.9264 147.185 33.7464 148.278 33.7464C149.731 33.7464 150.831 34.0731 151.578 34.7264C152.325 35.3797 152.698 36.3331 152.698 37.5864V45.0664H149.738V37.7264ZM159.429 45.3064C158.363 45.3064 157.456 45.1331 156.709 44.7864C155.976 44.4397 155.329 43.9531 154.769 43.3264L156.549 41.6064C156.936 42.0331 157.376 42.3797 157.869 42.6464C158.376 42.8997 158.943 43.0264 159.569 43.0264C160.183 43.0264 160.629 42.9264 160.909 42.7264C161.189 42.5264 161.329 42.2664 161.329 41.9464C161.329 41.5997 161.216 41.3531 160.989 41.2064C160.763 41.0464 160.456 40.9397 160.069 40.8864L158.929 40.7464C157.716 40.5997 156.783 40.2464 156.129 39.6864C155.489 39.1264 155.169 38.3464 155.169 37.3464C155.169 36.7864 155.269 36.2864 155.469 35.8464C155.683 35.4064 155.976 35.0331 156.349 34.7264C156.736 34.4064 157.189 34.1664 157.709 34.0064C158.243 33.8331 158.829 33.7464 159.469 33.7464C160.003 33.7464 160.483 33.7864 160.909 33.8664C161.336 33.9331 161.723 34.0397 162.069 34.1864C162.429 34.3331 162.756 34.5131 163.049 34.7264C163.343 34.9397 163.629 35.1864 163.909 35.4664L162.169 37.1864C161.849 36.8397 161.456 36.5597 160.989 36.3464C160.523 36.1331 160.036 36.0264 159.529 36.0264C158.983 36.0264 158.583 36.1264 158.329 36.3264C158.076 36.5264 157.949 36.7864 157.949 37.1064C157.949 37.4264 158.049 37.6864 158.249 37.8864C158.463 38.0731 158.823 38.1997 159.329 38.2664L160.469 38.4264C161.043 38.5064 161.549 38.6264 161.989 38.7864C162.443 38.9464 162.823 39.1597 163.129 39.4264C163.449 39.6797 163.689 39.9931 163.849 40.3664C164.023 40.7397 164.109 41.1864 164.109 41.7064C164.109 42.2264 163.996 42.7064 163.769 43.1464C163.543 43.5864 163.223 43.9664 162.809 44.2864C162.409 44.6064 161.916 44.8597 161.329 45.0464C160.756 45.2197 160.123 45.3064 159.429 45.3064ZM169.584 45.0664C168.571 45.0664 167.824 44.8197 167.344 44.3264C166.878 43.8331 166.644 43.1197 166.644 42.1864V34.8864C166.644 34.5664 166.691 34.2797 166.784 34.0264C166.891 33.7597 167.018 33.5197 167.164 33.3064C167.324 33.0797 167.498 32.8797 167.684 32.7064C167.884 32.5197 168.078 32.3331 168.264 32.1464C168.531 31.8797 168.758 31.6131 168.944 31.3464C169.144 31.0664 169.244 30.7397 169.244 30.3664C169.244 29.9397 169.124 29.6131 168.884 29.3864C168.658 29.1597 168.338 29.0464 167.924 29.0464C167.458 29.0464 167.078 29.1931 166.784 29.4864C166.504 29.7797 166.278 30.1997 166.104 30.7464L163.964 29.5464C164.098 29.1864 164.278 28.8397 164.504 28.5064C164.731 28.1597 165.011 27.8597 165.344 27.6064C165.691 27.3397 166.098 27.1264 166.564 26.9664C167.044 26.8064 167.604 26.7264 168.244 26.7264C168.791 26.7264 169.298 26.7997 169.764 26.9464C170.231 27.0931 170.631 27.3131 170.964 27.6064C171.311 27.8864 171.578 28.2331 171.764 28.6464C171.964 29.0464 172.064 29.5064 172.064 30.0264C172.064 30.5864 171.931 31.0797 171.664 31.5064C171.411 31.9197 171.131 32.3064 170.824 32.6664C170.518 33.0264 170.238 33.3731 169.984 33.7064C169.731 34.0397 169.604 34.3997 169.604 34.7864V42.7664H170.984V45.0664H169.584ZM177.188 45.3064C176.481 45.3064 175.834 45.2264 175.248 45.0664C174.661 44.9064 174.161 44.6597 173.748 44.3264C173.334 43.9931 173.014 43.5797 172.788 43.0864C172.561 42.5931 172.448 42.0064 172.448 41.3264C172.448 40.9531 172.474 40.6264 172.528 40.3464C172.581 40.0664 172.648 39.8131 172.728 39.5864C172.821 39.3597 172.914 39.1597 173.008 38.9864C173.114 38.8131 173.221 38.6531 173.328 38.5064C173.514 38.2131 173.674 37.8997 173.808 37.5664C173.954 37.2197 174.028 36.8797 174.028 36.5464V36.4064H172.328V33.9864H174.548C175.308 33.9864 175.888 34.1597 176.288 34.5064C176.688 34.8397 176.888 35.2931 176.888 35.8664V35.9464C176.888 36.3331 176.834 36.7264 176.728 37.1264C176.621 37.5264 176.441 37.9797 176.188 38.4864C176.001 38.8597 175.841 39.2064 175.708 39.5264C175.588 39.8331 175.528 40.2331 175.528 40.7264V41.2664C175.528 41.7731 175.668 42.1731 175.948 42.4664C176.228 42.7464 176.621 42.8864 177.128 42.8864C177.634 42.8864 178.028 42.7531 178.308 42.4864C178.601 42.2064 178.748 41.8131 178.748 41.3064V39.7664C178.748 39.2464 178.681 38.8464 178.548 38.5664C178.414 38.2864 178.121 38.1464 177.668 38.1464H177.548V35.9464H177.868C178.188 35.9464 178.454 35.8597 178.668 35.6864C178.894 35.5131 179.008 35.2064 179.008 34.7664V33.5064H181.888V34.5064C181.888 34.7597 181.854 35.0064 181.788 35.2464C181.734 35.4731 181.628 35.6864 181.468 35.8864C181.321 36.0864 181.108 36.2597 180.828 36.4064C180.561 36.5531 180.221 36.6664 179.808 36.7464V36.8864C180.474 37.1131 180.974 37.5264 181.308 38.1264C181.654 38.7264 181.828 39.5664 181.828 40.6464C181.828 41.3664 181.714 42.0197 181.488 42.6064C181.274 43.1797 180.968 43.6664 180.568 44.0664C180.168 44.4664 179.681 44.7731 179.108 44.9864C178.534 45.1997 177.894 45.3064 177.188 45.3064ZM177.659 30.1264H178.919V29.4464C178.919 29.2197 178.872 29.0597 178.779 28.9664C178.672 28.8597 178.466 28.8064 178.159 28.8064H177.659V26.7664H179.319C179.972 26.7664 180.479 26.9131 180.839 27.2064C181.199 27.4864 181.379 27.8731 181.379 28.3664C181.379 28.6997 181.279 29.0131 181.079 29.3064C180.866 29.5864 180.579 29.8064 180.219 29.9664V30.1264H183.939V32.1664H177.659V30.1264ZM182.881 37.1464H185.761L188.161 42.7264H188.261C188.727 42.7264 189.094 42.5264 189.361 42.1264C189.627 41.7264 189.761 41.1664 189.761 40.4464V38.6064C189.761 37.8864 189.621 37.3264 189.341 36.9264C189.061 36.5264 188.674 36.3264 188.181 36.3264H187.441V33.9864H188.241C188.961 33.9864 189.601 34.1131 190.161 34.3664C190.734 34.6197 191.214 34.9864 191.601 35.4664C192.001 35.9331 192.307 36.5131 192.521 37.2064C192.734 37.8864 192.841 38.6597 192.841 39.5264C192.841 40.3931 192.734 41.1731 192.521 41.8664C192.321 42.5464 192.021 43.1264 191.621 43.6064C191.234 44.0731 190.754 44.4331 190.181 44.6864C189.621 44.9397 188.987 45.0664 188.281 45.0664H186.341L182.881 37.1464ZM199.601 37.7264C199.601 37.2197 199.468 36.8197 199.201 36.5264C198.948 36.2331 198.521 36.0864 197.921 36.0864C197.348 36.0864 196.895 36.2131 196.561 36.4664C196.228 36.7064 195.948 36.9864 195.721 37.3064L193.961 35.7464C194.388 35.1197 194.915 34.6331 195.541 34.2864C196.181 33.9264 197.048 33.7464 198.141 33.7464C199.595 33.7464 200.695 34.0731 201.441 34.7264C202.188 35.3797 202.561 36.3331 202.561 37.5864V45.0664H199.601V37.7264ZM208.573 45.3064C207.426 45.3064 206.553 44.9331 205.953 44.1864C205.366 43.4264 205.073 42.3464 205.073 40.9464V33.9864H208.033V40.6864C208.033 41.0064 208.059 41.3064 208.113 41.5864C208.166 41.8531 208.259 42.0864 208.393 42.2864C208.526 42.4731 208.706 42.6264 208.933 42.7464C209.173 42.8531 209.466 42.9064 209.813 42.9064C210.053 42.9064 210.293 42.8731 210.533 42.8064C210.786 42.7264 211.006 42.6131 211.193 42.4664C211.379 42.3197 211.533 42.1397 211.653 41.9264C211.773 41.7131 211.833 41.4664 211.833 41.1864V33.9864H214.793V42.7664H215.773V45.0664H213.993C212.793 45.0664 212.173 44.3797 212.133 43.0064H211.993C211.886 43.3131 211.739 43.6064 211.553 43.8864C211.379 44.1531 211.153 44.3931 210.873 44.6064C210.606 44.8197 210.279 44.9864 209.893 45.1064C209.519 45.2397 209.079 45.3064 208.573 45.3064ZM217.69 38.4464C217.69 37.7264 217.816 37.0797 218.07 36.5064C218.323 35.9331 218.683 35.4397 219.15 35.0264C219.616 34.6131 220.183 34.2997 220.85 34.0864C221.53 33.8597 222.29 33.7464 223.13 33.7464C223.97 33.7464 224.723 33.8597 225.39 34.0864C226.07 34.2997 226.643 34.6131 227.11 35.0264C227.576 35.4397 227.936 35.9331 228.19 36.5064C228.443 37.0797 228.57 37.7264 228.57 38.4464V45.0664H225.61V38.5864C225.61 37.7864 225.39 37.1731 224.95 36.7464C224.51 36.3064 223.903 36.0864 223.13 36.0864C222.356 36.0864 221.75 36.3064 221.31 36.7464C220.87 37.1731 220.65 37.7864 220.65 38.5864V40.9664H220.75C220.803 40.6731 220.896 40.3931 221.03 40.1264C221.163 39.8464 221.336 39.5997 221.55 39.3864C221.776 39.1731 222.043 39.0064 222.35 38.8864C222.656 38.7531 223.016 38.6864 223.43 38.6864H223.95V41.4464H223.21C222.343 41.4464 221.696 41.5597 221.27 41.7864C220.856 42.0131 220.65 42.4331 220.65 43.0464V45.0664H217.69V38.4464ZM225.178 52.2264C224.605 52.2264 224.125 52.1597 223.738 52.0264C223.338 51.9064 223.018 51.7264 222.778 51.4864C222.538 51.2597 222.365 50.9864 222.258 50.6664C222.151 50.3597 222.098 50.0131 222.098 49.6264V49.0464H220.818V47.1464H222.398C223.065 47.1464 223.545 47.2731 223.838 47.5264C224.118 47.7797 224.258 48.1197 224.258 48.5464V49.2064C224.258 49.9531 224.571 50.3264 225.198 50.3264C225.545 50.3264 225.791 50.2331 225.938 50.0464C226.085 49.8731 226.158 49.5931 226.158 49.2064V47.1464H228.578V48.9664C228.578 49.9264 228.305 50.7064 227.758 51.3064C227.198 51.9197 226.338 52.2264 225.178 52.2264ZM236.048 45.3064C235.275 45.3064 234.581 45.1997 233.968 44.9864C233.355 44.7731 232.835 44.4731 232.408 44.0864C231.981 43.6997 231.655 43.2264 231.428 42.6664C231.201 42.1064 231.088 41.4864 231.088 40.8064V33.9864H234.048V40.6664C234.048 41.3997 234.221 41.9664 234.568 42.3664C234.928 42.7664 235.421 42.9664 236.048 42.9664C236.675 42.9664 237.161 42.7664 237.508 42.3664C237.855 41.9664 238.028 41.3997 238.028 40.6664V30.1264H240.988V40.8064C240.988 41.4864 240.875 42.1064 240.648 42.6664C240.421 43.2264 240.095 43.6997 239.668 44.0864C239.241 44.4731 238.721 44.7731 238.108 44.9864C237.495 45.1997 236.808 45.3064 236.048 45.3064ZM248.07 45.3064C247.363 45.3064 246.71 45.2131 246.11 45.0264C245.51 44.8264 244.99 44.5597 244.55 44.2264C244.123 43.8797 243.783 43.4731 243.53 43.0064C243.29 42.5397 243.17 42.0264 243.17 41.4664V40.4864C243.17 39.9397 243.317 39.5064 243.61 39.1864C243.917 38.8664 244.37 38.7064 244.97 38.7064H247.37V40.8864H245.83V41.2064C245.83 41.8064 246.03 42.2664 246.43 42.5864C246.83 42.8931 247.41 43.0464 248.17 43.0464C248.85 43.0464 249.37 42.8197 249.73 42.3664C250.103 41.8997 250.29 41.2664 250.29 40.4664V38.6264C250.29 37.8264 250.077 37.2064 249.65 36.7664C249.223 36.3131 248.623 36.0864 247.85 36.0864C247.477 36.0864 247.123 36.1331 246.79 36.2264C246.47 36.3197 246.177 36.4397 245.91 36.5864C245.657 36.7331 245.43 36.8997 245.23 37.0864C245.043 37.2597 244.897 37.4264 244.79 37.5864L242.99 35.9864C243.403 35.3597 244.023 34.8331 244.85 34.4064C245.69 33.9664 246.73 33.7464 247.97 33.7464C248.81 33.7464 249.563 33.8797 250.23 34.1464C250.91 34.3997 251.483 34.7797 251.95 35.2864C252.417 35.7797 252.77 36.3864 253.01 37.1064C253.263 37.8131 253.39 38.6197 253.39 39.5264C253.39 40.4331 253.27 41.2464 253.03 41.9664C252.79 42.6731 252.437 43.2797 251.97 43.7864C251.517 44.2797 250.957 44.6597 250.29 44.9264C249.637 45.1797 248.897 45.3064 248.07 45.3064ZM254.424 37.1464H257.304L259.704 42.7264H259.804C260.27 42.7264 260.637 42.5264 260.904 42.1264C261.17 41.7264 261.304 41.1664 261.304 40.4464V38.6064C261.304 37.8864 261.164 37.3264 260.884 36.9264C260.604 36.5264 260.217 36.3264 259.724 36.3264H258.984V33.9864H259.784C260.504 33.9864 261.144 34.1131 261.704 34.3664C262.277 34.6197 262.757 34.9864 263.144 35.4664C263.544 35.9331 263.85 36.5131 264.064 37.2064C264.277 37.8864 264.384 38.6597 264.384 39.5264C264.384 40.3931 264.277 41.1731 264.064 41.8664C263.864 42.5464 263.564 43.1264 263.164 43.6064C262.777 44.0731 262.297 44.4331 261.724 44.6864C261.164 44.9397 260.53 45.0664 259.824 45.0664H257.884L254.424 37.1464Z" fill="#D42525"/>
<path d="M48.5748 68.0664C48.0428 68.0664 47.6508 67.9311 47.3988 67.6604C47.1468 67.3897 47.0208 67.0117 47.0208 66.5264V60.3804H48.5468V66.8204H49.6388V68.0664H48.5748ZM55.0051 68.2344C54.6785 68.2344 54.3891 68.1924 54.1371 68.1084C53.8945 68.0337 53.6845 67.9311 53.5071 67.8004C53.3298 67.6604 53.1805 67.5064 53.0591 67.3384C52.9378 67.1611 52.8445 66.9791 52.7791 66.7924H52.7091V68.0664H51.1831V60.3804H52.7091V65.5604C52.7091 65.7937 52.7605 65.9991 52.8631 66.1764C52.9658 66.3444 53.0965 66.4844 53.2551 66.5964C53.4138 66.7084 53.5958 66.7924 53.8011 66.8484C54.0065 66.8951 54.2165 66.9184 54.4311 66.9184C55.0191 66.9184 55.4345 66.7597 55.6771 66.4424C55.9291 66.1157 56.0551 65.6631 56.0551 65.0844V60.3804H57.5811V65.2524C57.5811 66.2137 57.3571 66.9511 56.9091 67.4644C56.4611 67.9777 55.8265 68.2344 55.0051 68.2344ZM51.5353 57.8044H54.0133V56.6984H55.2733V57.9164H56.3093V56.6984H57.5693V59.0084H51.5353V57.8044ZM56.2393 53.7864H57.5693V55.9284H56.2393V53.7864ZM62.56 68.2344C62.0933 68.2344 61.6547 68.1691 61.244 68.0384C60.8427 67.8984 60.4927 67.7117 60.194 67.4784C59.9047 67.2357 59.676 66.9464 59.508 66.6104C59.34 66.2744 59.256 65.9011 59.256 65.4904V64.7904C59.256 64.4637 59.3307 64.2117 59.48 64.0344C59.6293 63.8477 59.9 63.7544 60.292 63.7544H61.86V64.9584H60.698V65.3784C60.698 65.9384 60.8707 66.3491 61.216 66.6104C61.5707 66.8624 62.042 66.9884 62.63 66.9884C63.2367 66.9884 63.7033 66.8017 64.03 66.4284C64.366 66.0551 64.534 65.5277 64.534 64.8464V63.6424C64.534 62.9517 64.3473 62.4151 63.974 62.0324C63.61 61.6497 63.092 61.4584 62.42 61.4584C61.86 61.4584 61.3793 61.5751 60.978 61.8084C60.586 62.0417 60.2873 62.3217 60.082 62.6484L59.13 61.7944C59.4007 61.3464 59.816 60.9731 60.376 60.6744C60.936 60.3664 61.6407 60.2124 62.49 60.2124C63.6473 60.2124 64.548 60.5671 65.192 61.2764C65.836 61.9764 66.158 62.9564 66.158 64.2164C66.158 64.8324 66.0787 65.3924 65.92 65.8964C65.7613 66.3911 65.528 66.8111 65.22 67.1564C64.912 67.5017 64.534 67.7677 64.086 67.9544C63.638 68.1411 63.1293 68.2344 62.56 68.2344ZM68.6442 63.8244L67.4402 63.3204C67.4775 62.8631 67.5895 62.4431 67.7762 62.0604C67.9722 61.6777 68.2289 61.3511 68.5462 61.0804C68.8635 60.8004 69.2369 60.5857 69.6662 60.4364C70.0955 60.2871 70.5622 60.2124 71.0662 60.2124C72.1769 60.2124 73.0402 60.4971 73.6562 61.0664C74.2722 61.6264 74.5802 62.3871 74.5802 63.3484V68.0664H73.0542V63.5444C73.0542 62.8724 72.8722 62.3591 72.5082 62.0044C72.1442 61.6404 71.6449 61.4584 71.0102 61.4584C70.4969 61.4584 70.0442 61.5751 69.6522 61.8084C69.2695 62.0324 69.0082 62.3357 68.8682 62.7184L69.4702 62.9564C69.7315 63.0591 69.9135 63.1804 70.0162 63.3204C70.1189 63.4511 70.1702 63.6471 70.1702 63.9084V68.0664H68.6442V63.8244ZM79.6765 68.2344C78.6125 68.2344 77.7865 67.8797 77.1985 67.1704C76.6105 66.4517 76.3165 65.4671 76.3165 64.2164C76.3165 63.6097 76.4005 63.0591 76.5685 62.5644C76.7459 62.0697 76.9932 61.6497 77.3105 61.3044C77.6372 60.9497 78.0292 60.6791 78.4865 60.4924C78.9439 60.3057 79.4572 60.2124 80.0265 60.2124C80.5492 60.2124 81.0252 60.2917 81.4545 60.4504C81.8839 60.5997 82.2479 60.8144 82.5465 61.0944C82.8545 61.3744 83.0879 61.7151 83.2465 62.1164C83.4145 62.5084 83.4985 62.9471 83.4985 63.4324V68.0664H81.9725V63.5584C81.9725 62.8957 81.7952 62.3824 81.4405 62.0184C81.0859 61.6451 80.6005 61.4584 79.9845 61.4584C79.3405 61.4584 78.8365 61.6591 78.4725 62.0604C78.1179 62.4617 77.9405 63.0077 77.9405 63.6984V64.7204C77.9405 65.4577 78.0992 66.0224 78.4165 66.4144C78.7432 66.7971 79.2379 66.9884 79.9005 66.9884C80.1059 66.9884 80.2972 66.9697 80.4745 66.9324L80.6565 68.1364C80.5165 68.1737 80.3485 68.1971 80.1525 68.2064C79.9659 68.2251 79.8072 68.2344 79.6765 68.2344ZM87.5126 68.0664C86.9806 68.0664 86.5839 67.9311 86.3226 67.6604C86.0706 67.3897 85.9446 67.0117 85.9446 66.5264V60.8564C85.9446 60.6324 85.9773 60.4317 86.0426 60.2544C86.1079 60.0771 86.1919 59.9184 86.2946 59.7784C86.3973 59.6291 86.5093 59.4937 86.6306 59.3724C86.7613 59.2417 86.8873 59.1157 87.0086 58.9944C87.1859 58.8264 87.3353 58.6491 87.4566 58.4624C87.5873 58.2757 87.6526 58.0564 87.6526 57.8044C87.6526 57.4777 87.5546 57.2304 87.3586 57.0624C87.1719 56.8944 86.9246 56.8104 86.6166 56.8104C86.2713 56.8104 85.9866 56.9131 85.7626 57.1184C85.5479 57.3144 85.3846 57.6037 85.2726 57.9864L84.1246 57.3424C84.3113 56.8291 84.6146 56.4091 85.0346 56.0824C85.4546 55.7464 86.0333 55.5784 86.7706 55.5784C87.4986 55.5784 88.0726 55.7697 88.4926 56.1524C88.9126 56.5257 89.1226 57.0204 89.1226 57.6364C89.1226 58.0471 89.0293 58.3877 88.8426 58.6584C88.6653 58.9291 88.4693 59.1811 88.2546 59.4144C88.0586 59.6291 87.8766 59.8437 87.7086 60.0584C87.5499 60.2731 87.4706 60.5204 87.4706 60.8004V66.8204H88.5626V68.0664H87.5126ZM92.963 68.2344C92.4963 68.2344 92.0716 68.1784 91.689 68.0664C91.3156 67.9544 90.9936 67.7864 90.723 67.5624C90.4523 67.3384 90.2423 67.0537 90.093 66.7084C89.9436 66.3631 89.869 65.9571 89.869 65.4904C89.869 64.9584 89.939 64.5384 90.079 64.2304C90.2283 63.9131 90.3963 63.6284 90.583 63.3764C90.7603 63.1431 90.905 62.9051 91.017 62.6624C91.129 62.4197 91.185 62.1724 91.185 61.9204V61.6544H89.771V60.3804H91.367C91.787 60.3804 92.109 60.4831 92.333 60.6884C92.5663 60.8844 92.683 61.1551 92.683 61.5004V61.5984C92.683 61.9064 92.627 62.2051 92.515 62.4944C92.4123 62.7744 92.2536 63.1011 92.039 63.4744C91.871 63.7731 91.7356 64.0484 91.633 64.3004C91.5396 64.5431 91.493 64.8277 91.493 65.1544V65.5604C91.493 66.0271 91.619 66.3817 91.871 66.6244C92.1323 66.8671 92.487 66.9884 92.935 66.9884C93.383 66.9884 93.733 66.8671 93.985 66.6244C94.2463 66.3817 94.377 66.0271 94.377 65.5604V64.4824C94.377 64.0531 94.3023 63.7217 94.153 63.4884C94.013 63.2551 93.7796 63.1384 93.453 63.1384H93.187V61.9764H93.523C93.803 61.9764 94.0316 61.8971 94.209 61.7384C94.3863 61.5704 94.475 61.2997 94.475 60.9264V60.1004H95.973V60.8144C95.973 61.2344 95.847 61.5891 95.595 61.8784C95.3523 62.1584 95.0023 62.3357 94.545 62.4104V62.4944C95.021 62.6437 95.3803 62.9377 95.623 63.3764C95.875 63.8057 96.001 64.3704 96.001 65.0704C96.001 66.0504 95.749 66.8251 95.245 67.3944C94.7503 67.9544 93.9896 68.2344 92.963 68.2344ZM93.4536 57.8044H94.4476V57.3144C94.4476 57.1091 94.4056 56.9644 94.3216 56.8804C94.2283 56.7871 94.065 56.7404 93.8316 56.7404H93.4536V55.6484H94.3916C94.8396 55.6484 95.1803 55.7464 95.4136 55.9424C95.6376 56.1291 95.7496 56.3857 95.7496 56.7124C95.7496 56.9084 95.6983 57.1044 95.5956 57.3004C95.4836 57.4871 95.3203 57.6317 95.1056 57.7344V57.8044H97.6256V58.8964H93.4536V57.8044ZM97.0202 62.5364H98.5742L100.464 66.8344H100.506C100.992 66.8344 101.365 66.6617 101.626 66.3164C101.888 65.9617 102.018 65.4624 102.018 64.8184V63.6144C102.018 62.9891 101.883 62.5037 101.612 62.1584C101.342 61.8037 100.968 61.6264 100.492 61.6264H100.016V60.3804H100.52C101.538 60.3804 102.312 60.7164 102.844 61.3884C103.376 62.0604 103.642 63.0031 103.642 64.2164C103.642 65.4297 103.367 66.3771 102.816 67.0584C102.275 67.7304 101.514 68.0664 100.534 68.0664H99.4562L97.0202 62.5364ZM108.656 62.8584C108.656 62.4104 108.539 62.0651 108.306 61.8224C108.072 61.5797 107.704 61.4584 107.2 61.4584C106.77 61.4584 106.425 61.5517 106.164 61.7384C105.902 61.9157 105.678 62.1491 105.492 62.4384L104.568 61.6264C104.82 61.2064 105.16 60.8657 105.59 60.6044C106.019 60.3431 106.588 60.2124 107.298 60.2124C108.231 60.2124 108.945 60.4317 109.44 60.8704C109.934 61.3091 110.182 61.9391 110.182 62.7604V68.0664H108.656V62.8584ZM114.746 68.2344C113.943 68.2344 113.323 67.9777 112.884 67.4644C112.445 66.9417 112.226 66.2044 112.226 65.2524V60.3804H113.752V65.0844C113.752 65.6817 113.873 66.1391 114.116 66.4564C114.368 66.7644 114.769 66.9184 115.32 66.9184C115.525 66.9184 115.731 66.8951 115.936 66.8484C116.141 66.7924 116.323 66.7084 116.482 66.5964C116.65 66.4844 116.781 66.3444 116.874 66.1764C116.977 65.9991 117.028 65.7937 117.028 65.5604V60.3804H118.554V66.8204H119.366V68.0664H118.358C117.966 68.0664 117.672 67.9544 117.476 67.7304C117.28 67.4971 117.173 67.1751 117.154 66.7644H117.084C116.925 67.1937 116.65 67.5484 116.258 67.8284C115.875 68.0991 115.371 68.2344 114.746 68.2344ZM120.867 63.3484C120.867 62.8724 120.946 62.4431 121.105 62.0604C121.273 61.6684 121.511 61.3371 121.819 61.0664C122.127 60.7864 122.495 60.5764 122.925 60.4364C123.363 60.2871 123.853 60.2124 124.395 60.2124C124.936 60.2124 125.421 60.2871 125.851 60.4364C126.289 60.5764 126.663 60.7864 126.971 61.0664C127.279 61.3371 127.512 61.6684 127.671 62.0604C127.839 62.4431 127.923 62.8724 127.923 63.3484V68.0664H126.397V63.4464C126.397 62.8024 126.219 62.3124 125.865 61.9764C125.51 61.6311 125.02 61.4584 124.395 61.4584C123.769 61.4584 123.279 61.6311 122.925 61.9764C122.57 62.3124 122.393 62.8024 122.393 63.4464V65.2104H122.463C122.519 65.0237 122.598 64.8417 122.701 64.6644C122.803 64.4871 122.934 64.3331 123.093 64.2024C123.251 64.0624 123.443 63.9504 123.667 63.8664C123.891 63.7824 124.152 63.7404 124.451 63.7404H124.871V65.2104H124.283C123.676 65.2104 123.209 65.3131 122.883 65.5184C122.556 65.7144 122.393 66.0224 122.393 66.4424V68.0664H120.867V63.3484ZM125.825 73.0084C125.134 73.0084 124.63 72.8451 124.313 72.5184C123.986 72.2011 123.823 71.7904 123.823 71.2864V70.6704H122.913V69.5924H124.047C124.401 69.5924 124.658 69.6671 124.817 69.8164C124.975 69.9657 125.055 70.1664 125.055 70.4184V71.0204C125.055 71.3191 125.115 71.5477 125.237 71.7064C125.358 71.8651 125.554 71.9444 125.825 71.9444C126.095 71.9444 126.291 71.8651 126.413 71.7064C126.534 71.5477 126.595 71.3191 126.595 71.0204V69.5924H127.925V71.0484C127.925 71.6177 127.757 72.0844 127.421 72.4484C127.075 72.8217 126.543 73.0084 125.825 73.0084ZM133.276 68.2344C132.763 68.2344 132.301 68.1644 131.89 68.0244C131.489 67.8751 131.144 67.6697 130.854 67.4084C130.574 67.1377 130.355 66.8157 130.196 66.4424C130.047 66.0597 129.972 65.6351 129.972 65.1684V60.3804H131.498V65.0564C131.498 65.6724 131.652 66.1484 131.96 66.4844C132.278 66.8204 132.716 66.9884 133.276 66.9884C133.836 66.9884 134.27 66.8204 134.578 66.4844C134.896 66.1484 135.054 65.6724 135.054 65.0564V57.8044H136.58V65.1684C136.58 65.6351 136.501 66.0597 136.342 66.4424C136.193 66.8157 135.974 67.1377 135.684 67.4084C135.404 67.6697 135.059 67.8751 134.648 68.0244C134.247 68.1644 133.79 68.2344 133.276 68.2344ZM141.706 68.2344C141.24 68.2344 140.801 68.1691 140.39 68.0384C139.989 67.8984 139.639 67.7117 139.34 67.4784C139.051 67.2357 138.822 66.9464 138.654 66.6104C138.486 66.2744 138.402 65.9011 138.402 65.4904V64.7904C138.402 64.4637 138.477 64.2117 138.626 64.0344C138.776 63.8477 139.046 63.7544 139.438 63.7544H141.006V64.9584H139.844V65.3784C139.844 65.9384 140.017 66.3491 140.362 66.6104C140.717 66.8624 141.188 66.9884 141.776 66.9884C142.383 66.9884 142.85 66.8017 143.176 66.4284C143.512 66.0551 143.68 65.5277 143.68 64.8464V63.6424C143.68 62.9517 143.494 62.4151 143.12 62.0324C142.756 61.6497 142.238 61.4584 141.566 61.4584C141.006 61.4584 140.526 61.5751 140.124 61.8084C139.732 62.0417 139.434 62.3217 139.228 62.6484L138.276 61.7944C138.547 61.3464 138.962 60.9731 139.522 60.6744C140.082 60.3664 140.787 60.2124 141.636 60.2124C142.794 60.2124 143.694 60.5671 144.338 61.2764C144.982 61.9764 145.304 62.9564 145.304 64.2164C145.304 64.8324 145.225 65.3924 145.066 65.8964C144.908 66.3911 144.674 66.8111 144.366 67.1564C144.058 67.5017 143.68 67.7677 143.232 67.9544C142.784 68.1411 142.276 68.2344 141.706 68.2344ZM146.335 62.5364H147.889L149.779 66.8344H149.821C150.306 66.8344 150.679 66.6617 150.941 66.3164C151.202 65.9617 151.333 65.4624 151.333 64.8184V63.6144C151.333 62.9891 151.197 62.5037 150.927 62.1584C150.656 61.8037 150.283 61.6264 149.807 61.6264H149.331V60.3804H149.835C150.852 60.3804 151.627 60.7164 152.159 61.3884C152.691 62.0604 152.957 63.0031 152.957 64.2164C152.957 65.4297 152.681 66.3771 152.131 67.0584C151.589 67.7304 150.829 68.0664 149.849 68.0664H148.771L146.335 62.5364ZM160.403 68.0664C159.871 68.0664 159.479 67.9311 159.227 67.6604C158.975 67.3897 158.849 67.0117 158.849 66.5264V60.3804H160.375V66.8204H161.467V68.0664H160.403ZM156.651 68.0664C156.119 68.0664 155.727 67.9311 155.475 67.6604C155.223 67.3897 155.097 67.0117 155.097 66.5264V60.3804H156.623V66.8204H157.715V68.0664H156.651ZM165.203 68.2064C164.447 68.2064 163.841 68.0197 163.383 67.6464C162.935 67.2731 162.711 66.7084 162.711 65.9524C162.711 65.2337 162.926 64.6784 163.355 64.2864C163.794 63.8944 164.41 63.6984 165.203 63.6984H167.583V63.1104C167.583 62.5691 167.434 62.1584 167.135 61.8784C166.846 61.5984 166.393 61.4584 165.777 61.4584C165.227 61.4584 164.774 61.5751 164.419 61.8084C164.074 62.0417 163.789 62.3357 163.565 62.6904L162.585 61.8364C162.884 61.3604 163.29 60.9731 163.803 60.6744C164.326 60.3664 165.017 60.2124 165.875 60.2124C166.93 60.2124 167.733 60.4597 168.283 60.9544C168.834 61.4397 169.109 62.1397 169.109 63.0544V68.0664H167.583V64.7204H165.665C165.217 64.7204 164.872 64.8137 164.629 65.0004C164.396 65.1871 164.279 65.4577 164.279 65.8124V66.0924C164.279 66.4471 164.387 66.7271 164.601 66.9324C164.816 67.1377 165.11 67.2404 165.483 67.2404C165.67 67.2404 165.819 67.2264 165.931 67.1984L166.057 68.1224C165.973 68.1411 165.843 68.1597 165.665 68.1784C165.488 68.1971 165.334 68.2064 165.203 68.2064ZM166.584 57.8044H167.578V57.3144C167.578 57.1091 167.536 56.9644 167.452 56.8804C167.359 56.7871 167.196 56.7404 166.962 56.7404H166.584V55.6484H167.522C167.97 55.6484 168.311 55.7464 168.544 55.9424C168.768 56.1291 168.88 56.3857 168.88 56.7124C168.88 56.9084 168.829 57.1044 168.726 57.3004C168.614 57.4871 168.451 57.6317 168.236 57.7344V57.8044H170.756V58.8964H166.584V57.8044ZM173.574 68.2344C173.182 68.2344 172.809 68.1877 172.454 68.0944C172.099 68.0011 171.787 67.8611 171.516 67.6744L172.09 66.5824C172.277 66.6944 172.482 66.7924 172.706 66.8764C172.939 66.9511 173.205 66.9884 173.504 66.9884C174.064 66.9884 174.493 66.8017 174.792 66.4284C175.1 66.0457 175.254 65.5231 175.254 64.8604V63.5864C175.254 62.9331 175.105 62.4151 174.806 62.0324C174.517 61.6497 174.087 61.4584 173.518 61.4584C173.061 61.4584 172.687 61.5657 172.398 61.7804C172.109 61.9857 171.899 62.2657 171.768 62.6204L170.522 62.0324C170.755 61.4724 171.129 61.0291 171.642 60.7024C172.155 60.3757 172.799 60.2124 173.574 60.2124C174.106 60.2124 174.577 60.3057 174.988 60.4924C175.399 60.6791 175.744 60.9451 176.024 61.2904C176.304 61.6357 176.514 62.0557 176.654 62.5504C176.803 63.0451 176.878 63.6004 176.878 64.2164C176.878 64.8324 176.803 65.3924 176.654 65.8964C176.505 66.3911 176.29 66.8111 176.01 67.1564C175.73 67.5017 175.385 67.7677 174.974 67.9544C174.563 68.1411 174.097 68.2344 173.574 68.2344ZM184.329 68.0664C183.797 68.0664 183.405 67.9311 183.153 67.6604C182.901 67.3897 182.775 67.0117 182.775 66.5264V60.3804H184.301V66.8204H185.393V68.0664H184.329ZM180.577 68.0664C180.045 68.0664 179.653 67.9311 179.401 67.6604C179.149 67.3897 179.023 67.0117 179.023 66.5264V60.3804H180.549V66.8204H181.641V68.0664H180.577ZM189.129 68.2064C188.373 68.2064 187.767 68.0197 187.309 67.6464C186.861 67.2731 186.637 66.7084 186.637 65.9524C186.637 65.2337 186.852 64.6784 187.281 64.2864C187.72 63.8944 188.336 63.6984 189.129 63.6984H191.509V63.1104C191.509 62.5691 191.36 62.1584 191.061 61.8784C190.772 61.5984 190.319 61.4584 189.703 61.4584C189.153 61.4584 188.7 61.5751 188.345 61.8084C188 62.0417 187.715 62.3357 187.491 62.6904L186.511 61.8364C186.81 61.3604 187.216 60.9731 187.729 60.6744C188.252 60.3664 188.943 60.2124 189.801 60.2124C190.688 60.2124 191.393 60.3851 191.915 60.7304C191.999 60.2264 192.317 59.9744 192.867 59.9744H194.589V61.3044H192.503V61.3324C192.858 61.7897 193.035 62.3637 193.035 63.0544V68.0664H191.509V64.7204H189.591C189.143 64.7204 188.798 64.8137 188.555 65.0004C188.322 65.1871 188.205 65.4577 188.205 65.8124V66.0924C188.205 66.4471 188.313 66.7271 188.527 66.9324C188.742 67.1377 189.036 67.2404 189.409 67.2404C189.596 67.2404 189.745 67.2264 189.857 67.1984L189.983 68.1224C189.899 68.1411 189.769 68.1597 189.591 68.1784C189.414 68.1971 189.26 68.2064 189.129 68.2064ZM198.76 68.2344C197.659 68.2344 196.81 67.8891 196.212 67.1984C195.624 66.4984 195.33 65.4951 195.33 64.1884C195.33 62.9097 195.526 61.9297 195.918 61.2484C196.31 60.5577 196.912 60.2124 197.724 60.2124C198.126 60.2124 198.462 60.3291 198.732 60.5624C199.003 60.7864 199.176 61.0991 199.25 61.5004H199.334C199.418 61.0991 199.614 60.7864 199.922 60.5624C200.23 60.3291 200.608 60.2124 201.056 60.2124C201.626 60.2124 202.074 60.3991 202.4 60.7724C202.727 61.1364 202.89 61.6544 202.89 62.3264V68.0664H201.364V62.4524C201.364 62.1257 201.299 61.8831 201.168 61.7244C201.038 61.5657 200.851 61.4864 200.608 61.4864C200.31 61.4864 200.104 61.5984 199.992 61.8224C199.88 62.0371 199.806 62.2844 199.768 62.5644H198.816C198.798 62.4244 198.77 62.2891 198.732 62.1584C198.704 62.0277 198.658 61.9157 198.592 61.8224C198.527 61.7197 198.443 61.6404 198.34 61.5844C198.247 61.5191 198.126 61.4864 197.976 61.4864C197.594 61.4864 197.328 61.6731 197.178 62.0464C197.029 62.4104 196.954 62.8957 196.954 63.5024V64.7904C196.954 65.1264 196.992 65.4297 197.066 65.7004C197.141 65.9711 197.258 66.2044 197.416 66.4004C197.584 66.5871 197.794 66.7317 198.046 66.8344C198.308 66.9371 198.625 66.9884 198.998 66.9884C199.092 66.9884 199.19 66.9837 199.292 66.9744C199.395 66.9651 199.498 66.9511 199.6 66.9324L199.768 68.1364C199.619 68.1737 199.451 68.1971 199.264 68.2064C199.087 68.2251 198.919 68.2344 198.76 68.2344ZM208.841 68.2344C208.514 68.2344 208.225 68.1924 207.973 68.1084C207.73 68.0337 207.52 67.9311 207.343 67.8004C207.166 67.6604 207.016 67.5064 206.895 67.3384C206.774 67.1611 206.68 66.9791 206.615 66.7924H206.545V68.0664H205.019V60.3804H206.545V65.5604C206.545 65.7937 206.596 65.9991 206.699 66.1764C206.802 66.3444 206.932 66.4844 207.091 66.5964C207.25 66.7084 207.432 66.7924 207.637 66.8484C207.842 66.8951 208.052 66.9184 208.267 66.9184C208.855 66.9184 209.27 66.7597 209.513 66.4424C209.765 66.1157 209.891 65.6631 209.891 65.0844V60.3804H211.417V65.2524C211.417 66.2137 211.193 66.9511 210.745 67.4644C210.297 67.9777 209.662 68.2344 208.841 68.2344ZM216.757 68.2344C216.243 68.2344 215.781 68.1644 215.371 68.0244C214.969 67.8751 214.624 67.6697 214.335 67.4084C214.055 67.1377 213.835 66.8157 213.677 66.4424C213.527 66.0597 213.453 65.6351 213.453 65.1684V60.3804H214.979V65.0564C214.979 65.6724 215.133 66.1484 215.441 66.4844C215.758 66.8204 216.197 66.9884 216.757 66.9884C217.317 66.9884 217.751 66.8204 218.059 66.4844C218.376 66.1484 218.535 65.6724 218.535 65.0564V57.8044H220.061V65.1684C220.061 65.6351 219.981 66.0597 219.823 66.4424C219.673 66.8157 219.454 67.1377 219.165 67.4084C218.885 67.6697 218.539 67.8751 218.129 68.0244C217.727 68.1644 217.27 68.2344 216.757 68.2344ZM213.516 58.0284C213.516 57.6084 213.638 57.2817 213.88 57.0484C214.123 56.8151 214.487 56.6984 214.972 56.6984H217.842V57.9024H214.86V59.0084H213.516V58.0284ZM224.389 68.2064C223.633 68.2064 223.026 68.0197 222.569 67.6464C222.121 67.2731 221.897 66.7084 221.897 65.9524C221.897 65.2337 222.112 64.6784 222.541 64.2864C222.98 63.8944 223.596 63.6984 224.389 63.6984H226.769V63.1104C226.769 62.5691 226.62 62.1584 226.321 61.8784C226.032 61.5984 225.579 61.4584 224.963 61.4584C224.412 61.4584 223.96 61.5751 223.605 61.8084C223.26 62.0417 222.975 62.3357 222.751 62.6904L221.771 61.8364C222.07 61.3604 222.476 60.9731 222.989 60.6744C223.512 60.3664 224.202 60.2124 225.061 60.2124C225.948 60.2124 226.652 60.3851 227.175 60.7304C227.259 60.2264 227.576 59.9744 228.127 59.9744H229.849V61.3044H227.763V61.3324C228.118 61.7897 228.295 62.3637 228.295 63.0544V68.0664H226.769V64.7204H224.851C224.403 64.7204 224.058 64.8137 223.815 65.0004C223.582 65.1871 223.465 65.4577 223.465 65.8124V66.0924C223.465 66.4471 223.572 66.7271 223.787 66.9324C224.002 67.1377 224.296 67.2404 224.669 67.2404C224.856 67.2404 225.005 67.2264 225.117 67.1984L225.243 68.1224C225.159 68.1411 225.028 68.1597 224.851 68.1784C224.674 68.1971 224.52 68.2064 224.389 68.2064ZM232.382 66.7924C231.897 66.7924 231.533 66.6757 231.29 66.4424C231.047 66.2091 230.926 65.8824 230.926 65.4624V64.7484H232.298V65.5184H234.636V66.7924H232.382ZM232.382 63.2644C231.897 63.2644 231.533 63.1524 231.29 62.9284C231.047 62.6951 230.926 62.3684 230.926 61.9484V61.2204H232.298V61.9904H234.636V63.2644H232.382ZM238.963 68.2064C238.207 68.2064 237.601 68.0197 237.143 67.6464C236.695 67.2731 236.471 66.7084 236.471 65.9524C236.471 65.2337 236.686 64.6784 237.115 64.2864C237.554 63.8944 238.17 63.6984 238.963 63.6984H241.343V63.1104C241.343 62.5691 241.194 62.1584 240.895 61.8784C240.606 61.5984 240.153 61.4584 239.537 61.4584C238.987 61.4584 238.534 61.5751 238.179 61.8084C237.834 62.0417 237.549 62.3357 237.325 62.6904L236.345 61.8364C236.644 61.3604 237.05 60.9731 237.563 60.6744C238.086 60.3664 238.777 60.2124 239.635 60.2124C240.522 60.2124 241.227 60.3851 241.749 60.7304C241.833 60.2264 242.151 59.9744 242.701 59.9744H244.423V61.3044H242.337V61.3324C242.692 61.7897 242.869 62.3637 242.869 63.0544V68.0664H241.343V64.7204H239.425C238.977 64.7204 238.632 64.8137 238.389 65.0004C238.156 65.1871 238.039 65.4577 238.039 65.8124V66.0924C238.039 66.4471 238.147 66.7271 238.361 66.9324C238.576 67.1377 238.87 67.2404 239.243 67.2404C239.43 67.2404 239.579 67.2264 239.691 67.1984L239.817 68.1224C239.733 68.1411 239.603 68.1597 239.425 68.1784C239.248 68.1971 239.094 68.2064 238.963 68.2064ZM249.378 68.2344C249.052 68.2344 248.762 68.1924 248.51 68.1084C248.268 68.0337 248.058 67.9311 247.88 67.8004C247.703 67.6604 247.554 67.5064 247.432 67.3384C247.311 67.1611 247.218 66.9791 247.152 66.7924H247.082V68.0664H245.556V60.3804H247.082V65.5604C247.082 65.7937 247.134 65.9991 247.236 66.1764C247.339 66.3444 247.47 66.4844 247.628 66.5964C247.787 66.7084 247.969 66.7924 248.174 66.8484C248.38 66.8951 248.59 66.9184 248.804 66.9184C249.392 66.9184 249.808 66.7597 250.05 66.4424C250.302 66.1157 250.428 65.6631 250.428 65.0844V60.3804H251.954V65.2524C251.954 66.2137 251.73 66.9511 251.282 67.4644C250.834 67.9777 250.2 68.2344 249.378 68.2344ZM254.774 64.9864H253.962V63.7404H255.082C255.548 63.7404 255.856 63.9457 256.006 64.3564L256.888 66.8764H257.336C257.728 66.8764 258.04 66.6897 258.274 66.3164C258.507 65.9431 258.624 65.4251 258.624 64.7624V63.5584C258.624 62.8957 258.446 62.3824 258.092 62.0184C257.737 61.6451 257.238 61.4584 256.594 61.4584C256.286 61.4584 256.001 61.4957 255.74 61.5704C255.488 61.6451 255.264 61.7477 255.068 61.8784C254.872 61.9997 254.699 62.1397 254.55 62.2984C254.4 62.4571 254.274 62.6204 254.172 62.7884L253.206 61.9344C253.346 61.7011 253.518 61.4817 253.724 61.2764C253.929 61.0711 254.172 60.8891 254.452 60.7304C254.741 60.5717 255.068 60.4457 255.432 60.3524C255.796 60.2591 256.206 60.2124 256.664 60.2124C257.793 60.2124 258.67 60.5624 259.296 61.2624C259.93 61.9531 260.248 62.9191 260.248 64.1604C260.248 64.7671 260.178 65.3131 260.038 65.7984C259.898 66.2837 259.697 66.6944 259.436 67.0304C259.174 67.3664 258.862 67.6231 258.498 67.8004C258.134 67.9777 257.723 68.0664 257.266 68.0664H255.866L254.774 64.9864ZM263.472 66.7924C262.986 66.7924 262.622 66.6757 262.38 66.4424C262.137 66.2091 262.016 65.8824 262.016 65.4624V64.7484H263.388V65.5184H265.726V66.7924H263.472ZM263.472 63.2644C262.986 63.2644 262.622 63.1524 262.38 62.9284C262.137 62.6951 262.016 62.3684 262.016 61.9484V61.2204H263.388V61.9904H265.726V63.2644H263.472ZM270.095 68.0664C269.563 68.0664 269.166 67.9311 268.905 67.6604C268.653 67.3897 268.527 67.0117 268.527 66.5264V63.8244L267.323 63.3204C267.36 62.8631 267.472 62.4431 267.659 62.0604C267.855 61.6777 268.112 61.3511 268.429 61.0804C268.756 60.8004 269.134 60.5857 269.563 60.4364C269.992 60.2871 270.459 60.2124 270.963 60.2124C272.074 60.2124 272.932 60.4971 273.539 61.0664C274.155 61.6264 274.463 62.3871 274.463 63.3484V68.0664H272.937V63.5444C272.937 62.8724 272.755 62.3591 272.391 62.0044C272.036 61.6404 271.542 61.4584 270.907 61.4584C270.384 61.4584 269.927 61.5751 269.535 61.8084C269.152 62.0324 268.891 62.3357 268.751 62.7184L269.353 62.9564C269.614 63.0591 269.796 63.1804 269.899 63.3204C270.002 63.4511 270.053 63.6471 270.053 63.9084V66.8204H270.865V68.0664H270.095ZM272.36 73.0084C271.669 73.0084 271.165 72.8451 270.848 72.5184C270.521 72.2011 270.358 71.7904 270.358 71.2864V70.6704H269.448V69.5924H270.582C270.937 69.5924 271.193 69.6671 271.352 69.8164C271.511 69.9657 271.59 70.1664 271.59 70.4184V71.0204C271.59 71.3191 271.651 71.5477 271.772 71.7064C271.893 71.8651 272.089 71.9444 272.36 71.9444C272.631 71.9444 272.827 71.8651 272.948 71.7064C273.069 71.5477 273.13 71.3191 273.13 71.0204V69.5924H274.46V71.0484C274.46 71.6177 274.292 72.0844 273.956 72.4484C273.611 72.8217 273.079 73.0084 272.36 73.0084ZM277.263 63.8244L276.059 63.3204C276.097 62.8631 276.209 62.4431 276.395 62.0604C276.591 61.6777 276.848 61.3511 277.165 61.0804C277.483 60.8004 277.856 60.5857 278.285 60.4364C278.715 60.2871 279.181 60.2124 279.685 60.2124C280.796 60.2124 281.659 60.4971 282.275 61.0664C282.891 61.6264 283.199 62.3871 283.199 63.3484V68.0664H281.673V63.5444C281.673 62.8724 281.491 62.3591 281.127 62.0044C280.763 61.6404 280.264 61.4584 279.629 61.4584C279.116 61.4584 278.663 61.5751 278.271 61.8084C277.889 62.0324 277.627 62.3357 277.487 62.7184L278.089 62.9564C278.351 63.0591 278.533 63.1804 278.635 63.3204C278.738 63.4511 278.789 63.6471 278.789 63.9084V68.0664H277.263V63.8244ZM285.314 60.3804H286.84V62.7044L288.8 62.4244C289.154 62.3684 289.43 62.2657 289.626 62.1164C289.831 61.9577 289.957 61.6871 290.004 61.3044L290.102 60.3804H291.684L291.572 61.3464C291.525 61.7851 291.357 62.1491 291.068 62.4384C290.788 62.7184 290.41 62.8864 289.934 62.9424V63.0124C290.214 63.0684 290.452 63.1711 290.648 63.3204C290.844 63.4697 291.002 63.6471 291.124 63.8524C291.254 64.0577 291.352 64.2864 291.418 64.5384C291.483 64.7904 291.53 65.0471 291.558 65.3084L291.824 68.0664H290.242L290.004 65.1964C289.976 64.9631 289.924 64.7484 289.85 64.5524C289.784 64.3564 289.686 64.1931 289.556 64.0624C289.425 63.9224 289.262 63.8244 289.066 63.7684C288.87 63.7031 288.636 63.6891 288.366 63.7264L286.84 63.9364V68.0664H285.314V60.3804ZM290.175 59.0084C289.69 59.0084 289.326 58.8917 289.083 58.6584C288.84 58.4251 288.719 58.0984 288.719 57.6784V56.6984H290.063V57.8044H293.703V59.0084H290.175ZM294.449 63.8244L293.245 63.3204C293.282 62.8631 293.394 62.4431 293.581 62.0604C293.777 61.6777 294.034 61.3511 294.351 61.0804C294.668 60.8004 295.042 60.5857 295.471 60.4364C295.9 60.2871 296.367 60.2124 296.871 60.2124C297.982 60.2124 298.845 60.4971 299.461 61.0664C300.077 61.6264 300.385 62.3871 300.385 63.3484V68.0664H298.859V63.5444C298.859 62.8724 298.677 62.3591 298.313 62.0044C297.949 61.6404 297.45 61.4584 296.815 61.4584C296.302 61.4584 295.849 61.5751 295.457 61.8084C295.074 62.0324 294.813 62.3357 294.673 62.7184L295.275 62.9564C295.536 63.0591 295.718 63.1804 295.821 63.3204C295.924 63.4511 295.975 63.6471 295.975 63.9084V68.0664H294.449V63.8244ZM64.7543 91.2344C64.2877 91.2344 63.849 91.1691 63.4383 91.0384C63.037 90.8984 62.687 90.7117 62.3883 90.4784C62.099 90.2357 61.8703 89.9464 61.7023 89.6104C61.5343 89.2744 61.4503 88.9011 61.4503 88.4904V87.7904C61.4503 87.4637 61.525 87.2117 61.6743 87.0344C61.8237 86.8477 62.0943 86.7544 62.4863 86.7544H64.0543V87.9584H62.8923V88.3784C62.8923 88.9384 63.065 89.3491 63.4103 89.6104C63.765 89.8624 64.2363 89.9884 64.8243 89.9884C65.431 89.9884 65.8977 89.8017 66.2243 89.4284C66.5603 89.0551 66.7283 88.5277 66.7283 87.8464V86.6424C66.7283 85.9517 66.5417 85.4151 66.1683 85.0324C65.8043 84.6497 65.2863 84.4584 64.6143 84.4584C64.0543 84.4584 63.5737 84.5751 63.1723 84.8084C62.7803 85.0417 62.4817 85.3217 62.2763 85.6484L61.3243 84.7944C61.595 84.3464 62.0103 83.9731 62.5703 83.6744C63.1303 83.3664 63.835 83.2124 64.6843 83.2124C65.8417 83.2124 66.7423 83.5671 67.3863 84.2764C68.0303 84.9764 68.3523 85.9564 68.3523 87.2164C68.3523 87.8324 68.273 88.3924 68.1143 88.8964C67.9557 89.3911 67.7223 89.8111 67.4143 90.1564C67.1063 90.5017 66.7283 90.7677 66.2803 90.9544C65.8323 91.1411 65.3237 91.2344 64.7543 91.2344ZM73.1625 91.2344C72.6959 91.2344 72.2572 91.1691 71.8465 91.0384C71.4452 90.8984 71.0952 90.7117 70.7965 90.4784C70.5072 90.2357 70.2785 89.9464 70.1105 89.6104C69.9425 89.2744 69.8585 88.9011 69.8585 88.4904V87.7904C69.8585 87.4637 69.9332 87.2117 70.0825 87.0344C70.2319 86.8477 70.5025 86.7544 70.8945 86.7544H72.4625V87.9584H71.3005V88.3784C71.3005 88.9384 71.4732 89.3491 71.8185 89.6104C72.1732 89.8624 72.6445 89.9884 73.2325 89.9884C73.8392 89.9884 74.3059 89.8017 74.6325 89.4284C74.9685 89.0551 75.1365 88.5277 75.1365 87.8464V86.6424C75.1365 85.9517 74.9499 85.4151 74.5765 85.0324C74.2125 84.6497 73.6945 84.4584 73.0225 84.4584C72.4625 84.4584 71.9819 84.5751 71.5805 84.8084C71.1885 85.0417 70.8899 85.3217 70.6845 85.6484L69.7325 84.7944C70.0032 84.3464 70.4185 83.9731 70.9785 83.6744C71.5385 83.3664 72.2432 83.2124 73.0925 83.2124C74.2499 83.2124 75.1505 83.5671 75.7945 84.2764C76.4385 84.9764 76.7605 85.9564 76.7605 87.2164C76.7605 87.8324 76.6812 88.3924 76.5225 88.8964C76.3639 89.3911 76.1305 89.8111 75.8225 90.1564C75.5145 90.5017 75.1365 90.7677 74.6885 90.9544C74.2405 91.1411 73.7319 91.2344 73.1625 91.2344ZM79.2468 86.8244L78.0428 86.3204C78.0801 85.8631 78.1921 85.4431 78.3788 85.0604C78.5748 84.6777 78.8314 84.3511 79.1488 84.0804C79.4661 83.8004 79.8394 83.5857 80.2688 83.4364C80.6981 83.2871 81.1648 83.2124 81.6688 83.2124C82.7794 83.2124 83.6428 83.4971 84.2588 84.0664C84.8748 84.6264 85.1827 85.3871 85.1827 86.3484V91.0664H83.6568V86.5444C83.6568 85.8724 83.4748 85.3591 83.1108 85.0044C82.7468 84.6404 82.2474 84.4584 81.6128 84.4584C81.0994 84.4584 80.6468 84.5751 80.2548 84.8084C79.8721 85.0324 79.6108 85.3357 79.4708 85.7184L80.0728 85.9564C80.3341 86.0591 80.5161 86.1804 80.6188 86.3204C80.7214 86.4511 80.7728 86.6471 80.7728 86.9084V91.0664H79.2468V86.8244ZM90.3071 91.2344C89.8404 91.2344 89.4017 91.1691 88.9911 91.0384C88.5897 90.8984 88.2397 90.7117 87.9411 90.4784C87.6517 90.2357 87.4231 89.9464 87.2551 89.6104C87.0871 89.2744 87.0031 88.9011 87.0031 88.4904V87.7904C87.0031 87.4637 87.0777 87.2117 87.2271 87.0344C87.3764 86.8477 87.6471 86.7544 88.0391 86.7544H89.6071V87.9584H88.4451V88.3784C88.4451 88.9384 88.6177 89.3491 88.9631 89.6104C89.3177 89.8624 89.7891 89.9884 90.3771 89.9884C90.9837 89.9884 91.4504 89.8017 91.7771 89.4284C92.1131 89.0551 92.2811 88.5277 92.2811 87.8464V86.6424C92.2811 85.9517 92.0944 85.4151 91.7211 85.0324C91.3571 84.6497 90.8391 84.4584 90.1671 84.4584C89.6071 84.4584 89.1264 84.5751 88.7251 84.8084C88.3331 85.0417 88.0344 85.3217 87.8291 85.6484L86.8771 84.7944C87.1477 84.3464 87.5631 83.9731 88.1231 83.6744C88.6831 83.3664 89.3877 83.2124 90.2371 83.2124C91.3944 83.2124 92.2951 83.5671 92.9391 84.2764C93.5831 84.9764 93.9051 85.9564 93.9051 87.2164C93.9051 87.8324 93.8257 88.3924 93.6671 88.8964C93.5084 89.3911 93.2751 89.8111 92.9671 90.1564C92.6591 90.5017 92.2811 90.7677 91.8331 90.9544C91.3851 91.1411 90.8764 91.2344 90.3071 91.2344ZM91.9532 82.0084C91.4678 82.0084 91.1038 81.8917 90.8612 81.6584C90.6185 81.4251 90.4972 81.0984 90.4972 80.6784V79.6984H91.8412V80.8044H95.4812V82.0084H91.9532ZM98.7573 91.2344C97.6559 91.2344 96.8066 90.8891 96.2093 90.1984C95.6213 89.4984 95.3273 88.4951 95.3273 87.1884C95.3273 85.9097 95.5233 84.9297 95.9153 84.2484C96.3073 83.5577 96.9093 83.2124 97.7213 83.2124C98.1226 83.2124 98.4586 83.3291 98.7293 83.5624C98.9999 83.7864 99.1726 84.0991 99.2473 84.5004H99.3313C99.4153 84.0991 99.6113 83.7864 99.9193 83.5624C100.227 83.3291 100.605 83.2124 101.053 83.2124C101.623 83.2124 102.071 83.3991 102.397 83.7724C102.724 84.1364 102.887 84.6544 102.887 85.3264V91.0664H101.361V85.4524C101.361 85.1257 101.296 84.8831 101.165 84.7244C101.035 84.5657 100.848 84.4864 100.605 84.4864C100.307 84.4864 100.101 84.5984 99.9893 84.8224C99.8773 85.0371 99.8026 85.2844 99.7653 85.5644H98.8133C98.7946 85.4244 98.7666 85.2891 98.7293 85.1584C98.7013 85.0277 98.6546 84.9157 98.5893 84.8224C98.5239 84.7197 98.4399 84.6404 98.3373 84.5844C98.2439 84.5191 98.1226 84.4864 97.9733 84.4864C97.5906 84.4864 97.3246 84.6731 97.1753 85.0464C97.0259 85.4104 96.9513 85.8957 96.9513 86.5024V87.7904C96.9513 88.1264 96.9886 88.4297 97.0633 88.7004C97.1379 88.9711 97.2546 89.2044 97.4133 89.4004C97.5813 89.5871 97.7913 89.7317 98.0433 89.8344C98.3046 89.9371 98.6219 89.9884 98.9953 89.9884C99.0886 89.9884 99.1866 89.9837 99.2893 89.9744C99.3919 89.9651 99.4946 89.9511 99.5973 89.9324L99.7653 91.1364C99.6159 91.1737 99.4479 91.1971 99.2613 91.2064C99.0839 91.2251 98.9159 91.2344 98.7573 91.2344ZM106.906 91.0664C106.374 91.0664 105.977 90.9311 105.716 90.6604C105.464 90.3897 105.338 90.0117 105.338 89.5264V82.3024L103.546 81.5464V81.2384C103.546 80.8371 103.616 80.4731 103.756 80.1464C103.887 79.8104 104.078 79.5304 104.33 79.3064C104.582 79.0731 104.881 78.8957 105.226 78.7744C105.581 78.6437 105.973 78.5784 106.402 78.5784C107.018 78.5784 107.522 78.6717 107.914 78.8584C108.315 79.0451 108.651 79.3017 108.922 79.6284L107.998 80.4964C107.849 80.3097 107.648 80.1511 107.396 80.0204C107.153 79.8804 106.845 79.8104 106.472 79.8104C106.052 79.8104 105.688 79.8991 105.38 80.0764C105.072 80.2537 104.899 80.5337 104.862 80.9164L106.178 81.4484C106.439 81.5511 106.617 81.6724 106.71 81.8124C106.813 81.9524 106.864 82.1671 106.864 82.4564V89.8204H107.956V91.0664H106.906ZM111.937 91.2344C111.134 91.2344 110.513 90.9777 110.075 90.4644C109.636 89.9417 109.417 89.2044 109.417 88.2524V83.3804H110.943V88.0844C110.943 88.6817 111.064 89.1391 111.307 89.4564C111.559 89.7644 111.96 89.9184 112.511 89.9184C112.716 89.9184 112.921 89.8951 113.127 89.8484C113.332 89.7924 113.514 89.7084 113.673 89.5964C113.841 89.4844 113.971 89.3444 114.065 89.1764C114.167 88.9991 114.219 88.7937 114.219 88.5604V83.3804H115.745V89.8204H116.557V91.0664H115.549C115.157 91.0664 114.863 90.9544 114.667 90.7304C114.471 90.4971 114.363 90.1751 114.345 89.7644H114.275C114.116 90.1937 113.841 90.5484 113.449 90.8284C113.066 91.0991 112.562 91.2344 111.937 91.2344ZM121.963 91.2344C121.636 91.2344 121.347 91.1924 121.095 91.1084C120.852 91.0337 120.642 90.9311 120.465 90.8004C120.288 90.6604 120.138 90.5064 120.017 90.3384C119.896 90.1611 119.802 89.9791 119.737 89.7924H119.667V91.0664H118.141V83.3804H119.667V88.5604C119.667 88.7937 119.718 88.9991 119.821 89.1764C119.924 89.3444 120.054 89.4844 120.213 89.5964C120.372 89.7084 120.554 89.7924 120.759 89.8484C120.964 89.8951 121.174 89.9184 121.389 89.9184C121.977 89.9184 122.392 89.7597 122.635 89.4424C122.887 89.1157 123.013 88.6631 123.013 88.0844V83.3804H124.539V88.2524C124.539 89.2137 124.315 89.9511 123.867 90.4644C123.419 90.9777 122.784 91.2344 121.963 91.2344ZM123.029 82.0084C122.544 82.0084 122.18 81.8917 121.937 81.6584C121.695 81.4251 121.573 81.0984 121.573 80.6784V79.6984H122.917V80.8044H126.557V82.0084H123.029ZM129.697 91.2344C128.595 91.2344 127.746 90.8891 127.149 90.1984C126.561 89.4984 126.267 88.4951 126.267 87.1884C126.267 85.9097 126.463 84.9297 126.855 84.2484C127.247 83.5577 127.849 83.2124 128.661 83.2124C129.062 83.2124 129.398 83.3291 129.669 83.5624C129.939 83.7864 130.112 84.0991 130.187 84.5004H130.271C130.355 84.0991 130.551 83.7864 130.859 83.5624C131.167 83.3291 131.545 83.2124 131.993 83.2124C132.562 83.2124 133.01 83.3991 133.337 83.7724C133.663 84.1364 133.827 84.6544 133.827 85.3264V91.0664H132.301V85.4524C132.301 85.1257 132.235 84.8831 132.105 84.7244C131.974 84.5657 131.787 84.4864 131.545 84.4864C131.246 84.4864 131.041 84.5984 130.929 84.8224C130.817 85.0371 130.742 85.2844 130.705 85.5644H129.753C129.734 85.4244 129.706 85.2891 129.669 85.1584C129.641 85.0277 129.594 84.9157 129.529 84.8224C129.463 84.7197 129.379 84.6404 129.277 84.5844C129.183 84.5191 129.062 84.4864 128.913 84.4864C128.53 84.4864 128.264 84.6731 128.115 85.0464C127.965 85.4104 127.891 85.8957 127.891 86.5024V87.7904C127.891 88.1264 127.928 88.4297 128.003 88.7004C128.077 88.9711 128.194 89.2044 128.353 89.4004C128.521 89.5871 128.731 89.7317 128.983 89.8344C129.244 89.9371 129.561 89.9884 129.935 89.9884C130.028 89.9884 130.126 89.9837 130.229 89.9744C130.331 89.9651 130.434 89.9511 130.537 89.9324L130.705 91.1364C130.555 91.1737 130.387 91.1971 130.201 91.2064C130.023 91.2251 129.855 91.2344 129.697 91.2344ZM127.79 80.8044H133.824V82.0084H127.79V80.8044ZM141.154 91.0664C140.622 91.0664 140.226 90.9311 139.964 90.6604C139.712 90.3897 139.586 90.0117 139.586 89.5264V82.3024L137.794 81.5464V81.2384C137.794 80.8371 137.864 80.4731 138.004 80.1464C138.135 79.8104 138.326 79.5304 138.578 79.3064C138.83 79.0731 139.129 78.8957 139.474 78.7744C139.829 78.6437 140.221 78.5784 140.65 78.5784C141.266 78.5784 141.77 78.6717 142.162 78.8584C142.564 79.0451 142.9 79.3017 143.17 79.6284L142.246 80.4964C142.097 80.3097 141.896 80.1511 141.644 80.0204C141.402 79.8804 141.094 79.8104 140.72 79.8104C140.3 79.8104 139.936 79.8991 139.628 80.0764C139.32 80.2537 139.148 80.5337 139.11 80.9164L140.426 81.4484C140.688 81.5511 140.865 81.6724 140.958 81.8124C141.061 81.9524 141.112 82.1671 141.112 82.4564V89.8204H142.204V91.0664H141.154ZM146.717 91.2344C145.653 91.2344 144.827 90.8797 144.239 90.1704C143.651 89.4517 143.357 88.4671 143.357 87.2164C143.357 86.6097 143.441 86.0591 143.609 85.5644C143.786 85.0697 144.033 84.6497 144.351 84.3044C144.677 83.9497 145.069 83.6791 145.527 83.4924C145.984 83.3057 146.497 83.2124 147.067 83.2124C147.589 83.2124 148.065 83.2917 148.495 83.4504C148.924 83.5997 149.288 83.8144 149.587 84.0944C149.895 84.3744 150.128 84.7151 150.287 85.1164C150.455 85.5084 150.539 85.9471 150.539 86.4324V91.0664H149.013V86.5584C149.013 85.8957 148.835 85.3824 148.481 85.0184C148.126 84.6451 147.641 84.4584 147.025 84.4584C146.381 84.4584 145.877 84.6591 145.513 85.0604C145.158 85.4617 144.981 86.0077 144.981 86.6984V87.7204C144.981 88.4577 145.139 89.0224 145.457 89.4144C145.783 89.7971 146.278 89.9884 146.941 89.9884C147.146 89.9884 147.337 89.9697 147.515 89.9324L147.697 91.1364C147.557 91.1737 147.389 91.1971 147.193 91.2064C147.006 91.2251 146.847 91.2344 146.717 91.2344ZM155.491 91.2344C154.52 91.2344 153.764 91.0337 153.223 90.6324C152.681 90.2311 152.411 89.6664 152.411 88.9384C152.411 88.4904 152.541 88.1077 152.803 87.7904C153.073 87.4731 153.419 87.2537 153.839 87.1324V87.0624C153.372 86.9504 153.008 86.7311 152.747 86.4044C152.485 86.0777 152.355 85.6764 152.355 85.2004C152.355 84.6031 152.546 84.1224 152.929 83.7584C153.321 83.3944 153.853 83.2124 154.525 83.2124C154.73 83.2124 154.949 83.2311 155.183 83.2684C155.425 83.3057 155.645 83.3757 155.841 83.4784L155.519 84.5984C155.304 84.4957 155.066 84.4444 154.805 84.4444C154.478 84.4444 154.217 84.5331 154.021 84.7104C153.834 84.8877 153.741 85.1257 153.741 85.4244C153.741 85.5644 153.759 85.6997 153.797 85.8304C153.834 85.9517 153.899 86.0637 153.993 86.1664C154.086 86.2597 154.212 86.3344 154.371 86.3904C154.529 86.4464 154.73 86.4744 154.973 86.4744H155.743V87.5104H155.085C154.777 87.5104 154.511 87.5991 154.287 87.7764C154.063 87.9537 153.951 88.2011 153.951 88.5184V88.8404C153.951 89.2137 154.072 89.4984 154.315 89.6944C154.557 89.8904 154.959 89.9884 155.519 89.9884C156.107 89.9884 156.569 89.8344 156.905 89.5264C157.25 89.2091 157.423 88.7564 157.423 88.1684V83.3804H158.949V88.3784C158.949 88.8171 158.865 89.2137 158.697 89.5684C158.538 89.9137 158.305 90.2124 157.997 90.4644C157.698 90.7071 157.334 90.8984 156.905 91.0384C156.485 91.1691 156.013 91.2344 155.491 91.2344ZM161.771 87.9864H160.959V86.7404H162.079C162.546 86.7404 162.854 86.9457 163.003 87.3564L163.885 89.8764H164.333C164.725 89.8764 165.038 89.6897 165.271 89.3164C165.504 88.9431 165.621 88.4251 165.621 87.7624V86.5584C165.621 85.8957 165.444 85.3824 165.089 85.0184C164.734 84.6451 164.235 84.4584 163.591 84.4584C163.283 84.4584 162.998 84.4957 162.737 84.5704C162.485 84.6451 162.261 84.7477 162.065 84.8784C161.869 84.9997 161.696 85.1397 161.547 85.2984C161.398 85.4571 161.272 85.6204 161.169 85.7884L160.203 84.9344C160.343 84.7011 160.516 84.4817 160.721 84.2764C160.926 84.0711 161.169 83.8891 161.449 83.7304C161.738 83.5717 162.065 83.4457 162.429 83.3524C162.793 83.2591 163.204 83.2124 163.661 83.2124C164.79 83.2124 165.668 83.5624 166.293 84.2624C166.928 84.9531 167.245 85.9191 167.245 87.1604C167.245 87.7671 167.175 88.3131 167.035 88.7984C166.895 89.2837 166.694 89.6944 166.433 90.0304C166.172 90.3664 165.859 90.6231 165.495 90.8004C165.131 90.9777 164.72 91.0664 164.263 91.0664H162.863L161.771 87.9864ZM170.469 89.7924C169.984 89.7924 169.62 89.6757 169.377 89.4424C169.134 89.2091 169.013 88.8824 169.013 88.4624V87.7484H170.385V88.5184H172.723V89.7924H170.469ZM170.469 86.2644C169.984 86.2644 169.62 86.1524 169.377 85.9284C169.134 85.6951 169.013 85.3684 169.013 84.9484V84.2204H170.385V84.9904H172.723V86.2644H170.469ZM176.742 91.0664C176.21 91.0664 175.813 90.9311 175.552 90.6604C175.3 90.3897 175.174 90.0117 175.174 89.5264V81.9104C175.174 81.6304 175.211 81.3831 175.286 81.1684C175.361 80.9537 175.459 80.7717 175.58 80.6224C175.701 80.4637 175.841 80.3331 176 80.2304C176.168 80.1277 176.341 80.0484 176.518 79.9924V79.9364H173.48V78.7184H178.156V79.9364H177.988C177.577 79.9364 177.26 80.0577 177.036 80.3004C176.812 80.5337 176.7 80.8697 176.7 81.3084V89.8204H177.792V91.0664H176.742ZM183.158 91.2344C182.832 91.2344 182.542 91.1924 182.29 91.1084C182.048 91.0337 181.838 90.9311 181.66 90.8004C181.483 90.6604 181.334 90.5064 181.212 90.3384C181.091 90.1611 180.998 89.9791 180.932 89.7924H180.862V91.0664H179.336V83.3804H180.862V88.5604C180.862 88.7937 180.914 88.9991 181.016 89.1764C181.119 89.3444 181.25 89.4844 181.408 89.5964C181.567 89.7084 181.749 89.7924 181.954 89.8484C182.16 89.8951 182.37 89.9184 182.584 89.9184C183.172 89.9184 183.588 89.7597 183.83 89.4424C184.082 89.1157 184.208 88.6631 184.208 88.0844V83.3804H185.734V88.2524C185.734 89.2137 185.51 89.9511 185.062 90.4644C184.614 90.9777 183.98 91.2344 183.158 91.2344ZM184.253 79.2924H185.681V82.0084H184.253V79.2924ZM190.052 91.2064C189.296 91.2064 188.689 91.0197 188.232 90.6464C187.784 90.2731 187.56 89.7084 187.56 88.9524C187.56 88.2337 187.775 87.6784 188.204 87.2864C188.643 86.8944 189.259 86.6984 190.052 86.6984H192.432V86.1104C192.432 85.5691 192.283 85.1584 191.984 84.8784C191.695 84.5984 191.242 84.4584 190.626 84.4584C190.075 84.4584 189.623 84.5751 189.268 84.8084C188.923 85.0417 188.638 85.3357 188.414 85.6904L187.434 84.8364C187.733 84.3604 188.139 83.9731 188.652 83.6744C189.175 83.3664 189.865 83.2124 190.724 83.2124C191.611 83.2124 192.315 83.3851 192.838 83.7304C192.922 83.2264 193.239 82.9744 193.79 82.9744H195.512V84.3044H193.426V84.3324C193.781 84.7897 193.958 85.3637 193.958 86.0544V91.0664H192.432V87.7204H190.514C190.066 87.7204 189.721 87.8137 189.478 88.0004C189.245 88.1871 189.128 88.4577 189.128 88.8124V89.0924C189.128 89.4471 189.235 89.7271 189.45 89.9324C189.665 90.1377 189.959 90.2404 190.332 90.2404C190.519 90.2404 190.668 90.2264 190.78 90.1984L190.906 91.1224C190.822 91.1411 190.691 91.1597 190.514 91.1784C190.337 91.1971 190.183 91.2064 190.052 91.2064ZM199.977 85.8584C199.977 85.4104 199.86 85.0651 199.627 84.8224C199.394 84.5797 199.025 84.4584 198.521 84.4584C198.092 84.4584 197.746 84.5517 197.485 84.7384C197.224 84.9157 197 85.1491 196.813 85.4384L195.889 84.6264C196.141 84.2064 196.482 83.8657 196.911 83.6044C197.34 83.3431 197.91 83.2124 198.619 83.2124C199.552 83.2124 200.266 83.4317 200.761 83.8704C201.256 84.3091 201.503 84.9391 201.503 85.7604V91.0664H199.977V85.8584ZM207.453 91.2344C207.127 91.2344 206.837 91.1924 206.585 91.1084C206.343 91.0337 206.133 90.9311 205.955 90.8004C205.778 90.6604 205.629 90.5064 205.507 90.3384C205.386 90.1611 205.293 89.9791 205.227 89.7924H205.157V91.0664H203.631V83.3804H205.157V88.5604C205.157 88.7937 205.209 88.9991 205.311 89.1764C205.414 89.3444 205.545 89.4844 205.703 89.5964C205.862 89.7084 206.044 89.7924 206.249 89.8484C206.455 89.8951 206.665 89.9184 206.879 89.9184C207.467 89.9184 207.883 89.7597 208.125 89.4424C208.377 89.1157 208.503 88.6631 208.503 88.0844V83.3804H210.029V88.2524C210.029 89.2137 209.805 89.9511 209.357 90.4644C208.909 90.9777 208.275 91.2344 207.453 91.2344ZM215.481 85.8584C215.481 85.4104 215.364 85.0651 215.131 84.8224C214.898 84.5797 214.529 84.4584 214.025 84.4584C213.596 84.4584 213.25 84.5517 212.989 84.7384C212.728 84.9157 212.504 85.1491 212.317 85.4384L211.393 84.6264C211.645 84.2064 211.986 83.8657 212.415 83.6044C212.844 83.3431 213.414 83.2124 214.123 83.2124C215.056 83.2124 215.77 83.4317 216.265 83.8704C216.76 84.3091 217.007 84.9391 217.007 85.7604V91.0664H215.481V85.8584ZM221.865 91.2344C221.147 91.2344 220.535 91.1131 220.031 90.8704C219.537 90.6184 219.103 90.2684 218.729 89.8204L219.695 88.9104C219.975 89.2651 220.302 89.5357 220.675 89.7224C221.049 89.9091 221.473 90.0024 221.949 90.0024C222.453 90.0024 222.827 89.9137 223.069 89.7364C223.321 89.5497 223.447 89.2884 223.447 88.9524C223.447 88.6537 223.349 88.4251 223.153 88.2664C222.967 88.0984 222.668 87.9864 222.257 87.9304L221.543 87.8324C221.198 87.7857 220.871 87.7111 220.563 87.6084C220.255 87.5057 219.985 87.3657 219.751 87.1884C219.527 87.0111 219.345 86.7917 219.205 86.5304C219.075 86.2691 219.009 85.9471 219.009 85.5644C219.009 85.1911 219.079 84.8597 219.219 84.5704C219.359 84.2717 219.555 84.0244 219.807 83.8284C220.059 83.6231 220.358 83.4691 220.703 83.3664C221.058 83.2637 221.445 83.2124 221.865 83.2124C222.565 83.2124 223.139 83.3197 223.587 83.5344C224.035 83.7397 224.432 84.0291 224.777 84.4024L223.853 85.3264C223.639 85.0837 223.363 84.8784 223.027 84.7104C222.691 84.5424 222.304 84.4584 221.865 84.4584C221.408 84.4584 221.063 84.5471 220.829 84.7244C220.596 84.9017 220.479 85.1444 220.479 85.4524C220.479 85.7791 220.587 86.0217 220.801 86.1804C221.016 86.3391 221.333 86.4464 221.753 86.5024L222.467 86.6144C222.831 86.6704 223.163 86.7497 223.461 86.8524C223.769 86.9551 224.031 87.0951 224.245 87.2724C224.46 87.4404 224.623 87.6504 224.735 87.9024C224.857 88.1544 224.917 88.4577 224.917 88.8124C224.917 89.1764 224.843 89.5077 224.693 89.8064C224.553 90.1051 224.348 90.3617 224.077 90.5764C223.816 90.7817 223.494 90.9451 223.111 91.0664C222.738 91.1784 222.323 91.2344 221.865 91.2344ZM228.963 91.0664C228.431 91.0664 228.035 90.9311 227.773 90.6604C227.521 90.3897 227.395 90.0117 227.395 89.5264V86.8244L226.191 86.3204C226.229 85.8631 226.341 85.4431 226.527 85.0604C226.723 84.6777 226.98 84.3511 227.297 84.0804C227.624 83.8004 228.002 83.5857 228.431 83.4364C228.861 83.2871 229.327 83.2124 229.831 83.2124C230.942 83.2124 231.801 83.4971 232.407 84.0664C233.023 84.6264 233.331 85.3871 233.331 86.3484V91.0664H231.805V86.5444C231.805 85.8724 231.623 85.3591 231.259 85.0044C230.905 84.6404 230.41 84.4584 229.775 84.4584C229.253 84.4584 228.795 84.5751 228.403 84.8084C228.021 85.0324 227.759 85.3357 227.619 85.7184L228.221 85.9564C228.483 86.0591 228.665 86.1804 228.767 86.3204C228.87 86.4511 228.921 86.6471 228.921 86.9084V89.8204H229.733V91.0664H228.963ZM238.288 91.2344C237.317 91.2344 236.561 91.0337 236.02 90.6324C235.478 90.2311 235.208 89.6664 235.208 88.9384C235.208 88.4904 235.338 88.1077 235.6 87.7904C235.87 87.4731 236.216 87.2537 236.636 87.1324V87.0624C236.169 86.9504 235.805 86.7311 235.544 86.4044C235.282 86.0777 235.152 85.6764 235.152 85.2004C235.152 84.6031 235.343 84.1224 235.726 83.7584C236.118 83.3944 236.65 83.2124 237.322 83.2124C237.527 83.2124 237.746 83.2311 237.98 83.2684C238.222 83.3057 238.442 83.3757 238.638 83.4784L238.316 84.5984C238.101 84.4957 237.863 84.4444 237.602 84.4444C237.275 84.4444 237.014 84.5331 236.818 84.7104C236.631 84.8877 236.538 85.1257 236.538 85.4244C236.538 85.5644 236.556 85.6997 236.594 85.8304C236.631 85.9517 236.696 86.0637 236.79 86.1664C236.883 86.2597 237.009 86.3344 237.168 86.3904C237.326 86.4464 237.527 86.4744 237.77 86.4744H238.54V87.5104H237.882C237.574 87.5104 237.308 87.5991 237.084 87.7764C236.86 87.9537 236.748 88.2011 236.748 88.5184V88.8404C236.748 89.2137 236.869 89.4984 237.112 89.6944C237.354 89.8904 237.756 89.9884 238.316 89.9884C238.904 89.9884 239.366 89.8344 239.702 89.5264C240.047 89.2091 240.22 88.7564 240.22 88.1684V83.3804H241.746V88.3784C241.746 88.8171 241.662 89.2137 241.494 89.5684C241.335 89.9137 241.102 90.2124 240.794 90.4644C240.495 90.7071 240.131 90.8984 239.702 91.0384C239.282 91.1691 238.81 91.2344 238.288 91.2344ZM244.54 86.8244L243.336 86.3204C243.373 85.8631 243.485 85.4431 243.672 85.0604C243.868 84.6777 244.124 84.3511 244.442 84.0804C244.759 83.8004 245.132 83.5857 245.562 83.4364C245.991 83.2871 246.458 83.2124 246.962 83.2124C248.072 83.2124 248.936 83.4971 249.552 84.0664C250.168 84.6264 250.476 85.3871 250.476 86.3484V91.0664H248.95V86.5444C248.95 85.8724 248.768 85.3591 248.404 85.0044C248.04 84.6404 247.54 84.4584 246.906 84.4584C246.392 84.4584 245.94 84.5751 245.548 84.8084C245.165 85.0324 244.904 85.3357 244.764 85.7184L245.366 85.9564C245.627 86.0591 245.809 86.1804 245.912 86.3204C246.014 86.4511 246.066 86.6471 246.066 86.9084V91.0664H244.54V86.8244ZM254.48 91.0664C253.948 91.0664 253.556 90.9311 253.304 90.6604C253.052 90.3897 252.926 90.0117 252.926 89.5264V83.3804H254.452V89.8204H255.544V91.0664H254.48ZM259.286 91.2064C258.53 91.2064 257.924 91.0197 257.466 90.6464C257.018 90.2731 256.794 89.7084 256.794 88.9524C256.794 88.2337 257.009 87.6784 257.438 87.2864C257.877 86.8944 258.493 86.6984 259.286 86.6984H261.666V86.1104C261.666 85.5691 261.517 85.1584 261.218 84.8784C260.929 84.5984 260.476 84.4584 259.86 84.4584C259.31 84.4584 258.857 84.5751 258.502 84.8084C258.157 85.0417 257.872 85.3357 257.648 85.6904L256.668 84.8364C256.967 84.3604 257.373 83.9731 257.886 83.6744C258.409 83.3664 259.1 83.2124 259.958 83.2124C261.013 83.2124 261.816 83.4597 262.366 83.9544C262.917 84.4397 263.192 85.1397 263.192 86.0544V91.0664H261.666V87.7204H259.748C259.3 87.7204 258.955 87.8137 258.712 88.0004C258.479 88.1871 258.362 88.4577 258.362 88.8124V89.0924C258.362 89.4471 258.47 89.7271 258.684 89.9324C258.899 90.1377 259.193 90.2404 259.566 90.2404C259.753 90.2404 259.902 90.2264 260.014 90.1984L260.14 91.1224C260.056 91.1411 259.926 91.1597 259.748 91.1784C259.571 91.1971 259.417 91.2064 259.286 91.2064ZM257.153 80.8044H263.188V82.0084H257.153V80.8044ZM265.991 86.8244L264.787 86.3204C264.824 85.8631 264.936 85.4431 265.123 85.0604C265.319 84.6777 265.576 84.3511 265.893 84.0804C266.21 83.8004 266.584 83.5857 267.013 83.4364C267.442 83.2871 267.909 83.2124 268.413 83.2124C269.524 83.2124 270.387 83.4971 271.003 84.0664C271.619 84.6264 271.927 85.3871 271.927 86.3484V91.0664H270.401V86.5444C270.401 85.8724 270.219 85.3591 269.855 85.0044C269.491 84.6404 268.992 84.4584 268.357 84.4584C267.844 84.4584 267.391 84.5751 266.999 84.8084C266.616 85.0324 266.355 85.3357 266.215 85.7184L266.817 85.9564C267.078 86.0591 267.26 86.1804 267.363 86.3204C267.466 86.4511 267.517 86.6471 267.517 86.9084V91.0664H265.991V86.8244ZM275.945 91.0664C275.413 91.0664 275.017 90.9311 274.755 90.6604C274.503 90.3897 274.377 90.0117 274.377 89.5264V81.9104C274.377 81.6304 274.415 81.3831 274.489 81.1684C274.564 80.9537 274.662 80.7717 274.783 80.6224C274.905 80.4637 275.045 80.3331 275.203 80.2304C275.371 80.1277 275.544 80.0484 275.721 79.9924V79.9364H272.683V78.7184H277.359V79.9364H277.191C276.781 79.9364 276.463 80.0577 276.239 80.3004C276.015 80.5337 275.903 80.8697 275.903 81.3084V89.8204H276.995V91.0664H275.945ZM281.508 91.2344C280.444 91.2344 279.618 90.8797 279.03 90.1704C278.442 89.4517 278.148 88.4671 278.148 87.2164C278.148 86.6097 278.232 86.0591 278.4 85.5644C278.577 85.0697 278.824 84.6497 279.142 84.3044C279.468 83.9497 279.86 83.6791 280.318 83.4924C280.775 83.3057 281.288 83.2124 281.858 83.2124C282.38 83.2124 282.856 83.2917 283.286 83.4504C283.715 83.5997 284.079 83.8144 284.378 84.0944C284.686 84.3744 284.919 84.7151 285.078 85.1164C285.246 85.5084 285.33 85.9471 285.33 86.4324V91.0664H283.804V86.5584C283.804 85.8957 283.626 85.3824 283.272 85.0184C282.917 84.6451 282.432 84.4584 281.816 84.4584C281.172 84.4584 280.668 84.6591 280.304 85.0604C279.949 85.4617 279.772 86.0077 279.772 86.6984V87.7204C279.772 88.4577 279.93 89.0224 280.248 89.4144C280.574 89.7971 281.069 89.9884 281.732 89.9884C281.937 89.9884 282.128 89.9697 282.306 89.9324L282.488 91.1364C282.348 91.1737 282.18 91.1971 281.984 91.2064C281.797 91.2251 281.638 91.2344 281.508 91.2344ZM282.816 80.8044H283.81V80.3144C283.81 80.1091 283.768 79.9644 283.684 79.8804C283.591 79.7871 283.427 79.7404 283.194 79.7404H282.816V78.6484H283.754C284.202 78.6484 284.543 78.7464 284.776 78.9424C285 79.1291 285.112 79.3857 285.112 79.7124C285.112 79.9084 285.061 80.1044 284.958 80.3004C284.846 80.4871 284.683 80.6317 284.468 80.7344V80.8044H286.988V81.8964H282.816V80.8044Z" fill="#3F2436"/>
<g filter="url(#filter1_ii_71_69676)">
<rect x="18" y="115.066" width="311" height="48" rx="6.52632" fill="url(#paint0_linear_71_69676)"/>
</g>
<rect x="18" y="115.066" width="311" height="48" rx="6.52632" stroke="#3F2436" stroke-width="2"/>
<path d="M133.763 143.392C133.059 143.392 132.536 143.216 132.195 142.864C131.864 142.512 131.699 142.016 131.699 141.376V135.2C131.699 134.944 131.736 134.714 131.811 134.512C131.896 134.298 131.998 134.106 132.115 133.936C132.232 133.765 132.366 133.61 132.515 133.472C132.664 133.322 132.808 133.178 132.947 133.04C133.15 132.837 133.326 132.629 133.475 132.416C133.635 132.202 133.715 131.946 133.715 131.648C133.715 131.285 133.614 131.013 133.411 130.832C133.208 130.65 132.936 130.56 132.595 130.56C132.2 130.56 131.88 130.677 131.635 130.912C131.4 131.136 131.219 131.466 131.091 131.904L129.587 131.056C129.694 130.768 129.838 130.496 130.019 130.24C130.19 129.973 130.403 129.744 130.659 129.552C130.915 129.36 131.219 129.21 131.571 129.104C131.923 128.986 132.334 128.928 132.803 128.928C133.23 128.928 133.619 128.986 133.971 129.104C134.323 129.221 134.622 129.386 134.867 129.6C135.123 129.813 135.32 130.074 135.459 130.384C135.598 130.693 135.667 131.04 135.667 131.424C135.667 131.872 135.56 132.261 135.347 132.592C135.144 132.912 134.92 133.21 134.675 133.488C134.43 133.754 134.211 134.016 134.019 134.272C133.838 134.528 133.747 134.816 133.747 135.136V141.76H134.915V143.392H133.763ZM139.927 143.584C139.383 143.584 138.881 143.52 138.423 143.392C137.975 143.264 137.591 143.072 137.271 142.816C136.951 142.549 136.7 142.218 136.519 141.824C136.348 141.418 136.263 140.949 136.263 140.416C136.263 140.117 136.284 139.856 136.327 139.632C136.38 139.397 136.439 139.189 136.503 139.008C136.577 138.826 136.657 138.661 136.743 138.512C136.839 138.362 136.935 138.218 137.031 138.08C137.191 137.834 137.34 137.573 137.479 137.296C137.617 137.018 137.687 136.741 137.687 136.464V136.256H136.151V134.56H137.959C138.503 134.56 138.919 134.688 139.207 134.944C139.495 135.2 139.639 135.541 139.639 135.968V136.048C139.639 136.378 139.585 136.704 139.479 137.024C139.372 137.344 139.207 137.712 138.983 138.128C138.812 138.448 138.673 138.746 138.567 139.024C138.46 139.29 138.407 139.61 138.407 139.984V140.448C138.407 140.928 138.535 141.29 138.791 141.536C139.057 141.77 139.42 141.888 139.879 141.888C140.348 141.888 140.711 141.77 140.967 141.536C141.223 141.29 141.351 140.944 141.351 140.496V139.216C141.351 138.768 141.281 138.421 141.143 138.176C141.015 137.93 140.764 137.808 140.391 137.808H140.199V136.272H140.519C140.807 136.272 141.041 136.192 141.223 136.032C141.415 135.861 141.511 135.578 141.511 135.184V134.224H143.511V135.024C143.511 135.472 143.383 135.856 143.127 136.176C142.881 136.496 142.46 136.709 141.863 136.816V136.928C142.951 137.269 143.495 138.266 143.495 139.92C143.495 140.485 143.409 140.997 143.239 141.456C143.079 141.904 142.844 142.288 142.535 142.608C142.225 142.917 141.847 143.157 141.399 143.328C140.961 143.498 140.471 143.584 139.927 143.584ZM140.388 131.552H141.46V130.992C141.46 130.789 141.412 130.645 141.316 130.56C141.22 130.464 141.044 130.416 140.788 130.416H140.388V128.976H141.588C142.1 128.976 142.494 129.093 142.772 129.328C143.049 129.552 143.188 129.85 143.188 130.224C143.188 130.469 143.118 130.709 142.98 130.944C142.83 131.168 142.622 131.338 142.356 131.456V131.552H145.284V132.992H140.388V131.552ZM144.53 137.056H146.562L148.61 141.76H148.674C149.133 141.76 149.49 141.578 149.746 141.216C150.002 140.853 150.13 140.346 150.13 139.696V138.272C150.13 137.621 150.002 137.114 149.746 136.752C149.49 136.389 149.133 136.208 148.674 136.208H148.05V134.56H148.69C149.821 134.56 150.701 134.949 151.33 135.728C151.96 136.496 152.274 137.578 152.274 138.976C152.274 140.373 151.96 141.461 151.33 142.24C150.701 143.008 149.821 143.392 148.69 143.392H147.298L144.53 137.056ZM157.844 137.488C157.844 137.018 157.721 136.656 157.476 136.4C157.241 136.144 156.862 136.016 156.34 136.016C155.86 136.016 155.476 136.117 155.188 136.32C154.91 136.522 154.676 136.773 154.484 137.072L153.268 135.984C153.577 135.493 153.977 135.104 154.468 134.816C154.969 134.517 155.641 134.368 156.484 134.368C157.604 134.368 158.452 134.629 159.028 135.152C159.604 135.664 159.892 136.405 159.892 137.376V143.392H157.844V137.488ZM164.913 143.584C163.995 143.584 163.291 143.285 162.801 142.688C162.31 142.09 162.065 141.237 162.065 140.128V134.56H164.113V139.936C164.113 140.544 164.23 141.024 164.465 141.376C164.71 141.728 165.131 141.904 165.729 141.904C165.953 141.904 166.171 141.872 166.385 141.808C166.598 141.744 166.785 141.653 166.945 141.536C167.115 141.408 167.254 141.253 167.361 141.072C167.467 140.88 167.521 140.661 167.521 140.416V134.56H169.569V141.76H170.417V143.392H169.137C168.219 143.392 167.745 142.869 167.713 141.824H167.617C167.435 142.314 167.126 142.73 166.689 143.072C166.262 143.413 165.67 143.584 164.913 143.584ZM172.049 138.048C172.049 137.493 172.145 136.992 172.337 136.544C172.529 136.085 172.806 135.696 173.169 135.376C173.532 135.056 173.969 134.81 174.481 134.64C175.004 134.458 175.59 134.368 176.241 134.368C176.881 134.368 177.457 134.458 177.969 134.64C178.492 134.81 178.934 135.056 179.297 135.376C179.66 135.696 179.937 136.085 180.129 136.544C180.332 136.992 180.433 137.493 180.433 138.048V143.392H178.385V138.16C178.385 137.477 178.193 136.949 177.809 136.576C177.436 136.202 176.913 136.016 176.241 136.016C175.569 136.016 175.041 136.202 174.657 136.576C174.284 136.949 174.097 137.477 174.097 138.16V140.112H174.177C174.23 139.888 174.31 139.674 174.417 139.472C174.534 139.258 174.684 139.072 174.865 138.912C175.046 138.752 175.26 138.624 175.505 138.528C175.761 138.421 176.054 138.368 176.385 138.368H176.833V140.304H176.193C175.51 140.304 174.988 140.41 174.625 140.624C174.273 140.826 174.097 141.168 174.097 141.648V143.392H172.049V138.048ZM177.886 149.088C177.032 149.088 176.424 148.896 176.062 148.512C175.688 148.128 175.502 147.642 175.502 147.056V146.48H174.462V145.104H175.742C176.222 145.104 176.563 145.194 176.766 145.376C176.968 145.568 177.07 145.818 177.07 146.128V146.736C177.07 147.066 177.128 147.312 177.246 147.472C177.363 147.632 177.576 147.712 177.886 147.712C178.195 147.712 178.408 147.632 178.526 147.472C178.643 147.312 178.702 147.066 178.702 146.736V145.104H180.43V146.656C180.43 147.36 180.222 147.941 179.806 148.4C179.39 148.858 178.75 149.088 177.886 149.088ZM186.483 143.584C185.886 143.584 185.347 143.504 184.867 143.344C184.387 143.173 183.977 142.933 183.635 142.624C183.305 142.314 183.049 141.941 182.867 141.504C182.697 141.066 182.611 140.576 182.611 140.032V134.56H184.659V139.92C184.659 140.56 184.819 141.056 185.139 141.408C185.459 141.76 185.907 141.936 186.483 141.936C187.059 141.936 187.507 141.76 187.827 141.408C188.147 141.056 188.307 140.56 188.307 139.92V131.552H190.355V140.032C190.355 140.576 190.265 141.066 190.083 141.504C189.913 141.941 189.657 142.314 189.315 142.624C188.985 142.933 188.579 143.173 188.099 143.344C187.619 143.504 187.081 143.584 186.483 143.584ZM196.117 143.584C195.563 143.584 195.051 143.509 194.581 143.36C194.112 143.2 193.707 142.986 193.365 142.72C193.024 142.442 192.757 142.117 192.565 141.744C192.373 141.36 192.277 140.938 192.277 140.48V139.68C192.277 139.274 192.379 138.96 192.581 138.736C192.795 138.501 193.131 138.384 193.589 138.384H195.445V139.936H194.149V140.32C194.149 140.874 194.331 141.296 194.693 141.584C195.056 141.861 195.557 142 196.197 142C196.816 142 197.296 141.797 197.637 141.392C197.979 140.986 198.149 140.426 198.149 139.712V138.288C198.149 137.573 197.957 137.018 197.573 136.624C197.189 136.218 196.651 136.016 195.957 136.016C195.339 136.016 194.805 136.149 194.357 136.416C193.92 136.682 193.595 136.976 193.381 137.296L192.133 136.176C192.443 135.664 192.923 135.237 193.573 134.896C194.235 134.544 195.056 134.368 196.037 134.368C196.709 134.368 197.307 134.474 197.829 134.688C198.352 134.89 198.795 135.194 199.157 135.6C199.531 135.994 199.813 136.48 200.005 137.056C200.197 137.621 200.293 138.261 200.293 138.976C200.293 140.416 199.931 141.546 199.205 142.368C198.48 143.178 197.451 143.584 196.117 143.584ZM201.311 137.056H203.343L205.391 141.76H205.455C205.914 141.76 206.271 141.578 206.527 141.216C206.783 140.853 206.911 140.346 206.911 139.696V138.272C206.911 137.621 206.783 137.114 206.527 136.752C206.271 136.389 205.914 136.208 205.455 136.208H204.831V134.56H205.471C206.602 134.56 207.482 134.949 208.111 135.728C208.741 136.496 209.055 137.578 209.055 138.976C209.055 140.373 208.741 141.461 208.111 142.24C207.482 143.008 206.602 143.392 205.471 143.392H204.079L201.311 137.056Z" fill="#3F2436"/>
<rect x="18" y="179.066" width="311" height="48" rx="6.52632" stroke="#888888" stroke-width="2"/>
<path d="M132.429 207.584C131.831 207.584 131.293 207.504 130.813 207.344C130.333 207.173 129.922 206.933 129.581 206.624C129.25 206.314 128.994 205.941 128.813 205.504C128.642 205.066 128.557 204.576 128.557 204.032V198.56H130.605V203.92C130.605 204.56 130.765 205.056 131.085 205.408C131.405 205.76 131.853 205.936 132.429 205.936C133.005 205.936 133.453 205.76 133.773 205.408C134.093 205.056 134.253 204.56 134.253 203.92V195.552H136.301V204.032C136.301 204.576 136.21 205.066 136.029 205.504C135.858 205.941 135.602 206.314 135.261 206.624C134.93 206.933 134.525 207.173 134.045 207.344C133.565 207.504 133.026 207.584 132.429 207.584ZM127.402 195.552H133.21V197.104H127.402V195.552ZM142.015 207.584C141.407 207.584 140.857 207.477 140.367 207.264C139.887 207.05 139.481 206.746 139.151 206.352C138.82 205.957 138.564 205.477 138.383 204.912C138.212 204.336 138.127 203.69 138.127 202.976C138.127 202.272 138.223 201.637 138.415 201.072C138.617 200.506 138.9 200.026 139.263 199.632C139.636 199.226 140.084 198.917 140.607 198.704C141.14 198.48 141.732 198.368 142.383 198.368C143.001 198.368 143.561 198.458 144.063 198.64C144.564 198.81 144.991 199.061 145.343 199.392C145.695 199.712 145.967 200.106 146.159 200.576C146.351 201.034 146.447 201.552 146.447 202.128V207.392H144.399V202.256C144.399 201.552 144.217 201.002 143.855 200.608C143.503 200.213 143.007 200.016 142.367 200.016C141.705 200.016 141.188 200.229 140.815 200.656C140.452 201.072 140.271 201.648 140.271 202.384V203.552C140.271 205.141 140.937 205.936 142.271 205.936C142.388 205.936 142.489 205.936 142.575 205.936C142.671 205.925 142.767 205.909 142.863 205.888L143.103 207.488C142.932 207.53 142.74 207.557 142.527 207.568C142.324 207.578 142.153 207.584 142.015 207.584ZM148.715 198.56H150.763V201.136L152.891 200.832C153.254 200.778 153.526 200.666 153.707 200.496C153.899 200.325 154.017 200.037 154.059 199.632L154.171 198.56H156.283L156.171 199.696C156.118 200.186 155.926 200.597 155.595 200.928C155.265 201.258 154.806 201.456 154.219 201.52V201.6C154.582 201.664 154.881 201.797 155.115 202C155.35 202.192 155.537 202.416 155.675 202.672C155.825 202.928 155.931 203.205 155.995 203.504C156.07 203.802 156.123 204.085 156.155 204.352L156.443 207.392H154.315L154.043 204.224C153.99 203.616 153.846 203.168 153.611 202.88C153.387 202.592 152.982 202.485 152.395 202.56L150.763 202.768V207.392H148.715V198.56ZM161.28 207.584C160.362 207.584 159.658 207.285 159.168 206.688C158.677 206.09 158.432 205.237 158.432 204.128V198.56H160.48V203.936C160.48 204.544 160.597 205.024 160.832 205.376C161.077 205.728 161.498 205.904 162.096 205.904C162.32 205.904 162.538 205.872 162.752 205.808C162.965 205.744 163.152 205.653 163.312 205.536C163.482 205.408 163.621 205.253 163.728 205.072C163.834 204.88 163.888 204.661 163.888 204.416V198.56H165.936V205.76H166.784V207.392H165.504C164.586 207.392 164.112 206.869 164.08 205.824H163.984C163.802 206.314 163.493 206.73 163.056 207.072C162.629 207.413 162.037 207.584 161.28 207.584ZM162.817 195.552H163.889V194.992C163.889 194.789 163.841 194.645 163.745 194.56C163.649 194.464 163.473 194.416 163.217 194.416H162.817V192.976H164.017C164.529 192.976 164.924 193.093 165.201 193.328C165.479 193.552 165.617 193.85 165.617 194.224C165.617 194.469 165.548 194.709 165.41 194.944C165.26 195.168 165.052 195.338 164.785 195.456V195.552H167.714V196.992H162.817V195.552ZM171.945 201.488C171.945 201.018 171.822 200.656 171.577 200.4C171.342 200.144 170.964 200.016 170.441 200.016C169.961 200.016 169.577 200.117 169.289 200.32C169.012 200.522 168.777 200.773 168.585 201.072L167.369 199.984C167.678 199.493 168.078 199.104 168.569 198.816C169.07 198.517 169.742 198.368 170.585 198.368C171.705 198.368 172.553 198.629 173.129 199.152C173.705 199.664 173.993 200.405 173.993 201.376V207.392H171.945V201.488ZM179.846 207.584C178.555 207.584 177.563 207.194 176.87 206.416C176.177 205.626 175.83 204.469 175.83 202.944C175.83 201.461 176.059 200.33 176.518 199.552C176.977 198.762 177.67 198.368 178.598 198.368C179.089 198.368 179.499 198.501 179.83 198.768C180.161 199.024 180.369 199.392 180.454 199.872H180.55C180.635 199.392 180.859 199.024 181.222 198.768C181.585 198.501 182.033 198.368 182.566 198.368C183.227 198.368 183.75 198.592 184.134 199.04C184.529 199.477 184.726 200.085 184.726 200.864V207.392H182.678V201.104C182.678 200.762 182.609 200.506 182.47 200.336C182.342 200.165 182.161 200.08 181.926 200.08C181.638 200.08 181.43 200.192 181.302 200.416C181.185 200.64 181.099 200.922 181.046 201.264H179.814C179.771 200.933 179.697 200.656 179.59 200.432C179.483 200.197 179.275 200.08 178.966 200.08C178.603 200.08 178.347 200.256 178.198 200.608C178.059 200.96 177.99 201.45 177.99 202.08V203.696C177.99 204.037 178.027 204.346 178.102 204.624C178.177 204.89 178.299 205.125 178.47 205.328C178.641 205.52 178.865 205.669 179.142 205.776C179.419 205.882 179.761 205.936 180.166 205.936C180.369 205.936 180.571 205.914 180.774 205.872L181.014 207.472C180.865 207.514 180.678 207.541 180.454 207.552C180.23 207.573 180.027 207.584 179.846 207.584ZM182.767 193.888H184.655V197.104H182.767V193.888ZM190.648 201.488C190.648 201.018 190.526 200.656 190.28 200.4C190.046 200.144 189.667 200.016 189.144 200.016C188.664 200.016 188.28 200.117 187.992 200.32C187.715 200.522 187.48 200.773 187.288 201.072L186.072 199.984C186.382 199.493 186.782 199.104 187.272 198.816C187.774 198.517 188.446 198.368 189.288 198.368C190.408 198.368 191.256 198.629 191.832 199.152C192.408 199.664 192.696 200.405 192.696 201.376V207.392H190.648V201.488ZM194.069 201.056H196.101L198.149 205.76H198.213C198.672 205.76 199.029 205.578 199.285 205.216C199.541 204.853 199.669 204.346 199.669 203.696V202.272C199.669 201.621 199.541 201.114 199.285 200.752C199.029 200.389 198.672 200.208 198.213 200.208H197.589V198.56H198.229C199.36 198.56 200.24 198.949 200.869 199.728C201.499 200.496 201.813 201.578 201.813 202.976C201.813 204.373 201.499 205.461 200.869 206.24C200.24 207.008 199.36 207.392 198.229 207.392H196.837L194.069 201.056ZM206.483 207.584C205.566 207.584 204.862 207.285 204.371 206.688C203.88 206.09 203.635 205.237 203.635 204.128V198.56H205.683V203.936C205.683 204.544 205.8 205.024 206.035 205.376C206.28 205.728 206.702 205.904 207.299 205.904C207.523 205.904 207.742 205.872 207.955 205.808C208.168 205.744 208.355 205.653 208.515 205.536C208.686 205.408 208.824 205.253 208.931 205.072C209.038 204.88 209.091 204.661 209.091 204.416V198.56H211.139V205.76H211.987V207.392H210.707C209.79 207.392 209.315 206.869 209.283 205.824H209.187C209.006 206.314 208.696 206.73 208.259 207.072C207.832 207.413 207.24 207.584 206.483 207.584ZM204.005 195.552H209.269V194.224H211.141V197.104H204.005V195.552ZM208.085 192.24H209.093V191.696C209.093 191.514 209.05 191.381 208.965 191.296C208.869 191.21 208.709 191.168 208.485 191.168H208.085V189.968H209.173C209.631 189.968 209.983 190.069 210.229 190.272C210.463 190.464 210.581 190.725 210.581 191.056C210.581 191.269 210.522 191.477 210.405 191.68C210.277 191.882 210.106 192.037 209.893 192.144V192.24H212.389V193.44H208.085V192.24Z" fill="#888888"/>
</g>
<defs>
<filter id="filter0_d_71_69676" x="0" y="0.0664062" width="347" height="254" filterUnits="userSpaceOnUse" color-interpolation-filters="sRGB">
<feFlood flood-opacity="0" result="BackgroundImageFix"/>
<feColorMatrix in="SourceAlpha" type="matrix" values="0 0 0 0 0 0 0 0 0 0 0 0 0 0 0 0 0 0 127 0" result="hardAlpha"/>
<feOffset dy="4"/>
<feComposite in2="hardAlpha" operator="out"/>
<feColorMatrix type="matrix" values="0 0 0 0 0.247059 0 0 0 0 0.141176 0 0 0 0 0.211765 0 0 0 1 0"/>
<feBlend mode="normal" in2="BackgroundImageFix" result="effect1_dropShadow_71_69676"/>
<feBlend mode="normal" in="SourceGraphic" in2="effect1_dropShadow_71_69676" result="shape"/>
</filter>
<filter id="filter1_ii_71_69676" x="17" y="114.066" width="313" height="50" filterUnits="userSpaceOnUse" color-interpolation-filters="sRGB">
<feFlood flood-opacity="0" result="BackgroundImageFix"/>
<feBlend mode="normal" in="SourceGraphic" in2="BackgroundImageFix" result="shape"/>
<feColorMatrix in="SourceAlpha" type="matrix" values="0 0 0 0 0 0 0 0 0 0 0 0 0 0 0 0 0 0 127 0" result="hardAlpha"/>
<feOffset dy="-6"/>
<feComposite in2="hardAlpha" operator="arithmetic" k2="-1" k3="1"/>
<feColorMatrix type="matrix" values="0 0 0 0 0.825 0 0 0 0 0.38478 0 0 0 0 0.0660003 0 0 0 1 0"/>
<feBlend mode="normal" in2="shape" result="effect1_innerShadow_71_69676"/>
<feColorMatrix in="SourceAlpha" type="matrix" values="0 0 0 0 0 0 0 0 0 0 0 0 0 0 0 0 0 0 127 0" result="hardAlpha"/>
<feOffset dy="6"/>
<feComposite in2="hardAlpha" operator="arithmetic" k2="-1" k3="1"/>
<feColorMatrix type="matrix" values="0 0 0 0 0.998333 0 0 0 0 0.998333 0 0 0 0 0.998333 0 0 0 0.8 0"/>
<feBlend mode="normal" in2="effect1_innerShadow_71_69676" result="effect2_innerShadow_71_69676"/>
</filter>
<linearGradient id="paint0_linear_71_69676" x1="173.5" y1="115.066" x2="173.5" y2="163.066" gradientUnits="userSpaceOnUse">
<stop stop-color="#FFD15B"/>
<stop offset="1" stop-color="#FF970E"/>
</linearGradient>
</defs>
</svg>
