<svg width="343" height="34" viewBox="0 0 343 34" fill="none" xmlns="http://www.w3.org/2000/svg">
<rect width="163.573" height="33.6907" rx="6.53" fill="#EEEEEE"/>
<rect x="179" width="163.573" height="33.6907" rx="6.53" fill="#FFEFA5"/>
<path d="M42.904 22C42.2 22 41.6827 21.824 41.352 21.472C41.0213 21.12 40.856 20.624 40.856 19.984V13.168H42.904V20.368H44.072V22H42.904ZM38.536 22C37.832 22 37.3147 21.824 36.984 21.472C36.6533 21.12 36.488 20.624 36.488 19.984V13.168H38.536V20.368H39.704V22H38.536ZM48.2113 22.16C47.3473 22.16 46.6593 21.952 46.1473 21.536C45.6353 21.1093 45.3793 20.4533 45.3793 19.568C45.3793 18.736 45.6246 18.096 46.1153 17.648C46.6059 17.2 47.3046 16.976 48.2113 16.976H50.8993V16.4C50.8993 15.824 50.7446 15.3867 50.4353 15.088C50.1259 14.7787 49.6353 14.624 48.9633 14.624C48.3339 14.624 47.8273 14.7627 47.4433 15.04C47.0593 15.3067 46.7446 15.6213 46.4993 15.984L45.2033 14.848C45.3846 14.5707 45.5926 14.32 45.8273 14.096C46.0726 13.8613 46.3499 13.664 46.6593 13.504C46.9793 13.3333 47.3366 13.2053 47.7313 13.12C48.1366 13.024 48.5899 12.976 49.0913 12.976C50.3606 12.976 51.3206 13.264 51.9713 13.84C52.6219 14.416 52.9473 15.2427 52.9473 16.32V22H50.8993V18.304H48.8993C47.9499 18.304 47.4753 18.6827 47.4753 19.44V19.744C47.4753 20.1173 47.5819 20.4107 47.7953 20.624C48.0086 20.8373 48.3019 20.944 48.6753 20.944C48.8459 20.944 48.9953 20.928 49.1233 20.896L49.2673 22.048C49.1819 22.08 49.0273 22.1067 48.8033 22.128C48.5793 22.1493 48.3819 22.16 48.2113 22.16ZM55.9833 17.248L54.6073 16.688C54.6499 16.1333 54.7833 15.6267 55.0073 15.168C55.2313 14.7093 55.5299 14.32 55.9033 14C56.2873 13.6693 56.7353 13.4187 57.2473 13.248C57.7699 13.0667 58.3353 12.976 58.9433 12.976C59.5833 12.976 60.1539 13.0613 60.6553 13.232C61.1673 13.4027 61.5993 13.648 61.9513 13.968C62.3033 14.288 62.5699 14.6773 62.7513 15.136C62.9433 15.584 63.0393 16.0853 63.0393 16.64V22H60.9913V16.912C60.9913 16.176 60.8046 15.6107 60.4313 15.216C60.0579 14.8213 59.5193 14.624 58.8153 14.624C58.2606 14.624 57.7753 14.7467 57.3593 14.992C56.9539 15.2267 56.6713 15.536 56.5113 15.92L57.1353 16.16C57.4766 16.288 57.7113 16.4373 57.8393 16.608C57.9673 16.7787 58.0312 17.0347 58.0312 17.376V22H55.9833V17.248ZM72.029 22C71.325 22 70.8077 21.824 70.477 21.472C70.1463 21.12 69.981 20.624 69.981 19.984V13.168H72.029V20.368H73.197V22H72.029ZM67.661 22C66.957 22 66.4397 21.824 66.109 21.472C65.7783 21.12 65.613 20.624 65.613 19.984V13.168H67.661V20.368H68.829V22H67.661ZM78.6163 22.192C78.0189 22.192 77.4803 22.112 77.0003 21.952C76.5203 21.7813 76.1096 21.5413 75.7682 21.232C75.4376 20.9227 75.1816 20.5493 75.0003 20.112C74.8296 19.6747 74.7443 19.184 74.7443 18.64V13.168H76.7923V18.528C76.7923 19.168 76.9523 19.664 77.2723 20.016C77.5923 20.368 78.0403 20.544 78.6163 20.544C79.1923 20.544 79.6403 20.368 79.9603 20.016C80.2803 19.664 80.4403 19.168 80.4403 18.528V13.168H82.4883V18.64C82.4883 19.184 82.3976 19.6747 82.2163 20.112C82.0456 20.5493 81.7896 20.9227 81.4483 21.232C81.1176 21.5413 80.7123 21.7813 80.2323 21.952C79.7523 22.112 79.2136 22.192 78.6163 22.192ZM88.5381 22.192C87.9408 22.192 87.4021 22.112 86.9221 21.952C86.4421 21.7813 86.0315 21.5413 85.6901 21.232C85.3595 20.9227 85.1035 20.5493 84.9221 20.112C84.7515 19.6747 84.6661 19.184 84.6661 18.64V13.168H86.7141V18.528C86.7141 19.168 86.8741 19.664 87.1941 20.016C87.5141 20.368 87.9621 20.544 88.5381 20.544C89.1141 20.544 89.5621 20.368 89.8821 20.016C90.2021 19.664 90.3621 19.168 90.3621 18.528V13.168H92.4101V18.64C92.4101 19.184 92.3195 19.6747 92.1381 20.112C91.9675 20.5493 91.7115 20.9227 91.3701 21.232C91.0395 21.5413 90.6341 21.7813 90.1541 21.952C89.6741 22.112 89.1355 22.192 88.5381 22.192ZM98.46 22.192C97.8627 22.192 97.324 22.112 96.844 21.952C96.364 21.7813 95.9533 21.5413 95.612 21.232C95.2813 20.9227 95.0253 20.5493 94.844 20.112C94.6733 19.6747 94.588 19.184 94.588 18.64V13.168H96.636V18.528C96.636 19.168 96.796 19.664 97.116 20.016C97.436 20.368 97.884 20.544 98.46 20.544C99.036 20.544 99.484 20.368 99.804 20.016C100.124 19.664 100.284 19.168 100.284 18.528V13.168H102.332V18.64C102.332 19.184 102.241 19.6747 102.06 20.112C101.889 20.5493 101.633 20.9227 101.292 21.232C100.961 21.5413 100.556 21.7813 100.076 21.952C99.596 22.112 99.0573 22.192 98.46 22.192ZM95.1921 10.16H102.328V11.712H95.1921V10.16ZM103.71 15.664H105.742L107.79 20.368H107.854C108.313 20.368 108.67 20.1867 108.926 19.824C109.182 19.4613 109.31 18.9547 109.31 18.304V16.88C109.31 16.2293 109.182 15.7227 108.926 15.36C108.67 14.9973 108.313 14.816 107.854 14.816H107.23V13.168H107.87C109.001 13.168 109.881 13.5573 110.51 14.336C111.139 15.104 111.454 16.1867 111.454 17.584C111.454 18.9813 111.139 20.0693 110.51 20.848C109.881 21.616 109.001 22 107.87 22H106.478L103.71 15.664ZM115.74 22C115.036 22 114.513 21.824 114.172 21.472C113.841 21.12 113.676 20.624 113.676 19.984V12.064L111.579 11.184V10.752C111.579 10.2613 111.665 9.81867 111.835 9.424C111.995 9.02933 112.225 8.69333 112.524 8.416C112.833 8.128 113.201 7.90933 113.628 7.76C114.054 7.61067 114.534 7.536 115.068 7.536C115.814 7.536 116.428 7.65333 116.908 7.888C117.388 8.112 117.798 8.42667 118.14 8.832L116.924 9.968C116.764 9.75467 116.534 9.568 116.236 9.408C115.948 9.23733 115.58 9.152 115.132 9.152C114.652 9.152 114.236 9.25333 113.884 9.456C113.542 9.648 113.35 9.94667 113.308 10.352L114.828 10.96C115.169 11.0987 115.404 11.2587 115.532 11.44C115.66 11.6107 115.724 11.8773 115.724 12.24V20.368H116.891V22H115.74ZM119.311 17.248L117.935 16.688C117.978 16.1333 118.111 15.6267 118.335 15.168C118.559 14.7093 118.858 14.32 119.231 14C119.615 13.6693 120.063 13.4187 120.575 13.248C121.098 13.0667 121.663 12.976 122.271 12.976C122.911 12.976 123.482 13.0613 123.983 13.232C124.495 13.4027 124.927 13.648 125.279 13.968C125.631 14.288 125.898 14.6773 126.079 15.136C126.271 15.584 126.367 16.0853 126.367 16.64V22H124.319V16.912C124.319 16.176 124.133 15.6107 123.759 15.216C123.386 14.8213 122.847 14.624 122.143 14.624C121.589 14.624 121.103 14.7467 120.687 14.992C120.282 15.2267 119.999 15.536 119.839 15.92L120.463 16.16C120.805 16.288 121.039 16.4373 121.167 16.608C121.295 16.7787 121.359 17.0347 121.359 17.376V22H119.311V17.248Z" fill="#888888"/>
<path d="M230.774 22C230.166 22 229.718 21.8453 229.43 21.536C229.142 21.2267 228.998 20.7947 228.998 20.24V13.216H230.742V20.576H231.99V22H230.774ZM226.486 22C225.878 22 225.43 21.8453 225.142 21.536C224.854 21.2267 224.71 20.7947 224.71 20.24V13.216H226.454V20.576H227.702V22H226.486ZM236.26 22.16C235.396 22.16 234.703 21.9467 234.18 21.52C233.668 21.0933 233.412 20.448 233.412 19.584C233.412 18.7627 233.658 18.128 234.148 17.68C234.65 17.232 235.354 17.008 236.26 17.008H238.98V16.336C238.98 15.7173 238.81 15.248 238.468 14.928C238.138 14.608 237.62 14.448 236.916 14.448C236.287 14.448 235.77 14.5813 235.364 14.848C234.97 15.1147 234.644 15.4507 234.388 15.856L233.268 14.88C233.61 14.336 234.074 13.8933 234.66 13.552C235.258 13.2 236.047 13.024 237.028 13.024C238.234 13.024 239.151 13.3067 239.78 13.872C240.41 14.4267 240.724 15.2267 240.724 16.272V22H238.98V18.176H236.788C236.276 18.176 235.882 18.2827 235.604 18.496C235.338 18.7093 235.204 19.0187 235.204 19.424V19.744C235.204 20.1493 235.327 20.4693 235.572 20.704C235.818 20.9387 236.154 21.056 236.58 21.056C236.794 21.056 236.964 21.04 237.092 21.008L237.236 22.064C237.14 22.0853 236.991 22.1067 236.788 22.128C236.586 22.1493 236.41 22.16 236.26 22.16ZM243.923 17.152L242.547 16.576C242.589 16.0533 242.717 15.5733 242.931 15.136C243.155 14.6987 243.448 14.3253 243.811 14.016C244.173 13.696 244.6 13.4507 245.091 13.28C245.581 13.1093 246.115 13.024 246.691 13.024C247.96 13.024 248.947 13.3493 249.651 14C250.355 14.64 250.707 15.5093 250.707 16.608V22H248.963V16.832C248.963 16.064 248.755 15.4773 248.339 15.072C247.923 14.656 247.352 14.448 246.627 14.448C246.04 14.448 245.523 14.5813 245.075 14.848C244.637 15.104 244.339 15.4507 244.179 15.888L244.867 16.16C245.165 16.2773 245.373 16.416 245.491 16.576C245.608 16.7253 245.667 16.9493 245.667 17.248V22H243.923V17.152ZM255.651 22.16C254.787 22.16 254.094 21.9467 253.571 21.52C253.059 21.0933 252.803 20.448 252.803 19.584C252.803 18.7627 253.048 18.128 253.539 17.68C254.04 17.232 254.744 17.008 255.651 17.008H258.371V16.336C258.371 15.7173 258.2 15.248 257.859 14.928C257.528 14.608 257.011 14.448 256.307 14.448C255.678 14.448 255.16 14.5813 254.755 14.848C254.36 15.1147 254.035 15.4507 253.779 15.856L252.659 14.88C253 14.336 253.464 13.8933 254.051 13.552C254.648 13.2 255.438 13.024 256.419 13.024C257.432 13.024 258.238 13.2213 258.835 13.616C258.931 13.04 259.294 12.752 259.923 12.752H261.891V14.272H259.507V14.304C259.912 14.8267 260.115 15.4827 260.115 16.272V22H258.371V18.176H256.179C255.667 18.176 255.272 18.2827 254.995 18.496C254.728 18.7093 254.595 19.0187 254.595 19.424V19.744C254.595 20.1493 254.718 20.4693 254.963 20.704C255.208 20.9387 255.544 21.056 255.971 21.056C256.184 21.056 256.355 21.04 256.483 21.008L256.627 22.064C256.531 22.0853 256.382 22.1067 256.179 22.128C255.976 22.1493 255.8 22.16 255.651 22.16ZM258.429 8.544H260.061V11.648H258.429V8.544ZM265.858 22.192C265.41 22.192 264.983 22.1387 264.578 22.032C264.173 21.9253 263.815 21.7653 263.506 21.552L264.162 20.304C264.375 20.432 264.61 20.544 264.866 20.64C265.133 20.7253 265.437 20.768 265.778 20.768C266.418 20.768 266.909 20.5547 267.25 20.128C267.602 19.6907 267.778 19.0933 267.778 18.336V16.88C267.778 16.1333 267.607 15.5413 267.266 15.104C266.935 14.6667 266.445 14.448 265.794 14.448C265.271 14.448 264.845 14.5707 264.514 14.816C264.183 15.0507 263.943 15.3707 263.794 15.776L262.37 15.104C262.637 14.464 263.063 13.9573 263.65 13.584C264.237 13.2107 264.973 13.024 265.858 13.024C266.466 13.024 267.005 13.1307 267.474 13.344C267.943 13.5573 268.338 13.8613 268.658 14.256C268.978 14.6507 269.218 15.1307 269.378 15.696C269.549 16.2613 269.634 16.896 269.634 17.6C269.634 18.304 269.549 18.944 269.378 19.52C269.207 20.0853 268.962 20.5653 268.642 20.96C268.322 21.3547 267.927 21.6587 267.458 21.872C266.989 22.0853 266.455 22.192 265.858 22.192ZM274.501 22.192C273.584 22.192 272.874 21.8987 272.373 21.312C271.872 20.7147 271.621 19.872 271.621 18.784V13.216H273.365V18.592C273.365 19.2747 273.504 19.7973 273.781 20.16C274.069 20.512 274.528 20.688 275.157 20.688C275.392 20.688 275.626 20.6613 275.861 20.608C276.096 20.544 276.304 20.448 276.485 20.32C276.677 20.192 276.826 20.032 276.933 19.84C277.05 19.6373 277.109 19.4027 277.109 19.136V13.216H278.853V20.576H279.781V22H278.629C278.181 22 277.845 21.872 277.621 21.616C277.397 21.3493 277.274 20.9813 277.253 20.512H277.173C276.992 21.0027 276.677 21.408 276.229 21.728C275.792 22.0373 275.216 22.192 274.501 22.192ZM284.104 22.16C283.24 22.16 282.547 21.9467 282.024 21.52C281.512 21.0933 281.256 20.448 281.256 19.584C281.256 18.7627 281.501 18.128 281.992 17.68C282.493 17.232 283.197 17.008 284.104 17.008H286.824V16.336C286.824 15.7173 286.653 15.248 286.312 14.928C285.981 14.608 285.464 14.448 284.76 14.448C284.131 14.448 283.613 14.5813 283.208 14.848C282.813 15.1147 282.488 15.4507 282.232 15.856L281.112 14.88C281.453 14.336 281.917 13.8933 282.504 13.552C283.101 13.2 283.891 13.024 284.872 13.024C286.077 13.024 286.995 13.3067 287.624 13.872C288.253 14.4267 288.568 15.2267 288.568 16.272V22H286.824V18.176H284.632C284.12 18.176 283.725 18.2827 283.448 18.496C283.181 18.7093 283.048 19.0187 283.048 19.424V19.744C283.048 20.1493 283.171 20.4693 283.416 20.704C283.661 20.9387 283.997 21.056 284.424 21.056C284.637 21.056 284.808 21.04 284.936 21.008L285.08 22.064C284.984 22.0853 284.835 22.1067 284.632 22.128C284.429 22.1493 284.253 22.16 284.104 22.16ZM294.39 22.192C293.174 22.192 292.23 21.7867 291.558 20.976C290.886 20.1547 290.55 19.0293 290.55 17.6C290.55 16.9067 290.646 16.2773 290.838 15.712C291.041 15.1467 291.324 14.6667 291.686 14.272C292.06 13.8667 292.508 13.5573 293.03 13.344C293.553 13.1307 294.14 13.024 294.79 13.024C295.388 13.024 295.932 13.1147 296.422 13.296C296.913 13.4667 297.329 13.712 297.67 14.032C298.022 14.352 298.289 14.7413 298.47 15.2C298.662 15.648 298.758 16.1493 298.758 16.704V22H297.014V16.848C297.014 16.0907 296.812 15.504 296.406 15.088C296.001 14.6613 295.446 14.448 294.742 14.448C294.006 14.448 293.43 14.6773 293.014 15.136C292.609 15.5947 292.406 16.2187 292.406 17.008V18.176C292.406 19.0187 292.588 19.664 292.95 20.112C293.324 20.5493 293.889 20.768 294.646 20.768C294.881 20.768 295.1 20.7467 295.302 20.704L295.51 22.08C295.35 22.1227 295.158 22.1493 294.934 22.16C294.721 22.1813 294.54 22.192 294.39 22.192Z" fill="#3A5B58"/>
</svg>
