<svg width="346" height="120" viewBox="0 0 346 120" fill="none" xmlns="http://www.w3.org/2000/svg">
<g filter="url(#filter0_di_71_107291)">
<mask id="path-1-outside-1_71_107291" maskUnits="userSpaceOnUse" x="0" y="0" width="346" height="118" fill="black">
<rect fill="white" width="346" height="118"/>
<path fill-rule="evenodd" clip-rule="evenodd" d="M8.25 2H88.058C88.5194 5.94631 91.6754 9 95.5 9C99.3246 9 102.481 5.94631 102.942 2H337.753C341.203 2 344 4.79668 344 8.24657V109.753C344 113.203 341.203 116 337.753 116H102.764C101.931 112.55 98.9947 110 95.5 110C92.0053 110 89.0689 112.55 88.2363 116H8.25C4.79822 116 2 113.202 2 109.75V8.25C2 4.79822 4.79822 2 8.25 2Z"/>
</mask>
<path fill-rule="evenodd" clip-rule="evenodd" d="M8.25 2H88.058C88.5194 5.94631 91.6754 9 95.5 9C99.3246 9 102.481 5.94631 102.942 2H337.753C341.203 2 344 4.79668 344 8.24657V109.753C344 113.203 341.203 116 337.753 116H102.764C101.931 112.55 98.9947 110 95.5 110C92.0053 110 89.0689 112.55 88.2363 116H8.25C4.79822 116 2 113.202 2 109.75V8.25C2 4.79822 4.79822 2 8.25 2Z" fill="url(#paint0_linear_71_107291)"/>
<path d="M88.058 2L90.0445 1.76777L89.8378 0H88.058V2ZM102.942 2V0H101.162L100.955 1.76777L102.942 2ZM102.764 116L100.82 116.469L101.189 118H102.764V116ZM88.2363 116V118H89.8111L90.1805 116.469L88.2363 116ZM88.058 0H8.25V4H88.058V0ZM95.5 7C92.8017 7 90.4015 4.8211 90.0445 1.76777L86.0716 2.23223C86.6373 7.07152 90.549 11 95.5 11V7ZM100.955 1.76777C100.599 4.8211 98.1983 7 95.5 7V11C100.451 11 104.363 7.07152 104.928 2.23223L100.955 1.76777ZM337.753 0H102.942V4H337.753V0ZM346 8.24657C346 3.69211 342.308 0 337.753 0V4C340.099 4 342 5.90126 342 8.24657H346ZM346 109.753V8.24657H342V109.753H346ZM337.753 118C342.308 118 346 114.308 346 109.753H342C342 112.099 340.099 114 337.753 114V118ZM102.764 118H337.753V114H102.764V118ZM95.5 112C97.9691 112 100.179 113.814 100.82 116.469L104.708 115.531C103.683 111.285 100.02 108 95.5 108V112ZM90.1805 116.469C90.8212 113.814 93.0309 112 95.5 112V108C90.9797 108 87.3166 111.285 86.2921 115.531L90.1805 116.469ZM8.25 118H88.2363V114H8.25V118ZM0 109.75C0 114.306 3.69365 118 8.25 118V114C5.90279 114 4 112.097 4 109.75H0ZM0 8.25V109.75H4V8.25H0ZM8.25 0C3.69365 0 0 3.69365 0 8.25H4C4 5.90279 5.90279 4 8.25 4V0Z" fill="#53978F" mask="url(#path-1-outside-1_71_107291)"/>
<g filter="url(#filter1_ii_71_107291)">
<rect x="16" y="86.3643" width="66" height="19.7086" rx="4.01952" fill="#FFEFA5"/>
<rect x="16" y="86.3643" width="66" height="19.7086" rx="4.01952" fill="url(#paint1_linear_71_107291)"/>
<rect x="16" y="86.3643" width="66" height="19.7086" rx="4.01952" fill="url(#paint2_linear_71_107291)"/>
</g>
<rect x="16" y="86.3643" width="66" height="19.7086" rx="4.01952" stroke="#3F2436" stroke-width="1.23179"/>
<path d="M26.7512 98.7188C26.2445 98.7188 25.8712 98.5954 25.6312 98.3487C25.3978 98.1021 25.2812 97.7454 25.2812 97.2787V93.1787H26.7612V97.5687H27.4512V98.7188H26.7512ZM29.5412 98.7188C29.0345 98.7188 28.6612 98.5954 28.4212 98.3487C28.1878 98.1021 28.0712 97.7454 28.0712 97.2787V93.1787H29.5512V97.5687H30.2412V98.7188H29.5412ZM32.7459 98.8188C32.2125 98.8188 31.7859 98.6888 31.4659 98.4287C31.1525 98.1621 30.9959 97.7487 30.9959 97.1887C30.9959 96.6687 31.1459 96.2654 31.4459 95.9787C31.7459 95.6921 32.1792 95.5487 32.7459 95.5487H34.3959V95.2587C34.3959 94.9254 34.3059 94.6721 34.1259 94.4987C33.9525 94.3187 33.6659 94.2287 33.2659 94.2287C33.0725 94.2287 32.9025 94.2521 32.7559 94.2987C32.6092 94.3454 32.4759 94.4087 32.3559 94.4887C32.2359 94.5621 32.1292 94.6487 32.0359 94.7487C31.9425 94.8421 31.8592 94.9421 31.7859 95.0487L30.8459 94.2287C31.0992 93.8687 31.4192 93.5854 31.8059 93.3787C32.1925 93.1654 32.7125 93.0587 33.3659 93.0587C34.1992 93.0587 34.8259 93.2421 35.2459 93.6087C35.6659 93.9687 35.8759 94.5021 35.8759 95.2087V98.7188H34.3959V96.4887H33.2759C32.7559 96.4887 32.4959 96.7021 32.4959 97.1287V97.2987C32.4959 97.5054 32.5492 97.6721 32.6559 97.7987C32.7625 97.9187 32.9192 97.9787 33.1259 97.9787C33.1659 97.9787 33.2059 97.9787 33.2459 97.9787C33.2859 97.9787 33.3259 97.9721 33.3659 97.9587L33.4659 98.7488C33.4325 98.7621 33.3859 98.7721 33.3259 98.7788C33.2725 98.7921 33.2092 98.7988 33.1359 98.7988C33.0692 98.8054 32.9992 98.8088 32.9259 98.8088C32.8592 98.8154 32.7992 98.8188 32.7459 98.8188ZM37.672 95.8087L36.802 95.4587C36.8286 95.0921 36.9153 94.7621 37.062 94.4687C37.2153 94.1687 37.4153 93.9154 37.662 93.7087C37.9086 93.5021 38.1986 93.3421 38.532 93.2287C38.872 93.1154 39.242 93.0587 39.642 93.0587C40.0486 93.0587 40.412 93.1154 40.732 93.2287C41.0586 93.3354 41.3353 93.4921 41.562 93.6987C41.7886 93.8987 41.962 94.1454 42.082 94.4387C42.2086 94.7254 42.272 95.0454 42.272 95.3987V98.7188H40.792V95.5887C40.792 95.1621 40.682 94.8287 40.462 94.5887C40.2486 94.3487 39.932 94.2287 39.512 94.2287C39.192 94.2287 38.9153 94.2954 38.682 94.4287C38.4553 94.5621 38.2886 94.7287 38.182 94.9287L38.532 95.0587C38.772 95.1521 38.9353 95.2587 39.022 95.3787C39.1086 95.4987 39.152 95.6787 39.152 95.9187V98.7188H37.672V95.8087ZM45.1384 98.8188C44.6051 98.8188 44.1784 98.6888 43.8584 98.4287C43.5451 98.1621 43.3884 97.7487 43.3884 97.1887C43.3884 96.6687 43.5384 96.2654 43.8384 95.9787C44.1384 95.6921 44.5718 95.5487 45.1384 95.5487H46.7884V95.2587C46.7884 94.9254 46.6984 94.6721 46.5184 94.4987C46.3451 94.3187 46.0584 94.2287 45.6584 94.2287C45.4651 94.2287 45.2951 94.2521 45.1484 94.2987C45.0018 94.3454 44.8684 94.4087 44.7484 94.4887C44.6284 94.5621 44.5218 94.6487 44.4284 94.7487C44.3351 94.8421 44.2518 94.9421 44.1784 95.0487L43.2384 94.2287C43.4918 93.8687 43.8118 93.5854 44.1984 93.3787C44.5851 93.1654 45.1051 93.0587 45.7584 93.0587C46.4518 93.0587 47.0084 93.1921 47.4284 93.4587C47.4818 93.2654 47.5784 93.1221 47.7184 93.0287C47.8651 92.9354 48.0484 92.8887 48.2684 92.8887H49.3684V94.1087H48.0484V94.1487C48.1951 94.4354 48.2684 94.7887 48.2684 95.2087V98.7188H46.7884V96.4887H45.6684C45.1484 96.4887 44.8884 96.7021 44.8884 97.1287V97.2987C44.8884 97.5054 44.9418 97.6721 45.0484 97.7987C45.1551 97.9187 45.3118 97.9787 45.5184 97.9787C45.5584 97.9787 45.5984 97.9787 45.6384 97.9787C45.6784 97.9787 45.7184 97.9721 45.7584 97.9587L45.8584 98.7488C45.8251 98.7621 45.7784 98.7721 45.7184 98.7788C45.6651 98.7921 45.6018 98.7988 45.5284 98.7988C45.4618 98.8054 45.3918 98.8088 45.3184 98.8088C45.2518 98.8154 45.1918 98.8188 45.1384 98.8188ZM46.8695 90.2587H48.2095V92.3287H46.8695V90.2587ZM51.7349 98.8388C51.4283 98.8388 51.1383 98.8021 50.8649 98.7288C50.5916 98.6554 50.3483 98.5421 50.1349 98.3888L50.6849 97.3487C50.7983 97.4221 50.9316 97.4954 51.0849 97.5687C51.2383 97.6354 51.4283 97.6687 51.6549 97.6687C51.9749 97.6687 52.2149 97.5621 52.3749 97.3487C52.5416 97.1287 52.6249 96.8354 52.6249 96.4687V95.4387C52.6249 95.0721 52.5449 94.7787 52.3849 94.5587C52.2249 94.3387 51.9849 94.2287 51.6649 94.2287C51.3783 94.2287 51.1516 94.3054 50.9849 94.4587C50.8183 94.6121 50.7083 94.7987 50.6549 95.0187L49.4549 94.4987C49.6216 94.0454 49.8983 93.6921 50.2849 93.4388C50.6783 93.1854 51.1616 93.0587 51.7349 93.0587C52.1283 93.0587 52.4749 93.1287 52.7749 93.2687C53.0816 93.4021 53.3383 93.5954 53.5449 93.8487C53.7516 94.0954 53.9083 94.3954 54.0149 94.7487C54.1216 95.1021 54.1749 95.4987 54.1749 95.9387C54.1749 96.3787 54.1216 96.7787 54.0149 97.1387C53.9083 97.4987 53.7516 97.8054 53.5449 98.0588C53.3383 98.3054 53.0816 98.4987 52.7749 98.6387C52.4749 98.7721 52.1283 98.8388 51.7349 98.8388ZM56.9581 98.8388C56.3848 98.8388 55.9481 98.6521 55.6481 98.2787C55.3548 97.8987 55.2081 97.3587 55.2081 96.6587V93.1787H56.6881V96.5287C56.6881 96.6887 56.7015 96.8387 56.7281 96.9787C56.7548 97.1121 56.8015 97.2287 56.8681 97.3287C56.9348 97.4221 57.0248 97.4987 57.1381 97.5587C57.2581 97.6121 57.4048 97.6387 57.5781 97.6387C57.6981 97.6387 57.8181 97.6221 57.9381 97.5887C58.0648 97.5487 58.1748 97.4921 58.2681 97.4187C58.3615 97.3454 58.4381 97.2554 58.4981 97.1487C58.5581 97.0421 58.5881 96.9187 58.5881 96.7787V93.1787H60.0681V97.5687H60.5581V98.7188H59.6681C59.0681 98.7188 58.7581 98.3754 58.7381 97.6887H58.6681C58.6148 97.8421 58.5415 97.9887 58.4481 98.1287C58.3615 98.2621 58.2481 98.3821 58.1081 98.4887C57.9748 98.5954 57.8115 98.6787 57.6181 98.7388C57.4315 98.8054 57.2115 98.8388 56.9581 98.8388ZM63.1267 98.8188C62.5934 98.8188 62.1667 98.6888 61.8467 98.4287C61.5334 98.1621 61.3767 97.7487 61.3767 97.1887C61.3767 96.6687 61.5267 96.2654 61.8267 95.9787C62.1267 95.6921 62.5601 95.5487 63.1267 95.5487H64.7767V95.2587C64.7767 94.9254 64.6867 94.6721 64.5067 94.4987C64.3334 94.3187 64.0467 94.2287 63.6467 94.2287C63.4534 94.2287 63.2834 94.2521 63.1367 94.2987C62.9901 94.3454 62.8567 94.4087 62.7367 94.4887C62.6167 94.5621 62.5101 94.6487 62.4167 94.7487C62.3234 94.8421 62.2401 94.9421 62.1667 95.0487L61.2267 94.2287C61.4801 93.8687 61.8001 93.5854 62.1867 93.3787C62.5734 93.1654 63.0934 93.0587 63.7467 93.0587C64.5801 93.0587 65.2067 93.2421 65.6267 93.6087C66.0467 93.9687 66.2567 94.5021 66.2567 95.2087V98.7188H64.7767V96.4887H63.6567C63.1367 96.4887 62.8767 96.7021 62.8767 97.1287V97.2987C62.8767 97.5054 62.9301 97.6721 63.0367 97.7987C63.1434 97.9187 63.3001 97.9787 63.5067 97.9787C63.5467 97.9787 63.5867 97.9787 63.6267 97.9787C63.6667 97.9787 63.7067 97.9721 63.7467 97.9587L63.8467 98.7488C63.8134 98.7621 63.7667 98.7721 63.7067 98.7788C63.6534 98.7921 63.5901 98.7988 63.5167 98.7988C63.4501 98.8054 63.3801 98.8088 63.3067 98.8088C63.2401 98.8154 63.1801 98.8188 63.1267 98.8188ZM69.7628 98.8388C69.3761 98.8388 69.0295 98.7721 68.7228 98.6387C68.4161 98.5054 68.1561 98.3154 67.9428 98.0687C67.7295 97.8221 67.5661 97.5221 67.4528 97.1687C67.3395 96.8087 67.2828 96.4021 67.2828 95.9487C67.2828 95.5087 67.3461 95.1121 67.4728 94.7587C67.5995 94.3987 67.7795 94.0954 68.0128 93.8487C68.2528 93.5954 68.5395 93.4021 68.8728 93.2687C69.2061 93.1287 69.5795 93.0587 69.9928 93.0587C70.3861 93.0587 70.7428 93.1154 71.0628 93.2287C71.3828 93.3354 71.6528 93.4921 71.8728 93.6987C72.0995 93.9054 72.2728 94.1554 72.3928 94.4487C72.5195 94.7421 72.5828 95.0721 72.5828 95.4387V98.7188H71.1028V95.5087C71.1028 95.1021 71.0028 94.7887 70.8028 94.5687C70.6095 94.3421 70.3361 94.2287 69.9828 94.2287C69.6228 94.2287 69.3395 94.3487 69.1328 94.5887C68.9328 94.8221 68.8328 95.1487 68.8328 95.5687V96.3087C68.8328 97.2154 69.1995 97.6687 69.9328 97.6687C69.9995 97.6687 70.0561 97.6687 70.1028 97.6687C70.1561 97.6621 70.2095 97.6521 70.2628 97.6387L70.4328 98.7788C70.3328 98.8054 70.2161 98.8221 70.0828 98.8288C69.9495 98.8354 69.8428 98.8388 69.7628 98.8388Z" fill="#3F2436"/>
<line x1="95.6396" y1="104" x2="95.6396" y2="13" stroke="white" stroke-width="0.720759" stroke-dasharray="3.6 3.6"/>
<g filter="url(#filter2_i_71_107291)">
<rect x="16" y="12" width="66.0508" height="66.2509" rx="2.72374" fill="#78C9C0"/>
</g>
<rect x="15.3191" y="11.3191" width="67.4127" height="67.6128" rx="3.40468" stroke="#53978F" stroke-width="1.36187"/>
<g filter="url(#filter3_ii_71_107291)">
<path d="M45.8556 59H26.4956V54.12L35.2556 46.44C36.749 45.1333 37.8423 43.96 38.5356 42.92C39.229 41.8533 39.5756 40.7067 39.5756 39.48V38.96C39.5756 37.7333 39.1756 36.8 38.3756 36.16C37.5756 35.4933 36.6023 35.16 35.4556 35.16C34.0156 35.16 32.9223 35.5733 32.1756 36.4C31.429 37.2 30.8956 38.1733 30.5756 39.32L26.0156 37.56C26.309 36.6267 26.7223 35.7467 27.2556 34.92C27.789 34.0667 28.4556 33.32 29.2556 32.68C30.0823 32.04 31.0423 31.5333 32.1356 31.16C33.229 30.7867 34.4823 30.6 35.8956 30.6C37.3623 30.6 38.669 30.8133 39.8156 31.24C40.9623 31.64 41.9223 32.2133 42.6956 32.96C43.4956 33.7067 44.0956 34.5867 44.4956 35.6C44.9223 36.6133 45.1356 37.72 45.1356 38.92C45.1356 40.0933 44.949 41.16 44.5756 42.12C44.2023 43.08 43.6956 44 43.0556 44.88C42.4156 45.7333 41.669 46.56 40.8156 47.36C39.9623 48.1333 39.0556 48.92 38.0956 49.72L32.2156 54.56H45.8556V59ZM60 59.48C58.2133 59.48 56.6667 59.16 55.36 58.52C54.0533 57.8533 52.9733 56.9067 52.12 55.68C51.2667 54.4533 50.6267 52.9467 50.2 51.16C49.8 49.3733 49.6 47.3333 49.6 45.04C49.6 42.7733 49.8 40.7467 50.2 38.96C50.6267 37.1467 51.2667 35.6267 52.12 34.4C52.9733 33.1733 54.0533 32.24 55.36 31.6C56.6667 30.9333 58.2133 30.6 60 30.6C63.5467 30.6 66.16 31.8667 67.84 34.4C69.5467 36.9333 70.4 40.48 70.4 45.04C70.4 49.6 69.5467 53.1467 67.84 55.68C66.16 58.2133 63.5467 59.48 60 59.48ZM60 55.04C61.7867 55.04 63.0267 54.3733 63.72 53.04C64.44 51.68 64.8 49.8533 64.8 47.56V42.52C64.8 40.2267 64.44 38.4133 63.72 37.08C63.0267 35.72 61.7867 35.04 60 35.04C58.2133 35.04 56.96 35.72 56.24 37.08C55.5467 38.4133 55.2 40.2267 55.2 42.52V47.56C55.2 49.8533 55.5467 51.68 56.24 53.04C56.96 54.3733 58.2133 55.04 60 55.04Z" fill="#F3F3F3"/>
<path d="M45.8556 59H26.4956V54.12L35.2556 46.44C36.749 45.1333 37.8423 43.96 38.5356 42.92C39.229 41.8533 39.5756 40.7067 39.5756 39.48V38.96C39.5756 37.7333 39.1756 36.8 38.3756 36.16C37.5756 35.4933 36.6023 35.16 35.4556 35.16C34.0156 35.16 32.9223 35.5733 32.1756 36.4C31.429 37.2 30.8956 38.1733 30.5756 39.32L26.0156 37.56C26.309 36.6267 26.7223 35.7467 27.2556 34.92C27.789 34.0667 28.4556 33.32 29.2556 32.68C30.0823 32.04 31.0423 31.5333 32.1356 31.16C33.229 30.7867 34.4823 30.6 35.8956 30.6C37.3623 30.6 38.669 30.8133 39.8156 31.24C40.9623 31.64 41.9223 32.2133 42.6956 32.96C43.4956 33.7067 44.0956 34.5867 44.4956 35.6C44.9223 36.6133 45.1356 37.72 45.1356 38.92C45.1356 40.0933 44.949 41.16 44.5756 42.12C44.2023 43.08 43.6956 44 43.0556 44.88C42.4156 45.7333 41.669 46.56 40.8156 47.36C39.9623 48.1333 39.0556 48.92 38.0956 49.72L32.2156 54.56H45.8556V59ZM60 59.48C58.2133 59.48 56.6667 59.16 55.36 58.52C54.0533 57.8533 52.9733 56.9067 52.12 55.68C51.2667 54.4533 50.6267 52.9467 50.2 51.16C49.8 49.3733 49.6 47.3333 49.6 45.04C49.6 42.7733 49.8 40.7467 50.2 38.96C50.6267 37.1467 51.2667 35.6267 52.12 34.4C52.9733 33.1733 54.0533 32.24 55.36 31.6C56.6667 30.9333 58.2133 30.6 60 30.6C63.5467 30.6 66.16 31.8667 67.84 34.4C69.5467 36.9333 70.4 40.48 70.4 45.04C70.4 49.6 69.5467 53.1467 67.84 55.68C66.16 58.2133 63.5467 59.48 60 59.48ZM60 55.04C61.7867 55.04 63.0267 54.3733 63.72 53.04C64.44 51.68 64.8 49.8533 64.8 47.56V42.52C64.8 40.2267 64.44 38.4133 63.72 37.08C63.0267 35.72 61.7867 35.04 60 35.04C58.2133 35.04 56.96 35.72 56.24 37.08C55.5467 38.4133 55.2 40.2267 55.2 42.52V47.56C55.2 49.8533 55.5467 51.68 56.24 53.04C56.96 54.3733 58.2133 55.04 60 55.04Z" fill="url(#paint3_linear_71_107291)"/>
</g>
<path d="M45.8556 59V59.7809H46.6366V59H45.8556ZM26.4956 59H25.7147V59.7809H26.4956V59ZM26.4956 54.12L25.9808 53.5328L25.7147 53.7661V54.12H26.4956ZM35.2556 46.44L34.7414 45.8523L34.7408 45.8528L35.2556 46.44ZM38.5356 42.92L39.1854 43.3532L39.1904 43.3456L38.5356 42.92ZM38.3756 36.16L37.8757 36.7599L37.8817 36.7649L37.8878 36.7698L38.3756 36.16ZM32.1756 36.4L32.7466 36.9329L32.7552 36.9234L32.1756 36.4ZM30.5756 39.32L30.2944 40.0485L31.0967 40.3582L31.3278 39.5299L30.5756 39.32ZM26.0156 37.56L25.2706 37.3259L25.051 38.0248L25.7344 38.2885L26.0156 37.56ZM27.2556 34.92L27.9119 35.3434L27.9178 35.3339L27.2556 34.92ZM29.2556 32.68L28.7775 32.0624L28.7678 32.0702L29.2556 32.68ZM39.8156 31.24L39.5433 31.9719L39.5508 31.9747L39.5584 31.9774L39.8156 31.24ZM42.6956 32.96L42.1531 33.5219L42.1628 33.5309L42.6956 32.96ZM44.4956 35.6L43.7692 35.8867L43.7725 35.8949L43.7759 35.903L44.4956 35.6ZM43.0556 44.88L43.6804 45.3486L43.6872 45.3393L43.0556 44.88ZM40.8156 47.36L41.3401 47.9387L41.3497 47.9297L40.8156 47.36ZM38.0956 49.72L38.5919 50.323L38.5956 50.3199L38.0956 49.72ZM32.2156 54.56L31.7193 53.9571L30.0381 55.3409H32.2156V54.56ZM45.8556 54.56H46.6366V53.7791H45.8556V54.56ZM45.8556 58.2191H26.4956V59.7809H45.8556V58.2191ZM27.2766 59V54.12H25.7147V59H27.2766ZM27.0104 54.7072L35.7704 47.0272L34.7408 45.8528L25.9808 53.5328L27.0104 54.7072ZM35.7699 47.0277C37.2885 45.6989 38.4383 44.4738 39.1854 43.3532L37.8859 42.4868C37.2463 43.4462 36.2094 44.5677 34.7414 45.8523L35.7699 47.0277ZM39.1904 43.3456C39.9628 42.1572 40.3566 40.8636 40.3566 39.48H38.7947C38.7947 40.5498 38.4951 41.5494 37.8809 42.4944L39.1904 43.3456ZM40.3566 39.48V38.96H38.7947V39.48H40.3566ZM40.3566 38.96C40.3566 37.5482 39.8859 36.3681 38.8635 35.5502L37.8878 36.7698C38.4654 37.2319 38.7947 37.9185 38.7947 38.96H40.3566ZM38.8756 35.5601C37.9208 34.7644 36.7652 34.3791 35.4556 34.3791V35.9409C36.4394 35.9409 37.2305 36.2223 37.8757 36.7599L38.8756 35.5601ZM35.4556 34.3791C33.8634 34.3791 32.5313 34.8411 31.5961 35.8766L32.7552 36.9234C33.3133 36.3055 34.1679 35.9409 35.4556 35.9409V34.3791ZM31.6047 35.8672C30.7653 36.7666 30.1741 37.8536 29.8234 39.1101L31.3278 39.5299C31.6172 38.493 32.0927 37.6334 32.7465 36.9328L31.6047 35.8672ZM30.8568 38.5915L26.2968 36.8315L25.7344 38.2885L30.2944 40.0485L30.8568 38.5915ZM26.7606 37.7941C27.0329 36.9279 27.4162 36.1115 27.9118 35.3434L26.5994 34.4966C26.0284 35.3818 25.5851 36.3254 25.2706 37.3259L26.7606 37.7941ZM27.9178 35.3339C28.4037 34.5566 29.011 33.8758 29.7435 33.2898L28.7678 32.0702C27.9003 32.7642 27.1743 33.5767 26.5934 34.5061L27.9178 35.3339ZM29.7337 33.2975C30.4856 32.7154 31.3676 32.2475 32.388 31.899L31.8833 30.421C30.717 30.8192 29.679 31.3646 28.7776 32.0625L29.7337 33.2975ZM32.388 31.899C33.3842 31.5588 34.5497 31.3809 35.8956 31.3809V29.8191C34.4149 29.8191 33.0737 30.0145 31.8833 30.421L32.388 31.899ZM35.8956 31.3809C37.2873 31.3809 38.4992 31.5834 39.5433 31.9719L40.088 30.5081C38.8388 30.0433 37.4373 29.8191 35.8956 29.8191V31.3809ZM39.5584 31.9774C40.6123 32.345 41.4711 32.8632 42.1532 33.5218L43.2381 32.3982C42.3735 31.5635 41.3123 30.935 40.0728 30.5026L39.5584 31.9774ZM42.1628 33.5309C42.8784 34.1988 43.412 34.9818 43.7692 35.8867L45.222 35.3133C44.7792 34.1915 44.1129 33.2146 43.2285 32.3891L42.1628 33.5309ZM43.7759 35.903C44.1586 36.812 44.3547 37.8145 44.3547 38.92H45.9166C45.9166 37.6255 45.686 36.4147 45.2154 35.297L43.7759 35.903ZM44.3547 38.92C44.3547 40.0099 44.1815 40.9788 43.8478 41.837L45.3035 42.403C45.7164 41.3411 45.9166 40.1768 45.9166 38.92H44.3547ZM43.8478 41.837C43.5002 42.7309 43.0267 43.592 42.4241 44.4207L43.6872 45.3393C44.3645 44.408 44.9044 43.4291 45.3035 42.403L43.8478 41.837ZM42.4309 44.4114C41.8206 45.2252 41.1049 46.0184 40.2815 46.7903L41.3497 47.9297C42.233 47.1016 43.0107 46.2415 43.6804 45.3486L42.4309 44.4114ZM40.2912 46.7813C39.4465 47.5468 38.5481 48.3264 37.5957 49.1201L38.5956 50.3199C39.5632 49.5136 40.4781 48.7198 41.34 47.9387L40.2912 46.7813ZM37.5993 49.1171L31.7193 53.9571L32.7119 55.1629L38.5919 50.3229L37.5993 49.1171ZM32.2156 55.3409H45.8556V53.7791H32.2156V55.3409ZM45.0747 54.56V59H46.6366V54.56H45.0747ZM55.36 58.52L55.005 59.2157L55.0165 59.2213L55.36 58.52ZM52.12 55.68L52.7611 55.234L52.12 55.68ZM50.2 51.16L49.4379 51.3306L49.4404 51.3414L50.2 51.16ZM50.2 38.96L49.4398 38.7811L49.4379 38.7894L50.2 38.96ZM52.12 34.4L52.7611 34.846L52.12 34.4ZM55.36 31.6L55.7036 32.3014L55.7149 32.2956L55.36 31.6ZM67.84 34.4L67.1892 34.8316L67.1923 34.8363L67.84 34.4ZM67.84 55.68L67.1923 55.2437L67.1892 55.2484L67.84 55.68ZM63.72 53.04L63.0298 52.6746L63.0271 52.6797L63.72 53.04ZM63.72 37.08L63.0243 37.4347L63.0285 37.4429L63.0329 37.4511L63.72 37.08ZM56.24 37.08L55.5498 36.7146L55.5471 36.7197L56.24 37.08ZM56.24 53.04L55.5443 53.3947L55.5485 53.4029L55.5529 53.4111L56.24 53.04ZM60 58.6991C58.3058 58.6991 56.8816 58.3957 55.7035 57.8187L55.0165 59.2213C56.4517 59.9243 58.1209 60.2609 60 60.2609V58.6991ZM55.7149 57.8244C54.5249 57.2172 53.5424 56.3573 52.7611 55.234L51.4789 56.126C52.4042 57.4561 53.5817 58.4894 55.0051 59.2156L55.7149 57.8244ZM52.7611 55.234C51.9746 54.1034 51.3686 52.6915 50.9596 50.9786L49.4404 51.3414C49.8847 53.2018 50.5588 54.8032 51.4789 56.126L52.7611 55.234ZM50.9621 50.9894C50.5773 49.2707 50.3809 47.2897 50.3809 45.04H48.8191C48.8191 47.377 49.0227 49.476 49.4379 51.3306L50.9621 50.9894ZM50.3809 45.04C50.3809 42.8178 50.5771 40.8499 50.9621 39.1306L49.4379 38.7894C49.0229 40.6434 48.8191 42.7289 48.8191 45.04H50.3809ZM50.9602 39.1389C51.3697 37.3985 51.9759 35.9747 52.7611 34.846L51.4789 33.954C50.5575 35.2787 49.8837 36.8948 49.4398 38.7811L50.9602 39.1389ZM52.7611 34.846C53.5407 33.7253 54.5194 32.8813 55.7035 32.3013L55.0165 30.8987C53.5872 31.5987 52.406 32.6214 51.4789 33.954L52.7611 34.846ZM55.7149 32.2956C56.8903 31.696 58.3102 31.3809 60 31.3809V29.8191C58.1165 29.8191 56.4431 30.1707 55.0051 30.9044L55.7149 32.2956ZM60 31.3809C63.3355 31.3809 65.6798 32.5555 67.1892 34.8316L68.4908 33.9684C66.6402 31.1778 63.7578 29.8191 60 29.8191V31.3809ZM67.1923 34.8363C68.7791 37.1917 69.6191 40.5634 69.6191 45.04H71.1809C71.1809 40.3966 70.3142 36.675 68.4877 33.9637L67.1923 34.8363ZM69.6191 45.04C69.6191 49.5166 68.7791 52.8883 67.1923 55.2437L68.4877 56.1163C70.3142 53.405 71.1809 49.6834 71.1809 45.04H69.6191ZM67.1892 55.2484C65.6798 57.5245 63.3355 58.6991 60 58.6991V60.2609C63.7578 60.2609 66.6402 58.9022 68.4908 56.1116L67.1892 55.2484ZM60 55.8209C62.0115 55.8209 63.557 55.0462 64.4129 53.4003L63.0271 52.6797C62.4964 53.7005 61.5618 54.2591 60 54.2591V55.8209ZM64.4102 53.4054C65.2119 51.8911 65.5809 49.9231 65.5809 47.56H64.0191C64.0191 49.7835 63.6681 51.4689 63.0298 52.6746L64.4102 53.4054ZM65.5809 47.56V42.52H64.0191V47.56H65.5809ZM65.5809 42.52C65.5809 40.1581 65.2123 38.2 64.4071 36.7089L63.0329 37.4511C63.6677 38.6266 64.0191 40.2952 64.0191 42.52H65.5809ZM64.4157 36.7253C64.0038 35.9173 63.414 35.2867 62.6455 34.8653C61.884 34.4477 60.9907 34.2591 60 34.2591V35.8209C60.796 35.8209 61.416 35.9723 61.8945 36.2347C62.366 36.4933 62.7429 36.8827 63.0243 37.4347L64.4157 36.7253ZM60 34.2591C57.9806 34.2591 56.4297 35.0526 55.5498 36.7146L56.9302 37.4454C57.4903 36.3874 58.4461 35.8209 60 35.8209V34.2591ZM55.5471 36.7197C54.7734 38.2076 54.4191 40.1614 54.4191 42.52H55.9809C55.9809 40.2919 56.3199 38.619 56.9329 37.4403L55.5471 36.7197ZM54.4191 42.52V47.56H55.9809V42.52H54.4191ZM54.4191 47.56C54.4191 49.9199 54.7739 51.8835 55.5443 53.3947L56.9357 52.6853C56.3195 51.4765 55.9809 49.7868 55.9809 47.56H54.4191ZM55.5529 53.4111C56.4363 55.047 57.9882 55.8209 60 55.8209V54.2591C58.4385 54.2591 57.4837 53.6997 56.9271 52.6689L55.5529 53.4111Z" fill="#3F2436"/>
<path d="M45.8556 59V59.7809H46.6366V59H45.8556ZM26.4956 59H25.7147V59.7809H26.4956V59ZM26.4956 54.12L25.9808 53.5328L25.7147 53.7661V54.12H26.4956ZM35.2556 46.44L34.7414 45.8523L34.7408 45.8528L35.2556 46.44ZM38.5356 42.92L39.1854 43.3532L39.1904 43.3456L38.5356 42.92ZM38.3756 36.16L37.8757 36.7599L37.8817 36.7649L37.8878 36.7698L38.3756 36.16ZM32.1756 36.4L32.7466 36.9329L32.7552 36.9234L32.1756 36.4ZM30.5756 39.32L30.2944 40.0485L31.0967 40.3582L31.3278 39.5299L30.5756 39.32ZM26.0156 37.56L25.2706 37.3259L25.051 38.0248L25.7344 38.2885L26.0156 37.56ZM27.2556 34.92L27.9119 35.3434L27.9178 35.3339L27.2556 34.92ZM29.2556 32.68L28.7775 32.0624L28.7678 32.0702L29.2556 32.68ZM39.8156 31.24L39.5433 31.9719L39.5508 31.9747L39.5584 31.9774L39.8156 31.24ZM42.6956 32.96L42.1531 33.5219L42.1628 33.5309L42.6956 32.96ZM44.4956 35.6L43.7692 35.8867L43.7725 35.8949L43.7759 35.903L44.4956 35.6ZM43.0556 44.88L43.6804 45.3486L43.6872 45.3393L43.0556 44.88ZM40.8156 47.36L41.3401 47.9387L41.3497 47.9297L40.8156 47.36ZM38.0956 49.72L38.5919 50.323L38.5956 50.3199L38.0956 49.72ZM32.2156 54.56L31.7193 53.9571L30.0381 55.3409H32.2156V54.56ZM45.8556 54.56H46.6366V53.7791H45.8556V54.56ZM45.8556 58.2191H26.4956V59.7809H45.8556V58.2191ZM27.2766 59V54.12H25.7147V59H27.2766ZM27.0104 54.7072L35.7704 47.0272L34.7408 45.8528L25.9808 53.5328L27.0104 54.7072ZM35.7699 47.0277C37.2885 45.6989 38.4383 44.4738 39.1854 43.3532L37.8859 42.4868C37.2463 43.4462 36.2094 44.5677 34.7414 45.8523L35.7699 47.0277ZM39.1904 43.3456C39.9628 42.1572 40.3566 40.8636 40.3566 39.48H38.7947C38.7947 40.5498 38.4951 41.5494 37.8809 42.4944L39.1904 43.3456ZM40.3566 39.48V38.96H38.7947V39.48H40.3566ZM40.3566 38.96C40.3566 37.5482 39.8859 36.3681 38.8635 35.5502L37.8878 36.7698C38.4654 37.2319 38.7947 37.9185 38.7947 38.96H40.3566ZM38.8756 35.5601C37.9208 34.7644 36.7652 34.3791 35.4556 34.3791V35.9409C36.4394 35.9409 37.2305 36.2223 37.8757 36.7599L38.8756 35.5601ZM35.4556 34.3791C33.8634 34.3791 32.5313 34.8411 31.5961 35.8766L32.7552 36.9234C33.3133 36.3055 34.1679 35.9409 35.4556 35.9409V34.3791ZM31.6047 35.8672C30.7653 36.7666 30.1741 37.8536 29.8234 39.1101L31.3278 39.5299C31.6172 38.493 32.0927 37.6334 32.7465 36.9328L31.6047 35.8672ZM30.8568 38.5915L26.2968 36.8315L25.7344 38.2885L30.2944 40.0485L30.8568 38.5915ZM26.7606 37.7941C27.0329 36.9279 27.4162 36.1115 27.9118 35.3434L26.5994 34.4966C26.0284 35.3818 25.5851 36.3254 25.2706 37.3259L26.7606 37.7941ZM27.9178 35.3339C28.4037 34.5566 29.011 33.8758 29.7435 33.2898L28.7678 32.0702C27.9003 32.7642 27.1743 33.5767 26.5934 34.5061L27.9178 35.3339ZM29.7337 33.2975C30.4856 32.7154 31.3676 32.2475 32.388 31.899L31.8833 30.421C30.717 30.8192 29.679 31.3646 28.7776 32.0625L29.7337 33.2975ZM32.388 31.899C33.3842 31.5588 34.5497 31.3809 35.8956 31.3809V29.8191C34.4149 29.8191 33.0737 30.0145 31.8833 30.421L32.388 31.899ZM35.8956 31.3809C37.2873 31.3809 38.4992 31.5834 39.5433 31.9719L40.088 30.5081C38.8388 30.0433 37.4373 29.8191 35.8956 29.8191V31.3809ZM39.5584 31.9774C40.6123 32.345 41.4711 32.8632 42.1532 33.5218L43.2381 32.3982C42.3735 31.5635 41.3123 30.935 40.0728 30.5026L39.5584 31.9774ZM42.1628 33.5309C42.8784 34.1988 43.412 34.9818 43.7692 35.8867L45.222 35.3133C44.7792 34.1915 44.1129 33.2146 43.2285 32.3891L42.1628 33.5309ZM43.7759 35.903C44.1586 36.812 44.3547 37.8145 44.3547 38.92H45.9166C45.9166 37.6255 45.686 36.4147 45.2154 35.297L43.7759 35.903ZM44.3547 38.92C44.3547 40.0099 44.1815 40.9788 43.8478 41.837L45.3035 42.403C45.7164 41.3411 45.9166 40.1768 45.9166 38.92H44.3547ZM43.8478 41.837C43.5002 42.7309 43.0267 43.592 42.4241 44.4207L43.6872 45.3393C44.3645 44.408 44.9044 43.4291 45.3035 42.403L43.8478 41.837ZM42.4309 44.4114C41.8206 45.2252 41.1049 46.0184 40.2815 46.7903L41.3497 47.9297C42.233 47.1016 43.0107 46.2415 43.6804 45.3486L42.4309 44.4114ZM40.2912 46.7813C39.4465 47.5468 38.5481 48.3264 37.5957 49.1201L38.5956 50.3199C39.5632 49.5136 40.4781 48.7198 41.34 47.9387L40.2912 46.7813ZM37.5993 49.1171L31.7193 53.9571L32.7119 55.1629L38.5919 50.3229L37.5993 49.1171ZM32.2156 55.3409H45.8556V53.7791H32.2156V55.3409ZM45.0747 54.56V59H46.6366V54.56H45.0747ZM55.36 58.52L55.005 59.2157L55.0165 59.2213L55.36 58.52ZM52.12 55.68L52.7611 55.234L52.12 55.68ZM50.2 51.16L49.4379 51.3306L49.4404 51.3414L50.2 51.16ZM50.2 38.96L49.4398 38.7811L49.4379 38.7894L50.2 38.96ZM52.12 34.4L52.7611 34.846L52.12 34.4ZM55.36 31.6L55.7036 32.3014L55.7149 32.2956L55.36 31.6ZM67.84 34.4L67.1892 34.8316L67.1923 34.8363L67.84 34.4ZM67.84 55.68L67.1923 55.2437L67.1892 55.2484L67.84 55.68ZM63.72 53.04L63.0298 52.6746L63.0271 52.6797L63.72 53.04ZM63.72 37.08L63.0243 37.4347L63.0285 37.4429L63.0329 37.4511L63.72 37.08ZM56.24 37.08L55.5498 36.7146L55.5471 36.7197L56.24 37.08ZM56.24 53.04L55.5443 53.3947L55.5485 53.4029L55.5529 53.4111L56.24 53.04ZM60 58.6991C58.3058 58.6991 56.8816 58.3957 55.7035 57.8187L55.0165 59.2213C56.4517 59.9243 58.1209 60.2609 60 60.2609V58.6991ZM55.7149 57.8244C54.5249 57.2172 53.5424 56.3573 52.7611 55.234L51.4789 56.126C52.4042 57.4561 53.5817 58.4894 55.0051 59.2156L55.7149 57.8244ZM52.7611 55.234C51.9746 54.1034 51.3686 52.6915 50.9596 50.9786L49.4404 51.3414C49.8847 53.2018 50.5588 54.8032 51.4789 56.126L52.7611 55.234ZM50.9621 50.9894C50.5773 49.2707 50.3809 47.2897 50.3809 45.04H48.8191C48.8191 47.377 49.0227 49.476 49.4379 51.3306L50.9621 50.9894ZM50.3809 45.04C50.3809 42.8178 50.5771 40.8499 50.9621 39.1306L49.4379 38.7894C49.0229 40.6434 48.8191 42.7289 48.8191 45.04H50.3809ZM50.9602 39.1389C51.3697 37.3985 51.9759 35.9747 52.7611 34.846L51.4789 33.954C50.5575 35.2787 49.8837 36.8948 49.4398 38.7811L50.9602 39.1389ZM52.7611 34.846C53.5407 33.7253 54.5194 32.8813 55.7035 32.3013L55.0165 30.8987C53.5872 31.5987 52.406 32.6214 51.4789 33.954L52.7611 34.846ZM55.7149 32.2956C56.8903 31.696 58.3102 31.3809 60 31.3809V29.8191C58.1165 29.8191 56.4431 30.1707 55.0051 30.9044L55.7149 32.2956ZM60 31.3809C63.3355 31.3809 65.6798 32.5555 67.1892 34.8316L68.4908 33.9684C66.6402 31.1778 63.7578 29.8191 60 29.8191V31.3809ZM67.1923 34.8363C68.7791 37.1917 69.6191 40.5634 69.6191 45.04H71.1809C71.1809 40.3966 70.3142 36.675 68.4877 33.9637L67.1923 34.8363ZM69.6191 45.04C69.6191 49.5166 68.7791 52.8883 67.1923 55.2437L68.4877 56.1163C70.3142 53.405 71.1809 49.6834 71.1809 45.04H69.6191ZM67.1892 55.2484C65.6798 57.5245 63.3355 58.6991 60 58.6991V60.2609C63.7578 60.2609 66.6402 58.9022 68.4908 56.1116L67.1892 55.2484ZM60 55.8209C62.0115 55.8209 63.557 55.0462 64.4129 53.4003L63.0271 52.6797C62.4964 53.7005 61.5618 54.2591 60 54.2591V55.8209ZM64.4102 53.4054C65.2119 51.8911 65.5809 49.9231 65.5809 47.56H64.0191C64.0191 49.7835 63.6681 51.4689 63.0298 52.6746L64.4102 53.4054ZM65.5809 47.56V42.52H64.0191V47.56H65.5809ZM65.5809 42.52C65.5809 40.1581 65.2123 38.2 64.4071 36.7089L63.0329 37.4511C63.6677 38.6266 64.0191 40.2952 64.0191 42.52H65.5809ZM64.4157 36.7253C64.0038 35.9173 63.414 35.2867 62.6455 34.8653C61.884 34.4477 60.9907 34.2591 60 34.2591V35.8209C60.796 35.8209 61.416 35.9723 61.8945 36.2347C62.366 36.4933 62.7429 36.8827 63.0243 37.4347L64.4157 36.7253ZM60 34.2591C57.9806 34.2591 56.4297 35.0526 55.5498 36.7146L56.9302 37.4454C57.4903 36.3874 58.4461 35.8209 60 35.8209V34.2591ZM55.5471 36.7197C54.7734 38.2076 54.4191 40.1614 54.4191 42.52H55.9809C55.9809 40.2919 56.3199 38.619 56.9329 37.4403L55.5471 36.7197ZM54.4191 42.52V47.56H55.9809V42.52H54.4191ZM54.4191 47.56C54.4191 49.9199 54.7739 51.8835 55.5443 53.3947L56.9357 52.6853C56.3195 51.4765 55.9809 49.7868 55.9809 47.56H54.4191ZM55.5529 53.4111C56.4363 55.047 57.9882 55.8209 60 55.8209V54.2591C58.4385 54.2591 57.4837 53.6997 56.9271 52.6689L55.5529 53.4111Z" fill="#D26211"/>
</g>
<rect x="111" y="13" width="218" height="92" rx="7" fill="white" stroke="#53978F" stroke-width="2"/>
<g filter="url(#filter4_i_71_107291)">
<path d="M110 20C110 15.5817 113.582 12 118 12H322C326.418 12 330 15.5817 330 20V35H110V20Z" fill="#53978F"/>
</g>
<path d="M111 20C111 16.134 114.134 13 118 13H322C325.866 13 329 16.134 329 20V34H111V20Z" stroke="#53978F" stroke-width="2"/>
<path d="M193.115 29C192.583 29 192.191 28.8647 191.939 28.594C191.687 28.3233 191.561 27.9453 191.561 27.46V21.314H193.087V27.754H194.179V29H193.115ZM189.363 29C188.831 29 188.439 28.8647 188.187 28.594C187.935 28.3233 187.809 27.9453 187.809 27.46V21.314H189.335V27.754H190.427V29H189.363ZM197.915 29.14C197.159 29.14 196.553 28.9533 196.095 28.58C195.647 28.2067 195.423 27.642 195.423 26.886C195.423 26.1673 195.638 25.612 196.067 25.22C196.506 24.828 197.122 24.632 197.915 24.632H200.295V24.044C200.295 23.5027 200.146 23.092 199.847 22.812C199.558 22.532 199.105 22.392 198.489 22.392C197.939 22.392 197.486 22.5087 197.131 22.742C196.786 22.9753 196.501 23.2693 196.277 23.624L195.297 22.77C195.596 22.294 196.002 21.9067 196.515 21.608C197.038 21.3 197.729 21.146 198.587 21.146C199.642 21.146 200.445 21.3933 200.995 21.888C201.546 22.3733 201.821 23.0733 201.821 23.988V29H200.295V25.654H198.377C197.929 25.654 197.584 25.7473 197.341 25.934C197.108 26.1207 196.991 26.3913 196.991 26.746V27.026C196.991 27.3807 197.099 27.6607 197.313 27.866C197.528 28.0713 197.822 28.174 198.195 28.174C198.382 28.174 198.531 28.16 198.643 28.132L198.769 29.056C198.685 29.0747 198.555 29.0933 198.377 29.112C198.2 29.1307 198.046 29.14 197.915 29.14ZM204.62 24.758L203.416 24.254C203.453 23.7967 203.565 23.3767 203.752 22.994C203.948 22.6113 204.204 22.2847 204.522 22.014C204.839 21.734 205.212 21.5193 205.642 21.37C206.071 21.2207 206.538 21.146 207.042 21.146C208.152 21.146 209.016 21.4307 209.632 22C210.248 22.56 210.556 23.3207 210.556 24.282V29H209.03V24.478C209.03 23.806 208.848 23.2927 208.484 22.938C208.12 22.574 207.62 22.392 206.986 22.392C206.472 22.392 206.02 22.5087 205.628 22.742C205.245 22.966 204.984 23.2693 204.844 23.652L205.446 23.89C205.707 23.9927 205.889 24.114 205.992 24.254C206.094 24.3847 206.146 24.5807 206.146 24.842V29H204.62V24.758ZM214.882 29.14C214.126 29.14 213.519 28.9533 213.062 28.58C212.614 28.2067 212.39 27.642 212.39 26.886C212.39 26.1673 212.605 25.612 213.034 25.22C213.473 24.828 214.089 24.632 214.882 24.632H217.262V24.044C217.262 23.5027 217.113 23.092 216.814 22.812C216.525 22.532 216.072 22.392 215.456 22.392C214.905 22.392 214.453 22.5087 214.098 22.742C213.753 22.9753 213.468 23.2693 213.244 23.624L212.264 22.77C212.563 22.294 212.969 21.9067 213.482 21.608C214.005 21.3 214.695 21.146 215.554 21.146C216.441 21.146 217.145 21.3187 217.668 21.664C217.752 21.16 218.069 20.908 218.62 20.908H220.342V22.238H218.256V22.266C218.611 22.7233 218.788 23.2973 218.788 23.988V29H217.262V25.654H215.344C214.896 25.654 214.551 25.7473 214.308 25.934C214.075 26.1207 213.958 26.3913 213.958 26.746V27.026C213.958 27.3807 214.065 27.6607 214.28 27.866C214.495 28.0713 214.789 28.174 215.162 28.174C215.349 28.174 215.498 28.16 215.61 28.132L215.736 29.056C215.652 29.0747 215.521 29.0933 215.344 29.112C215.167 29.1307 215.013 29.14 214.882 29.14ZM217.313 17.226H218.741V19.942H217.313V17.226ZM223.813 29.168C223.421 29.168 223.048 29.1213 222.693 29.028C222.338 28.9347 222.026 28.7947 221.755 28.608L222.329 27.516C222.516 27.628 222.721 27.726 222.945 27.81C223.178 27.8847 223.444 27.922 223.743 27.922C224.303 27.922 224.732 27.7353 225.031 27.362C225.339 26.9793 225.493 26.4567 225.493 25.794V24.52C225.493 23.8667 225.344 23.3487 225.045 22.966C224.756 22.5833 224.326 22.392 223.757 22.392C223.3 22.392 222.926 22.4993 222.637 22.714C222.348 22.9193 222.138 23.1993 222.007 23.554L220.761 22.966C220.994 22.406 221.368 21.9627 221.881 21.636C222.394 21.3093 223.038 21.146 223.813 21.146C224.345 21.146 224.816 21.2393 225.227 21.426C225.638 21.6127 225.983 21.8787 226.263 22.224C226.543 22.5693 226.753 22.9893 226.893 23.484C227.042 23.9787 227.117 24.534 227.117 25.15C227.117 25.766 227.042 26.326 226.893 26.83C226.744 27.3247 226.529 27.7447 226.249 28.09C225.969 28.4353 225.624 28.7013 225.213 28.888C224.802 29.0747 224.336 29.168 223.813 29.168ZM231.376 29.168C230.573 29.168 229.953 28.9113 229.514 28.398C229.075 27.8753 228.856 27.138 228.856 26.186V21.314H230.382V26.018C230.382 26.6153 230.503 27.0727 230.746 27.39C230.998 27.698 231.399 27.852 231.95 27.852C232.155 27.852 232.361 27.8287 232.566 27.782C232.771 27.726 232.953 27.642 233.112 27.53C233.28 27.418 233.411 27.278 233.504 27.11C233.607 26.9327 233.658 26.7273 233.658 26.494V21.314H235.184V27.754H235.996V29H234.988C234.596 29 234.302 28.888 234.106 28.664C233.91 28.4307 233.803 28.1087 233.784 27.698H233.714C233.555 28.1273 233.28 28.482 232.888 28.762C232.505 29.0327 232.001 29.168 231.376 29.168ZM239.779 29.14C239.023 29.14 238.416 28.9533 237.959 28.58C237.511 28.2067 237.287 27.642 237.287 26.886C237.287 26.1673 237.501 25.612 237.931 25.22C238.369 24.828 238.985 24.632 239.779 24.632H242.159V24.044C242.159 23.5027 242.009 23.092 241.711 22.812C241.421 22.532 240.969 22.392 240.353 22.392C239.802 22.392 239.349 22.5087 238.995 22.742C238.649 22.9753 238.365 23.2693 238.141 23.624L237.161 22.77C237.459 22.294 237.865 21.9067 238.379 21.608C238.901 21.3 239.592 21.146 240.451 21.146C241.505 21.146 242.308 21.3933 242.859 21.888C243.409 22.3733 243.685 23.0733 243.685 23.988V29H242.159V25.654H240.241C239.793 25.654 239.447 25.7473 239.205 25.934C238.971 26.1207 238.855 26.3913 238.855 26.746V27.026C238.855 27.3807 238.962 27.6607 239.177 27.866C239.391 28.0713 239.685 28.174 240.059 28.174C240.245 28.174 240.395 28.16 240.507 28.132L240.633 29.056C240.549 29.0747 240.418 29.0933 240.241 29.112C240.063 29.1307 239.909 29.14 239.779 29.14ZM248.779 29.168C247.715 29.168 246.889 28.8133 246.301 28.104C245.713 27.3853 245.419 26.4007 245.419 25.15C245.419 24.5433 245.503 23.9927 245.671 23.498C245.848 23.0033 246.096 22.5833 246.413 22.238C246.74 21.8833 247.132 21.6127 247.589 21.426C248.046 21.2393 248.56 21.146 249.129 21.146C249.652 21.146 250.128 21.2253 250.557 21.384C250.986 21.5333 251.35 21.748 251.649 22.028C251.957 22.308 252.19 22.6487 252.349 23.05C252.517 23.442 252.601 23.8807 252.601 24.366V29H251.075V24.492C251.075 23.8293 250.898 23.316 250.543 22.952C250.188 22.5787 249.703 22.392 249.087 22.392C248.443 22.392 247.939 22.5927 247.575 22.994C247.22 23.3953 247.043 23.9413 247.043 24.632V25.654C247.043 26.3913 247.202 26.956 247.519 27.348C247.846 27.7307 248.34 27.922 249.003 27.922C249.208 27.922 249.4 27.9033 249.577 27.866L249.759 29.07C249.619 29.1073 249.451 29.1307 249.255 29.14C249.068 29.1587 248.91 29.168 248.779 29.168Z" fill="white"/>
<path d="M121.304 91.408L120.696 90.984L121.544 89.928L120.272 89.56L120.504 88.864L121.728 89.344L121.672 88.024H122.432L122.376 89.344L123.6 88.864L123.84 89.56L122.56 89.928L123.408 90.984L122.8 91.408L122.048 90.288L121.304 91.408ZM125.813 94C125.509 94 125.285 93.9227 125.141 93.768C124.997 93.6133 124.925 93.3973 124.925 93.12V89.608H125.797V93.288H126.421V94H125.813ZM129.488 94.096C129.301 94.096 129.136 94.072 128.992 94.024C128.853 93.9813 128.733 93.9227 128.632 93.848C128.531 93.768 128.445 93.68 128.376 93.584C128.307 93.4827 128.253 93.3787 128.216 93.272H128.176V94H127.304V89.608H128.176V92.568C128.176 92.7013 128.205 92.8187 128.264 92.92C128.323 93.016 128.397 93.096 128.488 93.16C128.579 93.224 128.683 93.272 128.8 93.304C128.917 93.3307 129.037 93.344 129.16 93.344C129.496 93.344 129.733 93.2533 129.872 93.072C130.016 92.8853 130.088 92.6267 130.088 92.296V89.608H130.96V92.392C130.96 92.9413 130.832 93.3627 130.576 93.656C130.32 93.9493 129.957 94.096 129.488 94.096ZM127.505 88.136H128.921V87.504H129.641V88.2H130.233V87.504H130.953V88.824H127.505V88.136ZM130.193 85.84H130.953V87.064H130.193V85.84ZM133.805 94.096C133.538 94.096 133.288 94.0587 133.053 93.984C132.824 93.904 132.624 93.7973 132.453 93.664C132.288 93.5253 132.157 93.36 132.061 93.168C131.965 92.976 131.917 92.7627 131.917 92.528V92.128C131.917 91.9413 131.96 91.7973 132.045 91.696C132.13 91.5893 132.285 91.536 132.509 91.536H133.405V92.224H132.741V92.464C132.741 92.784 132.84 93.0187 133.037 93.168C133.24 93.312 133.509 93.384 133.845 93.384C134.192 93.384 134.458 93.2773 134.645 93.064C134.837 92.8507 134.933 92.5493 134.933 92.16V91.472C134.933 91.0773 134.826 90.7707 134.613 90.552C134.405 90.3333 134.109 90.224 133.725 90.224C133.405 90.224 133.13 90.2907 132.901 90.424C132.677 90.5573 132.506 90.7173 132.389 90.904L131.845 90.416C132 90.16 132.237 89.9467 132.557 89.776C132.877 89.6 133.28 89.512 133.765 89.512C134.426 89.512 134.941 89.7147 135.309 90.12C135.677 90.52 135.861 91.08 135.861 91.8C135.861 92.152 135.816 92.472 135.725 92.76C135.634 93.0427 135.501 93.2827 135.325 93.48C135.149 93.6773 134.933 93.8293 134.677 93.936C134.421 94.0427 134.13 94.096 133.805 94.096ZM140.114 94C139.81 94 139.586 93.9227 139.442 93.768C139.298 93.6133 139.226 93.3973 139.226 93.12V89.608H140.098V93.288H140.722V94H140.114ZM137.97 94C137.666 94 137.442 93.9227 137.298 93.768C137.154 93.6133 137.082 93.3973 137.082 93.12V89.608H137.954V93.288H138.578V94H137.97ZM142.857 94.08C142.425 94.08 142.078 93.9733 141.817 93.76C141.561 93.5467 141.433 93.224 141.433 92.792C141.433 92.3813 141.555 92.064 141.801 91.84C142.051 91.616 142.403 91.504 142.857 91.504H144.217V91.168C144.217 90.8587 144.131 90.624 143.961 90.464C143.795 90.304 143.537 90.224 143.185 90.224C142.87 90.224 142.611 90.2907 142.409 90.424C142.211 90.5573 142.049 90.7253 141.921 90.928L141.361 90.44C141.531 90.168 141.763 89.9467 142.057 89.776C142.355 89.6 142.75 89.512 143.241 89.512C143.843 89.512 144.302 89.6533 144.617 89.936C144.931 90.2133 145.089 90.6133 145.089 91.136V94H144.217V92.088H143.121C142.865 92.088 142.667 92.1413 142.529 92.248C142.395 92.3547 142.329 92.5093 142.329 92.712V92.872C142.329 93.0747 142.39 93.2347 142.513 93.352C142.635 93.4693 142.803 93.528 143.017 93.528C143.123 93.528 143.209 93.52 143.273 93.504L143.345 94.032C143.297 94.0427 143.222 94.0533 143.121 94.064C143.019 94.0747 142.931 94.08 142.857 94.08ZM146.688 91.576L146 91.288C146.021 91.0267 146.085 90.7867 146.192 90.568C146.304 90.3493 146.451 90.1627 146.632 90.008C146.813 89.848 147.027 89.7253 147.272 89.64C147.517 89.5547 147.784 89.512 148.072 89.512C148.707 89.512 149.2 89.6747 149.552 90C149.904 90.32 150.08 90.7547 150.08 91.304V94H149.208V91.416C149.208 91.032 149.104 90.7387 148.896 90.536C148.688 90.328 148.403 90.224 148.04 90.224C147.747 90.224 147.488 90.2907 147.264 90.424C147.045 90.552 146.896 90.7253 146.816 90.944L147.16 91.08C147.309 91.1387 147.413 91.208 147.472 91.288C147.531 91.3627 147.56 91.4747 147.56 91.624V94H146.688V91.576ZM154.512 94C154.208 94 153.984 93.9227 153.84 93.768C153.696 93.6133 153.624 93.3973 153.624 93.12V89.608H154.496V93.288H155.12V94H154.512ZM152.368 94C152.064 94 151.84 93.9227 151.696 93.768C151.552 93.6133 151.48 93.3973 151.48 93.12V89.608H152.352V93.288H152.976V94H152.368ZM157.255 94.08C156.823 94.08 156.477 93.9733 156.215 93.76C155.959 93.5467 155.831 93.224 155.831 92.792C155.831 92.3813 155.954 92.064 156.199 91.84C156.45 91.616 156.802 91.504 157.255 91.504H158.615V91.168C158.615 90.8587 158.53 90.624 158.359 90.464C158.194 90.304 157.935 90.224 157.583 90.224C157.269 90.224 157.01 90.2907 156.807 90.424C156.61 90.5573 156.447 90.7253 156.319 90.928L155.759 90.44C155.93 90.168 156.162 89.9467 156.455 89.776C156.754 89.6 157.149 89.512 157.639 89.512C158.242 89.512 158.701 89.6533 159.015 89.936C159.33 90.2133 159.487 90.6133 159.487 91.136V94H158.615V92.088H157.519C157.263 92.088 157.066 92.1413 156.927 92.248C156.794 92.3547 156.727 92.5093 156.727 92.712V92.872C156.727 93.0747 156.789 93.2347 156.911 93.352C157.034 93.4693 157.202 93.528 157.415 93.528C157.522 93.528 157.607 93.52 157.671 93.504L157.743 94.032C157.695 94.0427 157.621 94.0533 157.519 94.064C157.418 94.0747 157.33 94.08 157.255 94.08ZM158.044 88.136H158.612V87.856C158.612 87.7387 158.588 87.656 158.54 87.608C158.487 87.5547 158.394 87.528 158.26 87.528H158.044V86.904H158.58C158.836 86.904 159.031 86.96 159.164 87.072C159.292 87.1787 159.356 87.3253 159.356 87.512C159.356 87.624 159.327 87.736 159.268 87.848C159.204 87.9547 159.111 88.0373 158.988 88.096V88.136H160.428V88.76H158.044V88.136ZM162.038 94.096C161.814 94.096 161.601 94.0693 161.398 94.016C161.196 93.9627 161.017 93.8827 160.862 93.776L161.19 93.152C161.297 93.216 161.414 93.272 161.542 93.32C161.676 93.3627 161.828 93.384 161.998 93.384C162.318 93.384 162.564 93.2773 162.734 93.064C162.91 92.8453 162.998 92.5467 162.998 92.168V91.44C162.998 91.0667 162.913 90.7707 162.742 90.552C162.577 90.3333 162.332 90.224 162.006 90.224C161.745 90.224 161.532 90.2853 161.366 90.408C161.201 90.5253 161.081 90.6853 161.006 90.888L160.294 90.552C160.428 90.232 160.641 89.9787 160.934 89.792C161.228 89.6053 161.596 89.512 162.038 89.512C162.342 89.512 162.612 89.5653 162.846 89.672C163.081 89.7787 163.278 89.9307 163.438 90.128C163.598 90.3253 163.718 90.5653 163.798 90.848C163.884 91.1307 163.926 91.448 163.926 91.8C163.926 92.152 163.884 92.472 163.798 92.76C163.713 93.0427 163.59 93.2827 163.43 93.48C163.27 93.6773 163.073 93.8293 162.838 93.936C162.604 94.0427 162.337 94.096 162.038 94.096ZM166.224 94.08C165.792 94.08 165.445 93.9733 165.184 93.76C164.928 93.5467 164.8 93.224 164.8 92.792C164.8 92.3813 164.923 92.064 165.168 91.84C165.419 91.616 165.771 91.504 166.224 91.504H167.584V91.168C167.584 90.8587 167.499 90.624 167.328 90.464C167.163 90.304 166.904 90.224 166.552 90.224C166.237 90.224 165.979 90.2907 165.776 90.424C165.579 90.5573 165.416 90.7253 165.288 90.928L164.728 90.44C164.899 90.168 165.131 89.9467 165.424 89.776C165.723 89.6 166.117 89.512 166.608 89.512C167.115 89.512 167.517 89.6107 167.816 89.808C167.864 89.52 168.045 89.376 168.36 89.376H169.344V90.136H168.152V90.152C168.355 90.4133 168.456 90.7413 168.456 91.136V94H167.584V92.088H166.488C166.232 92.088 166.035 92.1413 165.896 92.248C165.763 92.3547 165.696 92.5093 165.696 92.712V92.872C165.696 93.0747 165.757 93.2347 165.88 93.352C166.003 93.4693 166.171 93.528 166.384 93.528C166.491 93.528 166.576 93.52 166.64 93.504L166.712 94.032C166.664 94.0427 166.589 94.0533 166.488 94.064C166.387 94.0747 166.299 94.08 166.224 94.08ZM171.895 91.024C171.895 90.768 171.829 90.5707 171.695 90.432C171.562 90.2933 171.351 90.224 171.063 90.224C170.818 90.224 170.621 90.2773 170.471 90.384C170.322 90.4853 170.194 90.6187 170.087 90.784L169.559 90.32C169.703 90.08 169.898 89.8853 170.143 89.736C170.389 89.5867 170.714 89.512 171.119 89.512C171.653 89.512 172.061 89.6373 172.343 89.888C172.626 90.1387 172.767 90.4987 172.767 90.968V94H171.895V91.024ZM176.168 94.096C175.981 94.096 175.816 94.072 175.672 94.024C175.533 93.9813 175.413 93.9227 175.312 93.848C175.21 93.768 175.125 93.68 175.056 93.584C174.986 93.4827 174.933 93.3787 174.896 93.272H174.856V94H173.984V89.608H174.856V92.568C174.856 92.7013 174.885 92.8187 174.944 92.92C175.002 93.016 175.077 93.096 175.168 93.16C175.258 93.224 175.362 93.272 175.48 93.304C175.597 93.3307 175.717 93.344 175.84 93.344C176.176 93.344 176.413 93.2533 176.552 93.072C176.696 92.8853 176.768 92.6267 176.768 92.296V89.608H177.64V92.392C177.64 92.9413 177.512 93.3627 177.256 93.656C177 93.9493 176.637 94.096 176.168 94.096ZM180.755 91.024C180.755 90.768 180.688 90.5707 180.555 90.432C180.421 90.2933 180.211 90.224 179.923 90.224C179.677 90.224 179.48 90.2773 179.331 90.384C179.181 90.4853 179.053 90.6187 178.947 90.784L178.419 90.32C178.563 90.08 178.757 89.8853 179.003 89.736C179.248 89.5867 179.573 89.512 179.979 89.512C180.512 89.512 180.92 89.6373 181.203 89.888C181.485 90.1387 181.627 90.4987 181.627 90.968V94H180.755V91.024ZM184.403 94.096C183.992 94.096 183.643 94.0267 183.355 93.888C183.072 93.744 182.824 93.544 182.611 93.288L183.163 92.768C183.323 92.9707 183.51 93.1253 183.723 93.232C183.936 93.3387 184.179 93.392 184.451 93.392C184.739 93.392 184.952 93.3413 185.091 93.24C185.235 93.1333 185.307 92.984 185.307 92.792C185.307 92.6213 185.251 92.4907 185.139 92.4C185.032 92.304 184.862 92.24 184.627 92.208L184.219 92.152C184.022 92.1253 183.835 92.0827 183.659 92.024C183.483 91.9653 183.328 91.8853 183.195 91.784C183.067 91.6827 182.963 91.5573 182.883 91.408C182.808 91.2587 182.771 91.0747 182.771 90.856C182.771 90.6427 182.811 90.4533 182.891 90.288C182.971 90.1173 183.083 89.976 183.227 89.864C183.371 89.7467 183.542 89.6587 183.739 89.6C183.942 89.5413 184.163 89.512 184.403 89.512C184.803 89.512 185.131 89.5733 185.387 89.696C185.643 89.8133 185.87 89.9787 186.067 90.192L185.539 90.72C185.416 90.5813 185.259 90.464 185.067 90.368C184.875 90.272 184.654 90.224 184.403 90.224C184.142 90.224 183.944 90.2747 183.811 90.376C183.678 90.4773 183.611 90.616 183.611 90.792C183.611 90.9787 183.672 91.1173 183.795 91.208C183.918 91.2987 184.099 91.36 184.339 91.392L184.747 91.456C184.955 91.488 185.144 91.5333 185.315 91.592C185.491 91.6507 185.64 91.7307 185.763 91.832C185.886 91.928 185.979 92.048 186.043 92.192C186.112 92.336 186.147 92.5093 186.147 92.712C186.147 92.92 186.104 93.1093 186.019 93.28C185.939 93.4507 185.822 93.5973 185.667 93.72C185.518 93.8373 185.334 93.9307 185.115 94C184.902 94.064 184.664 94.096 184.403 94.096ZM188.459 94C188.155 94 187.928 93.9227 187.779 93.768C187.635 93.6133 187.563 93.3973 187.563 93.12V91.576L186.875 91.288C186.896 91.0267 186.96 90.7867 187.067 90.568C187.179 90.3493 187.326 90.1627 187.507 90.008C187.694 89.848 187.91 89.7253 188.155 89.64C188.4 89.5547 188.667 89.512 188.955 89.512C189.59 89.512 190.08 89.6747 190.427 90C190.779 90.32 190.955 90.7547 190.955 91.304V94H190.083V91.416C190.083 91.032 189.979 90.7387 189.771 90.536C189.568 90.328 189.286 90.224 188.923 90.224C188.624 90.224 188.363 90.2907 188.139 90.424C187.92 90.552 187.771 90.7253 187.691 90.944L188.035 91.08C188.184 91.1387 188.288 91.208 188.347 91.288C188.406 91.3627 188.435 91.4747 188.435 91.624V93.288H188.899V94H188.459ZM193.251 94C192.947 94 192.72 93.9227 192.571 93.768C192.427 93.6133 192.355 93.3973 192.355 93.12V89.88C192.355 89.752 192.374 89.6373 192.411 89.536C192.448 89.4347 192.496 89.344 192.555 89.264C192.614 89.1787 192.678 89.1013 192.747 89.032C192.822 88.9573 192.894 88.8853 192.963 88.816C193.064 88.72 193.15 88.6187 193.219 88.512C193.294 88.4053 193.331 88.28 193.331 88.136C193.331 87.9493 193.275 87.808 193.163 87.712C193.056 87.616 192.915 87.568 192.739 87.568C192.542 87.568 192.379 87.6267 192.251 87.744C192.128 87.856 192.035 88.0213 191.971 88.24L191.315 87.872C191.422 87.5787 191.595 87.3387 191.835 87.152C192.075 86.96 192.406 86.864 192.827 86.864C193.243 86.864 193.571 86.9733 193.811 87.192C194.051 87.4053 194.171 87.688 194.171 88.04C194.171 88.2747 194.118 88.4693 194.011 88.624C193.91 88.7787 193.798 88.9227 193.675 89.056C193.563 89.1787 193.459 89.3013 193.363 89.424C193.272 89.5467 193.227 89.688 193.227 89.848V93.288H193.851V94H193.251ZM196.366 94.096C196.099 94.096 195.856 94.064 195.638 94C195.424 93.936 195.24 93.84 195.086 93.712C194.931 93.584 194.811 93.4213 194.726 93.224C194.64 93.0267 194.598 92.7947 194.598 92.528C194.598 92.224 194.638 91.984 194.718 91.808C194.803 91.6267 194.899 91.464 195.006 91.32C195.107 91.1867 195.19 91.0507 195.254 90.912C195.318 90.7733 195.35 90.632 195.35 90.488V90.336H194.542V89.608H195.454C195.694 89.608 195.878 89.6667 196.006 89.784C196.139 89.896 196.206 90.0507 196.206 90.248V90.304C196.206 90.48 196.174 90.6507 196.11 90.816C196.051 90.976 195.96 91.1627 195.838 91.376C195.742 91.5467 195.664 91.704 195.606 91.848C195.552 91.9867 195.526 92.1493 195.526 92.336V92.568C195.526 92.8347 195.598 93.0373 195.742 93.176C195.891 93.3147 196.094 93.384 196.35 93.384C196.606 93.384 196.806 93.3147 196.95 93.176C197.099 93.0373 197.174 92.8347 197.174 92.568V91.952C197.174 91.7067 197.131 91.5173 197.046 91.384C196.966 91.2507 196.832 91.184 196.646 91.184H196.494V90.52H196.686C196.846 90.52 196.976 90.4747 197.078 90.384C197.179 90.288 197.23 90.1333 197.23 89.92V89.448H198.086V89.856C198.086 90.096 198.014 90.2987 197.87 90.464C197.731 90.624 197.531 90.7253 197.27 90.768V90.816C197.542 90.9013 197.747 91.0693 197.886 91.32C198.03 91.5653 198.102 91.888 198.102 92.288C198.102 92.848 197.958 93.2907 197.67 93.616C197.387 93.936 196.952 94.096 196.366 94.096ZM196.646 88.136H197.214V87.856C197.214 87.7387 197.19 87.656 197.142 87.608C197.089 87.5547 196.995 87.528 196.862 87.528H196.646V86.904H197.182C197.438 86.904 197.633 86.96 197.766 87.072C197.894 87.1787 197.958 87.3253 197.958 87.512C197.958 87.624 197.929 87.736 197.87 87.848C197.806 87.9547 197.713 88.0373 197.59 88.096V88.136H199.03V88.76H196.646V88.136ZM201.087 94C200.783 94 200.556 93.9227 200.407 93.768C200.263 93.6133 200.191 93.3973 200.191 93.12V88.768C200.191 88.608 200.212 88.4667 200.255 88.344C200.298 88.2213 200.354 88.1173 200.423 88.032C200.492 87.9413 200.572 87.8667 200.663 87.808C200.759 87.7493 200.858 87.704 200.959 87.672V87.64H199.223V86.944H201.895V87.64H201.799C201.564 87.64 201.383 87.7093 201.255 87.848C201.127 87.9813 201.063 88.1733 201.063 88.424V93.288H201.687V94H201.087ZM204.266 94.096C203.658 94.096 203.186 93.8933 202.85 93.488C202.514 93.0773 202.346 92.5147 202.346 91.8C202.346 91.4533 202.394 91.1387 202.49 90.856C202.591 90.5733 202.732 90.3333 202.914 90.136C203.1 89.9333 203.324 89.7787 203.586 89.672C203.847 89.5653 204.14 89.512 204.466 89.512C204.764 89.512 205.036 89.5573 205.282 89.648C205.527 89.7333 205.735 89.856 205.906 90.016C206.082 90.176 206.215 90.3707 206.306 90.6C206.402 90.824 206.45 91.0747 206.45 91.352V94H205.578V91.424C205.578 91.0453 205.476 90.752 205.274 90.544C205.071 90.3307 204.794 90.224 204.442 90.224C204.074 90.224 203.786 90.3387 203.578 90.568C203.375 90.7973 203.274 91.1093 203.274 91.504V92.088C203.274 92.5093 203.364 92.832 203.546 93.056C203.732 93.2747 204.015 93.384 204.394 93.384C204.511 93.384 204.62 93.3733 204.722 93.352L204.826 94.04C204.746 94.0613 204.65 94.0747 204.538 94.08C204.431 94.0907 204.34 94.096 204.266 94.096ZM205.013 88.136H205.581V87.856C205.581 87.7387 205.557 87.656 205.509 87.608C205.456 87.5547 205.362 87.528 205.229 87.528H205.013V86.904H205.549C205.805 86.904 206 86.96 206.133 87.072C206.261 87.1787 206.325 87.3253 206.325 87.512C206.325 87.624 206.296 87.736 206.237 87.848C206.173 87.9547 206.08 88.0373 205.957 88.096V88.136H207.397V88.76H205.013V88.136ZM207.647 93.288H208.111V91.576L207.423 91.288C207.439 91.0267 207.501 90.7867 207.607 90.568C207.719 90.3493 207.863 90.1627 208.039 90.008C208.221 89.848 208.431 89.7253 208.671 89.64C208.917 89.5547 209.183 89.512 209.471 89.512C209.786 89.512 210.066 89.5547 210.311 89.64C210.557 89.7253 210.762 89.8453 210.927 90C211.098 90.1547 211.226 90.344 211.311 90.568C211.402 90.7867 211.447 91.032 211.447 91.304V94H210.575V91.416C210.575 91.032 210.474 90.7387 210.271 90.536C210.074 90.328 209.799 90.224 209.447 90.224C209.154 90.224 208.898 90.2907 208.679 90.424C208.461 90.552 208.314 90.7253 208.239 90.944L208.583 91.08C208.733 91.1387 208.837 91.208 208.895 91.288C208.954 91.3627 208.983 91.4747 208.983 91.624V93.12C208.983 93.3973 208.911 93.6133 208.767 93.768C208.623 93.9227 208.399 94 208.095 94H207.647V93.288ZM214.489 91.024C214.489 90.768 214.422 90.5707 214.289 90.432C214.156 90.2933 213.945 90.224 213.657 90.224C213.412 90.224 213.214 90.2773 213.065 90.384C212.916 90.4853 212.788 90.6187 212.681 90.784L212.153 90.32C212.297 90.08 212.492 89.8853 212.737 89.736C212.982 89.5867 213.308 89.512 213.713 89.512C214.246 89.512 214.654 89.6373 214.937 89.888C215.22 90.1387 215.361 90.4987 215.361 90.968V94H214.489V91.024ZM218.193 94.096C217.639 94.096 217.207 93.9813 216.897 93.752C216.588 93.5227 216.433 93.2 216.433 92.784C216.433 92.528 216.508 92.3093 216.657 92.128C216.812 91.9467 217.009 91.8213 217.249 91.752V91.712C216.983 91.648 216.775 91.5227 216.625 91.336C216.476 91.1493 216.401 90.92 216.401 90.648C216.401 90.3067 216.511 90.032 216.729 89.824C216.953 89.616 217.257 89.512 217.641 89.512C217.759 89.512 217.884 89.5227 218.017 89.544C218.156 89.5653 218.281 89.6053 218.393 89.664L218.209 90.304C218.087 90.2453 217.951 90.216 217.801 90.216C217.615 90.216 217.465 90.2667 217.353 90.368C217.247 90.4693 217.193 90.6053 217.193 90.776C217.193 90.856 217.204 90.9333 217.225 91.008C217.247 91.0773 217.284 91.1413 217.337 91.2C217.391 91.2533 217.463 91.296 217.553 91.328C217.644 91.36 217.759 91.376 217.897 91.376H218.337V91.968H217.961C217.785 91.968 217.633 92.0187 217.505 92.12C217.377 92.2213 217.313 92.3627 217.313 92.544V92.728C217.313 92.9413 217.383 93.104 217.521 93.216C217.66 93.328 217.889 93.384 218.209 93.384C218.545 93.384 218.809 93.296 219.001 93.12C219.199 92.9387 219.297 92.68 219.297 92.344V89.608H220.169V92.464C220.169 92.7147 220.121 92.9413 220.025 93.144C219.935 93.3413 219.801 93.512 219.625 93.656C219.455 93.7947 219.247 93.904 219.001 93.984C218.761 94.0587 218.492 94.096 218.193 94.096ZM222.462 94C222.158 94 221.931 93.9227 221.782 93.768C221.638 93.6133 221.566 93.3973 221.566 93.12V89.88C221.566 89.752 221.585 89.6373 221.622 89.536C221.659 89.4347 221.707 89.344 221.766 89.264C221.825 89.1787 221.889 89.1013 221.958 89.032C222.033 88.9573 222.105 88.8853 222.174 88.816C222.275 88.72 222.361 88.6187 222.43 88.512C222.505 88.4053 222.542 88.28 222.542 88.136C222.542 87.9493 222.486 87.808 222.374 87.712C222.267 87.616 222.126 87.568 221.95 87.568C221.753 87.568 221.59 87.6267 221.462 87.744C221.339 87.856 221.246 88.0213 221.182 88.24L220.526 87.872C220.633 87.5787 220.806 87.3387 221.046 87.152C221.286 86.96 221.617 86.864 222.038 86.864C222.454 86.864 222.782 86.9733 223.022 87.192C223.262 87.4053 223.382 87.688 223.382 88.04C223.382 88.2747 223.329 88.4693 223.222 88.624C223.121 88.7787 223.009 88.9227 222.886 89.056C222.774 89.1787 222.67 89.3013 222.574 89.424C222.483 89.5467 222.438 89.688 222.438 89.848V93.288H223.062V94H222.462ZM225.337 94.096C224.878 94.096 224.523 93.9493 224.273 93.656C224.022 93.3573 223.897 92.936 223.897 92.392V89.608H224.769V92.296C224.769 92.6373 224.838 92.8987 224.977 93.08C225.121 93.256 225.35 93.344 225.664 93.344C225.782 93.344 225.899 93.3307 226.017 93.304C226.134 93.272 226.238 93.224 226.329 93.16C226.425 93.096 226.499 93.016 226.553 92.92C226.611 92.8187 226.641 92.7013 226.641 92.568V89.608H227.513V93.288H227.977V94H227.401C227.177 94 227.009 93.936 226.897 93.808C226.785 93.6747 226.723 93.4907 226.713 93.256H226.673C226.582 93.5013 226.425 93.704 226.201 93.864C225.982 94.0187 225.694 94.096 225.337 94.096Z" fill="#3F2436"/>
<path d="M234.469 94H230.677V93.136L232.461 91.544C232.743 91.288 232.959 91.0453 233.109 90.816C233.263 90.5813 233.341 90.336 233.341 90.08V89.976C233.341 89.704 233.258 89.4907 233.093 89.336C232.933 89.1813 232.714 89.104 232.437 89.104C232.282 89.104 232.146 89.128 232.029 89.176C231.917 89.2187 231.818 89.28 231.733 89.36C231.647 89.44 231.575 89.5333 231.517 89.64C231.463 89.7467 231.421 89.8613 231.389 89.984L230.597 89.68C230.655 89.504 230.735 89.336 230.837 89.176C230.938 89.0107 231.066 88.864 231.221 88.736C231.375 88.608 231.557 88.5067 231.765 88.432C231.978 88.3573 232.226 88.32 232.509 88.32C232.791 88.32 233.045 88.3627 233.269 88.448C233.493 88.528 233.679 88.6427 233.829 88.792C233.983 88.936 234.101 89.1093 234.181 89.312C234.261 89.5147 234.301 89.736 234.301 89.976C234.301 90.2 234.266 90.408 234.197 90.6C234.127 90.792 234.031 90.9733 233.909 91.144C233.786 91.3147 233.642 91.4773 233.477 91.632C233.317 91.7867 233.146 91.944 232.965 92.104L231.653 93.232H234.469V94ZM237.338 94.096C236.991 94.096 236.69 94.032 236.434 93.904C236.178 93.7707 235.967 93.5813 235.802 93.336C235.636 93.0907 235.514 92.7893 235.434 92.432C235.354 92.0747 235.314 91.6667 235.314 91.208C235.314 90.7547 235.354 90.3493 235.434 89.992C235.514 89.6293 235.636 89.3253 235.802 89.08C235.967 88.8347 236.178 88.648 236.434 88.52C236.69 88.3867 236.991 88.32 237.338 88.32C238.031 88.32 238.54 88.5733 238.866 89.08C239.196 89.5867 239.362 90.296 239.362 91.208C239.362 92.12 239.196 92.8293 238.866 93.336C238.54 93.8427 238.031 94.096 237.338 94.096ZM237.338 93.328C237.53 93.328 237.692 93.2907 237.826 93.216C237.964 93.136 238.076 93.024 238.162 92.88C238.247 92.736 238.308 92.5653 238.346 92.368C238.383 92.1653 238.402 91.9413 238.402 91.696V90.72C238.402 90.4747 238.383 90.2533 238.346 90.056C238.308 89.8533 238.247 89.68 238.162 89.536C238.076 89.392 237.964 89.2827 237.826 89.208C237.692 89.128 237.53 89.088 237.338 89.088C237.146 89.088 236.98 89.128 236.842 89.208C236.708 89.2827 236.599 89.392 236.514 89.536C236.428 89.68 236.367 89.8533 236.33 90.056C236.292 90.2533 236.274 90.4747 236.274 90.72V91.696C236.274 91.9413 236.292 92.1653 236.33 92.368C236.367 92.5653 236.428 92.736 236.514 92.88C236.599 93.024 236.708 93.136 236.842 93.216C236.98 93.2907 237.146 93.328 237.338 93.328ZM239.79 95.208L242.006 88.08H242.758L240.542 95.208H239.79ZM245.47 94.096C245.124 94.096 244.822 94.032 244.566 93.904C244.31 93.7707 244.1 93.5813 243.934 93.336C243.769 93.0907 243.646 92.7893 243.566 92.432C243.486 92.0747 243.446 91.6667 243.446 91.208C243.446 90.7547 243.486 90.3493 243.566 89.992C243.646 89.6293 243.769 89.3253 243.934 89.08C244.1 88.8347 244.31 88.648 244.566 88.52C244.822 88.3867 245.124 88.32 245.47 88.32C246.164 88.32 246.673 88.5733 246.998 89.08C247.329 89.5867 247.494 90.296 247.494 91.208C247.494 92.12 247.329 92.8293 246.998 93.336C246.673 93.8427 246.164 94.096 245.47 94.096ZM245.47 93.328C245.662 93.328 245.825 93.2907 245.958 93.216C246.097 93.136 246.209 93.024 246.294 92.88C246.38 92.736 246.441 92.5653 246.478 92.368C246.516 92.1653 246.534 91.9413 246.534 91.696V90.72C246.534 90.4747 246.516 90.2533 246.478 90.056C246.441 89.8533 246.38 89.68 246.294 89.536C246.209 89.392 246.097 89.2827 245.958 89.208C245.825 89.128 245.662 89.088 245.47 89.088C245.278 89.088 245.113 89.128 244.974 89.208C244.841 89.2827 244.732 89.392 244.646 89.536C244.561 89.68 244.5 89.8533 244.462 90.056C244.425 90.2533 244.406 90.4747 244.406 90.72V91.696C244.406 91.9413 244.425 92.1653 244.462 92.368C244.5 92.5653 244.561 92.736 244.646 92.88C244.732 93.024 244.841 93.136 244.974 93.216C245.113 93.2907 245.278 93.328 245.47 93.328ZM250.267 94.096C249.942 94.096 249.654 94.056 249.403 93.976C249.158 93.8907 248.95 93.776 248.779 93.632C248.614 93.488 248.486 93.3173 248.395 93.12C248.31 92.9227 248.267 92.7093 248.267 92.48C248.267 92.1067 248.369 91.808 248.571 91.584C248.779 91.3547 249.051 91.1947 249.387 91.104V91.04C249.099 90.9387 248.867 90.7787 248.691 90.56C248.521 90.3413 248.435 90.072 248.435 89.752C248.435 89.5387 248.475 89.344 248.555 89.168C248.641 88.992 248.761 88.8427 248.915 88.72C249.07 88.592 249.262 88.4933 249.491 88.424C249.721 88.3547 249.979 88.32 250.267 88.32C250.555 88.32 250.814 88.3547 251.043 88.424C251.273 88.4933 251.465 88.592 251.619 88.72C251.774 88.8427 251.891 88.992 251.971 89.168C252.057 89.344 252.099 89.5387 252.099 89.752C252.099 90.072 252.011 90.3413 251.835 90.56C251.665 90.7787 251.435 90.9387 251.147 91.04V91.104C251.483 91.1947 251.753 91.3547 251.955 91.584C252.163 91.808 252.267 92.1067 252.267 92.48C252.267 92.7093 252.222 92.9227 252.131 93.12C252.046 93.3173 251.918 93.488 251.747 93.632C251.582 93.776 251.374 93.8907 251.123 93.976C250.878 94.056 250.593 94.096 250.267 94.096ZM250.267 93.368C250.603 93.368 250.862 93.2907 251.043 93.136C251.23 92.9813 251.323 92.7653 251.323 92.488V92.328C251.323 92.0507 251.23 91.8347 251.043 91.68C250.862 91.5253 250.603 91.448 250.267 91.448C249.931 91.448 249.67 91.5253 249.483 91.68C249.302 91.8347 249.211 92.0507 249.211 92.328V92.488C249.211 92.7653 249.302 92.9813 249.483 93.136C249.67 93.2907 249.931 93.368 250.267 93.368ZM250.267 90.752C250.577 90.752 250.811 90.6853 250.971 90.552C251.137 90.4187 251.219 90.224 251.219 89.968V89.832C251.219 89.576 251.137 89.3813 250.971 89.248C250.811 89.1147 250.577 89.048 250.267 89.048C249.958 89.048 249.721 89.1147 249.555 89.248C249.395 89.3813 249.315 89.576 249.315 89.832V89.968C249.315 90.224 249.395 90.4187 249.555 90.552C249.721 90.6853 249.958 90.752 250.267 90.752ZM252.72 95.208L254.936 88.08H255.688L253.472 95.208H252.72ZM260.328 94H256.536V93.136L258.32 91.544C258.603 91.288 258.819 91.0453 258.968 90.816C259.123 90.5813 259.2 90.336 259.2 90.08V89.976C259.2 89.704 259.117 89.4907 258.952 89.336C258.792 89.1813 258.573 89.104 258.296 89.104C258.141 89.104 258.005 89.128 257.888 89.176C257.776 89.2187 257.677 89.28 257.592 89.36C257.507 89.44 257.435 89.5333 257.376 89.64C257.323 89.7467 257.28 89.8613 257.248 89.984L256.456 89.68C256.515 89.504 256.595 89.336 256.696 89.176C256.797 89.0107 256.925 88.864 257.08 88.736C257.235 88.608 257.416 88.5067 257.624 88.432C257.837 88.3573 258.085 88.32 258.368 88.32C258.651 88.32 258.904 88.3627 259.128 88.448C259.352 88.528 259.539 88.6427 259.688 88.792C259.843 88.936 259.96 89.1093 260.04 89.312C260.12 89.5147 260.16 89.736 260.16 89.976C260.16 90.2 260.125 90.408 260.056 90.6C259.987 90.792 259.891 90.9733 259.768 91.144C259.645 91.3147 259.501 91.4773 259.336 91.632C259.176 91.7867 259.005 91.944 258.824 92.104L257.512 93.232H260.328V94ZM262.893 90.712C263.24 90.712 263.496 90.64 263.661 90.496C263.826 90.3467 263.909 90.1573 263.909 89.928V89.872C263.909 89.616 263.829 89.4213 263.669 89.288C263.509 89.1493 263.293 89.08 263.021 89.08C262.754 89.08 262.528 89.1413 262.341 89.264C262.154 89.3813 261.997 89.5467 261.869 89.76L261.269 89.24C261.354 89.1173 261.45 89 261.557 88.888C261.664 88.776 261.789 88.68 261.933 88.6C262.077 88.5147 262.24 88.448 262.421 88.4C262.602 88.3467 262.81 88.32 263.045 88.32C263.306 88.32 263.549 88.352 263.773 88.416C263.997 88.48 264.189 88.576 264.349 88.704C264.509 88.8267 264.634 88.9787 264.725 89.16C264.816 89.336 264.861 89.536 264.861 89.76C264.861 89.936 264.832 90.096 264.773 90.24C264.72 90.384 264.642 90.512 264.541 90.624C264.445 90.7307 264.33 90.8187 264.197 90.888C264.069 90.9573 263.933 91.008 263.789 91.04V91.08C263.949 91.112 264.098 91.1653 264.237 91.24C264.381 91.3093 264.506 91.4027 264.613 91.52C264.72 91.632 264.802 91.768 264.861 91.928C264.925 92.0827 264.957 92.2613 264.957 92.464C264.957 92.7093 264.909 92.9333 264.813 93.136C264.717 93.3333 264.581 93.504 264.405 93.648C264.234 93.792 264.026 93.904 263.781 93.984C263.536 94.0587 263.264 94.096 262.965 94.096C262.704 94.096 262.474 94.0667 262.277 94.008C262.08 93.9547 261.904 93.8827 261.749 93.792C261.6 93.696 261.466 93.5893 261.349 93.472C261.237 93.3493 261.138 93.224 261.053 93.096L261.717 92.576C261.786 92.688 261.858 92.792 261.933 92.888C262.013 92.9787 262.101 93.0587 262.197 93.128C262.298 93.192 262.41 93.2427 262.533 93.28C262.661 93.3173 262.805 93.336 262.965 93.336C263.306 93.336 263.568 93.256 263.749 93.096C263.93 92.9307 264.021 92.704 264.021 92.416V92.36C264.021 92.072 263.925 91.8533 263.733 91.704C263.541 91.5547 263.269 91.48 262.917 91.48H262.325V90.712H262.893Z" fill="#D42525"/>
<path d="M124.6 65.2C123.52 65.2 122.66 64.94 122.02 64.42C121.38 63.8867 121.06 63.0667 121.06 61.96C121.06 60.92 121.367 60.12 121.98 59.56C122.593 59 123.467 58.72 124.6 58.72H127.96V58C127.96 57.28 127.767 56.7333 127.38 56.36C126.993 55.9733 126.38 55.78 125.54 55.78C124.753 55.78 124.12 55.9533 123.64 56.3C123.16 56.6333 122.767 57.0267 122.46 57.48L120.84 56.06C121.067 55.7133 121.327 55.4 121.62 55.12C121.927 54.8267 122.273 54.58 122.66 54.38C123.06 54.1667 123.507 54.0067 124 53.9C124.507 53.78 125.073 53.72 125.7 53.72C126.993 53.72 128.053 53.98 128.88 54.5C128.947 54.1133 129.107 53.84 129.36 53.68C129.627 53.5067 129.967 53.42 130.38 53.42H132.72V55.54H129.92V55.62C130.32 56.22 130.52 56.98 130.52 57.9V65H127.96V60.38H125.46C124.273 60.38 123.68 60.8533 123.68 61.8V62.18C123.68 62.6467 123.813 63.0133 124.08 63.28C124.347 63.5467 124.713 63.68 125.18 63.68C125.393 63.68 125.58 63.66 125.74 63.62L125.92 65.06C125.813 65.1 125.62 65.1333 125.34 65.16C125.06 65.1867 124.813 65.2 124.6 65.2ZM128.087 48.12H130.447V52.14H128.087V48.12ZM137.537 65.24C136.95 65.24 136.39 65.1667 135.857 65.02C135.337 64.8867 134.877 64.68 134.477 64.4L135.417 62.58C135.67 62.7267 135.957 62.8667 136.277 63C136.597 63.12 136.977 63.18 137.417 63.18C138.137 63.18 138.683 62.94 139.057 62.46C139.443 61.9667 139.637 61.3 139.637 60.46V58.52C139.637 57.68 139.45 57.0133 139.077 56.52C138.703 56.0267 138.15 55.78 137.417 55.78C136.803 55.78 136.31 55.9333 135.937 56.24C135.563 56.5467 135.303 56.9333 135.157 57.4L133.077 56.48C133.41 55.6267 133.95 54.9533 134.697 54.46C135.457 53.9667 136.403 53.72 137.537 53.72C138.31 53.72 138.99 53.8533 139.577 54.12C140.177 54.3867 140.677 54.7733 141.077 55.28C141.49 55.7733 141.797 56.3733 141.997 57.08C142.21 57.7867 142.317 58.58 142.317 59.46C142.317 60.3533 142.21 61.16 141.997 61.88C141.797 62.5867 141.49 63.1933 141.077 63.7C140.677 64.1933 140.177 64.5733 139.577 64.84C138.99 65.1067 138.31 65.24 137.537 65.24ZM148.162 65.24C147.016 65.24 146.136 64.8667 145.522 64.12C144.909 63.3733 144.602 62.3067 144.602 60.92V53.96H147.162V60.68C147.162 61.44 147.309 62.04 147.602 62.48C147.909 62.92 148.436 63.14 149.182 63.14C149.462 63.14 149.736 63.1 150.002 63.02C150.269 62.94 150.502 62.8267 150.702 62.68C150.916 62.52 151.089 62.3267 151.222 62.1C151.356 61.86 151.422 61.5867 151.422 61.28V53.96H153.982V62.96H155.042V65H153.442C152.296 65 151.702 64.3467 151.662 63.04H151.542C151.316 63.6533 150.929 64.1733 150.382 64.6C149.849 65.0267 149.109 65.24 148.162 65.24ZM160.323 65.2C159.243 65.2 158.383 64.94 157.743 64.42C157.103 63.8867 156.783 63.0667 156.783 61.96C156.783 60.92 157.089 60.12 157.703 59.56C158.316 59 159.189 58.72 160.323 58.72H163.683V58C163.683 57.28 163.489 56.7333 163.103 56.36C162.716 55.9733 162.103 55.78 161.263 55.78C160.476 55.78 159.843 55.9533 159.363 56.3C158.883 56.6333 158.489 57.0267 158.183 57.48L156.563 56.06C156.789 55.7133 157.049 55.4 157.343 55.12C157.649 54.8267 157.996 54.58 158.383 54.38C158.783 54.1667 159.229 54.0067 159.723 53.9C160.229 53.78 160.796 53.72 161.423 53.72C163.009 53.72 164.209 54.08 165.023 54.8C165.836 55.52 166.243 56.5533 166.243 57.9V65H163.683V60.38H161.183C159.996 60.38 159.403 60.8533 159.403 61.8V62.18C159.403 62.6467 159.536 63.0133 159.803 63.28C160.069 63.5467 160.436 63.68 160.903 63.68C161.116 63.68 161.303 63.66 161.463 63.62L161.643 65.06C161.536 65.1 161.343 65.1333 161.063 65.16C160.783 65.1867 160.536 65.2 160.323 65.2ZM173.378 65.24C172.618 65.24 171.931 65.1067 171.318 64.84C170.718 64.5733 170.211 64.1933 169.798 63.7C169.384 63.2067 169.064 62.6067 168.838 61.9C168.624 61.18 168.518 60.3733 168.518 59.48C168.518 58.6 168.638 57.8067 168.878 57.1C169.131 56.3933 169.484 55.7933 169.938 55.3C170.404 54.7933 170.964 54.4067 171.618 54.14C172.284 53.86 173.024 53.72 173.838 53.72C174.611 53.72 175.311 53.8333 175.938 54.06C176.564 54.2733 177.098 54.5867 177.538 55C177.978 55.4 178.318 55.8933 178.558 56.48C178.798 57.0533 178.918 57.7 178.918 58.42V65H176.358V58.58C176.358 57.7 176.131 57.0133 175.678 56.52C175.238 56.0267 174.618 55.78 173.818 55.78C172.991 55.78 172.344 56.0467 171.878 56.58C171.424 57.1 171.198 57.82 171.198 58.74V60.2C171.198 62.1867 172.031 63.18 173.698 63.18C173.844 63.18 173.971 63.18 174.078 63.18C174.198 63.1667 174.318 63.1467 174.438 63.12L174.738 65.12C174.524 65.1733 174.284 65.2067 174.018 65.22C173.764 65.2333 173.551 65.24 173.378 65.24ZM195.92 65H186.24V62.56L190.62 58.72C191.367 58.0667 191.913 57.48 192.26 56.96C192.607 56.4267 192.78 55.8533 192.78 55.24V54.98C192.78 54.3667 192.58 53.9 192.18 53.58C191.78 53.2467 191.293 53.08 190.72 53.08C190 53.08 189.453 53.2867 189.08 53.7C188.707 54.1 188.44 54.5867 188.28 55.16L186 54.28C186.147 53.8133 186.353 53.3733 186.62 52.96C186.887 52.5333 187.22 52.16 187.62 51.84C188.033 51.52 188.513 51.2667 189.06 51.08C189.607 50.8933 190.233 50.8 190.94 50.8C191.673 50.8 192.327 50.9067 192.9 51.12C193.473 51.32 193.953 51.6067 194.34 51.98C194.74 52.3533 195.04 52.7933 195.24 53.3C195.453 53.8067 195.56 54.36 195.56 54.96C195.56 55.5467 195.467 56.08 195.28 56.56C195.093 57.04 194.84 57.5 194.52 57.94C194.2 58.3667 193.827 58.78 193.4 59.18C192.973 59.5667 192.52 59.96 192.04 60.36L189.1 62.78H195.92V65ZM202.992 65.24C202.099 65.24 201.326 65.08 200.672 64.76C200.019 64.4267 199.479 63.9533 199.052 63.34C198.626 62.7267 198.306 61.9733 198.092 61.08C197.892 60.1867 197.792 59.1667 197.792 58.02C197.792 56.8867 197.892 55.8733 198.092 54.98C198.306 54.0733 198.626 53.3133 199.052 52.7C199.479 52.0867 200.019 51.62 200.672 51.3C201.326 50.9667 202.099 50.8 202.992 50.8C204.766 50.8 206.072 51.4333 206.912 52.7C207.766 53.9667 208.192 55.74 208.192 58.02C208.192 60.3 207.766 62.0733 206.912 63.34C206.072 64.6067 204.766 65.24 202.992 65.24ZM202.992 63.02C203.886 63.02 204.506 62.6867 204.852 62.02C205.212 61.34 205.392 60.4267 205.392 59.28V56.76C205.392 55.6133 205.212 54.7067 204.852 54.04C204.506 53.36 203.886 53.02 202.992 53.02C202.099 53.02 201.472 53.36 201.112 54.04C200.766 54.7067 200.592 55.6133 200.592 56.76V59.28C200.592 60.4267 200.766 61.34 201.112 62.02C201.472 62.6867 202.099 63.02 202.992 63.02ZM219.911 65.24C219.164 65.24 218.491 65.14 217.891 64.94C217.291 64.7267 216.778 64.4267 216.351 64.04C215.938 63.6533 215.618 63.1867 215.391 62.64C215.178 62.0933 215.071 61.48 215.071 60.8V53.96H217.631V60.66C217.631 61.46 217.831 62.08 218.231 62.52C218.631 62.96 219.191 63.18 219.911 63.18C220.631 63.18 221.191 62.96 221.591 62.52C221.991 62.08 222.191 61.46 222.191 60.66V53.96H224.751V60.8C224.751 61.48 224.638 62.0933 224.411 62.64C224.198 63.1867 223.878 63.6533 223.451 64.04C223.038 64.4267 222.531 64.7267 221.931 64.94C221.331 65.14 220.658 65.24 219.911 65.24ZM232.353 57.62C232.353 57.0333 232.2 56.58 231.893 56.26C231.6 55.94 231.127 55.78 230.473 55.78C229.873 55.78 229.393 55.9067 229.033 56.16C228.687 56.4133 228.393 56.7267 228.153 57.1L226.633 55.74C227.02 55.1267 227.52 54.64 228.133 54.28C228.76 53.9067 229.6 53.72 230.653 53.72C232.053 53.72 233.113 54.0467 233.833 54.7C234.553 55.34 234.913 56.2667 234.913 57.48V65H232.353V57.62ZM237.75 53.96H240.31V55.8H240.41C240.503 55.5333 240.636 55.2733 240.81 55.02C240.983 54.7667 241.196 54.5467 241.45 54.36C241.716 54.16 242.023 54.0067 242.37 53.9C242.73 53.78 243.15 53.72 243.63 53.72C244.803 53.72 245.703 54.0933 246.33 54.84C246.956 55.5867 247.27 56.6533 247.27 58.04V65H244.71V58.28C244.71 57.48 244.543 56.8733 244.21 56.46C243.876 56.0333 243.343 55.82 242.61 55.82C242.33 55.82 242.05 55.86 241.77 55.94C241.49 56.02 241.243 56.14 241.03 56.3C240.816 56.46 240.643 56.66 240.51 56.9C240.376 57.1267 240.31 57.3933 240.31 57.7V65H237.75V53.96Z" fill="#3F2436"/>
<defs>
<filter id="filter0_di_71_107291" x="0" y="0" width="346" height="120" filterUnits="userSpaceOnUse" color-interpolation-filters="sRGB">
<feFlood flood-opacity="0" result="BackgroundImageFix"/>
<feColorMatrix in="SourceAlpha" type="matrix" values="0 0 0 0 0 0 0 0 0 0 0 0 0 0 0 0 0 0 127 0" result="hardAlpha"/>
<feOffset dy="2"/>
<feComposite in2="hardAlpha" operator="out"/>
<feColorMatrix type="matrix" values="0 0 0 0 0.32549 0 0 0 0 0.592157 0 0 0 0 0.560784 0 0 0 1 0"/>
<feBlend mode="normal" in2="BackgroundImageFix" result="effect1_dropShadow_71_107291"/>
<feBlend mode="normal" in="SourceGraphic" in2="effect1_dropShadow_71_107291" result="shape"/>
<feColorMatrix in="SourceAlpha" type="matrix" values="0 0 0 0 0 0 0 0 0 0 0 0 0 0 0 0 0 0 127 0" result="hardAlpha"/>
<feOffset dy="2"/>
<feComposite in2="hardAlpha" operator="arithmetic" k2="-1" k3="1"/>
<feColorMatrix type="matrix" values="0 0 0 0 0.32549 0 0 0 0 0.592157 0 0 0 0 0.560784 0 0 0 1 0"/>
<feBlend mode="normal" in2="shape" result="effect2_innerShadow_71_107291"/>
</filter>
<filter id="filter1_ii_71_107291" x="15.3838" y="85.7483" width="67.2324" height="20.9404" filterUnits="userSpaceOnUse" color-interpolation-filters="sRGB">
<feFlood flood-opacity="0" result="BackgroundImageFix"/>
<feBlend mode="normal" in="SourceGraphic" in2="BackgroundImageFix" result="shape"/>
<feColorMatrix in="SourceAlpha" type="matrix" values="0 0 0 0 0 0 0 0 0 0 0 0 0 0 0 0 0 0 127 0" result="hardAlpha"/>
<feOffset dy="-3.69536"/>
<feComposite in2="hardAlpha" operator="arithmetic" k2="-1" k3="1"/>
<feColorMatrix type="matrix" values="0 0 0 0 0.825 0 0 0 0 0.38478 0 0 0 0 0.0660003 0 0 0 1 0"/>
<feBlend mode="normal" in2="shape" result="effect1_innerShadow_71_107291"/>
<feColorMatrix in="SourceAlpha" type="matrix" values="0 0 0 0 0 0 0 0 0 0 0 0 0 0 0 0 0 0 127 0" result="hardAlpha"/>
<feOffset dy="3.69536"/>
<feComposite in2="hardAlpha" operator="arithmetic" k2="-1" k3="1"/>
<feColorMatrix type="matrix" values="0 0 0 0 0.998333 0 0 0 0 0.998333 0 0 0 0 0.998333 0 0 0 0.8 0"/>
<feBlend mode="normal" in2="effect1_innerShadow_71_107291" result="effect2_innerShadow_71_107291"/>
</filter>
<filter id="filter2_i_71_107291" x="14.6377" y="10.6382" width="68.7754" height="68.9746" filterUnits="userSpaceOnUse" color-interpolation-filters="sRGB">
<feFlood flood-opacity="0" result="BackgroundImageFix"/>
<feBlend mode="normal" in="SourceGraphic" in2="BackgroundImageFix" result="shape"/>
<feColorMatrix in="SourceAlpha" type="matrix" values="0 0 0 0 0 0 0 0 0 0 0 0 0 0 0 0 0 0 127 0" result="hardAlpha"/>
<feOffset dy="2.72374"/>
<feComposite in2="hardAlpha" operator="arithmetic" k2="-1" k3="1"/>
<feColorMatrix type="matrix" values="0 0 0 0 0.998333 0 0 0 0 0.998333 0 0 0 0 0.998333 0 0 0 0.5 0"/>
<feBlend mode="normal" in2="shape" result="effect1_innerShadow_71_107291"/>
</filter>
<filter id="filter3_ii_71_107291" x="26.0156" y="30.6001" width="44.3848" height="28.8799" filterUnits="userSpaceOnUse" color-interpolation-filters="sRGB">
<feFlood flood-opacity="0" result="BackgroundImageFix"/>
<feBlend mode="normal" in="SourceGraphic" in2="BackgroundImageFix" result="shape"/>
<feColorMatrix in="SourceAlpha" type="matrix" values="0 0 0 0 0 0 0 0 0 0 0 0 0 0 0 0 0 0 127 0" result="hardAlpha"/>
<feOffset dy="-1.31558"/>
<feComposite in2="hardAlpha" operator="arithmetic" k2="-1" k3="1"/>
<feColorMatrix type="matrix" values="0 0 0 0 0.825 0 0 0 0 0.38478 0 0 0 0 0.0660003 0 0 0 1 0"/>
<feBlend mode="normal" in2="shape" result="effect1_innerShadow_71_107291"/>
<feColorMatrix in="SourceAlpha" type="matrix" values="0 0 0 0 0 0 0 0 0 0 0 0 0 0 0 0 0 0 127 0" result="hardAlpha"/>
<feOffset dy="1.31558"/>
<feComposite in2="hardAlpha" operator="arithmetic" k2="-1" k3="1"/>
<feColorMatrix type="matrix" values="0 0 0 0 0.998333 0 0 0 0 0.998333 0 0 0 0 0.998333 0 0 0 0.8 0"/>
<feBlend mode="normal" in2="effect1_innerShadow_71_107291" result="effect2_innerShadow_71_107291"/>
</filter>
<filter id="filter4_i_71_107291" x="110" y="12" width="220" height="23" filterUnits="userSpaceOnUse" color-interpolation-filters="sRGB">
<feFlood flood-opacity="0" result="BackgroundImageFix"/>
<feBlend mode="normal" in="SourceGraphic" in2="BackgroundImageFix" result="shape"/>
<feColorMatrix in="SourceAlpha" type="matrix" values="0 0 0 0 0 0 0 0 0 0 0 0 0 0 0 0 0 0 127 0" result="hardAlpha"/>
<feOffset dy="4"/>
<feComposite in2="hardAlpha" operator="arithmetic" k2="-1" k3="1"/>
<feColorMatrix type="matrix" values="0 0 0 0 0.998333 0 0 0 0 0.998333 0 0 0 0 0.998333 0 0 0 0.2 0"/>
<feBlend mode="normal" in2="shape" result="effect1_innerShadow_71_107291"/>
</filter>
<linearGradient id="paint0_linear_71_107291" x1="219" y1="2" x2="219" y2="116" gradientUnits="userSpaceOnUse">
<stop stop-color="#FCEDB2"/>
<stop offset="1" stop-color="#CDEBD9"/>
</linearGradient>
<linearGradient id="paint1_linear_71_107291" x1="49" y1="86.3643" x2="49" y2="106.073" gradientUnits="userSpaceOnUse">
<stop stop-color="#FFD15B"/>
<stop offset="1" stop-color="#FF970E"/>
</linearGradient>
<linearGradient id="paint2_linear_71_107291" x1="49" y1="86.3643" x2="49" y2="106.073" gradientUnits="userSpaceOnUse">
<stop stop-color="#FFD15B"/>
<stop offset="1" stop-color="#FF970E"/>
</linearGradient>
<linearGradient id="paint3_linear_71_107291" x1="48" y1="19" x2="48" y2="75" gradientUnits="userSpaceOnUse">
<stop stop-color="#FFD15B"/>
<stop offset="1" stop-color="#FF970E"/>
</linearGradient>
</defs>
</svg>
