<svg width="346" height="120" viewBox="0 0 346 120" fill="none" xmlns="http://www.w3.org/2000/svg">
<g filter="url(#filter0_di_25_151335)">
<mask id="path-1-outside-1_25_151335" maskUnits="userSpaceOnUse" x="0" y="0" width="346" height="118" fill="black">
<rect fill="white" width="346" height="118"/>
<path fill-rule="evenodd" clip-rule="evenodd" d="M8.25 2H88.058C88.5194 5.94631 91.6754 9 95.5 9C99.3246 9 102.481 5.94631 102.942 2H337.753C341.203 2 344 4.79668 344 8.24657V109.753C344 113.203 341.203 116 337.753 116H102.764C101.931 112.55 98.9947 110 95.5 110C92.0053 110 89.0689 112.55 88.2363 116H8.25C4.79822 116 2 113.202 2 109.75V8.25C2 4.79822 4.79822 2 8.25 2Z"/>
</mask>
<path fill-rule="evenodd" clip-rule="evenodd" d="M8.25 2H88.058C88.5194 5.94631 91.6754 9 95.5 9C99.3246 9 102.481 5.94631 102.942 2H337.753C341.203 2 344 4.79668 344 8.24657V109.753C344 113.203 341.203 116 337.753 116H102.764C101.931 112.55 98.9947 110 95.5 110C92.0053 110 89.0689 112.55 88.2363 116H8.25C4.79822 116 2 113.202 2 109.75V8.25C2 4.79822 4.79822 2 8.25 2Z" fill="url(#paint0_linear_25_151335)"/>
<path d="M88.058 2L90.0445 1.76777L89.8378 0H88.058V2ZM102.942 2V0H101.162L100.955 1.76777L102.942 2ZM102.764 116L100.82 116.469L101.189 118H102.764V116ZM88.2363 116V118H89.8111L90.1805 116.469L88.2363 116ZM88.058 0H8.25V4H88.058V0ZM95.5 7C92.8017 7 90.4015 4.8211 90.0445 1.76777L86.0716 2.23223C86.6373 7.07152 90.549 11 95.5 11V7ZM100.955 1.76777C100.599 4.8211 98.1983 7 95.5 7V11C100.451 11 104.363 7.07152 104.928 2.23223L100.955 1.76777ZM337.753 0H102.942V4H337.753V0ZM346 8.24657C346 3.69211 342.308 0 337.753 0V4C340.099 4 342 5.90126 342 8.24657H346ZM346 109.753V8.24657H342V109.753H346ZM337.753 118C342.308 118 346 114.308 346 109.753H342C342 112.099 340.099 114 337.753 114V118ZM102.764 118H337.753V114H102.764V118ZM95.5 112C97.9691 112 100.179 113.814 100.82 116.469L104.708 115.531C103.683 111.285 100.02 108 95.5 108V112ZM90.1805 116.469C90.8212 113.814 93.0309 112 95.5 112V108C90.9797 108 87.3166 111.285 86.2921 115.531L90.1805 116.469ZM8.25 118H88.2363V114H8.25V118ZM0 109.75C0 114.306 3.69365 118 8.25 118V114C5.90279 114 4 112.097 4 109.75H0ZM0 8.25V109.75H4V8.25H0ZM8.25 0C3.69365 0 0 3.69365 0 8.25H4C4 5.90279 5.90279 4 8.25 4V0Z" fill="#53978F" mask="url(#path-1-outside-1_25_151335)"/>
<g filter="url(#filter1_ii_25_151335)">
<rect x="16" y="86.3643" width="66" height="19.7086" rx="4.01952" fill="#FFEFA5"/>
<rect x="16" y="86.3643" width="66" height="19.7086" rx="4.01952" fill="url(#paint1_linear_25_151335)"/>
<rect x="16" y="86.3643" width="66" height="19.7086" rx="4.01952" fill="url(#paint2_linear_25_151335)"/>
</g>
<rect x="16" y="86.3643" width="66" height="19.7086" rx="4.01952" stroke="#3F2436" stroke-width="1.23179"/>
<path d="M33.2512 98.7188C32.7445 98.7188 32.3712 98.5954 32.1312 98.3487C31.8978 98.1021 31.7812 97.7454 31.7812 97.2787V93.1787H33.2612V97.5687H33.9512V98.7188H33.2512ZM36.0412 98.7188C35.5345 98.7188 35.1612 98.5954 34.9212 98.3487C34.6878 98.1021 34.5712 97.7454 34.5712 97.2787V93.1787H36.0512V97.5687H36.7412V98.7188H36.0412ZM39.2459 98.8188C38.7125 98.8188 38.2859 98.6888 37.9659 98.4287C37.6525 98.1621 37.4959 97.7487 37.4959 97.1887C37.4959 96.6687 37.6459 96.2654 37.9459 95.9787C38.2459 95.6921 38.6792 95.5487 39.2459 95.5487H40.8959V95.2587C40.8959 94.9254 40.8059 94.6721 40.6259 94.4987C40.4525 94.3187 40.1659 94.2287 39.7659 94.2287C39.5725 94.2287 39.4025 94.2521 39.2559 94.2987C39.1092 94.3454 38.9759 94.4087 38.8559 94.4887C38.7359 94.5621 38.6292 94.6487 38.5359 94.7487C38.4425 94.8421 38.3592 94.9421 38.2859 95.0487L37.3459 94.2287C37.5992 93.8687 37.9192 93.5854 38.3059 93.3787C38.6925 93.1654 39.2125 93.0587 39.8659 93.0587C40.6992 93.0587 41.3259 93.2421 41.7459 93.6087C42.1659 93.9687 42.3759 94.5021 42.3759 95.2087V98.7188H40.8959V96.4887H39.7759C39.2559 96.4887 38.9959 96.7021 38.9959 97.1287V97.2987C38.9959 97.5054 39.0492 97.6721 39.1559 97.7987C39.2625 97.9187 39.4192 97.9787 39.6259 97.9787C39.6659 97.9787 39.7059 97.9787 39.7459 97.9787C39.7859 97.9787 39.8259 97.9721 39.8659 97.9587L39.9659 98.7488C39.9325 98.7621 39.8859 98.7721 39.8259 98.7788C39.7725 98.7921 39.7092 98.7988 39.6359 98.7988C39.5692 98.8054 39.4992 98.8088 39.4259 98.8088C39.3592 98.8154 39.2992 98.8188 39.2459 98.8188ZM44.172 95.8087L43.302 95.4587C43.3286 95.0921 43.4153 94.7621 43.562 94.4687C43.7153 94.1687 43.9153 93.9154 44.162 93.7087C44.4086 93.5021 44.6986 93.3421 45.032 93.2287C45.372 93.1154 45.742 93.0587 46.142 93.0587C46.5486 93.0587 46.912 93.1154 47.232 93.2287C47.5586 93.3354 47.8353 93.4921 48.062 93.6987C48.2886 93.8987 48.462 94.1454 48.582 94.4387C48.7086 94.7254 48.772 95.0454 48.772 95.3987V98.7188H47.292V95.5887C47.292 95.1621 47.182 94.8287 46.962 94.5887C46.7486 94.3487 46.432 94.2287 46.012 94.2287C45.692 94.2287 45.4153 94.2954 45.182 94.4287C44.9553 94.5621 44.7886 94.7287 44.682 94.9287L45.032 95.0587C45.272 95.1521 45.4353 95.2587 45.522 95.3787C45.6086 95.4987 45.652 95.6787 45.652 95.9187V98.7188H44.172V95.8087ZM52.2384 98.8388C51.8851 98.8388 51.5618 98.7988 51.2684 98.7188C50.9751 98.6387 50.7251 98.5154 50.5184 98.3487C50.3118 98.1821 50.1518 97.9754 50.0384 97.7287C49.9251 97.4821 49.8684 97.1887 49.8684 96.8487C49.8684 96.6621 49.8818 96.4987 49.9084 96.3587C49.9351 96.2187 49.9684 96.0921 50.0084 95.9787C50.0551 95.8654 50.1051 95.7654 50.1584 95.6787C50.2118 95.5921 50.2618 95.5121 50.3084 95.4387C50.4018 95.2921 50.4818 95.1354 50.5484 94.9687C50.6218 94.7954 50.6584 94.6254 50.6584 94.4587V94.3887H49.8084V93.1787H50.9184C51.2984 93.1787 51.5884 93.2654 51.7884 93.4388C51.9884 93.6054 52.0884 93.8321 52.0884 94.1187V94.1587C52.0884 94.3521 52.0618 94.5487 52.0084 94.7487C51.9551 94.9487 51.8651 95.1754 51.7384 95.4287C51.6451 95.6154 51.5651 95.7887 51.4984 95.9487C51.4384 96.1021 51.4084 96.3021 51.4084 96.5487V96.8187C51.4084 97.0721 51.4784 97.2721 51.6184 97.4187C51.7584 97.5587 51.9551 97.6287 52.2084 97.6287C52.4618 97.6287 52.6584 97.5621 52.7984 97.4287C52.9451 97.2887 53.0184 97.0921 53.0184 96.8387V93.1787H54.4684V96.6187C54.4684 97.3121 54.2718 97.8554 53.8784 98.2487C53.4918 98.6421 52.9451 98.8388 52.2384 98.8388ZM57.9139 98.8388C57.5606 98.8388 57.2339 98.7921 56.9339 98.6987C56.6339 98.5987 56.3739 98.4654 56.1539 98.2987C55.9406 98.1254 55.7706 97.9221 55.6439 97.6887C55.5239 97.4554 55.4639 97.1987 55.4639 96.9187V96.4287C55.4639 96.1554 55.5372 95.9387 55.6839 95.7788C55.8372 95.6187 56.0639 95.5387 56.3639 95.5387H57.5639V96.6287H56.7939V96.7887C56.7939 97.0887 56.8939 97.3187 57.0939 97.4787C57.2939 97.6321 57.5839 97.7087 57.9639 97.7087C58.3039 97.7087 58.5639 97.5954 58.7439 97.3687C58.9306 97.1354 59.0239 96.8187 59.0239 96.4187V95.4987C59.0239 95.0987 58.9172 94.7887 58.7039 94.5687C58.4906 94.3421 58.1906 94.2287 57.8039 94.2287C57.6172 94.2287 57.4406 94.2521 57.2739 94.2987C57.1139 94.3454 56.9672 94.4054 56.8339 94.4787C56.7072 94.5521 56.5939 94.6354 56.4939 94.7287C56.4006 94.8154 56.3272 94.8987 56.2739 94.9787L55.3739 94.1787C55.5806 93.8654 55.8906 93.6021 56.3039 93.3887C56.7239 93.1687 57.2439 93.0587 57.8639 93.0587C58.2839 93.0587 58.6606 93.1254 58.9939 93.2587C59.3339 93.3854 59.6206 93.5754 59.8539 93.8287C60.0872 94.0754 60.2639 94.3787 60.3839 94.7387C60.5106 95.0921 60.5739 95.4954 60.5739 95.9487C60.5739 96.4021 60.5139 96.8087 60.3939 97.1687C60.2739 97.5221 60.0972 97.8254 59.8639 98.0787C59.6372 98.3254 59.3572 98.5154 59.0239 98.6487C58.6972 98.7754 58.3272 98.8388 57.9139 98.8388ZM61.0907 94.7587H62.5307L63.7307 97.5487H63.7807C64.014 97.5487 64.1974 97.4487 64.3307 97.2488C64.464 97.0487 64.5307 96.7687 64.5307 96.4087V95.4887C64.5307 95.1287 64.4607 94.8487 64.3207 94.6487C64.1807 94.4487 63.9874 94.3487 63.7407 94.3487H63.3707V93.1787H63.7707C64.1307 93.1787 64.4507 93.2421 64.7307 93.3687C65.0174 93.4954 65.2574 93.6787 65.4507 93.9187C65.6507 94.1521 65.804 94.4421 65.9107 94.7887C66.0174 95.1287 66.0707 95.5154 66.0707 95.9487C66.0707 96.3821 66.0174 96.7721 65.9107 97.1187C65.8107 97.4587 65.6607 97.7487 65.4607 97.9887C65.2674 98.2221 65.0274 98.4021 64.7407 98.5287C64.4607 98.6554 64.144 98.7188 63.7907 98.7188H62.8207L61.0907 94.7587Z" fill="#3F2436"/>
<line x1="95.6396" y1="104" x2="95.6396" y2="13" stroke="white" stroke-width="0.720759" stroke-dasharray="3.6 3.6"/>
<g filter="url(#filter2_i_25_151335)">
<rect x="16" y="12" width="66.0508" height="66.2509" rx="2.72374" fill="#78C9C0"/>
</g>
<rect x="15.3191" y="11.3191" width="67.4127" height="67.6128" rx="3.40468" stroke="#53978F" stroke-width="1.36187"/>
<g filter="url(#filter3_ii_25_151335)">
<rect x="20.3594" y="16.5264" width="17.3697" height="17.3697" rx="1.24792" fill="#F3F3F3"/>
<rect x="20.3594" y="16.5264" width="17.3697" height="17.3697" rx="1.24792" fill="url(#paint3_linear_25_151335)"/>
</g>
<rect x="20.3594" y="16.5264" width="17.3697" height="17.3697" rx="1.24792" stroke="#3F2436" stroke-width="1.36206"/>
<rect x="20.3594" y="16.5264" width="17.3697" height="17.3697" rx="1.24792" stroke="#D26211" stroke-width="1.36206"/>
<g filter="url(#filter4_ii_25_151335)">
<rect x="40.7881" y="16.5264" width="17.3697" height="17.3697" rx="1.24792" fill="#F3F3F3"/>
</g>
<rect x="40.7881" y="16.5264" width="17.3697" height="17.3697" rx="1.24792" stroke="#C6C6C6" stroke-width="1.36206"/>
<g filter="url(#filter5_ii_25_151335)">
<rect x="61.2178" y="16.5264" width="17.2027" height="17.3697" rx="1.24792" fill="#F3F3F3"/>
<rect x="61.2178" y="16.5264" width="17.2027" height="17.3697" rx="1.24792" fill="url(#paint4_linear_25_151335)"/>
</g>
<rect x="61.2178" y="16.5264" width="17.2027" height="17.3697" rx="1.24792" stroke="#3F2436" stroke-width="1.36206"/>
<rect x="61.2178" y="16.5264" width="17.2027" height="17.3697" rx="1.24792" stroke="#D26211" stroke-width="1.36206"/>
<g filter="url(#filter6_i_25_151335)">
<rect x="20.3594" y="36.9556" width="17.2027" height="17.3697" rx="1.24792" fill="#F3F3F3"/>
</g>
<rect x="20.3594" y="36.9556" width="17.2027" height="17.3697" rx="1.24792" stroke="#C6C6C6" stroke-width="1.36206"/>
<g filter="url(#filter7_ii_25_151335)">
<rect x="40.6211" y="36.9556" width="17.3697" height="17.3697" rx="1.24792" fill="#F3F3F3"/>
<rect x="40.6211" y="36.9556" width="17.3697" height="17.3697" rx="1.24792" fill="url(#paint5_linear_25_151335)"/>
</g>
<rect x="40.6211" y="36.9556" width="17.3697" height="17.3697" rx="1.24792" stroke="#3F2436" stroke-width="1.36206"/>
<rect x="40.6211" y="36.9556" width="17.3697" height="17.3697" rx="1.24792" stroke="#D26211" stroke-width="1.36206"/>
<g filter="url(#filter8_i_25_151335)">
<rect x="61.0508" y="36.9556" width="17.3697" height="17.3697" rx="1.24792" fill="#F3F3F3"/>
</g>
<rect x="61.0508" y="36.9556" width="17.3697" height="17.3697" rx="1.24792" stroke="#C6C6C6" stroke-width="1.36206"/>
<g filter="url(#filter9_ii_25_151335)">
<rect x="20.3594" y="57.3845" width="17.2027" height="17.3697" rx="1.24792" fill="#F3F3F3"/>
<rect x="20.3594" y="57.3845" width="17.2027" height="17.3697" rx="1.24792" fill="url(#paint6_linear_25_151335)"/>
</g>
<rect x="20.3594" y="57.3845" width="17.2027" height="17.3697" rx="1.24792" stroke="#3F2436" stroke-width="1.36206"/>
<rect x="20.3594" y="57.3845" width="17.2027" height="17.3697" rx="1.24792" stroke="#D26211" stroke-width="1.36206"/>
<g filter="url(#filter10_i_25_151335)">
<rect x="40.6211" y="57.3845" width="17.3697" height="17.3697" rx="1.24792" fill="#F3F3F3"/>
</g>
<rect x="40.6211" y="57.3845" width="17.3697" height="17.3697" rx="1.24792" stroke="#C6C6C6" stroke-width="1.36206"/>
<g filter="url(#filter11_ii_25_151335)">
<rect x="61.0508" y="57.3845" width="17.3697" height="17.3697" rx="1.24792" fill="#F3F3F3"/>
<rect x="61.0508" y="57.3845" width="17.3697" height="17.3697" rx="1.24792" fill="url(#paint7_linear_25_151335)"/>
</g>
<rect x="61.0508" y="57.3845" width="17.3697" height="17.3697" rx="1.24792" stroke="#3F2436" stroke-width="1.36206"/>
<rect x="61.0508" y="57.3845" width="17.3697" height="17.3697" rx="1.24792" stroke="#D26211" stroke-width="1.36206"/>
</g>
<rect x="111" y="13" width="218" height="92" rx="7" fill="white" stroke="#53978F" stroke-width="2"/>
<g filter="url(#filter12_i_25_151335)">
<path d="M110 20C110 15.5817 113.582 12 118 12H322C326.418 12 330 15.5817 330 20V35H110V20Z" fill="#53978F"/>
</g>
<path d="M111 20C111 16.134 114.134 13 118 13H322C325.866 13 329 16.134 329 20V34H111V20Z" stroke="#53978F" stroke-width="2"/>
<path d="M189.734 29C189.202 29 188.81 28.8647 188.558 28.594C188.306 28.3233 188.18 27.9453 188.18 27.46V21.314H189.706V27.754H190.798V29H189.734ZM185.982 29C185.45 29 185.058 28.8647 184.806 28.594C184.554 28.3233 184.428 27.9453 184.428 27.46V21.314H185.954V27.754H187.046V29H185.982ZM194.534 29.14C193.778 29.14 193.172 28.9533 192.714 28.58C192.266 28.2067 192.042 27.642 192.042 26.886C192.042 26.1673 192.257 25.612 192.686 25.22C193.125 24.828 193.741 24.632 194.534 24.632H196.914V24.044C196.914 23.5027 196.765 23.092 196.466 22.812C196.177 22.532 195.724 22.392 195.108 22.392C194.558 22.392 194.105 22.5087 193.75 22.742C193.405 22.9753 193.12 23.2693 192.896 23.624L191.916 22.77C192.215 22.294 192.621 21.9067 193.134 21.608C193.657 21.3 194.348 21.146 195.206 21.146C196.261 21.146 197.064 21.3933 197.614 21.888C198.165 22.3733 198.44 23.0733 198.44 23.988V29H196.914V25.654H194.996C194.548 25.654 194.203 25.7473 193.96 25.934C193.727 26.1207 193.61 26.3913 193.61 26.746V27.026C193.61 27.3807 193.718 27.6607 193.932 27.866C194.147 28.0713 194.441 28.174 194.814 28.174C195.001 28.174 195.15 28.16 195.262 28.132L195.388 29.056C195.304 29.0747 195.174 29.0933 194.996 29.112C194.819 29.1307 194.665 29.14 194.534 29.14ZM201.239 24.758L200.035 24.254C200.072 23.7967 200.184 23.3767 200.371 22.994C200.567 22.6113 200.824 22.2847 201.141 22.014C201.458 21.734 201.832 21.5193 202.261 21.37C202.69 21.2207 203.157 21.146 203.661 21.146C204.772 21.146 205.635 21.4307 206.251 22C206.867 22.56 207.175 23.3207 207.175 24.282V29H205.649V24.478C205.649 23.806 205.467 23.2927 205.103 22.938C204.739 22.574 204.24 22.392 203.605 22.392C203.092 22.392 202.639 22.5087 202.247 22.742C201.864 22.966 201.603 23.2693 201.463 23.652L202.065 23.89C202.326 23.9927 202.508 24.114 202.611 24.254C202.714 24.3847 202.765 24.5807 202.765 24.842V29H201.239V24.758ZM212.033 29.168C211.315 29.168 210.703 29.0467 210.199 28.804C209.705 28.552 209.271 28.202 208.897 27.754L209.863 26.844C210.143 27.1987 210.47 27.4693 210.843 27.656C211.217 27.8427 211.641 27.936 212.117 27.936C212.621 27.936 212.995 27.8473 213.237 27.67C213.489 27.4833 213.615 27.222 213.615 26.886C213.615 26.5873 213.517 26.3587 213.321 26.2C213.135 26.032 212.836 25.92 212.425 25.864L211.711 25.766C211.366 25.7193 211.039 25.6447 210.731 25.542C210.423 25.4393 210.153 25.2993 209.919 25.122C209.695 24.9447 209.513 24.7253 209.373 24.464C209.243 24.2027 209.177 23.8807 209.177 23.498C209.177 23.1247 209.247 22.7933 209.387 22.504C209.527 22.2053 209.723 21.958 209.975 21.762C210.227 21.5567 210.526 21.4027 210.871 21.3C211.226 21.1973 211.613 21.146 212.033 21.146C212.733 21.146 213.307 21.2533 213.755 21.468C214.203 21.6733 214.6 21.9627 214.945 22.336L214.021 23.26C213.807 23.0173 213.531 22.812 213.195 22.644C212.859 22.476 212.472 22.392 212.033 22.392C211.576 22.392 211.231 22.4807 210.997 22.658C210.764 22.8353 210.647 23.078 210.647 23.386C210.647 23.7127 210.755 23.9553 210.969 24.114C211.184 24.2727 211.501 24.38 211.921 24.436L212.635 24.548C212.999 24.604 213.331 24.6833 213.629 24.786C213.937 24.8887 214.199 25.0287 214.413 25.206C214.628 25.374 214.791 25.584 214.903 25.836C215.025 26.088 215.085 26.3913 215.085 26.746C215.085 27.11 215.011 27.4413 214.861 27.74C214.721 28.0387 214.516 28.2953 214.245 28.51C213.984 28.7153 213.662 28.8787 213.279 29C212.906 29.112 212.491 29.168 212.033 29.168ZM213.563 19.942C213.077 19.942 212.713 19.8253 212.471 19.592C212.228 19.3587 212.107 19.032 212.107 18.612V17.632H213.451V18.738H217.091V19.942H213.563ZM220.111 29.168C219.598 29.168 219.136 29.098 218.725 28.958C218.324 28.8087 217.978 28.6033 217.689 28.342C217.409 28.0713 217.19 27.7493 217.031 27.376C216.882 26.9933 216.807 26.5687 216.807 26.102V21.314H218.333V25.99C218.333 26.606 218.487 27.082 218.795 27.418C219.112 27.754 219.551 27.922 220.111 27.922C220.671 27.922 221.105 27.754 221.413 27.418C221.73 27.082 221.889 26.606 221.889 25.99V21.314H223.415V26.102C223.415 26.5687 223.336 26.9933 223.177 27.376C223.028 27.7493 222.808 28.0713 222.519 28.342C222.239 28.6033 221.894 28.8087 221.483 28.958C221.082 29.098 220.624 29.168 220.111 29.168ZM227.743 29.14C226.987 29.14 226.381 28.9533 225.923 28.58C225.475 28.2067 225.251 27.642 225.251 26.886C225.251 26.1673 225.466 25.612 225.895 25.22C226.334 24.828 226.95 24.632 227.743 24.632H230.123V24.044C230.123 23.5027 229.974 23.092 229.675 22.812C229.386 22.532 228.933 22.392 228.317 22.392C227.767 22.392 227.314 22.5087 226.959 22.742C226.614 22.9753 226.329 23.2693 226.105 23.624L225.125 22.77C225.424 22.294 225.83 21.9067 226.343 21.608C226.866 21.3 227.557 21.146 228.415 21.146C229.302 21.146 230.007 21.3187 230.529 21.664C230.613 21.16 230.931 20.908 231.481 20.908H233.203V22.238H231.117V22.266C231.472 22.7233 231.649 23.2973 231.649 23.988V29H230.123V25.654H228.205C227.757 25.654 227.412 25.7473 227.169 25.934C226.936 26.1207 226.819 26.3913 226.819 26.746V27.026C226.819 27.3807 226.927 27.6607 227.141 27.866C227.356 28.0713 227.65 28.174 228.023 28.174C228.21 28.174 228.359 28.16 228.471 28.132L228.597 29.056C228.513 29.0747 228.383 29.0933 228.205 29.112C228.028 29.1307 227.874 29.14 227.743 29.14ZM225.611 18.738H231.645V19.942H225.611V18.738ZM236.772 29.168C235.97 29.168 235.349 28.9113 234.91 28.398C234.472 27.8753 234.252 27.138 234.252 26.186V21.314H235.778V26.018C235.778 26.6153 235.9 27.0727 236.142 27.39C236.394 27.698 236.796 27.852 237.346 27.852C237.552 27.852 237.757 27.8287 237.962 27.782C238.168 27.726 238.35 27.642 238.508 27.53C238.676 27.418 238.807 27.278 238.9 27.11C239.003 26.9327 239.054 26.7273 239.054 26.494V21.314H240.58V27.754H241.392V29H240.384C239.992 29 239.698 28.888 239.502 28.664C239.306 28.4307 239.199 28.1087 239.18 27.698H239.11C238.952 28.1273 238.676 28.482 238.284 28.762C237.902 29.0327 237.398 29.168 236.772 29.168ZM242.893 24.282C242.893 23.806 242.972 23.3767 243.131 22.994C243.299 22.602 243.537 22.2707 243.845 22C244.153 21.72 244.522 21.51 244.951 21.37C245.39 21.2207 245.88 21.146 246.421 21.146C246.962 21.146 247.448 21.2207 247.877 21.37C248.316 21.51 248.689 21.72 248.997 22C249.305 22.2707 249.538 22.602 249.697 22.994C249.865 23.3767 249.949 23.806 249.949 24.282V29H248.423V24.38C248.423 23.736 248.246 23.246 247.891 22.91C247.536 22.5647 247.046 22.392 246.421 22.392C245.796 22.392 245.306 22.5647 244.951 22.91C244.596 23.246 244.419 23.736 244.419 24.38V26.144H244.489C244.545 25.9573 244.624 25.7753 244.727 25.598C244.83 25.4207 244.96 25.2667 245.119 25.136C245.278 24.996 245.469 24.884 245.693 24.8C245.917 24.716 246.178 24.674 246.477 24.674H246.897V26.144H246.309C245.702 26.144 245.236 26.2467 244.909 26.452C244.582 26.648 244.419 26.956 244.419 27.376V29H242.893V24.282ZM247.431 18.738H248.425V18.248C248.425 18.0427 248.383 17.898 248.299 17.814C248.206 17.7207 248.043 17.674 247.809 17.674H247.431V16.582H248.369C248.817 16.582 249.158 16.68 249.391 16.876C249.615 17.0627 249.727 17.3193 249.727 17.646C249.727 17.842 249.676 18.038 249.573 18.234C249.461 18.4207 249.298 18.5653 249.083 18.668V18.738H251.603V19.83H247.431V18.738ZM255.278 23.792C255.278 23.344 255.161 22.9987 254.928 22.756C254.695 22.5133 254.326 22.392 253.822 22.392C253.393 22.392 253.047 22.4853 252.786 22.672C252.525 22.8493 252.301 23.0827 252.114 23.372L251.19 22.56C251.442 22.14 251.783 21.7993 252.212 21.538C252.641 21.2767 253.211 21.146 253.92 21.146C254.853 21.146 255.567 21.3653 256.062 21.804C256.557 22.2427 256.804 22.8727 256.804 23.694V29H255.278V23.792Z" fill="white"/>
<path d="M125.928 54C125.4 54 125.012 53.868 124.764 53.604C124.516 53.34 124.392 52.968 124.392 52.488V47.376H125.928V52.776H126.804V54H125.928ZM122.652 54C122.124 54 121.736 53.868 121.488 53.604C121.24 53.34 121.116 52.968 121.116 52.488V47.376H122.652V52.776H123.528V54H122.652ZM129.908 54.12C129.26 54.12 128.744 53.964 128.36 53.652C127.976 53.332 127.784 52.84 127.784 52.176C127.784 51.552 127.968 51.072 128.336 50.736C128.704 50.4 129.228 50.232 129.908 50.232H131.924V49.8C131.924 49.368 131.808 49.04 131.576 48.816C131.344 48.584 130.976 48.468 130.472 48.468C130 48.468 129.62 48.572 129.332 48.78C129.044 48.98 128.808 49.216 128.624 49.488L127.652 48.636C127.788 48.428 127.944 48.24 128.12 48.072C128.304 47.896 128.512 47.748 128.744 47.628C128.984 47.5 129.252 47.404 129.548 47.34C129.852 47.268 130.192 47.232 130.568 47.232C131.52 47.232 132.24 47.448 132.728 47.88C133.216 48.312 133.46 48.932 133.46 49.74V54H131.924V51.228H130.424C129.712 51.228 129.356 51.512 129.356 52.08V52.308C129.356 52.588 129.436 52.808 129.596 52.968C129.756 53.128 129.976 53.208 130.256 53.208C130.384 53.208 130.496 53.196 130.592 53.172L130.7 54.036C130.636 54.06 130.52 54.08 130.352 54.096C130.184 54.112 130.036 54.12 129.908 54.12ZM135.737 50.436L134.705 50.016C134.737 49.6 134.837 49.22 135.005 48.876C135.173 48.532 135.397 48.24 135.677 48C135.965 47.752 136.301 47.564 136.685 47.436C137.077 47.3 137.501 47.232 137.957 47.232C138.437 47.232 138.865 47.296 139.241 47.424C139.625 47.552 139.949 47.736 140.213 47.976C140.477 48.216 140.677 48.508 140.813 48.852C140.957 49.188 141.029 49.564 141.029 49.98V54H139.493V50.184C139.493 49.632 139.353 49.208 139.073 48.912C138.793 48.616 138.389 48.468 137.861 48.468C137.445 48.468 137.081 48.56 136.769 48.744C136.465 48.92 136.253 49.152 136.133 49.44L136.601 49.62C136.857 49.716 137.033 49.828 137.129 49.956C137.225 50.084 137.273 50.276 137.273 50.532V54H135.737V50.436ZM145.12 54.144C144.496 54.144 143.964 54.04 143.524 53.832C143.092 53.624 142.712 53.328 142.384 52.944L143.332 52.044C143.564 52.324 143.836 52.544 144.148 52.704C144.46 52.856 144.812 52.932 145.204 52.932C145.612 52.932 145.904 52.864 146.08 52.728C146.264 52.592 146.356 52.404 146.356 52.164C146.356 51.924 146.284 51.748 146.14 51.636C145.996 51.516 145.78 51.436 145.492 51.396L144.844 51.312C144.516 51.272 144.216 51.204 143.944 51.108C143.672 51.012 143.436 50.884 143.236 50.724C143.044 50.564 142.892 50.368 142.78 50.136C142.676 49.904 142.624 49.632 142.624 49.32C142.624 49 142.684 48.712 142.804 48.456C142.932 48.192 143.104 47.972 143.32 47.796C143.544 47.612 143.808 47.472 144.112 47.376C144.424 47.28 144.768 47.232 145.144 47.232C145.76 47.232 146.264 47.324 146.656 47.508C147.048 47.692 147.4 47.944 147.712 48.264L146.8 49.176C146.616 48.968 146.38 48.796 146.092 48.66C145.804 48.516 145.492 48.444 145.156 48.444C144.796 48.444 144.528 48.516 144.352 48.66C144.184 48.796 144.1 48.98 144.1 49.212C144.1 49.444 144.172 49.624 144.316 49.752C144.468 49.872 144.712 49.956 145.048 50.004L145.696 50.1C146.352 50.196 146.872 50.388 147.256 50.676C147.64 50.964 147.832 51.416 147.832 52.032C147.832 52.344 147.768 52.632 147.64 52.896C147.512 53.152 147.328 53.372 147.088 53.556C146.856 53.74 146.572 53.884 146.236 53.988C145.9 54.092 145.528 54.144 145.12 54.144ZM146.333 46.284C145.877 46.284 145.533 46.176 145.301 45.96C145.069 45.744 144.953 45.436 144.953 45.036V44.124H146.225V45.12H149.393V46.284H146.333ZM152.115 54.144C151.667 54.144 151.263 54.084 150.903 53.964C150.543 53.836 150.235 53.656 149.979 53.424C149.731 53.192 149.539 52.912 149.403 52.584C149.275 52.256 149.211 51.888 149.211 51.48V47.376H150.747V51.396C150.747 51.876 150.867 52.248 151.107 52.512C151.347 52.776 151.683 52.908 152.115 52.908C152.547 52.908 152.883 52.776 153.123 52.512C153.363 52.248 153.483 51.876 153.483 51.396V47.376H155.019V51.48C155.019 51.888 154.951 52.256 154.815 52.584C154.687 52.912 154.495 53.192 154.239 53.424C153.991 53.656 153.687 53.836 153.327 53.964C152.967 54.084 152.563 54.144 152.115 54.144ZM165.98 47.988H165.932L165.284 49.32L163.568 52.488L161.852 49.32L161.204 47.988H161.156V54H159.656V45.624H161.444L163.592 49.716H163.64L165.764 45.624H167.48V54H165.98V47.988ZM173.965 54C173.629 54 173.361 53.904 173.161 53.712C172.969 53.512 172.849 53.248 172.801 52.92H172.729C172.625 53.328 172.413 53.636 172.093 53.844C171.773 54.044 171.377 54.144 170.905 54.144C170.265 54.144 169.773 53.976 169.429 53.64C169.085 53.304 168.913 52.856 168.913 52.296C168.913 51.648 169.145 51.168 169.609 50.856C170.073 50.536 170.733 50.376 171.589 50.376H172.657V49.92C172.657 49.568 172.565 49.296 172.381 49.104C172.197 48.912 171.901 48.816 171.493 48.816C171.133 48.816 170.841 48.896 170.617 49.056C170.401 49.208 170.217 49.392 170.065 49.608L169.153 48.792C169.385 48.432 169.693 48.144 170.077 47.928C170.461 47.704 170.969 47.592 171.601 47.592C172.449 47.592 173.093 47.784 173.533 48.168C173.973 48.552 174.193 49.104 174.193 49.824V52.776H174.817V54H173.965ZM171.421 53.028C171.765 53.028 172.057 52.952 172.297 52.8C172.537 52.648 172.657 52.424 172.657 52.128V51.3H171.673C170.873 51.3 170.473 51.556 170.473 52.068V52.272C170.473 52.528 170.553 52.72 170.713 52.848C170.881 52.968 171.117 53.028 171.421 53.028ZM176.828 46.824C176.508 46.824 176.276 46.752 176.132 46.608C175.996 46.464 175.928 46.28 175.928 46.056V45.816C175.928 45.592 175.996 45.408 176.132 45.264C176.276 45.12 176.508 45.048 176.828 45.048C177.14 45.048 177.368 45.12 177.512 45.264C177.656 45.408 177.728 45.592 177.728 45.816V46.056C177.728 46.28 177.656 46.464 177.512 46.608C177.368 46.752 177.14 46.824 176.828 46.824ZM176.06 47.736H177.596V54H176.06V47.736ZM181.332 54C180.804 54 180.4 53.864 180.12 53.592C179.848 53.312 179.712 52.916 179.712 52.404V48.96H178.788V47.736H179.268C179.5 47.736 179.656 47.684 179.736 47.58C179.824 47.468 179.868 47.304 179.868 47.088V46.02H181.248V47.736H182.532V48.96H181.248V52.776H182.436V54H181.332ZM183.865 45.12H185.401V48.78H185.461C185.589 48.444 185.789 48.164 186.061 47.94C186.341 47.708 186.725 47.592 187.213 47.592C187.861 47.592 188.357 47.804 188.701 48.228C189.045 48.652 189.217 49.256 189.217 50.04V54H187.681V50.196C187.681 49.748 187.601 49.412 187.441 49.188C187.281 48.964 187.017 48.852 186.649 48.852C186.489 48.852 186.333 48.876 186.181 48.924C186.037 48.964 185.905 49.028 185.785 49.116C185.673 49.196 185.581 49.3 185.509 49.428C185.437 49.548 185.401 49.692 185.401 49.86V54H183.865V45.12ZM195.527 54C195.191 54 194.923 53.904 194.723 53.712C194.531 53.512 194.411 53.248 194.363 52.92H194.291C194.187 53.328 193.975 53.636 193.655 53.844C193.335 54.044 192.939 54.144 192.467 54.144C191.827 54.144 191.335 53.976 190.991 53.64C190.647 53.304 190.475 52.856 190.475 52.296C190.475 51.648 190.707 51.168 191.171 50.856C191.635 50.536 192.295 50.376 193.151 50.376H194.219V49.92C194.219 49.568 194.127 49.296 193.943 49.104C193.759 48.912 193.463 48.816 193.055 48.816C192.695 48.816 192.403 48.896 192.179 49.056C191.963 49.208 191.779 49.392 191.627 49.608L190.715 48.792C190.947 48.432 191.255 48.144 191.639 47.928C192.023 47.704 192.531 47.592 193.163 47.592C194.011 47.592 194.655 47.784 195.095 48.168C195.535 48.552 195.755 49.104 195.755 49.824V52.776H196.379V54H195.527ZM192.983 53.028C193.327 53.028 193.619 52.952 193.859 52.8C194.099 52.648 194.219 52.424 194.219 52.128V51.3H193.235C192.435 51.3 192.035 51.556 192.035 52.068V52.272C192.035 52.528 192.115 52.72 192.275 52.848C192.443 52.968 192.679 53.028 192.983 53.028ZM198.39 46.824C198.07 46.824 197.838 46.752 197.694 46.608C197.558 46.464 197.49 46.28 197.49 46.056V45.816C197.49 45.592 197.558 45.408 197.694 45.264C197.838 45.12 198.07 45.048 198.39 45.048C198.702 45.048 198.93 45.12 199.074 45.264C199.218 45.408 199.29 45.592 199.29 45.816V46.056C199.29 46.28 199.218 46.464 199.074 46.608C198.93 46.752 198.702 46.824 198.39 46.824ZM197.622 47.736H199.158V54H197.622V47.736ZM207.123 54.144C206.571 54.144 206.071 54.056 205.623 53.88C205.183 53.696 204.803 53.424 204.483 53.064C204.171 52.704 203.931 52.26 203.763 51.732C203.595 51.196 203.511 50.576 203.511 49.872C203.511 49.168 203.595 48.544 203.763 48C203.931 47.448 204.171 46.988 204.483 46.62C204.803 46.244 205.183 45.96 205.623 45.768C206.071 45.576 206.571 45.48 207.123 45.48C207.875 45.48 208.499 45.64 208.995 45.96C209.491 46.28 209.887 46.764 210.183 47.412L208.827 48.132C208.707 47.756 208.511 47.456 208.239 47.232C207.967 47 207.595 46.884 207.123 46.884C206.531 46.884 206.059 47.084 205.707 47.484C205.363 47.884 205.191 48.444 205.191 49.164V50.484C205.191 51.212 205.363 51.772 205.707 52.164C206.059 52.548 206.531 52.74 207.123 52.74C207.595 52.74 207.979 52.612 208.275 52.356C208.579 52.1 208.799 51.784 208.935 51.408L210.219 52.164C209.915 52.788 209.511 53.276 209.007 53.628C208.503 53.972 207.875 54.144 207.123 54.144ZM213.958 54.144C213.51 54.144 213.106 54.068 212.746 53.916C212.394 53.764 212.09 53.544 211.834 53.256C211.586 52.968 211.394 52.624 211.258 52.224C211.122 51.816 211.054 51.36 211.054 50.856C211.054 50.352 211.122 49.9 211.258 49.5C211.394 49.1 211.586 48.76 211.834 48.48C212.09 48.192 212.394 47.972 212.746 47.82C213.106 47.668 213.51 47.592 213.958 47.592C214.406 47.592 214.81 47.668 215.17 47.82C215.53 47.972 215.834 48.192 216.082 48.48C216.338 48.76 216.534 49.1 216.67 49.5C216.806 49.9 216.874 50.352 216.874 50.856C216.874 51.36 216.806 51.816 216.67 52.224C216.534 52.624 216.338 52.968 216.082 53.256C215.834 53.544 215.53 53.764 215.17 53.916C214.81 54.068 214.406 54.144 213.958 54.144ZM213.958 52.908C214.366 52.908 214.686 52.784 214.918 52.536C215.15 52.288 215.266 51.924 215.266 51.444V50.28C215.266 49.808 215.15 49.448 214.918 49.2C214.686 48.952 214.366 48.828 213.958 48.828C213.558 48.828 213.242 48.952 213.01 49.2C212.778 49.448 212.662 49.808 212.662 50.28V51.444C212.662 51.924 212.778 52.288 213.01 52.536C213.242 52.784 213.558 52.908 213.958 52.908ZM220.708 54.144C220.244 54.144 219.832 54.068 219.472 53.916C219.112 53.764 218.808 53.544 218.56 53.256C218.32 52.968 218.136 52.624 218.008 52.224C217.88 51.816 217.816 51.36 217.816 50.856C217.816 50.352 217.88 49.9 218.008 49.5C218.136 49.1 218.32 48.76 218.56 48.48C218.808 48.192 219.112 47.972 219.472 47.82C219.832 47.668 220.244 47.592 220.708 47.592C221.34 47.592 221.86 47.732 222.268 48.012C222.684 48.292 222.984 48.68 223.168 49.176L221.908 49.74C221.836 49.476 221.7 49.26 221.5 49.092C221.308 48.916 221.044 48.828 220.708 48.828C220.276 48.828 219.952 48.964 219.736 49.236C219.528 49.508 219.424 49.864 219.424 50.304V51.444C219.424 51.884 219.528 52.24 219.736 52.512C219.952 52.776 220.276 52.908 220.708 52.908C221.076 52.908 221.36 52.816 221.56 52.632C221.76 52.44 221.916 52.204 222.028 51.924L223.204 52.488C222.996 53.04 222.68 53.456 222.256 53.736C221.832 54.008 221.316 54.144 220.708 54.144ZM224.388 45.12H225.924V50.472H225.984L226.812 49.344L228.216 47.736H229.956L227.796 50.16L230.184 54H228.36L226.752 51.192L225.924 52.092V54H224.388V45.12ZM232.965 54C232.437 54 232.033 53.864 231.753 53.592C231.481 53.312 231.345 52.916 231.345 52.404V48.96H230.421V47.736H230.901C231.133 47.736 231.289 47.684 231.369 47.58C231.457 47.468 231.501 47.304 231.501 47.088V46.02H232.881V47.736H234.165V48.96H232.881V52.776H234.069V54H232.965ZM240.105 54C239.769 54 239.501 53.904 239.301 53.712C239.109 53.512 238.989 53.248 238.941 52.92H238.869C238.765 53.328 238.553 53.636 238.233 53.844C237.913 54.044 237.517 54.144 237.045 54.144C236.405 54.144 235.913 53.976 235.569 53.64C235.225 53.304 235.053 52.856 235.053 52.296C235.053 51.648 235.285 51.168 235.749 50.856C236.213 50.536 236.873 50.376 237.729 50.376H238.797V49.92C238.797 49.568 238.705 49.296 238.521 49.104C238.337 48.912 238.041 48.816 237.633 48.816C237.273 48.816 236.981 48.896 236.757 49.056C236.541 49.208 236.357 49.392 236.205 49.608L235.293 48.792C235.525 48.432 235.833 48.144 236.217 47.928C236.601 47.704 237.109 47.592 237.741 47.592C238.589 47.592 239.233 47.784 239.673 48.168C240.113 48.552 240.333 49.104 240.333 49.824V52.776H240.957V54H240.105ZM237.561 53.028C237.905 53.028 238.197 52.952 238.437 52.8C238.677 52.648 238.797 52.424 238.797 52.128V51.3H237.813C237.013 51.3 236.613 51.556 236.613 52.068V52.272C236.613 52.528 236.693 52.72 236.853 52.848C237.021 52.968 237.257 53.028 237.561 53.028ZM242.969 46.824C242.649 46.824 242.417 46.752 242.273 46.608C242.137 46.464 242.069 46.28 242.069 46.056V45.816C242.069 45.592 242.137 45.408 242.273 45.264C242.417 45.12 242.649 45.048 242.969 45.048C243.281 45.048 243.509 45.12 243.653 45.264C243.797 45.408 243.869 45.592 243.869 45.816V46.056C243.869 46.28 243.797 46.464 243.653 46.608C243.509 46.752 243.281 46.824 242.969 46.824ZM242.201 47.736H243.737V54H242.201V47.736ZM247.053 54C246.525 54 246.137 53.868 245.889 53.604C245.641 53.34 245.517 52.968 245.517 52.488V45.12H247.053V52.776H247.881V54H247.053ZM252.084 54V52.716H254.388V46.764H254.28L252.456 48.924L251.472 48.096L253.548 45.624H255.936V52.716H257.856V54H252.084ZM266.951 54C266.423 54 266.035 53.868 265.787 53.604C265.539 53.34 265.415 52.968 265.415 52.488V47.376H266.951V52.776H267.827V54H266.951ZM263.675 54C263.147 54 262.759 53.868 262.511 53.604C262.263 53.34 262.139 52.968 262.139 52.488V47.376H263.675V52.776H264.551V54H263.675ZM269.636 50.436L268.604 50.016C268.636 49.6 268.736 49.22 268.904 48.876C269.072 48.532 269.296 48.24 269.576 48C269.864 47.752 270.2 47.564 270.584 47.436C270.976 47.3 271.4 47.232 271.856 47.232C272.336 47.232 272.764 47.296 273.14 47.424C273.524 47.552 273.848 47.736 274.112 47.976C274.376 48.216 274.576 48.508 274.712 48.852C274.856 49.188 274.928 49.564 274.928 49.98V54H273.392V50.184C273.392 49.632 273.252 49.208 272.972 48.912C272.692 48.616 272.288 48.468 271.76 48.468C271.344 48.468 270.98 48.56 270.668 48.744C270.364 48.92 270.152 49.152 270.032 49.44L270.5 49.62C270.756 49.716 270.932 49.828 271.028 49.956C271.124 50.084 271.172 50.276 271.172 50.532V54H269.636V50.436ZM272.594 45.12H273.398V44.7C273.398 44.548 273.362 44.44 273.29 44.376C273.218 44.304 273.086 44.268 272.894 44.268H272.594V43.188H273.494C273.878 43.188 274.174 43.276 274.382 43.452C274.59 43.62 274.694 43.844 274.694 44.124C274.694 44.308 274.642 44.488 274.538 44.664C274.426 44.832 274.27 44.96 274.07 45.048V45.12H276.266V46.2H272.594V45.12ZM278.682 54.144C278.33 54.144 277.994 54.1 277.674 54.012C277.362 53.932 277.086 53.808 276.846 53.64L277.41 52.548C277.562 52.636 277.734 52.72 277.926 52.8C278.118 52.872 278.346 52.908 278.61 52.908C279.042 52.908 279.37 52.764 279.594 52.476C279.826 52.18 279.942 51.78 279.942 51.276V50.112C279.942 49.608 279.83 49.208 279.606 48.912C279.382 48.616 279.05 48.468 278.61 48.468C278.242 48.468 277.946 48.56 277.722 48.744C277.498 48.928 277.342 49.16 277.254 49.44L276.006 48.888C276.206 48.376 276.53 47.972 276.978 47.676C277.434 47.38 278.002 47.232 278.682 47.232C279.146 47.232 279.554 47.312 279.906 47.472C280.266 47.632 280.566 47.864 280.806 48.168C281.054 48.464 281.238 48.824 281.358 49.248C281.486 49.672 281.55 50.148 281.55 50.676C281.55 51.212 281.486 51.696 281.358 52.128C281.238 52.552 281.054 52.916 280.806 53.22C280.566 53.516 280.266 53.744 279.906 53.904C279.554 54.064 279.146 54.144 278.682 54.144Z" fill="#3F2436"/>
<path d="M124.392 73.144C124.112 73.144 123.864 73.108 123.648 73.036C123.44 72.972 123.256 72.884 123.096 72.772C122.944 72.652 122.816 72.516 122.712 72.364C122.616 72.212 122.54 72.056 122.484 71.896H122.424V73H120.888V66.376H122.424V70.768C122.424 70.952 122.464 71.116 122.544 71.26C122.624 71.396 122.728 71.512 122.856 71.608C122.984 71.696 123.128 71.764 123.288 71.812C123.448 71.86 123.608 71.884 123.768 71.884C124.008 71.884 124.208 71.848 124.368 71.776C124.528 71.696 124.656 71.592 124.752 71.464C124.856 71.328 124.928 71.172 124.968 70.996C125.008 70.812 125.028 70.616 125.028 70.408V66.376H126.564V70.552C126.564 71.384 126.376 72.024 126 72.472C125.632 72.92 125.096 73.144 124.392 73.144ZM124.654 77.272C124.014 77.272 123.558 77.128 123.286 76.84C123.006 76.552 122.866 76.188 122.866 75.748V75.316H122.086V74.284H123.046C123.406 74.284 123.662 74.352 123.814 74.488C123.966 74.632 124.042 74.82 124.042 75.052V75.508C124.042 75.756 124.086 75.94 124.174 76.06C124.262 76.18 124.422 76.24 124.654 76.24C124.886 76.24 125.046 76.18 125.134 76.06C125.222 75.94 125.266 75.756 125.266 75.508V74.284H126.562V75.448C126.562 75.976 126.406 76.412 126.094 76.756C125.782 77.1 125.302 77.272 124.654 77.272ZM130.143 73.12C129.495 73.12 128.979 72.964 128.595 72.652C128.211 72.332 128.019 71.84 128.019 71.176C128.019 70.552 128.203 70.072 128.571 69.736C128.939 69.4 129.463 69.232 130.143 69.232H132.159V68.8C132.159 68.368 132.043 68.04 131.811 67.816C131.579 67.584 131.211 67.468 130.707 67.468C130.235 67.468 129.855 67.572 129.567 67.78C129.279 67.98 129.043 68.216 128.859 68.488L127.887 67.636C128.023 67.428 128.179 67.24 128.355 67.072C128.539 66.896 128.747 66.748 128.979 66.628C129.219 66.5 129.487 66.404 129.783 66.34C130.087 66.268 130.427 66.232 130.803 66.232C131.755 66.232 132.475 66.448 132.963 66.88C133.451 67.312 133.695 67.932 133.695 68.74V73H132.159V70.228H130.659C129.947 70.228 129.591 70.512 129.591 71.08V71.308C129.591 71.588 129.671 71.808 129.831 71.968C129.991 72.128 130.211 72.208 130.491 72.208C130.619 72.208 130.731 72.196 130.827 72.172L130.935 73.036C130.871 73.06 130.755 73.08 130.587 73.096C130.419 73.112 130.271 73.12 130.143 73.12ZM135.324 68.992C135.324 68.576 135.396 68.2 135.54 67.864C135.684 67.52 135.892 67.228 136.164 66.988C136.436 66.748 136.764 66.564 137.148 66.436C137.54 66.3 137.98 66.232 138.468 66.232C138.948 66.232 139.38 66.3 139.764 66.436C140.156 66.564 140.488 66.748 140.76 66.988C141.032 67.228 141.24 67.52 141.384 67.864C141.536 68.2 141.612 68.576 141.612 68.992V73H140.076V69.076C140.076 68.564 139.932 68.168 139.644 67.888C139.364 67.608 138.972 67.468 138.468 67.468C137.964 67.468 137.568 67.608 137.28 67.888C137 68.168 136.86 68.564 136.86 69.076V70.54H136.92C136.96 70.372 137.02 70.212 137.1 70.06C137.188 69.9 137.3 69.76 137.436 69.64C137.572 69.52 137.732 69.424 137.916 69.352C138.108 69.272 138.328 69.232 138.576 69.232H138.912V70.684H138.432C137.92 70.684 137.528 70.764 137.256 70.924C136.992 71.076 136.86 71.332 136.86 71.692V73H135.324V68.992ZM140.145 62.872H141.561V65.284H140.145V62.872ZM146.057 68.572C146.057 68.22 145.965 67.948 145.781 67.756C145.605 67.564 145.321 67.468 144.929 67.468C144.569 67.468 144.281 67.544 144.065 67.696C143.857 67.848 143.681 68.036 143.537 68.26L142.625 67.444C142.857 67.076 143.157 66.784 143.525 66.568C143.901 66.344 144.405 66.232 145.037 66.232C145.877 66.232 146.513 66.428 146.945 66.82C147.377 67.204 147.593 67.76 147.593 68.488V73H146.057V68.572ZM157.794 73H151.986V71.536L154.614 69.232C155.062 68.84 155.39 68.488 155.598 68.176C155.806 67.856 155.91 67.512 155.91 67.144V66.988C155.91 66.62 155.79 66.34 155.55 66.148C155.31 65.948 155.018 65.848 154.674 65.848C154.242 65.848 153.914 65.972 153.69 66.22C153.466 66.46 153.306 66.752 153.21 67.096L151.842 66.568C151.93 66.288 152.054 66.024 152.214 65.776C152.374 65.52 152.574 65.296 152.814 65.104C153.062 64.912 153.35 64.76 153.678 64.648C154.006 64.536 154.382 64.48 154.806 64.48C155.246 64.48 155.638 64.544 155.982 64.672C156.326 64.792 156.614 64.964 156.846 65.188C157.086 65.412 157.266 65.676 157.386 65.98C157.514 66.284 157.578 66.616 157.578 66.976C157.578 67.328 157.522 67.648 157.41 67.936C157.298 68.224 157.146 68.5 156.954 68.764C156.762 69.02 156.538 69.268 156.282 69.508C156.026 69.74 155.754 69.976 155.466 70.216L153.702 71.668H157.794V73ZM164.99 73H159.182V71.536L161.81 69.232C162.258 68.84 162.586 68.488 162.794 68.176C163.002 67.856 163.106 67.512 163.106 67.144V66.988C163.106 66.62 162.986 66.34 162.746 66.148C162.506 65.948 162.214 65.848 161.87 65.848C161.438 65.848 161.11 65.972 160.886 66.22C160.662 66.46 160.502 66.752 160.406 67.096L159.038 66.568C159.126 66.288 159.25 66.024 159.41 65.776C159.57 65.52 159.77 65.296 160.01 65.104C160.258 64.912 160.546 64.76 160.874 64.648C161.202 64.536 161.578 64.48 162.002 64.48C162.442 64.48 162.834 64.544 163.178 64.672C163.522 64.792 163.81 64.964 164.042 65.188C164.282 65.412 164.462 65.676 164.582 65.98C164.71 66.284 164.773 66.616 164.773 66.976C164.773 67.328 164.717 67.648 164.605 67.936C164.493 68.224 164.342 68.5 164.15 68.764C163.958 69.02 163.734 69.268 163.478 69.508C163.222 69.74 162.95 69.976 162.662 70.216L160.898 71.668H164.99V73ZM169.233 73.144C168.697 73.144 168.233 73.048 167.841 72.856C167.449 72.656 167.125 72.372 166.869 72.004C166.613 71.636 166.421 71.184 166.293 70.648C166.173 70.112 166.113 69.5 166.113 68.812C166.113 68.132 166.173 67.524 166.293 66.988C166.421 66.444 166.613 65.988 166.869 65.62C167.125 65.252 167.449 64.972 167.841 64.78C168.233 64.58 168.697 64.48 169.233 64.48C170.297 64.48 171.081 64.86 171.585 65.62C172.097 66.38 172.353 67.444 172.353 68.812C172.353 70.18 172.097 71.244 171.585 72.004C171.081 72.764 170.297 73.144 169.233 73.144ZM169.233 71.812C169.769 71.812 170.141 71.612 170.349 71.212C170.565 70.804 170.673 70.256 170.673 69.568V68.056C170.673 67.368 170.565 66.824 170.349 66.424C170.141 66.016 169.769 65.812 169.233 65.812C168.697 65.812 168.321 66.016 168.105 66.424C167.897 66.824 167.793 67.368 167.793 68.056V69.568C167.793 70.256 167.897 70.804 168.105 71.212C168.321 71.612 168.697 71.812 169.233 71.812ZM179.384 73.144C178.936 73.144 178.532 73.084 178.172 72.964C177.812 72.836 177.504 72.656 177.248 72.424C177 72.192 176.808 71.912 176.672 71.584C176.544 71.256 176.48 70.888 176.48 70.48V66.376H178.016V70.396C178.016 70.876 178.136 71.248 178.376 71.512C178.616 71.776 178.952 71.908 179.384 71.908C179.816 71.908 180.152 71.776 180.392 71.512C180.632 71.248 180.752 70.876 180.752 70.396V66.376H182.288V70.48C182.288 70.888 182.22 71.256 182.084 71.584C181.956 71.912 181.764 72.192 181.508 72.424C181.26 72.656 180.956 72.836 180.596 72.964C180.236 73.084 179.832 73.144 179.384 73.144ZM186.849 68.572C186.849 68.22 186.757 67.948 186.573 67.756C186.397 67.564 186.113 67.468 185.721 67.468C185.361 67.468 185.073 67.544 184.857 67.696C184.649 67.848 184.473 68.036 184.329 68.26L183.417 67.444C183.649 67.076 183.949 66.784 184.317 66.568C184.693 66.344 185.197 66.232 185.829 66.232C186.669 66.232 187.305 66.428 187.737 66.82C188.169 67.204 188.385 67.76 188.385 68.488V73H186.849V68.572ZM190.087 66.376H191.623V67.48H191.683C191.739 67.32 191.819 67.164 191.923 67.012C192.027 66.86 192.155 66.728 192.307 66.616C192.467 66.496 192.651 66.404 192.859 66.34C193.075 66.268 193.327 66.232 193.615 66.232C194.319 66.232 194.859 66.456 195.235 66.904C195.611 67.352 195.799 67.992 195.799 68.824V73H194.263V68.968C194.263 68.488 194.163 68.124 193.963 67.876C193.763 67.62 193.443 67.492 193.003 67.492C192.835 67.492 192.667 67.516 192.499 67.564C192.331 67.612 192.183 67.684 192.055 67.78C191.927 67.876 191.823 67.996 191.743 68.14C191.663 68.276 191.623 68.436 191.623 68.62V73H190.087V66.376Z" fill="#3F2436"/>
<path d="M121.304 91.408L120.696 90.984L121.544 89.928L120.272 89.56L120.504 88.864L121.728 89.344L121.672 88.024H122.432L122.376 89.344L123.6 88.864L123.84 89.56L122.56 89.928L123.408 90.984L122.8 91.408L122.048 90.288L121.304 91.408ZM125.813 94C125.509 94 125.285 93.9227 125.141 93.768C124.997 93.6133 124.925 93.3973 124.925 93.12V89.608H125.797V93.288H126.421V94H125.813ZM129.488 94.096C129.301 94.096 129.136 94.072 128.992 94.024C128.853 93.9813 128.733 93.9227 128.632 93.848C128.531 93.768 128.445 93.68 128.376 93.584C128.307 93.4827 128.253 93.3787 128.216 93.272H128.176V94H127.304V89.608H128.176V92.568C128.176 92.7013 128.205 92.8187 128.264 92.92C128.323 93.016 128.397 93.096 128.488 93.16C128.579 93.224 128.683 93.272 128.8 93.304C128.917 93.3307 129.037 93.344 129.16 93.344C129.496 93.344 129.733 93.2533 129.872 93.072C130.016 92.8853 130.088 92.6267 130.088 92.296V89.608H130.96V92.392C130.96 92.9413 130.832 93.3627 130.576 93.656C130.32 93.9493 129.957 94.096 129.488 94.096ZM127.505 88.136H128.921V87.504H129.641V88.2H130.233V87.504H130.953V88.824H127.505V88.136ZM130.193 85.84H130.953V87.064H130.193V85.84ZM133.805 94.096C133.538 94.096 133.288 94.0587 133.053 93.984C132.824 93.904 132.624 93.7973 132.453 93.664C132.288 93.5253 132.157 93.36 132.061 93.168C131.965 92.976 131.917 92.7627 131.917 92.528V92.128C131.917 91.9413 131.96 91.7973 132.045 91.696C132.13 91.5893 132.285 91.536 132.509 91.536H133.405V92.224H132.741V92.464C132.741 92.784 132.84 93.0187 133.037 93.168C133.24 93.312 133.509 93.384 133.845 93.384C134.192 93.384 134.458 93.2773 134.645 93.064C134.837 92.8507 134.933 92.5493 134.933 92.16V91.472C134.933 91.0773 134.826 90.7707 134.613 90.552C134.405 90.3333 134.109 90.224 133.725 90.224C133.405 90.224 133.13 90.2907 132.901 90.424C132.677 90.5573 132.506 90.7173 132.389 90.904L131.845 90.416C132 90.16 132.237 89.9467 132.557 89.776C132.877 89.6 133.28 89.512 133.765 89.512C134.426 89.512 134.941 89.7147 135.309 90.12C135.677 90.52 135.861 91.08 135.861 91.8C135.861 92.152 135.816 92.472 135.725 92.76C135.634 93.0427 135.501 93.2827 135.325 93.48C135.149 93.6773 134.933 93.8293 134.677 93.936C134.421 94.0427 134.13 94.096 133.805 94.096ZM140.114 94C139.81 94 139.586 93.9227 139.442 93.768C139.298 93.6133 139.226 93.3973 139.226 93.12V89.608H140.098V93.288H140.722V94H140.114ZM137.97 94C137.666 94 137.442 93.9227 137.298 93.768C137.154 93.6133 137.082 93.3973 137.082 93.12V89.608H137.954V93.288H138.578V94H137.97ZM142.857 94.08C142.425 94.08 142.078 93.9733 141.817 93.76C141.561 93.5467 141.433 93.224 141.433 92.792C141.433 92.3813 141.555 92.064 141.801 91.84C142.051 91.616 142.403 91.504 142.857 91.504H144.217V91.168C144.217 90.8587 144.131 90.624 143.961 90.464C143.795 90.304 143.537 90.224 143.185 90.224C142.87 90.224 142.611 90.2907 142.409 90.424C142.211 90.5573 142.049 90.7253 141.921 90.928L141.361 90.44C141.531 90.168 141.763 89.9467 142.057 89.776C142.355 89.6 142.75 89.512 143.241 89.512C143.843 89.512 144.302 89.6533 144.617 89.936C144.931 90.2133 145.089 90.6133 145.089 91.136V94H144.217V92.088H143.121C142.865 92.088 142.667 92.1413 142.529 92.248C142.395 92.3547 142.329 92.5093 142.329 92.712V92.872C142.329 93.0747 142.39 93.2347 142.513 93.352C142.635 93.4693 142.803 93.528 143.017 93.528C143.123 93.528 143.209 93.52 143.273 93.504L143.345 94.032C143.297 94.0427 143.222 94.0533 143.121 94.064C143.019 94.0747 142.931 94.08 142.857 94.08ZM146.688 91.576L146 91.288C146.021 91.0267 146.085 90.7867 146.192 90.568C146.304 90.3493 146.451 90.1627 146.632 90.008C146.813 89.848 147.027 89.7253 147.272 89.64C147.517 89.5547 147.784 89.512 148.072 89.512C148.707 89.512 149.2 89.6747 149.552 90C149.904 90.32 150.08 90.7547 150.08 91.304V94H149.208V91.416C149.208 91.032 149.104 90.7387 148.896 90.536C148.688 90.328 148.403 90.224 148.04 90.224C147.747 90.224 147.488 90.2907 147.264 90.424C147.045 90.552 146.896 90.7253 146.816 90.944L147.16 91.08C147.309 91.1387 147.413 91.208 147.472 91.288C147.531 91.3627 147.56 91.4747 147.56 91.624V94H146.688V91.576ZM154.512 94C154.208 94 153.984 93.9227 153.84 93.768C153.696 93.6133 153.624 93.3973 153.624 93.12V89.608H154.496V93.288H155.12V94H154.512ZM152.368 94C152.064 94 151.84 93.9227 151.696 93.768C151.552 93.6133 151.48 93.3973 151.48 93.12V89.608H152.352V93.288H152.976V94H152.368ZM157.255 94.08C156.823 94.08 156.477 93.9733 156.215 93.76C155.959 93.5467 155.831 93.224 155.831 92.792C155.831 92.3813 155.954 92.064 156.199 91.84C156.45 91.616 156.802 91.504 157.255 91.504H158.615V91.168C158.615 90.8587 158.53 90.624 158.359 90.464C158.194 90.304 157.935 90.224 157.583 90.224C157.269 90.224 157.01 90.2907 156.807 90.424C156.61 90.5573 156.447 90.7253 156.319 90.928L155.759 90.44C155.93 90.168 156.162 89.9467 156.455 89.776C156.754 89.6 157.149 89.512 157.639 89.512C158.242 89.512 158.701 89.6533 159.015 89.936C159.33 90.2133 159.487 90.6133 159.487 91.136V94H158.615V92.088H157.519C157.263 92.088 157.066 92.1413 156.927 92.248C156.794 92.3547 156.727 92.5093 156.727 92.712V92.872C156.727 93.0747 156.789 93.2347 156.911 93.352C157.034 93.4693 157.202 93.528 157.415 93.528C157.522 93.528 157.607 93.52 157.671 93.504L157.743 94.032C157.695 94.0427 157.621 94.0533 157.519 94.064C157.418 94.0747 157.33 94.08 157.255 94.08ZM158.044 88.136H158.612V87.856C158.612 87.7387 158.588 87.656 158.54 87.608C158.487 87.5547 158.394 87.528 158.26 87.528H158.044V86.904H158.58C158.836 86.904 159.031 86.96 159.164 87.072C159.292 87.1787 159.356 87.3253 159.356 87.512C159.356 87.624 159.327 87.736 159.268 87.848C159.204 87.9547 159.111 88.0373 158.988 88.096V88.136H160.428V88.76H158.044V88.136ZM162.038 94.096C161.814 94.096 161.601 94.0693 161.398 94.016C161.196 93.9627 161.017 93.8827 160.862 93.776L161.19 93.152C161.297 93.216 161.414 93.272 161.542 93.32C161.676 93.3627 161.828 93.384 161.998 93.384C162.318 93.384 162.564 93.2773 162.734 93.064C162.91 92.8453 162.998 92.5467 162.998 92.168V91.44C162.998 91.0667 162.913 90.7707 162.742 90.552C162.577 90.3333 162.332 90.224 162.006 90.224C161.745 90.224 161.532 90.2853 161.366 90.408C161.201 90.5253 161.081 90.6853 161.006 90.888L160.294 90.552C160.428 90.232 160.641 89.9787 160.934 89.792C161.228 89.6053 161.596 89.512 162.038 89.512C162.342 89.512 162.612 89.5653 162.846 89.672C163.081 89.7787 163.278 89.9307 163.438 90.128C163.598 90.3253 163.718 90.5653 163.798 90.848C163.884 91.1307 163.926 91.448 163.926 91.8C163.926 92.152 163.884 92.472 163.798 92.76C163.713 93.0427 163.59 93.2827 163.43 93.48C163.27 93.6773 163.073 93.8293 162.838 93.936C162.604 94.0427 162.337 94.096 162.038 94.096ZM166.224 94.08C165.792 94.08 165.445 93.9733 165.184 93.76C164.928 93.5467 164.8 93.224 164.8 92.792C164.8 92.3813 164.923 92.064 165.168 91.84C165.419 91.616 165.771 91.504 166.224 91.504H167.584V91.168C167.584 90.8587 167.499 90.624 167.328 90.464C167.163 90.304 166.904 90.224 166.552 90.224C166.237 90.224 165.979 90.2907 165.776 90.424C165.579 90.5573 165.416 90.7253 165.288 90.928L164.728 90.44C164.899 90.168 165.131 89.9467 165.424 89.776C165.723 89.6 166.117 89.512 166.608 89.512C167.115 89.512 167.517 89.6107 167.816 89.808C167.864 89.52 168.045 89.376 168.36 89.376H169.344V90.136H168.152V90.152C168.355 90.4133 168.456 90.7413 168.456 91.136V94H167.584V92.088H166.488C166.232 92.088 166.035 92.1413 165.896 92.248C165.763 92.3547 165.696 92.5093 165.696 92.712V92.872C165.696 93.0747 165.757 93.2347 165.88 93.352C166.003 93.4693 166.171 93.528 166.384 93.528C166.491 93.528 166.576 93.52 166.64 93.504L166.712 94.032C166.664 94.0427 166.589 94.0533 166.488 94.064C166.387 94.0747 166.299 94.08 166.224 94.08ZM171.895 91.024C171.895 90.768 171.829 90.5707 171.695 90.432C171.562 90.2933 171.351 90.224 171.063 90.224C170.818 90.224 170.621 90.2773 170.471 90.384C170.322 90.4853 170.194 90.6187 170.087 90.784L169.559 90.32C169.703 90.08 169.898 89.8853 170.143 89.736C170.389 89.5867 170.714 89.512 171.119 89.512C171.653 89.512 172.061 89.6373 172.343 89.888C172.626 90.1387 172.767 90.4987 172.767 90.968V94H171.895V91.024ZM176.168 94.096C175.981 94.096 175.816 94.072 175.672 94.024C175.533 93.9813 175.413 93.9227 175.312 93.848C175.21 93.768 175.125 93.68 175.056 93.584C174.986 93.4827 174.933 93.3787 174.896 93.272H174.856V94H173.984V89.608H174.856V92.568C174.856 92.7013 174.885 92.8187 174.944 92.92C175.002 93.016 175.077 93.096 175.168 93.16C175.258 93.224 175.362 93.272 175.48 93.304C175.597 93.3307 175.717 93.344 175.84 93.344C176.176 93.344 176.413 93.2533 176.552 93.072C176.696 92.8853 176.768 92.6267 176.768 92.296V89.608H177.64V92.392C177.64 92.9413 177.512 93.3627 177.256 93.656C177 93.9493 176.637 94.096 176.168 94.096ZM180.755 91.024C180.755 90.768 180.688 90.5707 180.555 90.432C180.421 90.2933 180.211 90.224 179.923 90.224C179.677 90.224 179.48 90.2773 179.331 90.384C179.181 90.4853 179.053 90.6187 178.947 90.784L178.419 90.32C178.563 90.08 178.757 89.8853 179.003 89.736C179.248 89.5867 179.573 89.512 179.979 89.512C180.512 89.512 180.92 89.6373 181.203 89.888C181.485 90.1387 181.627 90.4987 181.627 90.968V94H180.755V91.024ZM184.403 94.096C183.992 94.096 183.643 94.0267 183.355 93.888C183.072 93.744 182.824 93.544 182.611 93.288L183.163 92.768C183.323 92.9707 183.51 93.1253 183.723 93.232C183.936 93.3387 184.179 93.392 184.451 93.392C184.739 93.392 184.952 93.3413 185.091 93.24C185.235 93.1333 185.307 92.984 185.307 92.792C185.307 92.6213 185.251 92.4907 185.139 92.4C185.032 92.304 184.862 92.24 184.627 92.208L184.219 92.152C184.022 92.1253 183.835 92.0827 183.659 92.024C183.483 91.9653 183.328 91.8853 183.195 91.784C183.067 91.6827 182.963 91.5573 182.883 91.408C182.808 91.2587 182.771 91.0747 182.771 90.856C182.771 90.6427 182.811 90.4533 182.891 90.288C182.971 90.1173 183.083 89.976 183.227 89.864C183.371 89.7467 183.542 89.6587 183.739 89.6C183.942 89.5413 184.163 89.512 184.403 89.512C184.803 89.512 185.131 89.5733 185.387 89.696C185.643 89.8133 185.87 89.9787 186.067 90.192L185.539 90.72C185.416 90.5813 185.259 90.464 185.067 90.368C184.875 90.272 184.654 90.224 184.403 90.224C184.142 90.224 183.944 90.2747 183.811 90.376C183.678 90.4773 183.611 90.616 183.611 90.792C183.611 90.9787 183.672 91.1173 183.795 91.208C183.918 91.2987 184.099 91.36 184.339 91.392L184.747 91.456C184.955 91.488 185.144 91.5333 185.315 91.592C185.491 91.6507 185.64 91.7307 185.763 91.832C185.886 91.928 185.979 92.048 186.043 92.192C186.112 92.336 186.147 92.5093 186.147 92.712C186.147 92.92 186.104 93.1093 186.019 93.28C185.939 93.4507 185.822 93.5973 185.667 93.72C185.518 93.8373 185.334 93.9307 185.115 94C184.902 94.064 184.664 94.096 184.403 94.096ZM188.459 94C188.155 94 187.928 93.9227 187.779 93.768C187.635 93.6133 187.563 93.3973 187.563 93.12V91.576L186.875 91.288C186.896 91.0267 186.96 90.7867 187.067 90.568C187.179 90.3493 187.326 90.1627 187.507 90.008C187.694 89.848 187.91 89.7253 188.155 89.64C188.4 89.5547 188.667 89.512 188.955 89.512C189.59 89.512 190.08 89.6747 190.427 90C190.779 90.32 190.955 90.7547 190.955 91.304V94H190.083V91.416C190.083 91.032 189.979 90.7387 189.771 90.536C189.568 90.328 189.286 90.224 188.923 90.224C188.624 90.224 188.363 90.2907 188.139 90.424C187.92 90.552 187.771 90.7253 187.691 90.944L188.035 91.08C188.184 91.1387 188.288 91.208 188.347 91.288C188.406 91.3627 188.435 91.4747 188.435 91.624V93.288H188.899V94H188.459ZM193.251 94C192.947 94 192.72 93.9227 192.571 93.768C192.427 93.6133 192.355 93.3973 192.355 93.12V89.88C192.355 89.752 192.374 89.6373 192.411 89.536C192.448 89.4347 192.496 89.344 192.555 89.264C192.614 89.1787 192.678 89.1013 192.747 89.032C192.822 88.9573 192.894 88.8853 192.963 88.816C193.064 88.72 193.15 88.6187 193.219 88.512C193.294 88.4053 193.331 88.28 193.331 88.136C193.331 87.9493 193.275 87.808 193.163 87.712C193.056 87.616 192.915 87.568 192.739 87.568C192.542 87.568 192.379 87.6267 192.251 87.744C192.128 87.856 192.035 88.0213 191.971 88.24L191.315 87.872C191.422 87.5787 191.595 87.3387 191.835 87.152C192.075 86.96 192.406 86.864 192.827 86.864C193.243 86.864 193.571 86.9733 193.811 87.192C194.051 87.4053 194.171 87.688 194.171 88.04C194.171 88.2747 194.118 88.4693 194.011 88.624C193.91 88.7787 193.798 88.9227 193.675 89.056C193.563 89.1787 193.459 89.3013 193.363 89.424C193.272 89.5467 193.227 89.688 193.227 89.848V93.288H193.851V94H193.251ZM196.366 94.096C196.099 94.096 195.856 94.064 195.638 94C195.424 93.936 195.24 93.84 195.086 93.712C194.931 93.584 194.811 93.4213 194.726 93.224C194.64 93.0267 194.598 92.7947 194.598 92.528C194.598 92.224 194.638 91.984 194.718 91.808C194.803 91.6267 194.899 91.464 195.006 91.32C195.107 91.1867 195.19 91.0507 195.254 90.912C195.318 90.7733 195.35 90.632 195.35 90.488V90.336H194.542V89.608H195.454C195.694 89.608 195.878 89.6667 196.006 89.784C196.139 89.896 196.206 90.0507 196.206 90.248V90.304C196.206 90.48 196.174 90.6507 196.11 90.816C196.051 90.976 195.96 91.1627 195.838 91.376C195.742 91.5467 195.664 91.704 195.606 91.848C195.552 91.9867 195.526 92.1493 195.526 92.336V92.568C195.526 92.8347 195.598 93.0373 195.742 93.176C195.891 93.3147 196.094 93.384 196.35 93.384C196.606 93.384 196.806 93.3147 196.95 93.176C197.099 93.0373 197.174 92.8347 197.174 92.568V91.952C197.174 91.7067 197.131 91.5173 197.046 91.384C196.966 91.2507 196.832 91.184 196.646 91.184H196.494V90.52H196.686C196.846 90.52 196.976 90.4747 197.078 90.384C197.179 90.288 197.23 90.1333 197.23 89.92V89.448H198.086V89.856C198.086 90.096 198.014 90.2987 197.87 90.464C197.731 90.624 197.531 90.7253 197.27 90.768V90.816C197.542 90.9013 197.747 91.0693 197.886 91.32C198.03 91.5653 198.102 91.888 198.102 92.288C198.102 92.848 197.958 93.2907 197.67 93.616C197.387 93.936 196.952 94.096 196.366 94.096ZM196.646 88.136H197.214V87.856C197.214 87.7387 197.19 87.656 197.142 87.608C197.089 87.5547 196.995 87.528 196.862 87.528H196.646V86.904H197.182C197.438 86.904 197.633 86.96 197.766 87.072C197.894 87.1787 197.958 87.3253 197.958 87.512C197.958 87.624 197.929 87.736 197.87 87.848C197.806 87.9547 197.713 88.0373 197.59 88.096V88.136H199.03V88.76H196.646V88.136ZM201.087 94C200.783 94 200.556 93.9227 200.407 93.768C200.263 93.6133 200.191 93.3973 200.191 93.12V88.768C200.191 88.608 200.212 88.4667 200.255 88.344C200.298 88.2213 200.354 88.1173 200.423 88.032C200.492 87.9413 200.572 87.8667 200.663 87.808C200.759 87.7493 200.858 87.704 200.959 87.672V87.64H199.223V86.944H201.895V87.64H201.799C201.564 87.64 201.383 87.7093 201.255 87.848C201.127 87.9813 201.063 88.1733 201.063 88.424V93.288H201.687V94H201.087ZM204.266 94.096C203.658 94.096 203.186 93.8933 202.85 93.488C202.514 93.0773 202.346 92.5147 202.346 91.8C202.346 91.4533 202.394 91.1387 202.49 90.856C202.591 90.5733 202.732 90.3333 202.914 90.136C203.1 89.9333 203.324 89.7787 203.586 89.672C203.847 89.5653 204.14 89.512 204.466 89.512C204.764 89.512 205.036 89.5573 205.282 89.648C205.527 89.7333 205.735 89.856 205.906 90.016C206.082 90.176 206.215 90.3707 206.306 90.6C206.402 90.824 206.45 91.0747 206.45 91.352V94H205.578V91.424C205.578 91.0453 205.476 90.752 205.274 90.544C205.071 90.3307 204.794 90.224 204.442 90.224C204.074 90.224 203.786 90.3387 203.578 90.568C203.375 90.7973 203.274 91.1093 203.274 91.504V92.088C203.274 92.5093 203.364 92.832 203.546 93.056C203.732 93.2747 204.015 93.384 204.394 93.384C204.511 93.384 204.62 93.3733 204.722 93.352L204.826 94.04C204.746 94.0613 204.65 94.0747 204.538 94.08C204.431 94.0907 204.34 94.096 204.266 94.096ZM205.013 88.136H205.581V87.856C205.581 87.7387 205.557 87.656 205.509 87.608C205.456 87.5547 205.362 87.528 205.229 87.528H205.013V86.904H205.549C205.805 86.904 206 86.96 206.133 87.072C206.261 87.1787 206.325 87.3253 206.325 87.512C206.325 87.624 206.296 87.736 206.237 87.848C206.173 87.9547 206.08 88.0373 205.957 88.096V88.136H207.397V88.76H205.013V88.136ZM207.647 93.288H208.111V91.576L207.423 91.288C207.439 91.0267 207.501 90.7867 207.607 90.568C207.719 90.3493 207.863 90.1627 208.039 90.008C208.221 89.848 208.431 89.7253 208.671 89.64C208.917 89.5547 209.183 89.512 209.471 89.512C209.786 89.512 210.066 89.5547 210.311 89.64C210.557 89.7253 210.762 89.8453 210.927 90C211.098 90.1547 211.226 90.344 211.311 90.568C211.402 90.7867 211.447 91.032 211.447 91.304V94H210.575V91.416C210.575 91.032 210.474 90.7387 210.271 90.536C210.074 90.328 209.799 90.224 209.447 90.224C209.154 90.224 208.898 90.2907 208.679 90.424C208.461 90.552 208.314 90.7253 208.239 90.944L208.583 91.08C208.733 91.1387 208.837 91.208 208.895 91.288C208.954 91.3627 208.983 91.4747 208.983 91.624V93.12C208.983 93.3973 208.911 93.6133 208.767 93.768C208.623 93.9227 208.399 94 208.095 94H207.647V93.288ZM214.489 91.024C214.489 90.768 214.422 90.5707 214.289 90.432C214.156 90.2933 213.945 90.224 213.657 90.224C213.412 90.224 213.214 90.2773 213.065 90.384C212.916 90.4853 212.788 90.6187 212.681 90.784L212.153 90.32C212.297 90.08 212.492 89.8853 212.737 89.736C212.982 89.5867 213.308 89.512 213.713 89.512C214.246 89.512 214.654 89.6373 214.937 89.888C215.22 90.1387 215.361 90.4987 215.361 90.968V94H214.489V91.024ZM218.193 94.096C217.639 94.096 217.207 93.9813 216.897 93.752C216.588 93.5227 216.433 93.2 216.433 92.784C216.433 92.528 216.508 92.3093 216.657 92.128C216.812 91.9467 217.009 91.8213 217.249 91.752V91.712C216.983 91.648 216.775 91.5227 216.625 91.336C216.476 91.1493 216.401 90.92 216.401 90.648C216.401 90.3067 216.511 90.032 216.729 89.824C216.953 89.616 217.257 89.512 217.641 89.512C217.759 89.512 217.884 89.5227 218.017 89.544C218.156 89.5653 218.281 89.6053 218.393 89.664L218.209 90.304C218.087 90.2453 217.951 90.216 217.801 90.216C217.615 90.216 217.465 90.2667 217.353 90.368C217.247 90.4693 217.193 90.6053 217.193 90.776C217.193 90.856 217.204 90.9333 217.225 91.008C217.247 91.0773 217.284 91.1413 217.337 91.2C217.391 91.2533 217.463 91.296 217.553 91.328C217.644 91.36 217.759 91.376 217.897 91.376H218.337V91.968H217.961C217.785 91.968 217.633 92.0187 217.505 92.12C217.377 92.2213 217.313 92.3627 217.313 92.544V92.728C217.313 92.9413 217.383 93.104 217.521 93.216C217.66 93.328 217.889 93.384 218.209 93.384C218.545 93.384 218.809 93.296 219.001 93.12C219.199 92.9387 219.297 92.68 219.297 92.344V89.608H220.169V92.464C220.169 92.7147 220.121 92.9413 220.025 93.144C219.935 93.3413 219.801 93.512 219.625 93.656C219.455 93.7947 219.247 93.904 219.001 93.984C218.761 94.0587 218.492 94.096 218.193 94.096ZM222.462 94C222.158 94 221.931 93.9227 221.782 93.768C221.638 93.6133 221.566 93.3973 221.566 93.12V89.88C221.566 89.752 221.585 89.6373 221.622 89.536C221.659 89.4347 221.707 89.344 221.766 89.264C221.825 89.1787 221.889 89.1013 221.958 89.032C222.033 88.9573 222.105 88.8853 222.174 88.816C222.275 88.72 222.361 88.6187 222.43 88.512C222.505 88.4053 222.542 88.28 222.542 88.136C222.542 87.9493 222.486 87.808 222.374 87.712C222.267 87.616 222.126 87.568 221.95 87.568C221.753 87.568 221.59 87.6267 221.462 87.744C221.339 87.856 221.246 88.0213 221.182 88.24L220.526 87.872C220.633 87.5787 220.806 87.3387 221.046 87.152C221.286 86.96 221.617 86.864 222.038 86.864C222.454 86.864 222.782 86.9733 223.022 87.192C223.262 87.4053 223.382 87.688 223.382 88.04C223.382 88.2747 223.329 88.4693 223.222 88.624C223.121 88.7787 223.009 88.9227 222.886 89.056C222.774 89.1787 222.67 89.3013 222.574 89.424C222.483 89.5467 222.438 89.688 222.438 89.848V93.288H223.062V94H222.462ZM225.337 94.096C224.878 94.096 224.523 93.9493 224.273 93.656C224.022 93.3573 223.897 92.936 223.897 92.392V89.608H224.769V92.296C224.769 92.6373 224.838 92.8987 224.977 93.08C225.121 93.256 225.35 93.344 225.664 93.344C225.782 93.344 225.899 93.3307 226.017 93.304C226.134 93.272 226.238 93.224 226.329 93.16C226.425 93.096 226.499 93.016 226.553 92.92C226.611 92.8187 226.641 92.7013 226.641 92.568V89.608H227.513V93.288H227.977V94H227.401C227.177 94 227.009 93.936 226.897 93.808C226.785 93.6747 226.723 93.4907 226.713 93.256H226.673C226.582 93.5013 226.425 93.704 226.201 93.864C225.982 94.0187 225.694 94.096 225.337 94.096Z" fill="#3F2436"/>
<path d="M234.469 94H230.677V93.136L232.461 91.544C232.743 91.288 232.959 91.0453 233.109 90.816C233.263 90.5813 233.341 90.336 233.341 90.08V89.976C233.341 89.704 233.258 89.4907 233.093 89.336C232.933 89.1813 232.714 89.104 232.437 89.104C232.282 89.104 232.146 89.128 232.029 89.176C231.917 89.2187 231.818 89.28 231.733 89.36C231.647 89.44 231.575 89.5333 231.517 89.64C231.463 89.7467 231.421 89.8613 231.389 89.984L230.597 89.68C230.655 89.504 230.735 89.336 230.837 89.176C230.938 89.0107 231.066 88.864 231.221 88.736C231.375 88.608 231.557 88.5067 231.765 88.432C231.978 88.3573 232.226 88.32 232.509 88.32C232.791 88.32 233.045 88.3627 233.269 88.448C233.493 88.528 233.679 88.6427 233.829 88.792C233.983 88.936 234.101 89.1093 234.181 89.312C234.261 89.5147 234.301 89.736 234.301 89.976C234.301 90.2 234.266 90.408 234.197 90.6C234.127 90.792 234.031 90.9733 233.909 91.144C233.786 91.3147 233.642 91.4773 233.477 91.632C233.317 91.7867 233.146 91.944 232.965 92.104L231.653 93.232H234.469V94ZM237.338 94.096C236.991 94.096 236.69 94.032 236.434 93.904C236.178 93.7707 235.967 93.5813 235.802 93.336C235.636 93.0907 235.514 92.7893 235.434 92.432C235.354 92.0747 235.314 91.6667 235.314 91.208C235.314 90.7547 235.354 90.3493 235.434 89.992C235.514 89.6293 235.636 89.3253 235.802 89.08C235.967 88.8347 236.178 88.648 236.434 88.52C236.69 88.3867 236.991 88.32 237.338 88.32C238.031 88.32 238.54 88.5733 238.866 89.08C239.196 89.5867 239.362 90.296 239.362 91.208C239.362 92.12 239.196 92.8293 238.866 93.336C238.54 93.8427 238.031 94.096 237.338 94.096ZM237.338 93.328C237.53 93.328 237.692 93.2907 237.826 93.216C237.964 93.136 238.076 93.024 238.162 92.88C238.247 92.736 238.308 92.5653 238.346 92.368C238.383 92.1653 238.402 91.9413 238.402 91.696V90.72C238.402 90.4747 238.383 90.2533 238.346 90.056C238.308 89.8533 238.247 89.68 238.162 89.536C238.076 89.392 237.964 89.2827 237.826 89.208C237.692 89.128 237.53 89.088 237.338 89.088C237.146 89.088 236.98 89.128 236.842 89.208C236.708 89.2827 236.599 89.392 236.514 89.536C236.428 89.68 236.367 89.8533 236.33 90.056C236.292 90.2533 236.274 90.4747 236.274 90.72V91.696C236.274 91.9413 236.292 92.1653 236.33 92.368C236.367 92.5653 236.428 92.736 236.514 92.88C236.599 93.024 236.708 93.136 236.842 93.216C236.98 93.2907 237.146 93.328 237.338 93.328ZM239.79 95.208L242.006 88.08H242.758L240.542 95.208H239.79ZM245.47 94.096C245.124 94.096 244.822 94.032 244.566 93.904C244.31 93.7707 244.1 93.5813 243.934 93.336C243.769 93.0907 243.646 92.7893 243.566 92.432C243.486 92.0747 243.446 91.6667 243.446 91.208C243.446 90.7547 243.486 90.3493 243.566 89.992C243.646 89.6293 243.769 89.3253 243.934 89.08C244.1 88.8347 244.31 88.648 244.566 88.52C244.822 88.3867 245.124 88.32 245.47 88.32C246.164 88.32 246.673 88.5733 246.998 89.08C247.329 89.5867 247.494 90.296 247.494 91.208C247.494 92.12 247.329 92.8293 246.998 93.336C246.673 93.8427 246.164 94.096 245.47 94.096ZM245.47 93.328C245.662 93.328 245.825 93.2907 245.958 93.216C246.097 93.136 246.209 93.024 246.294 92.88C246.38 92.736 246.441 92.5653 246.478 92.368C246.516 92.1653 246.534 91.9413 246.534 91.696V90.72C246.534 90.4747 246.516 90.2533 246.478 90.056C246.441 89.8533 246.38 89.68 246.294 89.536C246.209 89.392 246.097 89.2827 245.958 89.208C245.825 89.128 245.662 89.088 245.47 89.088C245.278 89.088 245.113 89.128 244.974 89.208C244.841 89.2827 244.732 89.392 244.646 89.536C244.561 89.68 244.5 89.8533 244.462 90.056C244.425 90.2533 244.406 90.4747 244.406 90.72V91.696C244.406 91.9413 244.425 92.1653 244.462 92.368C244.5 92.5653 244.561 92.736 244.646 92.88C244.732 93.024 244.841 93.136 244.974 93.216C245.113 93.2907 245.278 93.328 245.47 93.328ZM250.267 94.096C249.942 94.096 249.654 94.056 249.403 93.976C249.158 93.8907 248.95 93.776 248.779 93.632C248.614 93.488 248.486 93.3173 248.395 93.12C248.31 92.9227 248.267 92.7093 248.267 92.48C248.267 92.1067 248.369 91.808 248.571 91.584C248.779 91.3547 249.051 91.1947 249.387 91.104V91.04C249.099 90.9387 248.867 90.7787 248.691 90.56C248.521 90.3413 248.435 90.072 248.435 89.752C248.435 89.5387 248.475 89.344 248.555 89.168C248.641 88.992 248.761 88.8427 248.915 88.72C249.07 88.592 249.262 88.4933 249.491 88.424C249.721 88.3547 249.979 88.32 250.267 88.32C250.555 88.32 250.814 88.3547 251.043 88.424C251.273 88.4933 251.465 88.592 251.619 88.72C251.774 88.8427 251.891 88.992 251.971 89.168C252.057 89.344 252.099 89.5387 252.099 89.752C252.099 90.072 252.011 90.3413 251.835 90.56C251.665 90.7787 251.435 90.9387 251.147 91.04V91.104C251.483 91.1947 251.753 91.3547 251.955 91.584C252.163 91.808 252.267 92.1067 252.267 92.48C252.267 92.7093 252.222 92.9227 252.131 93.12C252.046 93.3173 251.918 93.488 251.747 93.632C251.582 93.776 251.374 93.8907 251.123 93.976C250.878 94.056 250.593 94.096 250.267 94.096ZM250.267 93.368C250.603 93.368 250.862 93.2907 251.043 93.136C251.23 92.9813 251.323 92.7653 251.323 92.488V92.328C251.323 92.0507 251.23 91.8347 251.043 91.68C250.862 91.5253 250.603 91.448 250.267 91.448C249.931 91.448 249.67 91.5253 249.483 91.68C249.302 91.8347 249.211 92.0507 249.211 92.328V92.488C249.211 92.7653 249.302 92.9813 249.483 93.136C249.67 93.2907 249.931 93.368 250.267 93.368ZM250.267 90.752C250.577 90.752 250.811 90.6853 250.971 90.552C251.137 90.4187 251.219 90.224 251.219 89.968V89.832C251.219 89.576 251.137 89.3813 250.971 89.248C250.811 89.1147 250.577 89.048 250.267 89.048C249.958 89.048 249.721 89.1147 249.555 89.248C249.395 89.3813 249.315 89.576 249.315 89.832V89.968C249.315 90.224 249.395 90.4187 249.555 90.552C249.721 90.6853 249.958 90.752 250.267 90.752ZM252.72 95.208L254.936 88.08H255.688L253.472 95.208H252.72ZM260.328 94H256.536V93.136L258.32 91.544C258.603 91.288 258.819 91.0453 258.968 90.816C259.123 90.5813 259.2 90.336 259.2 90.08V89.976C259.2 89.704 259.117 89.4907 258.952 89.336C258.792 89.1813 258.573 89.104 258.296 89.104C258.141 89.104 258.005 89.128 257.888 89.176C257.776 89.2187 257.677 89.28 257.592 89.36C257.507 89.44 257.435 89.5333 257.376 89.64C257.323 89.7467 257.28 89.8613 257.248 89.984L256.456 89.68C256.515 89.504 256.595 89.336 256.696 89.176C256.797 89.0107 256.925 88.864 257.08 88.736C257.235 88.608 257.416 88.5067 257.624 88.432C257.837 88.3573 258.085 88.32 258.368 88.32C258.651 88.32 258.904 88.3627 259.128 88.448C259.352 88.528 259.539 88.6427 259.688 88.792C259.843 88.936 259.96 89.1093 260.04 89.312C260.12 89.5147 260.16 89.736 260.16 89.976C260.16 90.2 260.125 90.408 260.056 90.6C259.987 90.792 259.891 90.9733 259.768 91.144C259.645 91.3147 259.501 91.4773 259.336 91.632C259.176 91.7867 259.005 91.944 258.824 92.104L257.512 93.232H260.328V94ZM262.893 90.712C263.24 90.712 263.496 90.64 263.661 90.496C263.826 90.3467 263.909 90.1573 263.909 89.928V89.872C263.909 89.616 263.829 89.4213 263.669 89.288C263.509 89.1493 263.293 89.08 263.021 89.08C262.754 89.08 262.528 89.1413 262.341 89.264C262.154 89.3813 261.997 89.5467 261.869 89.76L261.269 89.24C261.354 89.1173 261.45 89 261.557 88.888C261.664 88.776 261.789 88.68 261.933 88.6C262.077 88.5147 262.24 88.448 262.421 88.4C262.602 88.3467 262.81 88.32 263.045 88.32C263.306 88.32 263.549 88.352 263.773 88.416C263.997 88.48 264.189 88.576 264.349 88.704C264.509 88.8267 264.634 88.9787 264.725 89.16C264.816 89.336 264.861 89.536 264.861 89.76C264.861 89.936 264.832 90.096 264.773 90.24C264.72 90.384 264.642 90.512 264.541 90.624C264.445 90.7307 264.33 90.8187 264.197 90.888C264.069 90.9573 263.933 91.008 263.789 91.04V91.08C263.949 91.112 264.098 91.1653 264.237 91.24C264.381 91.3093 264.506 91.4027 264.613 91.52C264.72 91.632 264.802 91.768 264.861 91.928C264.925 92.0827 264.957 92.2613 264.957 92.464C264.957 92.7093 264.909 92.9333 264.813 93.136C264.717 93.3333 264.581 93.504 264.405 93.648C264.234 93.792 264.026 93.904 263.781 93.984C263.536 94.0587 263.264 94.096 262.965 94.096C262.704 94.096 262.474 94.0667 262.277 94.008C262.08 93.9547 261.904 93.8827 261.749 93.792C261.6 93.696 261.466 93.5893 261.349 93.472C261.237 93.3493 261.138 93.224 261.053 93.096L261.717 92.576C261.786 92.688 261.858 92.792 261.933 92.888C262.013 92.9787 262.101 93.0587 262.197 93.128C262.298 93.192 262.41 93.2427 262.533 93.28C262.661 93.3173 262.805 93.336 262.965 93.336C263.306 93.336 263.568 93.256 263.749 93.096C263.93 92.9307 264.021 92.704 264.021 92.416V92.36C264.021 92.072 263.925 91.8533 263.733 91.704C263.541 91.5547 263.269 91.48 262.917 91.48H262.325V90.712H262.893Z" fill="#D42525"/>
<defs>
<filter id="filter0_di_25_151335" x="0" y="0" width="346" height="120" filterUnits="userSpaceOnUse" color-interpolation-filters="sRGB">
<feFlood flood-opacity="0" result="BackgroundImageFix"/>
<feColorMatrix in="SourceAlpha" type="matrix" values="0 0 0 0 0 0 0 0 0 0 0 0 0 0 0 0 0 0 127 0" result="hardAlpha"/>
<feOffset dy="2"/>
<feComposite in2="hardAlpha" operator="out"/>
<feColorMatrix type="matrix" values="0 0 0 0 0.32549 0 0 0 0 0.592157 0 0 0 0 0.560784 0 0 0 1 0"/>
<feBlend mode="normal" in2="BackgroundImageFix" result="effect1_dropShadow_25_151335"/>
<feBlend mode="normal" in="SourceGraphic" in2="effect1_dropShadow_25_151335" result="shape"/>
<feColorMatrix in="SourceAlpha" type="matrix" values="0 0 0 0 0 0 0 0 0 0 0 0 0 0 0 0 0 0 127 0" result="hardAlpha"/>
<feOffset dy="2"/>
<feComposite in2="hardAlpha" operator="arithmetic" k2="-1" k3="1"/>
<feColorMatrix type="matrix" values="0 0 0 0 0.32549 0 0 0 0 0.592157 0 0 0 0 0.560784 0 0 0 1 0"/>
<feBlend mode="normal" in2="shape" result="effect2_innerShadow_25_151335"/>
</filter>
<filter id="filter1_ii_25_151335" x="15.3838" y="85.7483" width="67.2324" height="20.9404" filterUnits="userSpaceOnUse" color-interpolation-filters="sRGB">
<feFlood flood-opacity="0" result="BackgroundImageFix"/>
<feBlend mode="normal" in="SourceGraphic" in2="BackgroundImageFix" result="shape"/>
<feColorMatrix in="SourceAlpha" type="matrix" values="0 0 0 0 0 0 0 0 0 0 0 0 0 0 0 0 0 0 127 0" result="hardAlpha"/>
<feOffset dy="-3.69536"/>
<feComposite in2="hardAlpha" operator="arithmetic" k2="-1" k3="1"/>
<feColorMatrix type="matrix" values="0 0 0 0 0.825 0 0 0 0 0.38478 0 0 0 0 0.0660003 0 0 0 1 0"/>
<feBlend mode="normal" in2="shape" result="effect1_innerShadow_25_151335"/>
<feColorMatrix in="SourceAlpha" type="matrix" values="0 0 0 0 0 0 0 0 0 0 0 0 0 0 0 0 0 0 127 0" result="hardAlpha"/>
<feOffset dy="3.69536"/>
<feComposite in2="hardAlpha" operator="arithmetic" k2="-1" k3="1"/>
<feColorMatrix type="matrix" values="0 0 0 0 0.998333 0 0 0 0 0.998333 0 0 0 0 0.998333 0 0 0 0.8 0"/>
<feBlend mode="normal" in2="effect1_innerShadow_25_151335" result="effect2_innerShadow_25_151335"/>
</filter>
<filter id="filter2_i_25_151335" x="14.6377" y="10.6382" width="68.7754" height="68.9746" filterUnits="userSpaceOnUse" color-interpolation-filters="sRGB">
<feFlood flood-opacity="0" result="BackgroundImageFix"/>
<feBlend mode="normal" in="SourceGraphic" in2="BackgroundImageFix" result="shape"/>
<feColorMatrix in="SourceAlpha" type="matrix" values="0 0 0 0 0 0 0 0 0 0 0 0 0 0 0 0 0 0 127 0" result="hardAlpha"/>
<feOffset dy="2.72374"/>
<feComposite in2="hardAlpha" operator="arithmetic" k2="-1" k3="1"/>
<feColorMatrix type="matrix" values="0 0 0 0 0.998333 0 0 0 0 0.998333 0 0 0 0 0.998333 0 0 0 0.5 0"/>
<feBlend mode="normal" in2="shape" result="effect1_innerShadow_25_151335"/>
</filter>
<filter id="filter3_ii_25_151335" x="19.6787" y="15.8455" width="18.7314" height="18.7317" filterUnits="userSpaceOnUse" color-interpolation-filters="sRGB">
<feFlood flood-opacity="0" result="BackgroundImageFix"/>
<feBlend mode="normal" in="SourceGraphic" in2="BackgroundImageFix" result="shape"/>
<feColorMatrix in="SourceAlpha" type="matrix" values="0 0 0 0 0 0 0 0 0 0 0 0 0 0 0 0 0 0 127 0" result="hardAlpha"/>
<feOffset dy="-1.14729"/>
<feComposite in2="hardAlpha" operator="arithmetic" k2="-1" k3="1"/>
<feColorMatrix type="matrix" values="0 0 0 0 0.825 0 0 0 0 0.38478 0 0 0 0 0.0660003 0 0 0 1 0"/>
<feBlend mode="normal" in2="shape" result="effect1_innerShadow_25_151335"/>
<feColorMatrix in="SourceAlpha" type="matrix" values="0 0 0 0 0 0 0 0 0 0 0 0 0 0 0 0 0 0 127 0" result="hardAlpha"/>
<feOffset dy="1.14729"/>
<feComposite in2="hardAlpha" operator="arithmetic" k2="-1" k3="1"/>
<feColorMatrix type="matrix" values="0 0 0 0 0.998333 0 0 0 0 0.998333 0 0 0 0 0.998333 0 0 0 0.8 0"/>
<feBlend mode="normal" in2="effect1_innerShadow_25_151335" result="effect2_innerShadow_25_151335"/>
</filter>
<filter id="filter4_ii_25_151335" x="40.1074" y="15.8455" width="18.7314" height="18.7317" filterUnits="userSpaceOnUse" color-interpolation-filters="sRGB">
<feFlood flood-opacity="0" result="BackgroundImageFix"/>
<feBlend mode="normal" in="SourceGraphic" in2="BackgroundImageFix" result="shape"/>
<feColorMatrix in="SourceAlpha" type="matrix" values="0 0 0 0 0 0 0 0 0 0 0 0 0 0 0 0 0 0 127 0" result="hardAlpha"/>
<feOffset dy="-1.14729"/>
<feComposite in2="hardAlpha" operator="arithmetic" k2="-1" k3="1"/>
<feColorMatrix type="matrix" values="0 0 0 0 0.776471 0 0 0 0 0.776471 0 0 0 0 0.776471 0 0 0 1 0"/>
<feBlend mode="normal" in2="shape" result="effect1_innerShadow_25_151335"/>
<feColorMatrix in="SourceAlpha" type="matrix" values="0 0 0 0 0 0 0 0 0 0 0 0 0 0 0 0 0 0 127 0" result="hardAlpha"/>
<feOffset dy="1.14729"/>
<feComposite in2="hardAlpha" operator="arithmetic" k2="-1" k3="1"/>
<feColorMatrix type="matrix" values="0 0 0 0 0.998333 0 0 0 0 0.998333 0 0 0 0 0.998333 0 0 0 0.25 0"/>
<feBlend mode="normal" in2="effect1_innerShadow_25_151335" result="effect2_innerShadow_25_151335"/>
</filter>
<filter id="filter5_ii_25_151335" x="60.5371" y="15.8455" width="18.5645" height="18.7317" filterUnits="userSpaceOnUse" color-interpolation-filters="sRGB">
<feFlood flood-opacity="0" result="BackgroundImageFix"/>
<feBlend mode="normal" in="SourceGraphic" in2="BackgroundImageFix" result="shape"/>
<feColorMatrix in="SourceAlpha" type="matrix" values="0 0 0 0 0 0 0 0 0 0 0 0 0 0 0 0 0 0 127 0" result="hardAlpha"/>
<feOffset dy="-1.14729"/>
<feComposite in2="hardAlpha" operator="arithmetic" k2="-1" k3="1"/>
<feColorMatrix type="matrix" values="0 0 0 0 0.825 0 0 0 0 0.38478 0 0 0 0 0.0660003 0 0 0 1 0"/>
<feBlend mode="normal" in2="shape" result="effect1_innerShadow_25_151335"/>
<feColorMatrix in="SourceAlpha" type="matrix" values="0 0 0 0 0 0 0 0 0 0 0 0 0 0 0 0 0 0 127 0" result="hardAlpha"/>
<feOffset dy="1.14729"/>
<feComposite in2="hardAlpha" operator="arithmetic" k2="-1" k3="1"/>
<feColorMatrix type="matrix" values="0 0 0 0 0.998333 0 0 0 0 0.998333 0 0 0 0 0.998333 0 0 0 0.8 0"/>
<feBlend mode="normal" in2="effect1_innerShadow_25_151335" result="effect2_innerShadow_25_151335"/>
</filter>
<filter id="filter6_i_25_151335" x="19.6787" y="36.2747" width="18.5645" height="18.7317" filterUnits="userSpaceOnUse" color-interpolation-filters="sRGB">
<feFlood flood-opacity="0" result="BackgroundImageFix"/>
<feBlend mode="normal" in="SourceGraphic" in2="BackgroundImageFix" result="shape"/>
<feColorMatrix in="SourceAlpha" type="matrix" values="0 0 0 0 0 0 0 0 0 0 0 0 0 0 0 0 0 0 127 0" result="hardAlpha"/>
<feOffset dy="1.14729"/>
<feComposite in2="hardAlpha" operator="arithmetic" k2="-1" k3="1"/>
<feColorMatrix type="matrix" values="0 0 0 0 0.998333 0 0 0 0 0.998333 0 0 0 0 0.998333 0 0 0 0.25 0"/>
<feBlend mode="normal" in2="shape" result="effect1_innerShadow_25_151335"/>
</filter>
<filter id="filter7_ii_25_151335" x="39.9404" y="36.2747" width="18.7314" height="18.7317" filterUnits="userSpaceOnUse" color-interpolation-filters="sRGB">
<feFlood flood-opacity="0" result="BackgroundImageFix"/>
<feBlend mode="normal" in="SourceGraphic" in2="BackgroundImageFix" result="shape"/>
<feColorMatrix in="SourceAlpha" type="matrix" values="0 0 0 0 0 0 0 0 0 0 0 0 0 0 0 0 0 0 127 0" result="hardAlpha"/>
<feOffset dy="-1.14729"/>
<feComposite in2="hardAlpha" operator="arithmetic" k2="-1" k3="1"/>
<feColorMatrix type="matrix" values="0 0 0 0 0.825 0 0 0 0 0.38478 0 0 0 0 0.0660003 0 0 0 1 0"/>
<feBlend mode="normal" in2="shape" result="effect1_innerShadow_25_151335"/>
<feColorMatrix in="SourceAlpha" type="matrix" values="0 0 0 0 0 0 0 0 0 0 0 0 0 0 0 0 0 0 127 0" result="hardAlpha"/>
<feOffset dy="1.14729"/>
<feComposite in2="hardAlpha" operator="arithmetic" k2="-1" k3="1"/>
<feColorMatrix type="matrix" values="0 0 0 0 0.998333 0 0 0 0 0.998333 0 0 0 0 0.998333 0 0 0 0.8 0"/>
<feBlend mode="normal" in2="effect1_innerShadow_25_151335" result="effect2_innerShadow_25_151335"/>
</filter>
<filter id="filter8_i_25_151335" x="60.3701" y="36.2747" width="18.7314" height="18.7317" filterUnits="userSpaceOnUse" color-interpolation-filters="sRGB">
<feFlood flood-opacity="0" result="BackgroundImageFix"/>
<feBlend mode="normal" in="SourceGraphic" in2="BackgroundImageFix" result="shape"/>
<feColorMatrix in="SourceAlpha" type="matrix" values="0 0 0 0 0 0 0 0 0 0 0 0 0 0 0 0 0 0 127 0" result="hardAlpha"/>
<feOffset dy="1.14729"/>
<feComposite in2="hardAlpha" operator="arithmetic" k2="-1" k3="1"/>
<feColorMatrix type="matrix" values="0 0 0 0 0.998333 0 0 0 0 0.998333 0 0 0 0 0.998333 0 0 0 0.25 0"/>
<feBlend mode="normal" in2="shape" result="effect1_innerShadow_25_151335"/>
</filter>
<filter id="filter9_ii_25_151335" x="19.6787" y="56.7036" width="18.5645" height="18.7317" filterUnits="userSpaceOnUse" color-interpolation-filters="sRGB">
<feFlood flood-opacity="0" result="BackgroundImageFix"/>
<feBlend mode="normal" in="SourceGraphic" in2="BackgroundImageFix" result="shape"/>
<feColorMatrix in="SourceAlpha" type="matrix" values="0 0 0 0 0 0 0 0 0 0 0 0 0 0 0 0 0 0 127 0" result="hardAlpha"/>
<feOffset dy="-1.14729"/>
<feComposite in2="hardAlpha" operator="arithmetic" k2="-1" k3="1"/>
<feColorMatrix type="matrix" values="0 0 0 0 0.825 0 0 0 0 0.38478 0 0 0 0 0.0660003 0 0 0 1 0"/>
<feBlend mode="normal" in2="shape" result="effect1_innerShadow_25_151335"/>
<feColorMatrix in="SourceAlpha" type="matrix" values="0 0 0 0 0 0 0 0 0 0 0 0 0 0 0 0 0 0 127 0" result="hardAlpha"/>
<feOffset dy="1.14729"/>
<feComposite in2="hardAlpha" operator="arithmetic" k2="-1" k3="1"/>
<feColorMatrix type="matrix" values="0 0 0 0 0.998333 0 0 0 0 0.998333 0 0 0 0 0.998333 0 0 0 0.8 0"/>
<feBlend mode="normal" in2="effect1_innerShadow_25_151335" result="effect2_innerShadow_25_151335"/>
</filter>
<filter id="filter10_i_25_151335" x="39.9404" y="56.7036" width="18.7314" height="18.7317" filterUnits="userSpaceOnUse" color-interpolation-filters="sRGB">
<feFlood flood-opacity="0" result="BackgroundImageFix"/>
<feBlend mode="normal" in="SourceGraphic" in2="BackgroundImageFix" result="shape"/>
<feColorMatrix in="SourceAlpha" type="matrix" values="0 0 0 0 0 0 0 0 0 0 0 0 0 0 0 0 0 0 127 0" result="hardAlpha"/>
<feOffset dy="1.14729"/>
<feComposite in2="hardAlpha" operator="arithmetic" k2="-1" k3="1"/>
<feColorMatrix type="matrix" values="0 0 0 0 0.998333 0 0 0 0 0.998333 0 0 0 0 0.998333 0 0 0 0.25 0"/>
<feBlend mode="normal" in2="shape" result="effect1_innerShadow_25_151335"/>
</filter>
<filter id="filter11_ii_25_151335" x="60.3701" y="56.7036" width="18.7314" height="18.7317" filterUnits="userSpaceOnUse" color-interpolation-filters="sRGB">
<feFlood flood-opacity="0" result="BackgroundImageFix"/>
<feBlend mode="normal" in="SourceGraphic" in2="BackgroundImageFix" result="shape"/>
<feColorMatrix in="SourceAlpha" type="matrix" values="0 0 0 0 0 0 0 0 0 0 0 0 0 0 0 0 0 0 127 0" result="hardAlpha"/>
<feOffset dy="-1.14729"/>
<feComposite in2="hardAlpha" operator="arithmetic" k2="-1" k3="1"/>
<feColorMatrix type="matrix" values="0 0 0 0 0.825 0 0 0 0 0.38478 0 0 0 0 0.0660003 0 0 0 1 0"/>
<feBlend mode="normal" in2="shape" result="effect1_innerShadow_25_151335"/>
<feColorMatrix in="SourceAlpha" type="matrix" values="0 0 0 0 0 0 0 0 0 0 0 0 0 0 0 0 0 0 127 0" result="hardAlpha"/>
<feOffset dy="1.14729"/>
<feComposite in2="hardAlpha" operator="arithmetic" k2="-1" k3="1"/>
<feColorMatrix type="matrix" values="0 0 0 0 0.998333 0 0 0 0 0.998333 0 0 0 0 0.998333 0 0 0 0.8 0"/>
<feBlend mode="normal" in2="effect1_innerShadow_25_151335" result="effect2_innerShadow_25_151335"/>
</filter>
<filter id="filter12_i_25_151335" x="110" y="12" width="220" height="23" filterUnits="userSpaceOnUse" color-interpolation-filters="sRGB">
<feFlood flood-opacity="0" result="BackgroundImageFix"/>
<feBlend mode="normal" in="SourceGraphic" in2="BackgroundImageFix" result="shape"/>
<feColorMatrix in="SourceAlpha" type="matrix" values="0 0 0 0 0 0 0 0 0 0 0 0 0 0 0 0 0 0 127 0" result="hardAlpha"/>
<feOffset dy="4"/>
<feComposite in2="hardAlpha" operator="arithmetic" k2="-1" k3="1"/>
<feColorMatrix type="matrix" values="0 0 0 0 0.998333 0 0 0 0 0.998333 0 0 0 0 0.998333 0 0 0 0.2 0"/>
<feBlend mode="normal" in2="shape" result="effect1_innerShadow_25_151335"/>
</filter>
<linearGradient id="paint0_linear_25_151335" x1="219" y1="2" x2="219" y2="116" gradientUnits="userSpaceOnUse">
<stop stop-color="#FCEDB2"/>
<stop offset="1" stop-color="#CDEBD9"/>
</linearGradient>
<linearGradient id="paint1_linear_25_151335" x1="49" y1="86.3643" x2="49" y2="106.073" gradientUnits="userSpaceOnUse">
<stop stop-color="#FFD15B"/>
<stop offset="1" stop-color="#FF970E"/>
</linearGradient>
<linearGradient id="paint2_linear_25_151335" x1="49" y1="86.3643" x2="49" y2="106.073" gradientUnits="userSpaceOnUse">
<stop stop-color="#FFD15B"/>
<stop offset="1" stop-color="#FF970E"/>
</linearGradient>
<linearGradient id="paint3_linear_25_151335" x1="29.0442" y1="16.5264" x2="29.0442" y2="33.896" gradientUnits="userSpaceOnUse">
<stop stop-color="#FFD15B"/>
<stop offset="1" stop-color="#FF970E"/>
</linearGradient>
<linearGradient id="paint4_linear_25_151335" x1="69.8191" y1="16.5264" x2="69.8191" y2="33.896" gradientUnits="userSpaceOnUse">
<stop stop-color="#FFD15B"/>
<stop offset="1" stop-color="#FF970E"/>
</linearGradient>
<linearGradient id="paint5_linear_25_151335" x1="49.3059" y1="36.9556" x2="49.3059" y2="54.3252" gradientUnits="userSpaceOnUse">
<stop stop-color="#FFD15B"/>
<stop offset="1" stop-color="#FF970E"/>
</linearGradient>
<linearGradient id="paint6_linear_25_151335" x1="28.9607" y1="57.3845" x2="28.9607" y2="74.7542" gradientUnits="userSpaceOnUse">
<stop stop-color="#FFD15B"/>
<stop offset="1" stop-color="#FF970E"/>
</linearGradient>
<linearGradient id="paint7_linear_25_151335" x1="69.7356" y1="57.3845" x2="69.7356" y2="74.7542" gradientUnits="userSpaceOnUse">
<stop stop-color="#FFD15B"/>
<stop offset="1" stop-color="#FF970E"/>
</linearGradient>
</defs>
</svg>
