<svg width="306" height="51" viewBox="0 0 306 51" fill="none" xmlns="http://www.w3.org/2000/svg">
<g filter="url(#filter0_ii_67_57167)">
<rect x="1" y="1.5166" width="304" height="48" rx="6.52632" fill="#FFEFA5"/>
<rect x="1" y="1.5166" width="304" height="48" rx="6.52632" fill="url(#paint0_linear_67_57167)"/>
</g>
<rect x="1" y="1.5166" width="304" height="48" rx="6.52632" stroke="#3F2436" stroke-width="2"/>
<g clip-path="url(#clip0_67_57167)">
<path d="M103.667 21.3499H102.218C102.69 20.9346 103.064 20.4207 103.314 19.8446C103.564 19.2685 103.685 18.6444 103.667 18.0166C103.667 17.7956 103.579 17.5836 103.423 17.4273C103.266 17.2711 103.054 17.1833 102.833 17.1833C102.612 17.1833 102.4 17.2711 102.244 17.4273C102.088 17.5836 102 17.7956 102 18.0166C102 20.2016 100.024 20.9583 98.5217 21.2174C99.0762 20.2341 99.4101 19.1419 99.5 18.0166C99.5 17.3536 99.2366 16.7177 98.7678 16.2488C98.2989 15.78 97.663 15.5166 97 15.5166C96.337 15.5166 95.7011 15.78 95.2322 16.2488C94.7634 16.7177 94.5 17.3536 94.5 18.0166C94.5899 19.1419 94.9238 20.2341 95.4783 21.2174C93.9758 20.9583 92 20.2016 92 18.0166C92 17.7956 91.9122 17.5836 91.7559 17.4273C91.5996 17.2711 91.3877 17.1833 91.1667 17.1833C90.9457 17.1833 90.7337 17.2711 90.5774 17.4273C90.4211 17.5836 90.3333 17.7956 90.3333 18.0166C90.3154 18.6444 90.4359 19.2685 90.6862 19.8446C90.9365 20.4207 91.3105 20.9346 91.7817 21.3499H90.3333C89.4493 21.3499 88.6014 21.7011 87.9763 22.3262C87.3512 22.9514 87 23.7992 87 24.6833V25.5166C87 25.9586 87.1756 26.3826 87.4882 26.6951C87.8007 27.0077 88.2246 27.1833 88.6667 27.1833V31.3499C88.668 32.4546 89.1074 33.5136 89.8885 34.2948C90.6696 35.0759 91.7287 35.5153 92.8333 35.5166H101.167C102.271 35.5153 103.33 35.0759 104.111 34.2948C104.893 33.5136 105.332 32.4546 105.333 31.3499V27.1833C105.775 27.1833 106.199 27.0077 106.512 26.6951C106.824 26.3826 107 25.9586 107 25.5166V24.6833C107 23.7992 106.649 22.9514 106.024 22.3262C105.399 21.7011 104.551 21.3499 103.667 21.3499ZM97 17.1833C97.221 17.1833 97.433 17.2711 97.5893 17.4273C97.7455 17.5836 97.8333 17.7956 97.8333 18.0166C97.7327 18.9023 97.4489 19.7574 97 20.5274C96.5511 19.7574 96.2673 18.9023 96.1667 18.0166C96.1667 17.7956 96.2545 17.5836 96.4107 17.4273C96.567 17.2711 96.779 17.1833 97 17.1833ZM88.6667 24.6833C88.6667 24.2412 88.8423 23.8173 89.1548 23.5048C89.4674 23.1922 89.8913 23.0166 90.3333 23.0166H96.1667V25.5166H88.6667V24.6833ZM90.3333 31.3499V27.1833H96.1667V33.8499H92.8333C92.1703 33.8499 91.5344 33.5865 91.0656 33.1177C90.5967 32.6489 90.3333 32.013 90.3333 31.3499ZM103.667 31.3499C103.667 32.013 103.403 32.6489 102.934 33.1177C102.466 33.5865 101.83 33.8499 101.167 33.8499H97.8333V27.1833H103.667V31.3499ZM97.8333 25.5166V23.0166H103.667C104.109 23.0166 104.533 23.1922 104.845 23.5048C105.158 23.8173 105.333 24.2412 105.333 24.6833V25.5166H97.8333Z" fill="#3F2436"/>
</g>
<path d="M122.904 29.5166C122.2 29.5166 121.683 29.3406 121.352 28.9886C121.021 28.6366 120.856 28.1406 120.856 27.5006V20.6846H122.904V27.8846H124.072V29.5166H122.904ZM118.536 29.5166C117.832 29.5166 117.315 29.3406 116.984 28.9886C116.653 28.6366 116.488 28.1406 116.488 27.5006V20.6846H118.536V27.8846H119.704V29.5166H118.536ZM128.211 29.6766C127.347 29.6766 126.659 29.4686 126.147 29.0526C125.635 28.6259 125.379 27.9699 125.379 27.0846C125.379 26.2526 125.625 25.6126 126.115 25.1646C126.606 24.7166 127.305 24.4926 128.211 24.4926H130.899V23.9166C130.899 23.3406 130.745 22.9033 130.435 22.6046C130.126 22.2953 129.635 22.1406 128.963 22.1406C128.334 22.1406 127.827 22.2793 127.443 22.5566C127.059 22.8233 126.745 23.1379 126.499 23.5006L125.203 22.3646C125.385 22.0873 125.593 21.8366 125.827 21.6126C126.073 21.3779 126.35 21.1806 126.659 21.0206C126.979 20.8499 127.337 20.7219 127.731 20.6366C128.137 20.5406 128.59 20.4926 129.091 20.4926C130.361 20.4926 131.321 20.7806 131.971 21.3566C132.622 21.9326 132.947 22.7593 132.947 23.8366V29.5166H130.899V25.8206H128.899C127.95 25.8206 127.475 26.1993 127.475 26.9566V27.2606C127.475 27.6339 127.582 27.9273 127.795 28.1406C128.009 28.3539 128.302 28.4606 128.675 28.4606C128.846 28.4606 128.995 28.4446 129.123 28.4126L129.267 29.5646C129.182 29.5966 129.027 29.6233 128.803 29.6446C128.579 29.6659 128.382 29.6766 128.211 29.6766ZM135.983 24.7646L134.607 24.2046C134.65 23.6499 134.783 23.1433 135.007 22.6846C135.231 22.2259 135.53 21.8366 135.903 21.5166C136.287 21.1859 136.735 20.9353 137.247 20.7646C137.77 20.5833 138.335 20.4926 138.943 20.4926C139.583 20.4926 140.154 20.5779 140.655 20.7486C141.167 20.9193 141.599 21.1646 141.951 21.4846C142.303 21.8046 142.57 22.1939 142.751 22.6526C142.943 23.1006 143.039 23.6019 143.039 24.1566V29.5166H140.991V24.4286C140.991 23.6926 140.805 23.1273 140.431 22.7326C140.058 22.3379 139.519 22.1406 138.815 22.1406C138.261 22.1406 137.775 22.2633 137.359 22.5086C136.954 22.7433 136.671 23.0526 136.511 23.4366L137.135 23.6766C137.477 23.8046 137.711 23.9539 137.839 24.1246C137.967 24.2953 138.031 24.5513 138.031 24.8926V29.5166H135.983V24.7646ZM148.653 29.7086C148.109 29.7086 147.613 29.6446 147.165 29.5166C146.717 29.3886 146.333 29.1966 146.013 28.9406C145.693 28.6739 145.442 28.3433 145.261 27.9486C145.09 27.5433 145.005 27.0739 145.005 26.5406C145.005 26.2419 145.026 25.9806 145.069 25.7566C145.122 25.5219 145.181 25.3139 145.245 25.1326C145.32 24.9513 145.4 24.7859 145.485 24.6366C145.581 24.4873 145.677 24.3433 145.773 24.2046C145.933 23.9593 146.082 23.6979 146.221 23.4206C146.36 23.1433 146.429 22.8659 146.429 22.5886V22.3806H144.893V20.6846H146.701C147.245 20.6846 147.661 20.8126 147.949 21.0686C148.237 21.3246 148.381 21.6659 148.381 22.0926V22.1726C148.381 22.5033 148.328 22.8286 148.221 23.1486C148.114 23.4686 147.949 23.8366 147.725 24.2526C147.554 24.5726 147.416 24.8713 147.309 25.1486C147.202 25.4153 147.149 25.7353 147.149 26.1086V26.5726C147.149 27.0526 147.277 27.4153 147.533 27.6606C147.8 27.8953 148.157 28.0126 148.605 28.0126C149.085 28.0126 149.453 27.8793 149.709 27.6126C149.976 27.3459 150.109 26.9673 150.109 26.4766V20.6846H152.157V26.2686C152.157 27.3353 151.848 28.1779 151.229 28.7966C150.621 29.4046 149.762 29.7086 148.653 29.7086ZM157.766 29.7086C157.211 29.7086 156.699 29.6339 156.23 29.4846C155.76 29.3246 155.355 29.1113 155.014 28.8446C154.672 28.5673 154.406 28.2419 154.214 27.8686C154.022 27.4846 153.926 27.0633 153.926 26.6046V25.8046C153.926 25.3993 154.027 25.0846 154.23 24.8606C154.443 24.6259 154.779 24.5086 155.238 24.5086H157.094V26.0606H155.798V26.4446C155.798 26.9993 155.979 27.4206 156.342 27.7086C156.704 27.9859 157.206 28.1246 157.846 28.1246C158.464 28.1246 158.944 27.9219 159.286 27.5166C159.627 27.1113 159.798 26.5513 159.798 25.8366V24.4126C159.798 23.6979 159.606 23.1433 159.222 22.7486C158.838 22.3433 158.299 22.1406 157.606 22.1406C156.987 22.1406 156.454 22.2739 156.006 22.5406C155.568 22.8073 155.243 23.1006 155.03 23.4206L153.782 22.3006C154.091 21.7886 154.571 21.3619 155.222 21.0206C155.883 20.6686 156.704 20.4926 157.686 20.4926C158.358 20.4926 158.955 20.5993 159.478 20.8126C160 21.0153 160.443 21.3193 160.806 21.7246C161.179 22.1193 161.462 22.6046 161.654 23.1806C161.846 23.7459 161.942 24.3859 161.942 25.1006C161.942 26.5406 161.579 27.6713 160.854 28.4926C160.128 29.3033 159.099 29.7086 157.766 29.7086ZM162.96 23.1806H164.992L167.04 27.8846H167.104C167.563 27.8846 167.92 27.7033 168.176 27.3406C168.432 26.9779 168.56 26.4713 168.56 25.8206V24.3966C168.56 23.7459 168.432 23.2393 168.176 22.8766C167.92 22.5139 167.563 22.3326 167.104 22.3326H166.48V20.6846H167.12C168.251 20.6846 169.131 21.0739 169.76 21.8526C170.389 22.6206 170.704 23.7033 170.704 25.1006C170.704 26.4979 170.389 27.5859 169.76 28.3646C169.131 29.1326 168.251 29.5166 167.12 29.5166H165.728L162.96 23.1806ZM175.806 29.7086C174.974 29.7086 174.264 29.5699 173.678 29.2926C173.102 29.0153 172.595 28.6206 172.158 28.1086L173.422 26.9086C173.731 27.2819 174.094 27.5753 174.51 27.7886C174.926 27.9913 175.395 28.0926 175.918 28.0926C176.462 28.0926 176.851 28.0019 177.086 27.8206C177.331 27.6393 177.454 27.3886 177.454 27.0686C177.454 26.7486 177.358 26.5139 177.166 26.3646C176.974 26.2046 176.686 26.0979 176.302 26.0446L175.438 25.9326C175 25.8793 174.6 25.7886 174.238 25.6606C173.875 25.5326 173.56 25.3619 173.294 25.1486C173.038 24.9353 172.835 24.6739 172.686 24.3646C172.547 24.0553 172.478 23.6926 172.478 23.2766C172.478 22.8499 172.558 22.4659 172.718 22.1246C172.888 21.7726 173.118 21.4793 173.406 21.2446C173.704 20.9993 174.056 20.8126 174.462 20.6846C174.878 20.5566 175.336 20.4926 175.838 20.4926C176.659 20.4926 177.331 20.6153 177.854 20.8606C178.376 21.1059 178.846 21.4419 179.262 21.8686L178.046 23.0846C177.8 22.8073 177.486 22.5779 177.102 22.3966C176.718 22.2046 176.302 22.1086 175.854 22.1086C175.374 22.1086 175.016 22.2046 174.782 22.3966C174.558 22.5779 174.446 22.8233 174.446 23.1326C174.446 23.4419 174.542 23.6819 174.734 23.8526C174.936 24.0126 175.262 24.1246 175.71 24.1886L176.574 24.3166C177.448 24.4446 178.142 24.7006 178.654 25.0846C179.166 25.4686 179.422 26.0713 179.422 26.8926C179.422 27.3086 179.336 27.6926 179.166 28.0446C178.995 28.3859 178.75 28.6793 178.43 28.9246C178.12 29.1699 177.742 29.3619 177.294 29.5006C176.846 29.6393 176.35 29.7086 175.806 29.7086ZM185.164 23.6126C185.164 23.1433 185.041 22.7806 184.796 22.5246C184.561 22.2686 184.183 22.1406 183.66 22.1406C183.18 22.1406 182.796 22.2419 182.508 22.4446C182.231 22.6473 181.996 22.8979 181.804 23.1966L180.588 22.1086C180.897 21.6179 181.297 21.2286 181.788 20.9406C182.289 20.6419 182.961 20.4926 183.804 20.4926C184.924 20.4926 185.772 20.7539 186.348 21.2766C186.924 21.7886 187.212 22.5299 187.212 23.5006V29.5166H185.164V23.6126ZM188.585 23.1806H190.617L192.665 27.8846H192.729C193.188 27.8846 193.545 27.7033 193.801 27.3406C194.057 26.9779 194.185 26.4713 194.185 25.8206V24.3966C194.185 23.7459 194.057 23.2393 193.801 22.8766C193.545 22.5139 193.188 22.3326 192.729 22.3326H192.105V20.6846H192.745C193.876 20.6846 194.756 21.0739 195.385 21.8526C196.014 22.6206 196.329 23.7033 196.329 25.1006C196.329 26.4979 196.014 27.5859 195.385 28.3646C194.756 29.1326 193.876 29.5166 192.745 29.5166H191.353L188.585 23.1806ZM200.983 29.7086C200.513 29.7086 200.065 29.6499 199.639 29.5326C199.223 29.4259 198.855 29.2606 198.535 29.0366L199.287 27.5806C199.489 27.6979 199.719 27.8099 199.975 27.9166C200.231 28.0126 200.535 28.0606 200.887 28.0606C201.463 28.0606 201.9 27.8686 202.199 27.4846C202.508 27.0899 202.663 26.5566 202.663 25.8846V24.3326C202.663 23.6606 202.513 23.1273 202.215 22.7326C201.916 22.3379 201.473 22.1406 200.887 22.1406C200.396 22.1406 200.001 22.2633 199.703 22.5086C199.404 22.7539 199.196 23.0633 199.079 23.4366L197.415 22.7006C197.681 22.0179 198.113 21.4793 198.711 21.0846C199.319 20.6899 200.076 20.4926 200.983 20.4926C201.601 20.4926 202.145 20.5993 202.615 20.8126C203.095 21.0259 203.495 21.3353 203.815 21.7406C204.145 22.1353 204.391 22.6153 204.551 23.1806C204.721 23.7459 204.807 24.3806 204.807 25.0846C204.807 25.7993 204.721 26.4446 204.551 27.0206C204.391 27.5859 204.145 28.0713 203.815 28.4766C203.495 28.8713 203.095 29.1753 202.615 29.3886C202.145 29.6019 201.601 29.7086 200.983 29.7086ZM202.532 19.2286C201.924 19.2286 201.466 19.0846 201.156 18.7966C200.847 18.5086 200.692 18.0979 200.692 17.5646V16.3486H202.388V17.6766H206.612V19.2286H202.532ZM209.227 29.6766C208.363 29.6766 207.675 29.4686 207.163 29.0526C206.651 28.6259 206.395 27.9699 206.395 27.0846C206.395 26.2526 206.64 25.6126 207.131 25.1646C207.622 24.7166 208.32 24.4926 209.227 24.4926H211.915V23.9166C211.915 23.3406 211.76 22.9033 211.451 22.6046C211.142 22.2953 210.651 22.1406 209.979 22.1406C209.35 22.1406 208.843 22.2793 208.459 22.5566C208.075 22.8233 207.76 23.1379 207.515 23.5006L206.219 22.3646C206.4 22.0873 206.608 21.8366 206.843 21.6126C207.088 21.3779 207.366 21.1806 207.675 21.0206C207.995 20.8499 208.352 20.7219 208.747 20.6366C209.152 20.5406 209.606 20.4926 210.107 20.4926C211.376 20.4926 212.336 20.7806 212.987 21.3566C213.638 21.9326 213.963 22.7593 213.963 23.8366V29.5166H211.915V25.8206H209.915C208.966 25.8206 208.491 26.1993 208.491 26.9566V27.2606C208.491 27.6339 208.598 27.9273 208.811 28.1406C209.024 28.3539 209.318 28.4606 209.691 28.4606C209.862 28.4606 210.011 28.4446 210.139 28.4126L210.283 29.5646C210.198 29.5966 210.043 29.6233 209.819 29.6446C209.595 29.6659 209.398 29.6766 209.227 29.6766Z" fill="#3F2436"/>
<defs>
<filter id="filter0_ii_67_57167" x="0" y="0.516602" width="306" height="50" filterUnits="userSpaceOnUse" color-interpolation-filters="sRGB">
<feFlood flood-opacity="0" result="BackgroundImageFix"/>
<feBlend mode="normal" in="SourceGraphic" in2="BackgroundImageFix" result="shape"/>
<feColorMatrix in="SourceAlpha" type="matrix" values="0 0 0 0 0 0 0 0 0 0 0 0 0 0 0 0 0 0 127 0" result="hardAlpha"/>
<feOffset dy="-6"/>
<feComposite in2="hardAlpha" operator="arithmetic" k2="-1" k3="1"/>
<feColorMatrix type="matrix" values="0 0 0 0 0.825 0 0 0 0 0.38478 0 0 0 0 0.0660003 0 0 0 1 0"/>
<feBlend mode="normal" in2="shape" result="effect1_innerShadow_67_57167"/>
<feColorMatrix in="SourceAlpha" type="matrix" values="0 0 0 0 0 0 0 0 0 0 0 0 0 0 0 0 0 0 127 0" result="hardAlpha"/>
<feOffset dy="6"/>
<feComposite in2="hardAlpha" operator="arithmetic" k2="-1" k3="1"/>
<feColorMatrix type="matrix" values="0 0 0 0 0.998333 0 0 0 0 0.998333 0 0 0 0 0.998333 0 0 0 0.8 0"/>
<feBlend mode="normal" in2="effect1_innerShadow_67_57167" result="effect2_innerShadow_67_57167"/>
</filter>
<linearGradient id="paint0_linear_67_57167" x1="153" y1="1.5166" x2="153" y2="49.5166" gradientUnits="userSpaceOnUse">
<stop stop-color="#FFD15B"/>
<stop offset="1" stop-color="#FF970E"/>
</linearGradient>
<clipPath id="clip0_67_57167">
<rect width="20" height="20" fill="white" transform="translate(87 15.5166)"/>
</clipPath>
</defs>
</svg>
