<svg width="313" height="51" viewBox="0 0 313 51" fill="none" xmlns="http://www.w3.org/2000/svg">
<rect x="1" y="1.3252" width="311" height="48" rx="6.52632" stroke="#888888" stroke-width="2"/>
<path d="M115.429 29.8424C114.831 29.8424 114.293 29.7624 113.813 29.6024C113.333 29.4317 112.922 29.1917 112.581 28.8824C112.25 28.5731 111.994 28.1997 111.813 27.7624C111.642 27.3251 111.557 26.8344 111.557 26.2904V20.8184H113.605V26.1784C113.605 26.8184 113.765 27.3144 114.085 27.6664C114.405 28.0184 114.853 28.1944 115.429 28.1944C116.005 28.1944 116.453 28.0184 116.773 27.6664C117.093 27.3144 117.253 26.8184 117.253 26.1784V17.8104H119.301V26.2904C119.301 26.8344 119.21 27.3251 119.029 27.7624C118.858 28.1997 118.602 28.5731 118.261 28.8824C117.93 29.1917 117.525 29.4317 117.045 29.6024C116.565 29.7624 116.026 29.8424 115.429 29.8424ZM110.402 17.8104H116.21V19.3624H110.402V17.8104ZM125.015 29.8424C124.407 29.8424 123.857 29.7357 123.367 29.5224C122.887 29.3091 122.481 29.0051 122.151 28.6104C121.82 28.2157 121.564 27.7357 121.383 27.1704C121.212 26.5944 121.127 25.9491 121.127 25.2344C121.127 24.5304 121.223 23.8957 121.415 23.3304C121.617 22.7651 121.9 22.2851 122.263 21.8904C122.636 21.4851 123.084 21.1757 123.607 20.9624C124.14 20.7384 124.732 20.6264 125.383 20.6264C126.001 20.6264 126.561 20.7171 127.063 20.8984C127.564 21.0691 127.991 21.3197 128.343 21.6504C128.695 21.9704 128.967 22.3651 129.159 22.8344C129.351 23.2931 129.447 23.8104 129.447 24.3864V29.6504H127.399V24.5144C127.399 23.8104 127.217 23.2611 126.855 22.8664C126.503 22.4717 126.007 22.2744 125.367 22.2744C124.705 22.2744 124.188 22.4877 123.815 22.9144C123.452 23.3304 123.271 23.9064 123.271 24.6424V25.8104C123.271 27.3997 123.937 28.1944 125.271 28.1944C125.388 28.1944 125.489 28.1944 125.575 28.1944C125.671 28.1837 125.767 28.1677 125.863 28.1464L126.103 29.7464C125.932 29.7891 125.74 29.8157 125.527 29.8264C125.324 29.8371 125.153 29.8424 125.015 29.8424ZM131.715 20.8184H133.763V23.3944L135.891 23.0904C136.254 23.0371 136.526 22.9251 136.707 22.7544C136.899 22.5837 137.017 22.2957 137.059 21.8904L137.171 20.8184H139.283L139.171 21.9544C139.118 22.4451 138.926 22.8557 138.595 23.1864C138.265 23.5171 137.806 23.7144 137.219 23.7784V23.8584C137.582 23.9224 137.881 24.0557 138.115 24.2584C138.35 24.4504 138.537 24.6744 138.675 24.9304C138.825 25.1864 138.931 25.4637 138.995 25.7624C139.07 26.0611 139.123 26.3437 139.155 26.6104L139.443 29.6504H137.315L137.043 26.4824C136.99 25.8744 136.846 25.4264 136.611 25.1384C136.387 24.8504 135.982 24.7437 135.395 24.8184L133.763 25.0264V29.6504H131.715V20.8184ZM144.28 29.8424C143.362 29.8424 142.658 29.5437 142.168 28.9464C141.677 28.3491 141.432 27.4957 141.432 26.3864V20.8184H143.48V26.1944C143.48 26.8024 143.597 27.2824 143.832 27.6344C144.077 27.9864 144.498 28.1624 145.096 28.1624C145.32 28.1624 145.538 28.1304 145.752 28.0664C145.965 28.0024 146.152 27.9117 146.312 27.7944C146.482 27.6664 146.621 27.5117 146.728 27.3304C146.834 27.1384 146.888 26.9197 146.888 26.6744V20.8184H148.936V28.0184H149.784V29.6504H148.504C147.586 29.6504 147.112 29.1277 147.08 28.0824H146.984C146.802 28.5731 146.493 28.9891 146.056 29.3304C145.629 29.6717 145.037 29.8424 144.28 29.8424ZM145.817 17.8104H146.889V17.2504C146.889 17.0477 146.841 16.9037 146.745 16.8184C146.649 16.7224 146.473 16.6744 146.217 16.6744H145.817V15.2344H147.017C147.529 15.2344 147.924 15.3517 148.201 15.5864C148.479 15.8104 148.617 16.1091 148.617 16.4824C148.617 16.7277 148.548 16.9677 148.41 17.2024C148.26 17.4264 148.052 17.5971 147.785 17.7144V17.8104H150.714V19.2504H145.817V17.8104ZM154.945 23.7464C154.945 23.2771 154.822 22.9144 154.577 22.6584C154.342 22.4024 153.964 22.2744 153.441 22.2744C152.961 22.2744 152.577 22.3757 152.289 22.5784C152.012 22.7811 151.777 23.0317 151.585 23.3304L150.369 22.2424C150.678 21.7517 151.078 21.3624 151.569 21.0744C152.07 20.7757 152.742 20.6264 153.585 20.6264C154.705 20.6264 155.553 20.8877 156.129 21.4104C156.705 21.9224 156.993 22.6637 156.993 23.6344V29.6504H154.945V23.7464ZM162.846 29.8424C161.555 29.8424 160.563 29.4531 159.87 28.6744C159.177 27.8851 158.83 26.7277 158.83 25.2024C158.83 23.7197 159.059 22.5891 159.518 21.8104C159.977 21.0211 160.67 20.6264 161.598 20.6264C162.089 20.6264 162.499 20.7597 162.83 21.0264C163.161 21.2824 163.369 21.6504 163.454 22.1304H163.55C163.635 21.6504 163.859 21.2824 164.222 21.0264C164.585 20.7597 165.033 20.6264 165.566 20.6264C166.227 20.6264 166.75 20.8504 167.134 21.2984C167.529 21.7357 167.726 22.3437 167.726 23.1224V29.6504H165.678V23.3624C165.678 23.0211 165.609 22.7651 165.47 22.5944C165.342 22.4237 165.161 22.3384 164.926 22.3384C164.638 22.3384 164.43 22.4504 164.302 22.6744C164.185 22.8984 164.099 23.1811 164.046 23.5224H162.814C162.771 23.1917 162.697 22.9144 162.59 22.6904C162.483 22.4557 162.275 22.3384 161.966 22.3384C161.603 22.3384 161.347 22.5144 161.198 22.8664C161.059 23.2184 160.99 23.7091 160.99 24.3384V25.9544C160.99 26.2957 161.027 26.6051 161.102 26.8824C161.177 27.1491 161.299 27.3837 161.47 27.5864C161.641 27.7784 161.865 27.9277 162.142 28.0344C162.419 28.1411 162.761 28.1944 163.166 28.1944C163.369 28.1944 163.571 28.1731 163.774 28.1304L164.014 29.7304C163.865 29.7731 163.678 29.7997 163.454 29.8104C163.23 29.8317 163.027 29.8424 162.846 29.8424ZM165.767 16.1464H167.655V19.3624H165.767V16.1464ZM173.648 23.7464C173.648 23.2771 173.526 22.9144 173.28 22.6584C173.046 22.4024 172.667 22.2744 172.144 22.2744C171.664 22.2744 171.28 22.3757 170.992 22.5784C170.715 22.7811 170.48 23.0317 170.288 23.3304L169.072 22.2424C169.382 21.7517 169.782 21.3624 170.272 21.0744C170.774 20.7757 171.446 20.6264 172.288 20.6264C173.408 20.6264 174.256 20.8877 174.832 21.4104C175.408 21.9224 175.696 22.6637 175.696 23.6344V29.6504H173.648V23.7464ZM177.069 23.3144H179.101L181.149 28.0184H181.213C181.672 28.0184 182.029 27.8371 182.285 27.4744C182.541 27.1117 182.669 26.6051 182.669 25.9544V24.5304C182.669 23.8797 182.541 23.3731 182.285 23.0104C182.029 22.6477 181.672 22.4664 181.213 22.4664H180.589V20.8184H181.229C182.36 20.8184 183.24 21.2077 183.869 21.9864C184.499 22.7544 184.813 23.8371 184.813 25.2344C184.813 26.6317 184.499 27.7197 183.869 28.4984C183.24 29.2664 182.36 29.6504 181.229 29.6504H179.837L177.069 23.3144ZM189.483 29.8424C188.566 29.8424 187.862 29.5437 187.371 28.9464C186.88 28.3491 186.635 27.4957 186.635 26.3864V20.8184H188.683V26.1944C188.683 26.8024 188.8 27.2824 189.035 27.6344C189.28 27.9864 189.702 28.1624 190.299 28.1624C190.523 28.1624 190.742 28.1304 190.955 28.0664C191.168 28.0024 191.355 27.9117 191.515 27.7944C191.686 27.6664 191.824 27.5117 191.931 27.3304C192.038 27.1384 192.091 26.9197 192.091 26.6744V20.8184H194.139V28.0184H194.987V29.6504H193.707C192.79 29.6504 192.315 29.1277 192.283 28.0824H192.187C192.006 28.5731 191.696 28.9891 191.259 29.3304C190.832 29.6717 190.24 29.8424 189.483 29.8424ZM187.005 17.8104H192.269V16.4824H194.141V19.3624H187.005V17.8104ZM191.085 14.4984H192.093V13.9544C192.093 13.7731 192.05 13.6397 191.965 13.5544C191.869 13.4691 191.709 13.4264 191.485 13.4264H191.085V12.2264H192.173C192.631 12.2264 192.983 12.3277 193.229 12.5304C193.463 12.7224 193.581 12.9837 193.581 13.3144C193.581 13.5277 193.522 13.7357 193.405 13.9384C193.277 14.1411 193.106 14.2957 192.893 14.4024V14.4984H195.389V15.6984H191.085V14.4984Z" fill="#888888"/>
</svg>
