<svg width="153" height="34" viewBox="0 0 153 34" fill="none" xmlns="http://www.w3.org/2000/svg">
<g filter="url(#filter0_ii_67_56164)">
<rect x="1" y="1" width="151" height="32" rx="6.52632" fill="#FFEFA5"/>
<rect x="1" y="1" width="151" height="32" rx="6.52632" fill="url(#paint0_linear_67_56164)"/>
<rect x="1" y="1" width="151" height="32" rx="6.52632" fill="url(#paint1_linear_67_56164)"/>
</g>
<rect x="1" y="1" width="151" height="32" rx="6.52632" stroke="#3F2436" stroke-width="2"/>
<g clip-path="url(#clip0_67_56164)">
<path d="M34.9717 21.167C35.662 21.167 36.2217 20.6073 36.2217 19.917C36.2217 19.2266 35.662 18.667 34.9717 18.667C34.2813 18.667 33.7217 19.2266 33.7217 19.917C33.7217 20.6073 34.2813 21.167 34.9717 21.167Z" fill="#3F2436"/>
<path d="M46.222 9.5H34.5553C33.4507 9.50132 32.3916 9.94073 31.6105 10.7218C30.8294 11.503 30.39 12.562 30.3887 13.6667V20.3333C30.39 21.438 30.8294 22.497 31.6105 23.2782C32.3916 24.0593 33.4507 24.4987 34.5553 24.5H46.222C47.3267 24.4987 48.3857 24.0593 49.1668 23.2782C49.9479 22.497 50.3873 21.438 50.3887 20.3333V13.6667C50.3873 12.562 49.9479 11.503 49.1668 10.7218C48.3857 9.94073 47.3267 9.50132 46.222 9.5ZM34.5553 11.1667H46.222C46.885 11.1667 47.5209 11.4301 47.9898 11.8989C48.4586 12.3677 48.722 13.0036 48.722 13.6667H32.0553C32.0553 13.0036 32.3187 12.3677 32.7876 11.8989C33.2564 11.4301 33.8923 11.1667 34.5553 11.1667ZM46.222 22.8333H34.5553C33.8923 22.8333 33.2564 22.5699 32.7876 22.1011C32.3187 21.6323 32.0553 20.9964 32.0553 20.3333V15.3333H48.722V20.3333C48.722 20.9964 48.4586 21.6323 47.9898 22.1011C47.5209 22.5699 46.885 22.8333 46.222 22.8333Z" fill="#3F2436"/>
</g>
<path d="M58.7427 21.168C58.2013 21.168 57.716 21.0933 57.2867 20.944C56.8573 20.7947 56.4933 20.5847 56.1947 20.314C55.896 20.0433 55.6673 19.712 55.5087 19.32C55.35 18.928 55.2707 18.494 55.2707 18.018V13.244H57.3427V17.92C57.3427 18.4333 57.464 18.83 57.7067 19.11C57.9587 19.39 58.304 19.53 58.7427 19.53C59.1813 19.53 59.522 19.39 59.7647 19.11C60.0073 18.83 60.1287 18.4333 60.1287 17.92V13.244H62.2007V18.018C62.2007 18.494 62.1213 18.928 61.9627 19.32C61.804 19.712 61.5753 20.0433 61.2767 20.314C60.978 20.5847 60.614 20.7947 60.1847 20.944C59.7553 21.0933 59.2747 21.168 58.7427 21.168ZM60.2633 12.054C59.6846 12.054 59.246 11.9187 58.9473 11.648C58.6393 11.3773 58.4853 10.9807 58.4853 10.458V9.31H60.1233V10.542H63.8753V12.054H60.2633ZM67.27 21.168C66.1033 21.168 65.2073 20.832 64.582 20.16C63.9567 19.4787 63.644 18.4567 63.644 17.094C63.644 15.778 63.8493 14.7793 64.26 14.098C64.68 13.4167 65.3007 13.076 66.122 13.076C66.5793 13.076 66.948 13.1973 67.228 13.44C67.5173 13.6827 67.6993 14.028 67.774 14.476H67.872C67.9467 14.028 68.1473 13.6827 68.474 13.44C68.8007 13.1973 69.216 13.076 69.72 13.076C70.308 13.076 70.7793 13.2767 71.134 13.678C71.498 14.07 71.68 14.6207 71.68 15.33V21H69.608V15.624C69.608 15.344 69.5567 15.134 69.454 14.994C69.3513 14.854 69.2113 14.784 69.034 14.784C68.8193 14.784 68.6653 14.8773 68.572 15.064C68.4787 15.2507 68.4133 15.4933 68.376 15.792H67.144C67.1067 15.4933 67.046 15.2507 66.962 15.064C66.878 14.8773 66.7287 14.784 66.514 14.784C66.262 14.784 66.08 14.91 65.968 15.162C65.8653 15.414 65.814 15.7827 65.814 16.268V17.794C65.814 18.046 65.842 18.2747 65.898 18.48C65.954 18.6853 66.0473 18.8627 66.178 19.012C66.318 19.152 66.5 19.264 66.724 19.348C66.948 19.4227 67.2327 19.46 67.578 19.46C67.7367 19.46 67.8953 19.4413 68.054 19.404L68.292 21.056C68.1893 21.0933 68.0353 21.1213 67.83 21.14C67.6247 21.1587 67.438 21.168 67.27 21.168ZM76.3946 21.168C75.6479 21.168 75.0133 21.0467 74.4906 20.804C73.9773 20.5613 73.5246 20.2207 73.1326 19.782L74.3786 18.578C74.6493 18.8767 74.9573 19.1193 75.3026 19.306C75.6573 19.4833 76.0539 19.572 76.4926 19.572C76.9219 19.572 77.2346 19.502 77.4306 19.362C77.6266 19.222 77.7246 19.04 77.7246 18.816C77.7246 18.5733 77.6453 18.4007 77.4866 18.298C77.3279 18.186 77.1133 18.1113 76.8426 18.074L76.0446 17.976C75.1953 17.8733 74.5419 17.626 74.0846 17.234C73.6366 16.842 73.4126 16.296 73.4126 15.596C73.4126 15.204 73.4826 14.854 73.6226 14.546C73.7719 14.238 73.9773 13.9767 74.2386 13.762C74.5093 13.538 74.8266 13.37 75.1906 13.258C75.5639 13.1367 75.9746 13.076 76.4226 13.076C76.7959 13.076 77.1319 13.104 77.4306 13.16C77.7293 13.2067 77.9999 13.2813 78.2426 13.384C78.4946 13.4867 78.7233 13.6127 78.9286 13.762C79.1339 13.9113 79.3346 14.084 79.5306 14.28L78.3126 15.484C78.0886 15.2413 77.8133 15.0453 77.4866 14.896C77.1599 14.7467 76.8193 14.672 76.4646 14.672C76.0819 14.672 75.8019 14.742 75.6246 14.882C75.4473 15.022 75.3586 15.204 75.3586 15.428C75.3586 15.652 75.4286 15.834 75.5686 15.974C75.7179 16.1047 75.9699 16.1933 76.3246 16.24L77.1226 16.352C77.5239 16.408 77.8786 16.492 78.1866 16.604C78.5039 16.716 78.7699 16.8653 78.9846 17.052C79.2086 17.2293 79.3766 17.4487 79.4886 17.71C79.6099 17.9713 79.6706 18.284 79.6706 18.648C79.6706 19.012 79.5913 19.348 79.4326 19.656C79.2739 19.964 79.0499 20.23 78.7606 20.454C78.4806 20.678 78.1353 20.8553 77.7246 20.986C77.3233 21.1073 76.8799 21.168 76.3946 21.168ZM83.4192 21.14C82.6725 21.14 82.0752 20.958 81.6272 20.594C81.1885 20.2207 80.9692 19.642 80.9692 18.858C80.9692 18.13 81.1792 17.5653 81.5992 17.164C82.0192 16.7627 82.6259 16.562 83.4192 16.562H85.7292V16.156C85.7292 15.6893 85.6032 15.3347 85.3512 15.092C85.1085 14.84 84.7072 14.714 84.1472 14.714C83.8765 14.714 83.6385 14.7467 83.4332 14.812C83.2279 14.8773 83.0412 14.966 82.8732 15.078C82.7052 15.1807 82.5559 15.302 82.4252 15.442C82.2945 15.5727 82.1779 15.7127 82.0752 15.862L80.7592 14.714C81.1139 14.21 81.5619 13.8133 82.1032 13.524C82.6445 13.2253 83.3725 13.076 84.2872 13.076C85.2579 13.076 86.0372 13.2627 86.6252 13.636C86.6999 13.3653 86.8352 13.1647 87.0312 13.034C87.2365 12.9033 87.4932 12.838 87.8012 12.838H89.3412V14.546H87.4932V14.602C87.6985 15.0033 87.8012 15.498 87.8012 16.086V21H85.7292V17.878H84.1612C83.4332 17.878 83.0692 18.1767 83.0692 18.774V19.012C83.0692 19.3013 83.1439 19.5347 83.2932 19.712C83.4425 19.88 83.6619 19.964 83.9512 19.964C84.0072 19.964 84.0632 19.964 84.1192 19.964C84.1752 19.964 84.2312 19.9547 84.2872 19.936L84.4272 21.042C84.3805 21.0607 84.3152 21.0747 84.2312 21.084C84.1565 21.1027 84.0679 21.112 83.9652 21.112C83.8719 21.1213 83.7739 21.126 83.6712 21.126C83.5779 21.1353 83.4939 21.14 83.4192 21.14ZM94.5863 21.168C94.2503 21.168 93.9563 21.126 93.7043 21.042C93.4616 20.958 93.2469 20.8507 93.0603 20.72C92.8829 20.58 92.7336 20.4213 92.6123 20.244C92.5003 20.0667 92.4116 19.8847 92.3463 19.698H92.2763V21H90.2043V13.244H92.2763V18.284C92.2763 18.48 92.3183 18.6527 92.4023 18.802C92.4863 18.9513 92.5936 19.0773 92.7243 19.18C92.8643 19.2827 93.0183 19.362 93.1863 19.418C93.3636 19.4647 93.5363 19.488 93.7043 19.488C93.9656 19.488 94.1803 19.446 94.3483 19.362C94.5256 19.278 94.6609 19.166 94.7543 19.026C94.8476 18.8767 94.9129 18.7087 94.9503 18.522C94.9876 18.3353 95.0063 18.1393 95.0063 17.934V13.244H97.0783V18.116C97.0783 19.096 96.8683 19.852 96.4483 20.384C96.0283 20.9067 95.4076 21.168 94.5863 21.168ZM102.273 15.862C102.273 15.5073 102.18 15.2273 101.993 15.022C101.816 14.8167 101.517 14.714 101.097 14.714C100.696 14.714 100.378 14.8027 100.145 14.98C99.9116 15.148 99.7156 15.344 99.5569 15.568L98.3249 14.476C98.6236 14.0373 98.9923 13.6967 99.4309 13.454C99.8789 13.202 100.486 13.076 101.251 13.076C102.268 13.076 103.038 13.3047 103.561 13.762C104.084 14.2193 104.345 14.8867 104.345 15.764V21H102.273V15.862ZM109.197 21.168C108.702 21.168 108.249 21.112 107.839 21C107.428 20.888 107.078 20.7153 106.789 20.482C106.499 20.2487 106.275 19.9593 106.117 19.614C105.958 19.2687 105.879 18.858 105.879 18.382C105.879 18.1207 105.897 17.892 105.935 17.696C105.972 17.5 106.019 17.3227 106.075 17.164C106.14 17.0053 106.205 16.8653 106.271 16.744C106.345 16.6227 106.42 16.5107 106.495 16.408C106.625 16.2027 106.737 15.9833 106.831 15.75C106.933 15.5073 106.985 15.2693 106.985 15.036V14.938H105.795V13.244H107.349C107.881 13.244 108.287 13.3653 108.567 13.608C108.847 13.8413 108.987 14.1587 108.987 14.56V14.616C108.987 14.8867 108.949 15.162 108.875 15.442C108.8 15.722 108.674 16.0393 108.497 16.394C108.366 16.6553 108.254 16.898 108.161 17.122C108.077 17.3367 108.035 17.6167 108.035 17.962V18.34C108.035 18.6947 108.133 18.9747 108.329 19.18C108.525 19.376 108.8 19.474 109.155 19.474C109.509 19.474 109.785 19.3807 109.981 19.194C110.186 18.998 110.289 18.7227 110.289 18.368V17.29C110.289 16.926 110.242 16.646 110.149 16.45C110.055 16.254 109.85 16.156 109.533 16.156H109.449V14.616H109.673C109.897 14.616 110.083 14.5553 110.233 14.434C110.391 14.3127 110.471 14.098 110.471 13.79V12.908H112.487V13.608C112.487 13.7853 112.463 13.958 112.417 14.126C112.379 14.2847 112.305 14.434 112.193 14.574C112.09 14.714 111.941 14.8353 111.745 14.938C111.558 15.0407 111.32 15.12 111.031 15.176V15.274C111.497 15.4327 111.847 15.722 112.081 16.142C112.323 16.562 112.445 17.15 112.445 17.906C112.445 18.41 112.365 18.8673 112.207 19.278C112.057 19.6793 111.843 20.02 111.563 20.3C111.283 20.58 110.942 20.7947 110.541 20.944C110.139 21.0933 109.691 21.168 109.197 21.168ZM106.012 10.542H112.48V12.054H106.012V10.542ZM114.652 16.926L113.434 16.436C113.471 15.9227 113.592 15.4607 113.798 15.05C114.012 14.63 114.292 14.2753 114.638 13.986C114.983 13.6967 115.389 13.4727 115.856 13.314C116.332 13.1553 116.85 13.076 117.41 13.076C117.979 13.076 118.488 13.1553 118.936 13.314C119.393 13.4633 119.78 13.6827 120.098 13.972C120.415 14.252 120.658 14.5973 120.826 15.008C121.003 15.4093 121.092 15.8573 121.092 16.352V21H119.02V16.618C119.02 16.0207 118.866 15.554 118.558 15.218C118.259 14.882 117.816 14.714 117.228 14.714C116.78 14.714 116.392 14.8073 116.066 14.994C115.748 15.1807 115.515 15.414 115.366 15.694L115.856 15.876C116.192 16.0067 116.42 16.156 116.542 16.324C116.663 16.492 116.724 16.744 116.724 17.08V21H114.652V16.926Z" fill="#3F2436"/>
<defs>
<filter id="filter0_ii_67_56164" x="0" y="0" width="153" height="34" filterUnits="userSpaceOnUse" color-interpolation-filters="sRGB">
<feFlood flood-opacity="0" result="BackgroundImageFix"/>
<feBlend mode="normal" in="SourceGraphic" in2="BackgroundImageFix" result="shape"/>
<feColorMatrix in="SourceAlpha" type="matrix" values="0 0 0 0 0 0 0 0 0 0 0 0 0 0 0 0 0 0 127 0" result="hardAlpha"/>
<feOffset dy="-6"/>
<feComposite in2="hardAlpha" operator="arithmetic" k2="-1" k3="1"/>
<feColorMatrix type="matrix" values="0 0 0 0 0.825 0 0 0 0 0.38478 0 0 0 0 0.0660003 0 0 0 1 0"/>
<feBlend mode="normal" in2="shape" result="effect1_innerShadow_67_56164"/>
<feColorMatrix in="SourceAlpha" type="matrix" values="0 0 0 0 0 0 0 0 0 0 0 0 0 0 0 0 0 0 127 0" result="hardAlpha"/>
<feOffset dy="6"/>
<feComposite in2="hardAlpha" operator="arithmetic" k2="-1" k3="1"/>
<feColorMatrix type="matrix" values="0 0 0 0 0.998333 0 0 0 0 0.998333 0 0 0 0 0.998333 0 0 0 0.8 0"/>
<feBlend mode="normal" in2="effect1_innerShadow_67_56164" result="effect2_innerShadow_67_56164"/>
</filter>
<linearGradient id="paint0_linear_67_56164" x1="76.5" y1="1" x2="76.5" y2="33" gradientUnits="userSpaceOnUse">
<stop stop-color="#FFD15B"/>
<stop offset="1" stop-color="#FF970E"/>
</linearGradient>
<linearGradient id="paint1_linear_67_56164" x1="76.5" y1="1" x2="76.5" y2="33" gradientUnits="userSpaceOnUse">
<stop stop-color="#FFD15B"/>
<stop offset="1" stop-color="#FF970E"/>
</linearGradient>
<clipPath id="clip0_67_56164">
<rect width="20" height="20" fill="white" transform="translate(30.3887 7)"/>
</clipPath>
</defs>
</svg>
