<svg width="375" height="406" viewBox="0 0 375 406" fill="none" xmlns="http://www.w3.org/2000/svg">
<path d="M25.22 45.14C24.464 45.14 23.862 44.958 23.414 44.594C22.966 44.2207 22.742 43.6467 22.742 42.872C22.742 42.144 22.9567 41.584 23.386 41.192C23.8153 40.8 24.4267 40.604 25.22 40.604H27.572V40.1C27.572 39.596 27.4367 39.2133 27.166 38.952C26.8953 38.6813 26.466 38.546 25.878 38.546C25.3273 38.546 24.884 38.6673 24.548 38.91C24.212 39.1433 23.9367 39.4187 23.722 39.736L22.588 38.742C22.7467 38.4993 22.9287 38.28 23.134 38.084C23.3487 37.8787 23.5913 37.706 23.862 37.566C24.142 37.4167 24.4547 37.3047 24.8 37.23C25.1547 37.146 25.5513 37.104 25.99 37.104C26.8953 37.104 27.6373 37.286 28.216 37.65C28.2627 37.3793 28.3747 37.188 28.552 37.076C28.7387 36.9547 28.9767 36.894 29.266 36.894H30.904V38.378H28.944V38.434C29.224 38.854 29.364 39.386 29.364 40.03V45H27.572V41.766H25.822C24.9913 41.766 24.576 42.0973 24.576 42.76V43.026C24.576 43.3527 24.6693 43.6093 24.856 43.796C25.0427 43.9827 25.2993 44.076 25.626 44.076C25.7753 44.076 25.906 44.062 26.018 44.034L26.144 45.042C26.0693 45.07 25.934 45.0933 25.738 45.112C25.542 45.1307 25.3693 45.14 25.22 45.14ZM23.1251 34.64H29.3691V35.998H23.1251V34.64ZM31.8817 37.272H33.6737V38.56H33.7437C33.809 38.3733 33.9024 38.1913 34.0237 38.014C34.145 37.8367 34.2944 37.6827 34.4717 37.552C34.6584 37.412 34.873 37.3047 35.1157 37.23C35.3677 37.146 35.6617 37.104 35.9977 37.104C36.819 37.104 37.449 37.3653 37.8877 37.888C38.3264 38.4107 38.5457 39.1573 38.5457 40.128V45H36.7537V40.296C36.7537 39.736 36.637 39.3113 36.4037 39.022C36.1704 38.7233 35.797 38.574 35.2837 38.574C35.0877 38.574 34.8917 38.602 34.6957 38.658C34.4997 38.714 34.327 38.798 34.1777 38.91C34.0284 39.022 33.907 39.162 33.8137 39.33C33.7204 39.4887 33.6737 39.6753 33.6737 39.89V45H31.8817V37.272ZM40.368 42.102H41.978V43.642H44.988V42.424C44.988 42.228 44.9647 42.06 44.918 41.92C44.8807 41.78 44.8107 41.6633 44.708 41.57C44.6053 41.4767 44.4653 41.402 44.288 41.346C44.1107 41.29 43.8867 41.2527 43.616 41.234L40.228 40.954V39.904C40.228 39.0173 40.5127 38.3313 41.082 37.846C41.6607 37.3513 42.4913 37.104 43.574 37.104C44.302 37.104 44.9133 37.2067 45.408 37.412C45.912 37.6173 46.3413 37.888 46.696 38.224L45.786 39.358C45.5527 39.1153 45.24 38.9147 44.848 38.756C44.456 38.588 43.994 38.504 43.462 38.504C42.958 38.504 42.5613 38.6113 42.272 38.826C41.992 39.0313 41.852 39.3253 41.852 39.708V39.75L43.868 39.932C44.3253 39.9787 44.7313 40.0487 45.086 40.142C45.4407 40.226 45.7393 40.3567 45.982 40.534C46.2247 40.7113 46.4067 40.94 46.528 41.22C46.6493 41.4907 46.71 41.836 46.71 42.256V43.236C46.71 43.796 46.5653 44.23 46.276 44.538C45.9867 44.846 45.534 45 44.918 45H40.368V42.102ZM40.4611 34.64H46.7051V35.998H40.4611V34.64ZM51.633 45.168C51.1103 45.168 50.639 45.098 50.219 44.958C49.799 44.8087 49.4396 44.5987 49.141 44.328C48.8516 44.0573 48.6276 43.7307 48.469 43.348C48.3196 42.9653 48.245 42.536 48.245 42.06V37.272H50.037V41.962C50.037 42.522 50.177 42.956 50.457 43.264C50.737 43.572 51.129 43.726 51.633 43.726C52.137 43.726 52.529 43.572 52.809 43.264C53.089 42.956 53.229 42.522 53.229 41.962V34.64H55.021V42.06C55.021 42.536 54.9416 42.9653 54.783 43.348C54.6336 43.7307 54.4096 44.0573 54.111 44.328C53.8216 44.5987 53.467 44.8087 53.047 44.958C52.627 45.098 52.1556 45.168 51.633 45.168ZM59.7966 45.168C59.0686 45.168 58.4479 45.0467 57.9346 44.804C57.4306 44.5613 56.9873 44.216 56.6046 43.768L57.7106 42.718C57.9813 43.0447 58.2986 43.3013 58.6626 43.488C59.0266 43.6653 59.4373 43.754 59.8946 43.754C60.3706 43.754 60.7113 43.6747 60.9166 43.516C61.1313 43.3573 61.2386 43.138 61.2386 42.858C61.2386 42.578 61.1546 42.3727 60.9866 42.242C60.8186 42.102 60.5666 42.0087 60.2306 41.962L59.4746 41.864C59.0919 41.8173 58.7419 41.738 58.4246 41.626C58.1073 41.514 57.8319 41.3647 57.5986 41.178C57.3746 40.9913 57.1973 40.7627 57.0666 40.492C56.9453 40.2213 56.8846 39.904 56.8846 39.54C56.8846 39.1667 56.9546 38.8307 57.0946 38.532C57.2439 38.224 57.4446 37.9673 57.6966 37.762C57.9579 37.5473 58.2659 37.384 58.6206 37.272C58.9846 37.16 59.3859 37.104 59.8246 37.104C60.5433 37.104 61.1313 37.2113 61.5886 37.426C62.0459 37.6407 62.4566 37.9347 62.8206 38.308L61.7566 39.372C61.5419 39.1293 61.2666 38.9287 60.9306 38.77C60.5946 38.602 60.2306 38.518 59.8386 38.518C59.4186 38.518 59.1059 38.602 58.9006 38.77C58.7046 38.9287 58.6066 39.1433 58.6066 39.414C58.6066 39.6847 58.6906 39.8947 58.8586 40.044C59.0359 40.184 59.3206 40.282 59.7126 40.338L60.4686 40.45C61.2339 40.562 61.8406 40.786 62.2886 41.122C62.7366 41.458 62.9606 41.9853 62.9606 42.704C62.9606 43.068 62.8859 43.404 62.7366 43.712C62.5873 44.0107 62.3726 44.2673 62.0926 44.482C61.8219 44.6967 61.4906 44.8647 61.0986 44.986C60.7066 45.1073 60.2726 45.168 59.7966 45.168ZM66.1792 43.81C65.6472 43.81 65.2459 43.684 64.9752 43.432C64.7045 43.18 64.5692 42.8207 64.5692 42.354V41.556H66.1232V42.326H68.3912V43.81H66.1792ZM66.1792 40.324C65.6472 40.324 65.2459 40.198 64.9752 39.946C64.7045 39.694 64.5692 39.3347 64.5692 38.868V38.07H66.1232V38.84H68.3912V40.324H66.1792ZM72.4537 45C71.8377 45 71.3804 44.846 71.0817 44.538C70.7924 44.23 70.6477 43.796 70.6477 43.236V36.306L68.8137 35.536V35.158C68.8137 34.7287 68.8884 34.3413 69.0377 33.996C69.1777 33.6507 69.3784 33.3567 69.6397 33.114C69.9104 32.862 70.2324 32.6707 70.6057 32.54C70.979 32.4093 71.399 32.344 71.8657 32.344C72.519 32.344 73.0557 32.4467 73.4757 32.652C73.8957 32.848 74.255 33.1233 74.5537 33.478L73.4897 34.472C73.3497 34.2853 73.149 34.122 72.8877 33.982C72.6357 33.8327 72.3137 33.758 71.9217 33.758C71.5017 33.758 71.1377 33.8467 70.8297 34.024C70.531 34.192 70.363 34.4533 70.3257 34.808L71.6557 35.34C71.9544 35.4613 72.1597 35.6013 72.2717 35.76C72.3837 35.9093 72.4397 36.1427 72.4397 36.46V43.572H73.4617V45H72.4537ZM77.7771 45.168C76.7878 45.168 76.0131 44.972 75.4531 44.58C74.8931 44.1787 74.6131 43.614 74.6131 42.886C74.6131 42.438 74.7438 42.0553 75.0051 41.738C75.2758 41.4207 75.6211 41.2013 76.0411 41.08V40.996C75.5744 40.884 75.2104 40.6647 74.9491 40.338C74.6878 40.002 74.5571 39.596 74.5571 39.12C74.5571 38.8213 74.6084 38.5507 74.7111 38.308C74.8231 38.056 74.9724 37.8413 75.1591 37.664C75.3551 37.4867 75.5884 37.3513 75.8591 37.258C76.1391 37.1553 76.4471 37.104 76.7831 37.104C76.9978 37.104 77.2311 37.1273 77.4831 37.174C77.7351 37.2113 77.9638 37.286 78.1691 37.398L77.7911 38.7C77.6698 38.6347 77.5531 38.5927 77.4411 38.574C77.3384 38.546 77.2264 38.532 77.1051 38.532C76.8344 38.532 76.6104 38.6113 76.4331 38.77C76.2558 38.9193 76.1671 39.1293 76.1671 39.4C76.1671 39.6707 76.2464 39.89 76.4051 40.058C76.5638 40.226 76.8531 40.31 77.2731 40.31H78.0291V41.514H77.2731C77.0304 41.514 76.8251 41.5933 76.6571 41.752C76.4891 41.9107 76.4051 42.1253 76.4051 42.396V42.676C76.4051 43.0307 76.5264 43.2967 76.7691 43.474C77.0211 43.642 77.3758 43.726 77.8331 43.726C78.3651 43.726 78.7804 43.586 79.0791 43.306C79.3871 43.0167 79.5411 42.6013 79.5411 42.06V37.272H81.3331V42.298C81.3331 42.7367 81.2491 43.1333 81.0811 43.488C80.9131 43.8427 80.6751 44.146 80.3671 44.398C80.0591 44.6407 79.6858 44.832 79.2471 44.972C78.8084 45.1027 78.3184 45.168 77.7771 45.168ZM86.2553 45.168C85.7793 45.168 85.3406 45.112 84.9393 45C84.5473 44.888 84.2113 44.72 83.9313 44.496C83.6513 44.2627 83.432 43.9733 83.2733 43.628C83.124 43.2733 83.0493 42.8627 83.0493 42.396C83.0493 42.1347 83.068 41.906 83.1053 41.71C83.152 41.5047 83.2033 41.3227 83.2593 41.164C83.3246 41.0053 83.3946 40.8607 83.4693 40.73C83.5533 40.5993 83.6373 40.4733 83.7213 40.352C83.8613 40.1373 83.992 39.9087 84.1133 39.666C84.2346 39.4233 84.2953 39.1807 84.2953 38.938V38.756H82.9513V37.272H84.5333C85.0093 37.272 85.3733 37.384 85.6253 37.608C85.8773 37.832 86.0033 38.1307 86.0033 38.504V38.574C86.0033 38.8633 85.9566 39.148 85.8633 39.428C85.77 39.708 85.6253 40.03 85.4293 40.394C85.28 40.674 85.1586 40.9353 85.0653 41.178C84.972 41.4113 84.9253 41.6913 84.9253 42.018V42.424C84.9253 42.844 85.0373 43.1613 85.2613 43.376C85.4946 43.5813 85.812 43.684 86.2133 43.684C86.624 43.684 86.9413 43.5813 87.1653 43.376C87.3893 43.1613 87.5013 42.858 87.5013 42.466V41.346C87.5013 40.954 87.4406 40.6507 87.3193 40.436C87.2073 40.2213 86.988 40.114 86.6613 40.114H86.4933V38.77H86.7733C87.0253 38.77 87.2306 38.7 87.3893 38.56C87.5573 38.4107 87.6413 38.1633 87.6413 37.818V36.978H89.3913V37.678C89.3913 38.07 89.2793 38.406 89.0553 38.686C88.8406 38.966 88.472 39.1527 87.9493 39.246V39.344C88.9013 39.6427 89.3773 40.5153 89.3773 41.962C89.3773 42.4567 89.3026 42.9047 89.1533 43.306C89.0133 43.698 88.808 44.034 88.5373 44.314C88.2666 44.5847 87.9353 44.7947 87.5433 44.944C87.1606 45.0933 86.7313 45.168 86.2553 45.168ZM93.612 45.168C92.8093 45.168 92.1933 44.9067 91.764 44.384C91.3346 43.8613 91.12 43.1147 91.12 42.144V37.272H92.912V41.976C92.912 42.508 93.0146 42.928 93.22 43.236C93.4346 43.544 93.8033 43.698 94.326 43.698C94.522 43.698 94.7133 43.67 94.9 43.614C95.0866 43.558 95.25 43.4787 95.39 43.376C95.5393 43.264 95.6606 43.1287 95.754 42.97C95.8473 42.802 95.894 42.6107 95.894 42.396V37.272H97.686V43.572H98.428V45H97.308C96.5053 45 96.09 44.5427 96.062 43.628H95.978C95.8193 44.0573 95.5486 44.4213 95.166 44.72C94.7926 45.0187 94.2746 45.168 93.612 45.168ZM94.4115 34.92C94.4115 34.4533 94.5468 34.0987 94.8175 33.856C95.0882 33.604 95.4895 33.478 96.0215 33.478H98.8915V34.822H95.8955V35.998H94.4115V34.92Z" fill="#3F2436"/>
<rect x="22" y="54" width="331" height="42" rx="6" fill="#F5F5F5"/>
<g clip-path="url(#clip0_71_106794)">
<path d="M39.9997 71.6663H36.9997C36.5576 71.6663 36.1337 71.4907 35.8212 71.1782C35.5086 70.8656 35.333 70.4417 35.333 69.9997C35.333 69.5576 35.5086 69.1337 35.8212 68.8212C36.1337 68.5086 36.5576 68.333 36.9997 68.333C39.333 68.333 39.9997 71.6663 39.9997 71.6663ZM39.9997 71.6663H42.9997C43.4417 71.6663 43.8656 71.4907 44.1782 71.1782C44.4907 70.8656 44.6663 70.4417 44.6663 69.9997C44.6663 69.5576 44.4907 69.1337 44.1782 68.8212C43.8656 68.5086 43.4417 68.333 42.9997 68.333C40.6663 68.333 39.9997 71.6663 39.9997 71.6663ZM39.9997 71.6663L39.9997 81.6663M33.333 76.333H46.6663M33.333 73.7997L33.333 79.533C33.333 80.2797 33.333 80.6531 33.4783 80.9383C33.6062 81.1892 33.8101 81.3932 34.061 81.521C34.3462 81.6663 34.7196 81.6663 35.4663 81.6663L44.533 81.6663C45.2797 81.6663 45.6531 81.6663 45.9383 81.521C46.1892 81.3932 46.3932 81.1892 46.521 80.9383C46.6663 80.6531 46.6663 80.2797 46.6663 79.533V73.7997C46.6663 73.0529 46.6663 72.6796 46.521 72.3944C46.3932 72.1435 46.1892 71.9395 45.9383 71.8117C45.6531 71.6663 45.2797 71.6663 44.533 71.6663L35.4663 71.6663C34.7196 71.6663 34.3462 71.6663 34.061 71.8117C33.8101 71.9395 33.6062 72.1435 33.4783 72.3944C33.333 72.6796 33.333 73.0529 33.333 73.7997Z" stroke="#3F2436" stroke-width="1.5" stroke-linecap="round" stroke-linejoin="round"/>
</g>
<path d="M60.528 80.192C60.0053 80.192 59.5253 80.128 59.088 80C58.6613 79.872 58.288 79.68 57.968 79.424C57.6587 79.1573 57.4187 78.832 57.248 78.448C57.0773 78.0533 56.992 77.5893 56.992 77.056C56.992 76.448 57.072 75.968 57.232 75.616C57.4027 75.2533 57.5947 74.928 57.808 74.64C58 74.3733 58.16 74.1013 58.288 73.824C58.4267 73.5467 58.496 73.264 58.496 72.976V72.672H56.88V71.216H58.704C59.184 71.216 59.552 71.3333 59.808 71.568C60.0747 71.792 60.208 72.1013 60.208 72.496V72.608C60.208 72.96 60.144 73.3013 60.016 73.632C59.8987 73.952 59.7173 74.3253 59.472 74.752C59.28 75.0933 59.1253 75.408 59.008 75.696C58.9013 75.9733 58.848 76.2987 58.848 76.672V77.136C58.848 77.6693 58.9973 78.0747 59.296 78.352C59.5947 78.6293 59.9947 78.768 60.496 78.768C61.0293 78.768 61.4347 78.608 61.712 78.288C62 77.9573 62.144 77.504 62.144 76.928V71.216H63.888V76.864C63.888 77.8987 63.6 78.7147 63.024 79.312C62.448 79.8987 61.616 80.192 60.528 80.192ZM69.5943 80.192C69.0609 80.192 68.5596 80.1173 68.0903 79.968C67.6316 79.808 67.2316 79.5947 66.8903 79.328C66.5596 79.0507 66.2983 78.72 66.1063 78.336C65.9143 77.952 65.8183 77.5253 65.8183 77.056V76.256C65.8183 75.8827 65.9036 75.5947 66.0743 75.392C66.2449 75.1787 66.5543 75.072 67.0023 75.072H68.7943V76.448H67.4663V76.928C67.4663 77.568 67.6636 78.0373 68.0583 78.336C68.4636 78.624 69.0023 78.768 69.6743 78.768C70.3676 78.768 70.9009 78.5547 71.2743 78.128C71.6583 77.7013 71.8503 77.0987 71.8503 76.32V74.944C71.8503 74.1547 71.6369 73.5413 71.2103 73.104C70.7943 72.6667 70.2023 72.448 69.4343 72.448C68.7943 72.448 68.2449 72.5813 67.7863 72.848C67.3383 73.1147 66.9969 73.4347 66.7623 73.808L65.6743 72.832C65.9836 72.32 66.4583 71.8933 67.0983 71.552C67.7383 71.2 68.5436 71.024 69.5143 71.024C70.8369 71.024 71.8663 71.4293 72.6023 72.24C73.3383 73.04 73.7063 74.16 73.7063 75.6C73.7063 76.304 73.6156 76.944 73.4343 77.52C73.2529 78.0853 72.9863 78.5653 72.6343 78.96C72.2823 79.3547 71.8503 79.6587 71.3383 79.872C70.8263 80.0853 70.2449 80.192 69.5943 80.192ZM74.8836 73.68H76.6596L78.8196 78.592H78.8676C79.4223 78.592 79.849 78.3947 80.1476 78C80.4463 77.5947 80.5956 77.024 80.5956 76.288V74.912C80.5956 74.1973 80.441 73.6427 80.1316 73.248C79.8223 72.8427 79.3956 72.64 78.8516 72.64H78.3076V71.216H78.8836C80.0463 71.216 80.9316 71.6 81.5396 72.368C82.1476 73.136 82.4516 74.2133 82.4516 75.6C82.4516 76.9867 82.137 78.0693 81.5076 78.848C80.889 79.616 80.0196 80 78.8996 80H77.6676L74.8836 73.68ZM87.6496 80.192C86.8283 80.192 86.1296 80.0533 85.5536 79.776C84.9883 79.488 84.4923 79.088 84.0656 78.576L85.1696 77.536C85.4896 77.9413 85.863 78.2507 86.2896 78.464C86.7163 78.6773 87.2016 78.784 87.7456 78.784C88.3216 78.784 88.7483 78.6827 89.0256 78.48C89.3136 78.2667 89.4576 77.968 89.4576 77.584C89.4576 77.2427 89.3456 76.9813 89.1216 76.8C88.9083 76.608 88.567 76.48 88.0976 76.416L87.2816 76.304C86.887 76.2507 86.5136 76.1653 86.1616 76.048C85.8096 75.9307 85.5003 75.7707 85.2336 75.568C84.9776 75.3653 84.7696 75.1147 84.6096 74.816C84.4603 74.5173 84.3856 74.1493 84.3856 73.712C84.3856 73.2853 84.4656 72.9067 84.6256 72.576C84.7856 72.2347 85.0096 71.952 85.2976 71.728C85.5856 71.4933 85.927 71.3173 86.3216 71.2C86.727 71.0827 87.1696 71.024 87.6496 71.024C88.4496 71.024 89.1056 71.1467 89.6176 71.392C90.1296 71.6267 90.583 71.9573 90.9776 72.384L89.9216 73.44C89.6763 73.1627 89.3616 72.928 88.9776 72.736C88.5936 72.544 88.151 72.448 87.6496 72.448C87.127 72.448 86.7323 72.5493 86.4656 72.752C86.199 72.9547 86.0656 73.232 86.0656 73.584C86.0656 73.9573 86.1883 74.2347 86.4336 74.416C86.679 74.5973 87.0416 74.72 87.5216 74.784L88.3376 74.912C88.7536 74.976 89.1323 75.0667 89.4736 75.184C89.8256 75.3013 90.1243 75.4613 90.3696 75.664C90.615 75.856 90.8016 76.096 90.9296 76.384C91.0683 76.672 91.1376 77.0187 91.1376 77.424C91.1376 77.84 91.0523 78.2187 90.8816 78.56C90.7216 78.9013 90.487 79.1947 90.1776 79.44C89.879 79.6747 89.511 79.8613 89.0736 80C88.647 80.128 88.1723 80.192 87.6496 80.192ZM97.0095 74.048C97.0095 73.536 96.8762 73.1413 96.6095 72.864C96.3428 72.5867 95.9215 72.448 95.3455 72.448C94.8548 72.448 94.4602 72.5547 94.1615 72.768C93.8628 72.9707 93.6068 73.2373 93.3935 73.568L92.3375 72.64C92.6255 72.16 93.0148 71.7707 93.5055 71.472C93.9962 71.1733 94.6468 71.024 95.4575 71.024C96.5242 71.024 97.3402 71.2747 97.9055 71.776C98.4708 72.2773 98.7535 72.9973 98.7535 73.936V80H97.0095V74.048ZM100.29 73.68H102.066L104.226 78.592H104.274C104.829 78.592 105.255 78.3947 105.554 78C105.853 77.5947 106.002 77.024 106.002 76.288V74.912C106.002 74.1973 105.847 73.6427 105.538 73.248C105.229 72.8427 104.802 72.64 104.258 72.64H103.714V71.216H104.29C105.453 71.216 106.338 71.6 106.946 72.368C107.554 73.136 107.858 74.2133 107.858 75.6C107.858 76.9867 107.543 78.0693 106.914 78.848C106.295 79.616 105.426 80 104.306 80H103.074L100.29 73.68ZM112.608 80.192C112.16 80.192 111.733 80.1387 111.328 80.032C110.923 79.9253 110.565 79.7653 110.256 79.552L110.912 78.304C111.125 78.432 111.36 78.544 111.616 78.64C111.883 78.7253 112.187 78.768 112.528 78.768C113.168 78.768 113.659 78.5547 114 78.128C114.352 77.6907 114.528 77.0933 114.528 76.336V74.88C114.528 74.1333 114.357 73.5413 114.016 73.104C113.685 72.6667 113.195 72.448 112.544 72.448C112.021 72.448 111.595 72.5707 111.264 72.816C110.933 73.0507 110.693 73.3707 110.544 73.776L109.12 73.104C109.387 72.464 109.813 71.9573 110.4 71.584C110.987 71.2107 111.723 71.024 112.608 71.024C113.216 71.024 113.755 71.1307 114.224 71.344C114.693 71.5573 115.088 71.8613 115.408 72.256C115.728 72.6507 115.968 73.1307 116.128 73.696C116.299 74.2613 116.384 74.896 116.384 75.6C116.384 76.304 116.299 76.944 116.128 77.52C115.957 78.0853 115.712 78.5653 115.392 78.96C115.072 79.3547 114.677 79.6587 114.208 79.872C113.739 80.0853 113.205 80.192 112.608 80.192ZM114.319 69.648C113.765 69.648 113.349 69.5147 113.071 69.248C112.794 68.9813 112.655 68.608 112.655 68.128V67.008H114.191V68.272H118.351V69.648H114.319ZM120.979 80.16C120.115 80.16 119.422 79.9467 118.899 79.52C118.387 79.0933 118.131 78.448 118.131 77.584C118.131 76.7627 118.376 76.128 118.867 75.68C119.368 75.232 120.072 75.008 120.979 75.008H123.699V74.336C123.699 73.7173 123.528 73.248 123.187 72.928C122.856 72.608 122.339 72.448 121.635 72.448C121.006 72.448 120.488 72.5813 120.083 72.848C119.688 73.1147 119.363 73.4507 119.107 73.856L117.987 72.88C118.328 72.336 118.792 71.8933 119.379 71.552C119.976 71.2 120.766 71.024 121.747 71.024C122.952 71.024 123.87 71.3067 124.499 71.872C125.128 72.4267 125.443 73.2267 125.443 74.272V80H123.699V76.176H121.507C120.995 76.176 120.6 76.2827 120.323 76.496C120.056 76.7093 119.923 77.0187 119.923 77.424V77.744C119.923 78.1493 120.046 78.4693 120.291 78.704C120.536 78.9387 120.872 79.056 121.299 79.056C121.512 79.056 121.683 79.04 121.811 79.008L121.955 80.064C121.859 80.0853 121.71 80.1067 121.507 80.128C121.304 80.1493 121.128 80.16 120.979 80.16Z" fill="#3F2436"/>
<path d="M333 79L337 75L333 71" stroke="#C2C6CC" stroke-width="1.5" stroke-linecap="round" stroke-linejoin="round"/>
<path d="M26.34 131.168C25.8173 131.168 25.346 131.098 24.926 130.958C24.506 130.809 24.1467 130.599 23.848 130.328C23.5587 130.057 23.3347 129.731 23.176 129.348C23.0267 128.965 22.952 128.536 22.952 128.06V123.272H24.744V127.962C24.744 128.522 24.884 128.956 25.164 129.264C25.444 129.572 25.836 129.726 26.34 129.726C26.844 129.726 27.236 129.572 27.516 129.264C27.796 128.956 27.936 128.522 27.936 127.962V120.64H29.728V128.06C29.728 128.536 29.6487 128.965 29.49 129.348C29.3407 129.731 29.1167 130.057 28.818 130.328C28.5287 130.599 28.174 130.809 27.754 130.958C27.334 131.098 26.8627 131.168 26.34 131.168ZM34.5036 131.168C33.7756 131.168 33.155 131.047 32.6416 130.804C32.1376 130.561 31.6943 130.216 31.3116 129.768L32.4176 128.718C32.6883 129.045 33.0056 129.301 33.3696 129.488C33.7336 129.665 34.1443 129.754 34.6016 129.754C35.0776 129.754 35.4183 129.675 35.6236 129.516C35.8383 129.357 35.9456 129.138 35.9456 128.858C35.9456 128.578 35.8616 128.373 35.6936 128.242C35.5256 128.102 35.2736 128.009 34.9376 127.962L34.1816 127.864C33.799 127.817 33.449 127.738 33.1316 127.626C32.8143 127.514 32.539 127.365 32.3056 127.178C32.0816 126.991 31.9043 126.763 31.7736 126.492C31.6523 126.221 31.5916 125.904 31.5916 125.54C31.5916 125.167 31.6616 124.831 31.8016 124.532C31.951 124.224 32.1516 123.967 32.4036 123.762C32.665 123.547 32.973 123.384 33.3276 123.272C33.6916 123.16 34.093 123.104 34.5316 123.104C35.2503 123.104 35.8383 123.211 36.2956 123.426C36.753 123.641 37.1636 123.935 37.5276 124.308L36.4636 125.372C36.249 125.129 35.9736 124.929 35.6376 124.77C35.3016 124.602 34.9376 124.518 34.5456 124.518C34.1256 124.518 33.813 124.602 33.6076 124.77C33.4116 124.929 33.3136 125.143 33.3136 125.414C33.3136 125.685 33.3976 125.895 33.5656 126.044C33.743 126.184 34.0276 126.282 34.4196 126.338L35.1756 126.45C35.941 126.562 36.5476 126.786 36.9956 127.122C37.4436 127.458 37.6676 127.985 37.6676 128.704C37.6676 129.068 37.593 129.404 37.4436 129.712C37.2943 130.011 37.0796 130.267 36.7996 130.482C36.529 130.697 36.1976 130.865 35.8056 130.986C35.4136 131.107 34.9796 131.168 34.5036 131.168ZM40.8862 129.81C40.3542 129.81 39.9529 129.684 39.6822 129.432C39.4116 129.18 39.2762 128.821 39.2762 128.354V127.556H40.8302V128.326H43.0982V129.81H40.8862ZM40.8862 126.324C40.3542 126.324 39.9529 126.198 39.6822 125.946C39.4116 125.694 39.2762 125.335 39.2762 124.868V124.07H40.8302V124.84H43.0982V126.324H40.8862ZM47.346 131.168C46.9353 131.168 46.5433 131.117 46.17 131.014C45.806 130.921 45.484 130.776 45.204 130.58L45.862 129.306C46.0393 129.409 46.24 129.507 46.464 129.6C46.688 129.684 46.954 129.726 47.262 129.726C47.766 129.726 48.1487 129.558 48.41 129.222C48.6807 128.877 48.816 128.41 48.816 127.822V126.464C48.816 125.876 48.6853 125.409 48.424 125.064C48.1627 124.719 47.7753 124.546 47.262 124.546C46.8327 124.546 46.4873 124.653 46.226 124.868C45.9647 125.083 45.7827 125.353 45.68 125.68L44.224 125.036C44.4573 124.439 44.8353 123.967 45.358 123.622C45.89 123.277 46.5527 123.104 47.346 123.104C47.8873 123.104 48.3633 123.197 48.774 123.384C49.194 123.571 49.544 123.841 49.824 124.196C50.1133 124.541 50.328 124.961 50.468 125.456C50.6173 125.951 50.692 126.506 50.692 127.122C50.692 127.747 50.6173 128.312 50.468 128.816C50.328 129.311 50.1133 129.735 49.824 130.09C49.544 130.435 49.194 130.701 48.774 130.888C48.3633 131.075 47.8873 131.168 47.346 131.168ZM48.7022 121.998C48.1702 121.998 47.7688 121.872 47.4982 121.62C47.2275 121.368 47.0922 121.009 47.0922 120.542V119.478H48.5762V120.64H52.2722V121.998H48.7022ZM55.5118 131.168C54.3825 131.168 53.5145 130.827 52.9078 130.146C52.3012 129.455 51.9978 128.443 51.9978 127.108C51.9978 125.811 52.1985 124.821 52.5998 124.14C53.0012 123.449 53.6078 123.104 54.4198 123.104C54.8492 123.104 55.2085 123.221 55.4978 123.454C55.7872 123.678 55.9692 124 56.0438 124.42H56.1278C56.2025 124 56.3985 123.678 56.7158 123.454C57.0332 123.221 57.4252 123.104 57.8918 123.104C58.4705 123.104 58.9278 123.3 59.2638 123.692C59.6092 124.075 59.7818 124.607 59.7818 125.288V131H57.9898V125.498C57.9898 125.199 57.9292 124.975 57.8078 124.826C57.6958 124.677 57.5372 124.602 57.3318 124.602C57.0798 124.602 56.8978 124.7 56.7858 124.896C56.6832 125.092 56.6085 125.339 56.5618 125.638H55.4838C55.4465 125.349 55.3812 125.106 55.2878 124.91C55.1945 124.705 55.0125 124.602 54.7418 124.602C54.4245 124.602 54.2005 124.756 54.0698 125.064C53.9485 125.372 53.8878 125.801 53.8878 126.352V127.766C53.8878 128.065 53.9205 128.335 53.9858 128.578C54.0512 128.811 54.1585 129.017 54.3078 129.194C54.4572 129.362 54.6532 129.493 54.8958 129.586C55.1385 129.679 55.4372 129.726 55.7918 129.726C55.9692 129.726 56.1465 129.707 56.3238 129.67L56.5338 131.07C56.4032 131.107 56.2398 131.131 56.0438 131.14C55.8478 131.159 55.6705 131.168 55.5118 131.168ZM53.5314 120.64H59.7754V121.998H53.5314V120.64Z" fill="#3F2436"/>
<rect x="22" y="140" width="331" height="42" rx="6" fill="#F5F5F5"/>
<g clip-path="url(#clip1_71_106794)">
<path d="M41.6663 165.666L42.9997 167L45.9997 164M46.6564 161.366C46.663 161.245 46.6663 161.123 46.6663 161C46.6663 157.318 43.6816 154.333 39.9997 154.333C36.3178 154.333 33.333 157.318 33.333 161C33.333 164.623 36.224 167.572 39.8253 167.664M39.9997 157V161L42.4919 162.246" stroke="#3F2436" stroke-width="1.5" stroke-linecap="round" stroke-linejoin="round"/>
</g>
<path d="M60.944 166.192C60.3573 166.192 59.8293 166.112 59.36 165.952C58.9013 165.781 58.5067 165.547 58.176 165.248C57.856 164.939 57.6053 164.571 57.424 164.144C57.2533 163.707 57.168 163.221 57.168 162.688V157.216H58.912V162.56C58.912 163.264 59.088 163.808 59.44 164.192C59.8027 164.576 60.304 164.768 60.944 164.768C61.584 164.768 62.08 164.576 62.432 164.192C62.7947 163.808 62.976 163.264 62.976 162.56V154.272H64.72V162.688C64.72 163.221 64.6293 163.707 64.448 164.144C64.2773 164.571 64.0267 164.939 63.696 165.248C63.376 165.547 62.9813 165.781 62.512 165.952C62.0533 166.112 61.5307 166.192 60.944 166.192ZM70.2746 166.192C69.4533 166.192 68.7546 166.053 68.1786 165.776C67.6133 165.488 67.1173 165.088 66.6906 164.576L67.7946 163.536C68.1146 163.941 68.488 164.251 68.9146 164.464C69.3413 164.677 69.8266 164.784 70.3706 164.784C70.9466 164.784 71.3733 164.683 71.6506 164.48C71.9386 164.267 72.0826 163.968 72.0826 163.584C72.0826 163.243 71.9706 162.981 71.7466 162.8C71.5333 162.608 71.192 162.48 70.7226 162.416L69.9066 162.304C69.512 162.251 69.1386 162.165 68.7866 162.048C68.4346 161.931 68.1253 161.771 67.8586 161.568C67.6026 161.365 67.3946 161.115 67.2346 160.816C67.0853 160.517 67.0106 160.149 67.0106 159.712C67.0106 159.285 67.0906 158.907 67.2506 158.576C67.4106 158.235 67.6346 157.952 67.9226 157.728C68.2106 157.493 68.552 157.317 68.9466 157.2C69.352 157.083 69.7946 157.024 70.2746 157.024C71.0746 157.024 71.7306 157.147 72.2426 157.392C72.7546 157.627 73.208 157.957 73.6026 158.384L72.5466 159.44C72.3013 159.163 71.9866 158.928 71.6026 158.736C71.2186 158.544 70.776 158.448 70.2746 158.448C69.752 158.448 69.3573 158.549 69.0906 158.752C68.824 158.955 68.6906 159.232 68.6906 159.584C68.6906 159.957 68.8133 160.235 69.0586 160.416C69.304 160.597 69.6666 160.72 70.1466 160.784L70.9626 160.912C71.3786 160.976 71.7573 161.067 72.0986 161.184C72.4506 161.301 72.7493 161.461 72.9946 161.664C73.24 161.856 73.4266 162.096 73.5546 162.384C73.6933 162.672 73.7626 163.019 73.7626 163.424C73.7626 163.84 73.6773 164.219 73.5066 164.56C73.3466 164.901 73.112 165.195 72.8026 165.44C72.504 165.675 72.136 165.861 71.6986 166C71.272 166.128 70.7973 166.192 70.2746 166.192ZM77.4265 164.544C76.8718 164.544 76.4558 164.411 76.1785 164.144C75.9012 163.877 75.7625 163.504 75.7625 163.024V162.208H77.3305V163.088H80.0025V164.544H77.4265ZM77.4265 160.512C76.8718 160.512 76.4558 160.384 76.1785 160.128C75.9012 159.861 75.7625 159.488 75.7625 159.008V158.176H77.3305V159.056H80.0025V160.512H77.4265ZM84.9516 166.192C84.5036 166.192 84.077 166.139 83.6716 166.032C83.2663 165.925 82.909 165.765 82.5996 165.552L83.2556 164.304C83.469 164.432 83.7036 164.544 83.9596 164.64C84.2263 164.725 84.5303 164.768 84.8716 164.768C85.5116 164.768 86.0023 164.555 86.3436 164.128C86.6956 163.691 86.8716 163.093 86.8716 162.336V160.88C86.8716 160.133 86.701 159.541 86.3596 159.104C86.029 158.667 85.5383 158.448 84.8876 158.448C84.365 158.448 83.9383 158.571 83.6076 158.816C83.277 159.051 83.037 159.371 82.8876 159.776L81.4636 159.104C81.7303 158.464 82.157 157.957 82.7436 157.584C83.3303 157.211 84.0663 157.024 84.9516 157.024C85.5596 157.024 86.0983 157.131 86.5676 157.344C87.037 157.557 87.4316 157.861 87.7516 158.256C88.0716 158.651 88.3116 159.131 88.4716 159.696C88.6423 160.261 88.7276 160.896 88.7276 161.6C88.7276 162.304 88.6423 162.944 88.4716 163.52C88.301 164.085 88.0556 164.565 87.7356 164.96C87.4156 165.355 87.021 165.659 86.5516 165.872C86.0823 166.085 85.549 166.192 84.9516 166.192ZM86.663 155.648C86.1083 155.648 85.6923 155.515 85.415 155.248C85.1377 154.981 84.999 154.608 84.999 154.128V153.008H86.535V154.272H90.695V155.648H86.663ZM94.2829 166.192C93.0242 166.192 92.0535 165.797 91.3709 165.008C90.6989 164.208 90.3629 163.061 90.3629 161.568C90.3629 160.107 90.5869 158.987 91.0349 158.208C91.4829 157.419 92.1709 157.024 93.0989 157.024C93.5575 157.024 93.9415 157.157 94.2509 157.424C94.5602 157.68 94.7575 158.037 94.8429 158.496H94.9389C95.0349 158.037 95.2589 157.68 95.6109 157.424C95.9629 157.157 96.3949 157.024 96.9069 157.024C97.5575 157.024 98.0695 157.237 98.4429 157.664C98.8162 158.08 99.0029 158.672 99.0029 159.44V166H97.2589V159.584C97.2589 159.211 97.1842 158.933 97.0349 158.752C96.8855 158.571 96.6722 158.48 96.3949 158.48C96.0535 158.48 95.8189 158.608 95.6909 158.864C95.5629 159.109 95.4775 159.392 95.4349 159.712H94.3469C94.3255 159.552 94.2935 159.397 94.2509 159.248C94.2189 159.099 94.1655 158.971 94.0909 158.864C94.0162 158.747 93.9202 158.656 93.8029 158.592C93.6962 158.517 93.5575 158.48 93.3869 158.48C92.9495 158.48 92.6455 158.693 92.4749 159.12C92.3042 159.536 92.2189 160.091 92.2189 160.784V162.256C92.2189 162.64 92.2615 162.987 92.3469 163.296C92.4322 163.605 92.5655 163.872 92.7469 164.096C92.9389 164.309 93.1789 164.475 93.4669 164.592C93.7655 164.709 94.1282 164.768 94.5549 164.768C94.6615 164.768 94.7735 164.763 94.8909 164.752C95.0082 164.741 95.1255 164.725 95.2429 164.704L95.4349 166.08C95.2642 166.123 95.0722 166.149 94.8589 166.16C94.6562 166.181 94.4642 166.192 94.2829 166.192ZM92.104 154.272H99V155.648H92.104V154.272Z" fill="#3F2436"/>
<path d="M333 165L337 161L333 157" stroke="#C2C6CC" stroke-width="1.5" stroke-linecap="round" stroke-linejoin="round"/>
<path d="M25.094 217C24.478 217 24.0253 216.846 23.736 216.538C23.4467 216.23 23.302 215.796 23.302 215.236V209.272H25.094V215.572H26.116V217H25.094ZM28.2334 212.842L27.0294 212.352C27.0667 211.867 27.1834 211.423 27.3794 211.022C27.5754 210.621 27.8367 210.28 28.1634 210C28.4994 209.711 28.8914 209.491 29.3394 209.342C29.7967 209.183 30.2914 209.104 30.8234 209.104C31.3834 209.104 31.8827 209.179 32.3214 209.328C32.7694 209.477 33.1474 209.692 33.4554 209.972C33.7634 210.252 33.9967 210.593 34.1554 210.994C34.3234 211.386 34.4074 211.825 34.4074 212.31V217H32.6154V212.548C32.6154 211.904 32.4521 211.409 32.1254 211.064C31.7987 210.719 31.3274 210.546 30.7114 210.546C30.2261 210.546 29.8014 210.653 29.4374 210.868C29.0827 211.073 28.8354 211.344 28.6954 211.68L29.2414 211.89C29.5401 212.002 29.7454 212.133 29.8574 212.282C29.9694 212.431 30.0254 212.655 30.0254 212.954V217H28.2334V212.842ZM28.1701 206.64H32.7761V205.478H34.4141V207.998H28.1701V206.64ZM32.8881 202.594H34.4141V204.792H32.8881V202.594ZM39.2634 217.168C38.2741 217.168 37.4994 216.972 36.9394 216.58C36.3794 216.179 36.0994 215.614 36.0994 214.886C36.0994 214.438 36.2301 214.055 36.4914 213.738C36.7621 213.421 37.1074 213.201 37.5274 213.08V212.996C37.0608 212.884 36.6968 212.665 36.4354 212.338C36.1741 212.002 36.0434 211.596 36.0434 211.12C36.0434 210.821 36.0948 210.551 36.1974 210.308C36.3094 210.056 36.4588 209.841 36.6454 209.664C36.8414 209.487 37.0748 209.351 37.3454 209.258C37.6254 209.155 37.9334 209.104 38.2694 209.104C38.4841 209.104 38.7174 209.127 38.9694 209.174C39.2214 209.211 39.4501 209.286 39.6554 209.398L39.2774 210.7C39.1561 210.635 39.0394 210.593 38.9274 210.574C38.8248 210.546 38.7128 210.532 38.5914 210.532C38.3208 210.532 38.0968 210.611 37.9194 210.77C37.7421 210.919 37.6534 211.129 37.6534 211.4C37.6534 211.671 37.7328 211.89 37.8914 212.058C38.0501 212.226 38.3394 212.31 38.7594 212.31H39.5154V213.514H38.7594C38.5168 213.514 38.3114 213.593 38.1434 213.752C37.9754 213.911 37.8914 214.125 37.8914 214.396V214.676C37.8914 215.031 38.0128 215.297 38.2554 215.474C38.5074 215.642 38.8621 215.726 39.3194 215.726C39.8514 215.726 40.2668 215.586 40.5654 215.306C40.8734 215.017 41.0274 214.601 41.0274 214.06V209.272H42.8194V214.298C42.8194 214.737 42.7354 215.133 42.5674 215.488C42.3994 215.843 42.1614 216.146 41.8534 216.398C41.5454 216.641 41.1721 216.832 40.7334 216.972C40.2948 217.103 39.8048 217.168 39.2634 217.168ZM47.1956 217.168C46.785 217.168 46.393 217.117 46.0196 217.014C45.6556 216.921 45.3336 216.776 45.0536 216.58L45.7116 215.306C45.889 215.409 46.0896 215.507 46.3136 215.6C46.5376 215.684 46.8036 215.726 47.1116 215.726C47.6156 215.726 47.9983 215.558 48.2596 215.222C48.5303 214.877 48.6656 214.41 48.6656 213.822V212.464C48.6656 211.876 48.535 211.409 48.2736 211.064C48.0123 210.719 47.625 210.546 47.1116 210.546C46.6823 210.546 46.337 210.653 46.0756 210.868C45.8143 211.083 45.6323 211.353 45.5296 211.68L44.0736 211.036C44.307 210.439 44.685 209.967 45.2076 209.622C45.7396 209.277 46.4023 209.104 47.1956 209.104C47.737 209.104 48.213 209.197 48.6236 209.384C49.0436 209.571 49.3936 209.841 49.6736 210.196C49.963 210.541 50.1776 210.961 50.3176 211.456C50.467 211.951 50.5416 212.506 50.5416 213.122C50.5416 213.747 50.467 214.312 50.3176 214.816C50.1776 215.311 49.963 215.735 49.6736 216.09C49.3936 216.435 49.0436 216.701 48.6236 216.888C48.213 217.075 47.737 217.168 47.1956 217.168ZM52.8975 212.842L51.6935 212.352C51.7308 211.867 51.8475 211.423 52.0435 211.022C52.2395 210.621 52.5008 210.28 52.8275 210C53.1635 209.711 53.5555 209.491 54.0035 209.342C54.4608 209.183 54.9555 209.104 55.4875 209.104C56.0475 209.104 56.5468 209.179 56.9855 209.328C57.4335 209.477 57.8115 209.692 58.1195 209.972C58.4275 210.252 58.6608 210.593 58.8195 210.994C58.9875 211.386 59.0715 211.825 59.0715 212.31V217H57.2795V212.548C57.2795 211.904 57.1161 211.409 56.7895 211.064C56.4628 210.719 55.9915 210.546 55.3755 210.546C54.8901 210.546 54.4655 210.653 54.1015 210.868C53.7468 211.073 53.4995 211.344 53.3595 211.68L53.9055 211.89C54.2041 212.002 54.4095 212.133 54.5215 212.282C54.6335 212.431 54.6895 212.655 54.6895 212.954V217H52.8975V212.842ZM57.3701 207.998C56.8381 207.998 56.4368 207.872 56.1661 207.62C55.8955 207.368 55.7601 207.009 55.7601 206.542V205.478H57.2441V206.64H60.9401V207.998H57.3701ZM64.3615 217.168C63.8388 217.168 63.3675 217.098 62.9475 216.958C62.5275 216.809 62.1682 216.599 61.8695 216.328C61.5802 216.057 61.3562 215.731 61.1975 215.348C61.0482 214.965 60.9735 214.536 60.9735 214.06V209.272H62.7655V213.962C62.7655 214.522 62.9055 214.956 63.1855 215.264C63.4655 215.572 63.8575 215.726 64.3615 215.726C64.8655 215.726 65.2575 215.572 65.5375 215.264C65.8175 214.956 65.9575 214.522 65.9575 213.962V209.272H67.7495V214.06C67.7495 214.536 67.6702 214.965 67.5115 215.348C67.3622 215.731 67.1382 216.057 66.8395 216.328C66.5502 216.599 66.1955 216.809 65.7755 216.958C65.3555 217.098 64.8842 217.168 64.3615 217.168ZM71.7971 217C71.1811 217 70.7285 216.846 70.4391 216.538C70.1498 216.23 70.0051 215.796 70.0051 215.236V209.272H71.7971V215.572H72.8191V217H71.7971ZM74.9365 212.842L73.7325 212.352C73.7698 211.867 73.8865 211.423 74.0825 211.022C74.2785 210.621 74.5398 210.28 74.8665 210C75.2025 209.711 75.5945 209.491 76.0425 209.342C76.4998 209.183 76.9945 209.104 77.5265 209.104C78.0865 209.104 78.5858 209.179 79.0245 209.328C79.4725 209.477 79.8505 209.692 80.1585 209.972C80.4665 210.252 80.6998 210.593 80.8585 210.994C81.0265 211.386 81.1105 211.825 81.1105 212.31V217H79.3185V212.548C79.3185 211.904 79.1552 211.409 78.8285 211.064C78.5018 210.719 78.0305 210.546 77.4145 210.546C76.9292 210.546 76.5045 210.653 76.1405 210.868C75.7858 211.073 75.5385 211.344 75.3985 211.68L75.9445 211.89C76.2432 212.002 76.4485 212.133 76.5605 212.282C76.6725 212.431 76.7285 212.655 76.7285 212.954V217H74.9365V212.842ZM87.1845 217.168C86.8579 217.168 86.5685 217.126 86.3165 217.042C86.0739 216.967 85.8592 216.865 85.6725 216.734C85.4952 216.594 85.3459 216.435 85.2245 216.258C85.1125 216.081 85.0239 215.899 84.9585 215.712H84.8885V217H83.0965V209.272H84.8885V214.396C84.8885 214.611 84.9352 214.802 85.0285 214.97C85.1219 215.129 85.2432 215.264 85.3925 215.376C85.5419 215.479 85.7099 215.558 85.8965 215.614C86.0832 215.67 86.2699 215.698 86.4565 215.698C86.7365 215.698 86.9699 215.656 87.1565 215.572C87.3432 215.479 87.4925 215.357 87.6045 215.208C87.7259 215.049 87.8099 214.867 87.8565 214.662C87.9032 214.447 87.9265 214.219 87.9265 213.976V209.272H89.7185V214.144C89.7185 215.115 89.4992 215.861 89.0605 216.384C88.6312 216.907 88.0059 217.168 87.1845 217.168Z" fill="#3F2436"/>
<rect x="22" y="226" width="331" height="42" rx="6" fill="#F5F5F5"/>
<g clip-path="url(#clip2_71_106794)">
<path d="M39.9997 249.666V247M39.9997 244.333H40.0063M46.6663 247C46.6663 250.682 43.6816 253.666 39.9997 253.666C36.3178 253.666 33.333 250.682 33.333 247C33.333 243.318 36.3178 240.333 39.9997 240.333C43.6816 240.333 46.6663 243.318 46.6663 247Z" stroke="#3F2436" stroke-width="1.5" stroke-linecap="round" stroke-linejoin="round"/>
</g>
<path d="M59.936 252.192C59.488 252.192 59.0613 252.139 58.656 252.032C58.2507 251.925 57.8933 251.765 57.584 251.552L58.24 250.304C58.4533 250.432 58.688 250.544 58.944 250.64C59.2107 250.725 59.5147 250.768 59.856 250.768C60.496 250.768 60.9867 250.555 61.328 250.128C61.68 249.691 61.856 249.093 61.856 248.336V246.88C61.856 246.133 61.6853 245.541 61.344 245.104C61.0133 244.667 60.5227 244.448 59.872 244.448C59.3493 244.448 58.9227 244.571 58.592 244.816C58.2613 245.051 58.0213 245.371 57.872 245.776L56.448 245.104C56.7147 244.464 57.1413 243.957 57.728 243.584C58.3147 243.211 59.0507 243.024 59.936 243.024C60.544 243.024 61.0827 243.131 61.552 243.344C62.0213 243.557 62.416 243.861 62.736 244.256C63.056 244.651 63.296 245.131 63.456 245.696C63.6267 246.261 63.712 246.896 63.712 247.6C63.712 248.304 63.6267 248.944 63.456 249.52C63.2853 250.085 63.04 250.565 62.72 250.96C62.4 251.355 62.0053 251.659 61.536 251.872C61.0667 252.085 60.5333 252.192 59.936 252.192ZM56.4634 240.272H63.3594V241.648H56.4634V240.272ZM65.5713 248.736H67.1553V250.64H70.9473V249.104C70.9473 248.859 70.9259 248.651 70.8833 248.48C70.8406 248.299 70.7553 248.149 70.6273 248.032C70.4993 247.904 70.3179 247.808 70.0833 247.744C69.8593 247.669 69.5659 247.616 69.2033 247.584L65.4113 247.264V246.16C65.4113 245.157 65.7366 244.384 66.3873 243.84C67.0379 243.296 67.9606 243.024 69.1553 243.024C69.9659 243.024 70.6486 243.141 71.2033 243.376C71.7579 243.611 72.2219 243.925 72.5953 244.32L71.6513 245.408C71.4059 245.131 71.0646 244.896 70.6273 244.704C70.2006 244.512 69.6779 244.416 69.0593 244.416C68.4193 244.416 67.9233 244.549 67.5713 244.816C67.2193 245.072 67.0433 245.451 67.0433 245.952V246.064L69.4753 246.288C70.4993 246.373 71.2833 246.608 71.8273 246.992C72.3713 247.376 72.6433 248.027 72.6433 248.944V250.24C72.6433 250.795 72.4993 251.227 72.2113 251.536C71.9233 251.845 71.4753 252 70.8673 252H65.5713V248.736ZM65.7446 240.272H71.0086V239.008H72.6406V241.648H65.7446V240.272ZM75.4226 247.152L74.0466 246.576C74.0893 246.053 74.2173 245.573 74.4306 245.136C74.6546 244.699 74.948 244.325 75.3106 244.016C75.6733 243.696 76.1 243.451 76.5906 243.28C77.0813 243.109 77.6146 243.024 78.1906 243.024C79.46 243.024 80.4466 243.349 81.1506 244C81.8546 244.64 82.2066 245.509 82.2066 246.608V252H80.4626V246.832C80.4626 246.064 80.2546 245.477 79.8386 245.072C79.4226 244.656 78.852 244.448 78.1266 244.448C77.54 244.448 77.0226 244.581 76.5746 244.848C76.1373 245.104 75.8386 245.451 75.6786 245.888L76.3666 246.16C76.6653 246.277 76.8733 246.416 76.9906 246.576C77.108 246.725 77.1666 246.949 77.1666 247.248V252H75.4226V247.152ZM88.2908 246.048C88.2908 245.536 88.1574 245.141 87.8908 244.864C87.6241 244.587 87.2028 244.448 86.6268 244.448C86.1361 244.448 85.7414 244.555 85.4428 244.768C85.1441 244.971 84.8881 245.237 84.6748 245.568L83.6188 244.64C83.9068 244.16 84.2961 243.771 84.7868 243.472C85.2774 243.173 85.9281 243.024 86.7388 243.024C87.8054 243.024 88.6214 243.275 89.1868 243.776C89.7521 244.277 90.0348 244.997 90.0348 245.936V252H88.2908V246.048ZM95.5871 252.192C94.7658 252.192 94.0671 252.053 93.4911 251.776C92.9258 251.488 92.4298 251.088 92.0031 250.576L93.1071 249.536C93.4271 249.941 93.8005 250.251 94.2271 250.464C94.6538 250.677 95.1391 250.784 95.6831 250.784C96.2591 250.784 96.6858 250.683 96.9631 250.48C97.2511 250.267 97.3951 249.968 97.3951 249.584C97.3951 249.243 97.2831 248.981 97.0591 248.8C96.8458 248.608 96.5045 248.48 96.0351 248.416L95.2191 248.304C94.8245 248.251 94.4511 248.165 94.0991 248.048C93.7471 247.931 93.4378 247.771 93.1711 247.568C92.9151 247.365 92.7071 247.115 92.5471 246.816C92.3978 246.517 92.3231 246.149 92.3231 245.712C92.3231 245.285 92.4031 244.907 92.5631 244.576C92.7231 244.235 92.9471 243.952 93.2351 243.728C93.5231 243.493 93.8645 243.317 94.2591 243.2C94.6645 243.083 95.1071 243.024 95.5871 243.024C96.3871 243.024 97.0431 243.147 97.5551 243.392C98.0671 243.627 98.5205 243.957 98.9151 244.384L97.8591 245.44C97.6138 245.163 97.2991 244.928 96.9151 244.736C96.5311 244.544 96.0885 244.448 95.5871 244.448C95.0645 244.448 94.6698 244.549 94.4031 244.752C94.1365 244.955 94.0031 245.232 94.0031 245.584C94.0031 245.957 94.1258 246.235 94.3711 246.416C94.6165 246.597 94.9791 246.72 95.4591 246.784L96.2751 246.912C96.6911 246.976 97.0698 247.067 97.4111 247.184C97.7631 247.301 98.0618 247.461 98.3071 247.664C98.5525 247.856 98.7391 248.096 98.8671 248.384C99.0058 248.672 99.0751 249.019 99.0751 249.424C99.0751 249.84 98.9898 250.219 98.8191 250.56C98.6591 250.901 98.4245 251.195 98.1151 251.44C97.8165 251.675 97.4485 251.861 97.0111 252C96.5845 252.128 96.1098 252.192 95.5871 252.192ZM103.283 252C102.675 252 102.227 251.845 101.939 251.536C101.651 251.227 101.507 250.795 101.507 250.24V243.216H103.251V250.576H104.499V252H103.283ZM108.776 252.16C107.912 252.16 107.219 251.947 106.696 251.52C106.184 251.093 105.928 250.448 105.928 249.584C105.928 248.763 106.173 248.128 106.664 247.68C107.165 247.232 107.869 247.008 108.776 247.008H111.496V246.336C111.496 245.717 111.325 245.248 110.984 244.928C110.653 244.608 110.136 244.448 109.432 244.448C108.803 244.448 108.285 244.581 107.88 244.848C107.485 245.115 107.16 245.451 106.904 245.856L105.784 244.88C106.125 244.336 106.589 243.893 107.176 243.552C107.773 243.2 108.563 243.024 109.544 243.024C110.749 243.024 111.667 243.307 112.296 243.872C112.925 244.427 113.24 245.227 113.24 246.272V252H111.496V248.176H109.304C108.792 248.176 108.397 248.283 108.12 248.496C107.853 248.709 107.72 249.019 107.72 249.424V249.744C107.72 250.149 107.843 250.469 108.088 250.704C108.333 250.939 108.669 251.056 109.096 251.056C109.309 251.056 109.48 251.04 109.608 251.008L109.752 252.064C109.656 252.085 109.507 252.107 109.304 252.128C109.101 252.149 108.925 252.16 108.776 252.16ZM111.554 238.544H113.186V241.648H111.554V238.544ZM118.454 252.192C117.537 252.192 116.828 251.899 116.326 251.312C115.825 250.715 115.574 249.872 115.574 248.784V243.216H117.318V248.592C117.318 249.275 117.457 249.797 117.734 250.16C118.022 250.512 118.481 250.688 119.11 250.688C119.345 250.688 119.58 250.661 119.814 250.608C120.049 250.544 120.257 250.448 120.438 250.32C120.63 250.192 120.78 250.032 120.886 249.84C121.004 249.637 121.062 249.403 121.062 249.136V243.216H122.806V250.576H123.734V252H122.582C122.134 252 121.798 251.872 121.574 251.616C121.35 251.349 121.228 250.981 121.206 250.512H121.126C120.945 251.003 120.63 251.408 120.182 251.728C119.745 252.037 119.169 252.192 118.454 252.192Z" fill="#3F2436"/>
<path d="M333 251L337 247L333 243" stroke="#C2C6CC" stroke-width="1.5" stroke-linecap="round" stroke-linejoin="round"/>
<rect x="22" y="274" width="331" height="42" rx="6" fill="#F5F5F5"/>
<g clip-path="url(#clip3_71_106794)">
<path d="M39.9997 297.666V295M39.9997 292.333H40.0063M46.6663 295C46.6663 298.682 43.6816 301.666 39.9997 301.666C36.3178 301.666 33.333 298.682 33.333 295C33.333 291.318 36.3178 288.333 39.9997 288.333C43.6816 288.333 46.6663 291.318 46.6663 295Z" stroke="#3F2436" stroke-width="1.5" stroke-linecap="round" stroke-linejoin="round"/>
</g>
<path d="M60.048 300.192C59.1307 300.192 58.4213 299.899 57.92 299.312C57.4187 298.715 57.168 297.872 57.168 296.784V291.216H58.912V296.592C58.912 297.275 59.0507 297.797 59.328 298.16C59.616 298.512 60.0747 298.688 60.704 298.688C60.9387 298.688 61.1733 298.661 61.408 298.608C61.6427 298.544 61.8507 298.448 62.032 298.32C62.224 298.192 62.3733 298.032 62.48 297.84C62.5973 297.637 62.656 297.403 62.656 297.136V291.216H64.4V298.576H65.328V300H64.176C63.728 300 63.392 299.872 63.168 299.616C62.944 299.349 62.8213 298.981 62.8 298.512H62.72C62.5387 299.003 62.224 299.408 61.776 299.728C61.3387 300.037 60.7627 300.192 60.048 300.192ZM69.299 300C68.691 300 68.2377 299.845 67.939 299.536C67.651 299.227 67.507 298.795 67.507 298.24V289.984L65.459 289.12V288.768C65.459 288.309 65.539 287.893 65.699 287.52C65.8483 287.136 66.067 286.816 66.355 286.56C66.643 286.293 66.9843 286.091 67.379 285.952C67.7843 285.803 68.2323 285.728 68.723 285.728C69.427 285.728 70.003 285.835 70.451 286.048C70.9097 286.261 71.2937 286.555 71.603 286.928L70.547 287.92C70.3763 287.707 70.147 287.525 69.859 287.376C69.5817 287.216 69.2297 287.136 68.803 287.136C68.323 287.136 67.907 287.237 67.555 287.44C67.203 287.643 67.0057 287.963 66.963 288.4L68.467 289.008C68.7657 289.125 68.9683 289.264 69.075 289.424C69.1923 289.584 69.251 289.829 69.251 290.16V298.576H70.499V300H69.299ZM75.496 300.192C74.3867 300.192 73.5227 299.963 72.904 299.504C72.2853 299.045 71.976 298.4 71.976 297.568C71.976 297.056 72.1253 296.619 72.424 296.256C72.7333 295.893 73.128 295.643 73.608 295.504V295.424C73.0747 295.296 72.6587 295.045 72.36 294.672C72.0613 294.299 71.912 293.84 71.912 293.296C71.912 292.613 72.1307 292.064 72.568 291.648C73.016 291.232 73.624 291.024 74.392 291.024C74.6267 291.024 74.8773 291.045 75.144 291.088C75.4213 291.131 75.672 291.211 75.896 291.328L75.528 292.608C75.2827 292.491 75.0107 292.432 74.712 292.432C74.3387 292.432 74.04 292.533 73.816 292.736C73.6027 292.939 73.496 293.211 73.496 293.552C73.496 293.712 73.5173 293.867 73.56 294.016C73.6027 294.155 73.6773 294.283 73.784 294.4C73.8907 294.507 74.0347 294.592 74.216 294.656C74.3973 294.72 74.6267 294.752 74.904 294.752H75.784V295.936H75.032C74.68 295.936 74.376 296.037 74.12 296.24C73.864 296.443 73.736 296.725 73.736 297.088V297.456C73.736 297.883 73.8747 298.208 74.152 298.432C74.4293 298.656 74.888 298.768 75.528 298.768C76.2 298.768 76.728 298.592 77.112 298.24C77.5067 297.877 77.704 297.36 77.704 296.688V291.216H79.448V296.928C79.448 297.429 79.352 297.883 79.16 298.288C78.9787 298.683 78.712 299.024 78.36 299.312C78.0187 299.589 77.6027 299.808 77.112 299.968C76.632 300.117 76.0933 300.192 75.496 300.192ZM85.5534 300.192C84.9667 300.192 84.4387 300.112 83.9694 299.952C83.5107 299.781 83.116 299.547 82.7854 299.248C82.4654 298.939 82.2147 298.571 82.0334 298.144C81.8627 297.707 81.7774 297.221 81.7774 296.688V291.216H83.5214V296.56C83.5214 297.264 83.6974 297.808 84.0494 298.192C84.412 298.576 84.9134 298.768 85.5534 298.768C86.1934 298.768 86.6894 298.576 87.0414 298.192C87.404 297.808 87.5854 297.264 87.5854 296.56V291.216H89.3294V296.688C89.3294 297.221 89.2387 297.707 89.0574 298.144C88.8867 298.571 88.636 298.939 88.3054 299.248C87.9854 299.547 87.5907 299.781 87.1214 299.952C86.6627 300.112 86.14 300.192 85.5534 300.192ZM95.572 294.048C95.572 293.536 95.4387 293.141 95.172 292.864C94.9053 292.587 94.484 292.448 93.908 292.448C93.4173 292.448 93.0227 292.555 92.724 292.768C92.4253 292.971 92.1693 293.237 91.956 293.568L90.9 292.64C91.188 292.16 91.5773 291.771 92.068 291.472C92.5587 291.173 93.2093 291.024 94.02 291.024C95.0867 291.024 95.9027 291.275 96.468 291.776C97.0333 292.277 97.316 292.997 97.316 293.936V300H95.572V294.048ZM102.98 300.192C101.871 300.192 101.007 299.963 100.388 299.504C99.7697 299.045 99.4604 298.4 99.4604 297.568C99.4604 297.056 99.6097 296.619 99.9084 296.256C100.218 295.893 100.612 295.643 101.092 295.504V295.424C100.559 295.296 100.143 295.045 99.8444 294.672C99.5457 294.299 99.3964 293.84 99.3964 293.296C99.3964 292.613 99.615 292.064 100.052 291.648C100.5 291.232 101.108 291.024 101.876 291.024C102.111 291.024 102.362 291.045 102.628 291.088C102.906 291.131 103.156 291.211 103.38 291.328L103.012 292.608C102.767 292.491 102.495 292.432 102.196 292.432C101.823 292.432 101.524 292.533 101.3 292.736C101.087 292.939 100.98 293.211 100.98 293.552C100.98 293.712 101.002 293.867 101.044 294.016C101.087 294.155 101.162 294.283 101.268 294.4C101.375 294.507 101.519 294.592 101.7 294.656C101.882 294.72 102.111 294.752 102.388 294.752H103.268V295.936H102.516C102.164 295.936 101.86 296.037 101.604 296.24C101.348 296.443 101.22 296.725 101.22 297.088V297.456C101.22 297.883 101.359 298.208 101.636 298.432C101.914 298.656 102.372 298.768 103.012 298.768C103.684 298.768 104.212 298.592 104.596 298.24C104.991 297.877 105.188 297.36 105.188 296.688V291.216H106.932V296.928C106.932 297.429 106.836 297.883 106.644 298.288C106.463 298.683 106.196 299.024 105.844 299.312C105.503 299.589 105.087 299.808 104.596 299.968C104.116 300.117 103.578 300.192 102.98 300.192ZM109.262 294.608C109.262 294.064 109.352 293.573 109.534 293.136C109.726 292.688 109.998 292.309 110.35 292C110.702 291.68 111.123 291.44 111.614 291.28C112.115 291.109 112.675 291.024 113.294 291.024C113.912 291.024 114.467 291.109 114.958 291.28C115.459 291.44 115.886 291.68 116.238 292C116.59 292.309 116.856 292.688 117.038 293.136C117.23 293.573 117.326 294.064 117.326 294.608V300H115.582V294.72C115.582 293.984 115.379 293.424 114.974 293.04C114.568 292.645 114.008 292.448 113.294 292.448C112.579 292.448 112.019 292.645 111.614 293.04C111.208 293.424 111.006 293.984 111.006 294.72V296.736H111.086C111.15 296.523 111.24 296.315 111.358 296.112C111.475 295.909 111.624 295.733 111.806 295.584C111.987 295.424 112.206 295.296 112.462 295.2C112.718 295.104 113.016 295.056 113.358 295.056H113.838V296.736H113.166C112.472 296.736 111.939 296.853 111.566 297.088C111.192 297.312 111.006 297.664 111.006 298.144V300H109.262V294.608ZM122.436 300.192C121.988 300.192 121.561 300.139 121.156 300.032C120.751 299.925 120.393 299.765 120.084 299.552L120.74 298.304C120.953 298.432 121.188 298.544 121.444 298.64C121.711 298.725 122.015 298.768 122.356 298.768C122.996 298.768 123.487 298.555 123.828 298.128C124.18 297.691 124.356 297.093 124.356 296.336V294.88C124.356 294.133 124.185 293.541 123.844 293.104C123.513 292.667 123.023 292.448 122.372 292.448C121.849 292.448 121.423 292.571 121.092 292.816C120.761 293.051 120.521 293.371 120.372 293.776L118.948 293.104C119.215 292.464 119.641 291.957 120.228 291.584C120.815 291.211 121.551 291.024 122.436 291.024C123.044 291.024 123.583 291.131 124.052 291.344C124.521 291.557 124.916 291.861 125.236 292.256C125.556 292.651 125.796 293.131 125.956 293.696C126.127 294.261 126.212 294.896 126.212 295.6C126.212 296.304 126.127 296.944 125.956 297.52C125.785 298.085 125.54 298.565 125.22 298.96C124.9 299.355 124.505 299.659 124.036 299.872C123.567 300.085 123.033 300.192 122.436 300.192ZM131.947 294.048C131.947 293.536 131.814 293.141 131.547 292.864C131.28 292.587 130.859 292.448 130.283 292.448C129.792 292.448 129.398 292.555 129.099 292.768C128.8 292.971 128.544 293.237 128.331 293.568L127.275 292.64C127.563 292.16 127.952 291.771 128.443 291.472C128.934 291.173 129.584 291.024 130.395 291.024C131.462 291.024 132.278 291.275 132.843 291.776C133.408 292.277 133.691 292.997 133.691 293.936V300H131.947V294.048ZM140.491 300.192C140.118 300.192 139.787 300.144 139.499 300.048C139.222 299.963 138.982 299.845 138.779 299.696C138.577 299.536 138.406 299.36 138.267 299.168C138.129 298.965 138.022 298.757 137.947 298.544H137.867V300H136.123V291.216H137.867V297.136C137.867 297.403 137.926 297.637 138.043 297.84C138.161 298.032 138.31 298.192 138.491 298.32C138.673 298.448 138.881 298.544 139.115 298.608C139.35 298.661 139.59 298.688 139.835 298.688C140.507 298.688 140.982 298.507 141.259 298.144C141.547 297.771 141.691 297.253 141.691 296.592V291.216H143.435V296.784C143.435 297.883 143.179 298.725 142.667 299.312C142.155 299.899 141.43 300.192 140.491 300.192ZM148.002 300C147.394 300 146.946 299.845 146.658 299.536C146.37 299.227 146.226 298.795 146.226 298.24V291.216H147.97V298.576H149.218V300H148.002ZM154.663 300.192C154.076 300.192 153.548 300.112 153.079 299.952C152.62 299.781 152.225 299.547 151.895 299.248C151.575 298.939 151.324 298.571 151.143 298.144C150.972 297.707 150.887 297.221 150.887 296.688V291.216H152.631V296.56C152.631 297.264 152.807 297.808 153.159 298.192C153.521 298.576 154.023 298.768 154.663 298.768C155.303 298.768 155.799 298.576 156.151 298.192C156.513 297.808 156.695 297.264 156.695 296.56V288.272H158.439V296.688C158.439 297.221 158.348 297.707 158.167 298.144C157.996 298.571 157.745 298.939 157.415 299.248C157.095 299.547 156.7 299.781 156.231 299.952C155.772 300.112 155.249 300.192 154.663 300.192ZM151.263 289.808C150.773 289.808 150.378 289.632 150.079 289.28C149.781 288.928 149.631 288.459 149.631 287.872C149.631 287.189 149.834 286.672 150.239 286.32C150.634 285.957 151.183 285.776 151.887 285.776H155.711V286.928H151.887C151.599 286.928 151.375 287.003 151.215 287.152C151.045 287.301 150.959 287.531 150.959 287.84C150.959 288.085 151.013 288.288 151.119 288.448C151.226 288.608 151.386 288.688 151.599 288.688C151.845 288.688 152.015 288.587 152.111 288.384C152.197 288.181 152.239 287.963 152.239 287.728H153.103C153.103 287.963 153.151 288.181 153.247 288.384C153.333 288.587 153.498 288.688 153.743 288.688C153.957 288.688 154.117 288.608 154.223 288.448C154.33 288.288 154.383 288.085 154.383 287.84V287.456H155.711V288.032C155.711 288.597 155.567 289.035 155.279 289.344C154.981 289.653 154.581 289.808 154.079 289.808C153.77 289.808 153.493 289.723 153.247 289.552C152.991 289.381 152.81 289.109 152.703 288.736H152.639C152.533 289.109 152.357 289.381 152.111 289.552C151.855 289.723 151.573 289.808 151.263 289.808ZM163.657 300.192C162.74 300.192 162.031 299.899 161.529 299.312C161.028 298.715 160.777 297.872 160.777 296.784V291.216H162.521V296.592C162.521 297.275 162.66 297.797 162.937 298.16C163.225 298.512 163.684 298.688 164.313 298.688C164.548 298.688 164.783 298.661 165.017 298.608C165.252 298.544 165.46 298.448 165.641 298.32C165.833 298.192 165.983 298.032 166.089 297.84C166.207 297.637 166.265 297.403 166.265 297.136V291.216H168.009V298.576H168.937V300H167.785C167.337 300 167.001 299.872 166.777 299.616C166.553 299.349 166.431 298.981 166.409 298.512H166.329C166.148 299.003 165.833 299.408 165.385 299.728C164.948 300.037 164.372 300.192 163.657 300.192ZM173.26 300.16C172.396 300.16 171.703 299.947 171.18 299.52C170.668 299.093 170.412 298.448 170.412 297.584C170.412 296.763 170.658 296.128 171.148 295.68C171.65 295.232 172.354 295.008 173.26 295.008H175.98V294.336C175.98 293.717 175.81 293.248 175.468 292.928C175.138 292.608 174.62 292.448 173.916 292.448C173.287 292.448 172.77 292.581 172.364 292.848C171.97 293.115 171.644 293.451 171.388 293.856L170.268 292.88C170.61 292.336 171.074 291.893 171.66 291.552C172.258 291.2 173.047 291.024 174.028 291.024C175.042 291.024 175.847 291.221 176.444 291.616C176.54 291.04 176.903 290.752 177.532 290.752H179.5V292.272H177.116V292.304C177.522 292.827 177.724 293.483 177.724 294.272V300H175.98V296.176H173.788C173.276 296.176 172.882 296.283 172.604 296.496C172.338 296.709 172.204 297.019 172.204 297.424V297.744C172.204 298.149 172.327 298.469 172.572 298.704C172.818 298.939 173.154 299.056 173.58 299.056C173.794 299.056 173.964 299.04 174.092 299.008L174.236 300.064C174.14 300.085 173.991 300.107 173.788 300.128C173.586 300.149 173.41 300.16 173.26 300.16ZM176.039 286.544H177.671V289.648H176.039V286.544ZM183.467 300.192C183.019 300.192 182.593 300.139 182.187 300.032C181.782 299.925 181.425 299.765 181.115 299.552L181.771 298.304C181.985 298.432 182.219 298.544 182.475 298.64C182.742 298.725 183.046 298.768 183.387 298.768C184.027 298.768 184.518 298.555 184.859 298.128C185.211 297.691 185.387 297.093 185.387 296.336V294.88C185.387 294.133 185.217 293.541 184.875 293.104C184.545 292.667 184.054 292.448 183.403 292.448C182.881 292.448 182.454 292.571 182.123 292.816C181.793 293.051 181.553 293.371 181.403 293.776L179.979 293.104C180.246 292.464 180.673 291.957 181.259 291.584C181.846 291.211 182.582 291.024 183.467 291.024C184.075 291.024 184.614 291.131 185.083 291.344C185.553 291.557 185.947 291.861 186.267 292.256C186.587 292.651 186.827 293.131 186.987 293.696C187.158 294.261 187.243 294.896 187.243 295.6C187.243 296.304 187.158 296.944 186.987 297.52C186.817 298.085 186.571 298.565 186.251 298.96C185.931 299.355 185.537 299.659 185.067 299.872C184.598 300.085 184.065 300.192 183.467 300.192ZM192.111 300.192C191.193 300.192 190.484 299.899 189.983 299.312C189.481 298.715 189.231 297.872 189.231 296.784V291.216H190.975V296.592C190.975 297.275 191.113 297.797 191.391 298.16C191.679 298.512 192.137 298.688 192.766 298.688C193.001 298.688 193.236 298.661 193.471 298.608C193.705 298.544 193.913 298.448 194.095 298.32C194.287 298.192 194.436 298.032 194.543 297.84C194.66 297.637 194.719 297.403 194.719 297.136V291.216H196.463V298.576H197.391V300H196.239C195.791 300 195.455 299.872 195.231 299.616C195.007 299.349 194.884 298.981 194.863 298.512H194.783C194.601 299.003 194.287 299.408 193.839 299.728C193.401 300.037 192.825 300.192 192.111 300.192ZM202.674 300.192C201.415 300.192 200.444 299.797 199.762 299.008C199.09 298.208 198.754 297.061 198.754 295.568C198.754 294.107 198.978 292.987 199.426 292.208C199.874 291.419 200.562 291.024 201.49 291.024C201.948 291.024 202.332 291.157 202.641 291.424C202.951 291.68 203.148 292.037 203.234 292.496H203.33C203.426 292.037 203.65 291.68 204.002 291.424C204.354 291.157 204.786 291.024 205.298 291.024C205.948 291.024 206.46 291.237 206.834 291.664C207.207 292.08 207.394 292.672 207.394 293.44V300H205.65V293.584C205.65 293.211 205.575 292.933 205.426 292.752C205.276 292.571 205.063 292.48 204.786 292.48C204.444 292.48 204.21 292.608 204.082 292.864C203.954 293.109 203.868 293.392 203.826 293.712H202.738C202.716 293.552 202.684 293.397 202.641 293.248C202.61 293.099 202.556 292.971 202.482 292.864C202.407 292.747 202.311 292.656 202.194 292.592C202.087 292.517 201.948 292.48 201.778 292.48C201.34 292.48 201.036 292.693 200.866 293.12C200.695 293.536 200.61 294.091 200.61 294.784V296.256C200.61 296.64 200.652 296.987 200.738 297.296C200.823 297.605 200.956 297.872 201.138 298.096C201.33 298.309 201.57 298.475 201.858 298.592C202.156 298.709 202.519 298.768 202.946 298.768C203.052 298.768 203.164 298.763 203.282 298.752C203.399 298.741 203.516 298.725 203.634 298.704L203.826 300.08C203.655 300.123 203.463 300.149 203.25 300.16C203.047 300.181 202.855 300.192 202.674 300.192ZM205.679 289.648C205.124 289.648 204.708 289.515 204.431 289.248C204.153 288.981 204.015 288.608 204.015 288.128V287.008H205.551V288.272H209.711V289.648H205.679ZM212.499 300.192C212.051 300.192 211.624 300.139 211.219 300.032C210.813 299.925 210.456 299.765 210.147 299.552L210.803 298.304C211.016 298.432 211.251 298.544 211.507 298.64C211.773 298.725 212.077 298.768 212.419 298.768C213.059 298.768 213.549 298.555 213.891 298.128C214.243 297.691 214.419 297.093 214.419 296.336V294.88C214.419 294.133 214.248 293.541 213.907 293.104C213.576 292.667 213.085 292.448 212.435 292.448C211.912 292.448 211.485 292.571 211.155 292.816C210.824 293.051 210.584 293.371 210.435 293.776L209.011 293.104C209.277 292.464 209.704 291.957 210.291 291.584C210.877 291.211 211.613 291.024 212.499 291.024C213.107 291.024 213.645 291.131 214.115 291.344C214.584 291.557 214.979 291.861 215.299 292.256C215.619 292.651 215.859 293.131 216.019 293.696C216.189 294.261 216.275 294.896 216.275 295.6C216.275 296.304 216.189 296.944 216.019 297.52C215.848 298.085 215.603 298.565 215.283 298.96C214.963 299.355 214.568 299.659 214.099 299.872C213.629 300.085 213.096 300.192 212.499 300.192Z" fill="#3F2436"/>
<path d="M333 299L337 295L333 291" stroke="#C2C6CC" stroke-width="1.5" stroke-linecap="round" stroke-linejoin="round"/>
<rect x="22" y="322" width="331" height="42" rx="6" fill="#F5F5F5"/>
<g clip-path="url(#clip4_71_106794)">
<path d="M39.9997 345.666V343M39.9997 340.333H40.0063M46.6663 343C46.6663 346.682 43.6816 349.666 39.9997 349.666C36.3178 349.666 33.333 346.682 33.333 343C33.333 339.318 36.3178 336.333 39.9997 336.333C43.6816 336.333 46.6663 339.318 46.6663 343Z" stroke="#3F2436" stroke-width="1.5" stroke-linecap="round" stroke-linejoin="round"/>
</g>
<path d="M59.408 348C58.8 348 58.352 347.845 58.064 347.536C57.776 347.227 57.632 346.795 57.632 346.24V339.216H59.376V346.576H60.624V348H59.408ZM61.243 341.68H63.019L65.179 346.592H65.227C65.7817 346.592 66.2083 346.395 66.507 346C66.8057 345.595 66.955 345.024 66.955 344.288V342.912C66.955 342.197 66.8003 341.643 66.491 341.248C66.1817 340.843 65.755 340.64 65.211 340.64H64.667V339.216H65.243C66.4057 339.216 67.291 339.6 67.899 340.368C68.507 341.136 68.811 342.213 68.811 343.6C68.811 344.987 68.4963 346.069 67.867 346.848C67.2483 347.616 66.379 348 65.259 348H64.027L61.243 341.68ZM61.7446 336.272H64.5766V335.008H66.0166V336.4H67.2006V335.008H68.6406V337.648H61.7446V336.272ZM67.1206 331.68H68.6406V334.128H67.1206V331.68ZM74.313 348.192C73.7797 348.192 73.2783 348.117 72.809 347.968C72.3503 347.808 71.9503 347.595 71.609 347.328C71.2783 347.051 71.017 346.72 70.825 346.336C70.633 345.952 70.537 345.525 70.537 345.056V344.256C70.537 343.883 70.6223 343.595 70.793 343.392C70.9637 343.179 71.273 343.072 71.721 343.072H73.513V344.448H72.185V344.928C72.185 345.568 72.3823 346.037 72.777 346.336C73.1823 346.624 73.721 346.768 74.393 346.768C75.0863 346.768 75.6197 346.555 75.993 346.128C76.377 345.701 76.569 345.099 76.569 344.32V342.944C76.569 342.155 76.3557 341.541 75.929 341.104C75.513 340.667 74.921 340.448 74.153 340.448C73.513 340.448 72.9637 340.581 72.505 340.848C72.057 341.115 71.7157 341.435 71.481 341.808L70.393 340.832C70.7023 340.32 71.177 339.893 71.817 339.552C72.457 339.2 73.2623 339.024 74.233 339.024C75.5557 339.024 76.585 339.429 77.321 340.24C78.057 341.04 78.425 342.16 78.425 343.6C78.425 344.304 78.3343 344.944 78.153 345.52C77.9717 346.085 77.705 346.565 77.353 346.96C77.001 347.355 76.569 347.659 76.057 347.872C75.545 348.085 74.9637 348.192 74.313 348.192ZM83.2824 348.192C82.365 348.192 81.6557 347.899 81.1544 347.312C80.653 346.715 80.4024 345.872 80.4024 344.784V339.216H82.1464V344.592C82.1464 345.275 82.285 345.797 82.5624 346.16C82.8504 346.512 83.309 346.688 83.9384 346.688C84.173 346.688 84.4077 346.661 84.6424 346.608C84.877 346.544 85.085 346.448 85.2664 346.32C85.4584 346.192 85.6077 346.032 85.7144 345.84C85.8317 345.637 85.8904 345.403 85.8904 345.136V339.216H87.6344V346.576H88.5624V348H87.4104C86.9624 348 86.6264 347.872 86.4024 347.616C86.1784 347.349 86.0557 346.981 86.0344 346.512H85.9544C85.773 347.003 85.4584 347.408 85.0104 347.728C84.573 348.037 83.997 348.192 83.2824 348.192ZM92.5334 348C91.9254 348 91.472 347.845 91.1734 347.536C90.8854 347.227 90.7414 346.795 90.7414 346.24V337.536C90.7414 337.216 90.784 336.933 90.8694 336.688C90.9547 336.443 91.0667 336.235 91.2054 336.064C91.344 335.883 91.504 335.733 91.6854 335.616C91.8774 335.499 92.0747 335.408 92.2774 335.344V335.28H88.8054V333.888H94.1494V335.28H93.9574C93.488 335.28 93.1254 335.419 92.8694 335.696C92.6134 335.963 92.4854 336.347 92.4854 336.848V346.576H93.7334V348H92.5334ZM98.7624 348.192C98.2397 348.192 97.7597 348.128 97.3224 348C96.8957 347.872 96.5224 347.68 96.2024 347.424C95.893 347.157 95.653 346.832 95.4824 346.448C95.3117 346.053 95.2264 345.589 95.2264 345.056C95.2264 344.448 95.3064 343.968 95.4664 343.616C95.637 343.253 95.829 342.928 96.0424 342.64C96.2344 342.373 96.3944 342.101 96.5224 341.824C96.661 341.547 96.7304 341.264 96.7304 340.976V340.672H95.1144V339.216H96.9384C97.4184 339.216 97.7864 339.333 98.0424 339.568C98.309 339.792 98.4424 340.101 98.4424 340.496V340.608C98.4424 340.96 98.3784 341.301 98.2504 341.632C98.133 341.952 97.9517 342.325 97.7064 342.752C97.5144 343.093 97.3597 343.408 97.2424 343.696C97.1357 343.973 97.0824 344.299 97.0824 344.672V345.136C97.0824 345.669 97.2317 346.075 97.5304 346.352C97.829 346.629 98.229 346.768 98.7304 346.768C99.2637 346.768 99.669 346.608 99.9464 346.288C100.234 345.957 100.378 345.504 100.378 344.928V339.216H102.122V344.864C102.122 345.899 101.834 346.715 101.258 347.312C100.682 347.899 99.8504 348.192 98.7624 348.192ZM105.329 343.152L103.953 342.576C103.996 342.053 104.124 341.573 104.337 341.136C104.561 340.699 104.854 340.325 105.217 340.016C105.58 339.696 106.006 339.451 106.497 339.28C106.988 339.109 107.521 339.024 108.097 339.024C109.366 339.024 110.353 339.349 111.057 340C111.761 340.64 112.113 341.509 112.113 342.608V348H110.369V342.832C110.369 342.064 110.161 341.477 109.745 341.072C109.329 340.656 108.758 340.448 108.033 340.448C107.446 340.448 106.929 340.581 106.481 340.848C106.044 341.104 105.745 341.451 105.585 341.888L106.273 342.16C106.572 342.277 106.78 342.416 106.897 342.576C107.014 342.725 107.073 342.949 107.073 343.248V348H105.329V343.152ZM118.197 342.048C118.197 341.536 118.064 341.141 117.797 340.864C117.53 340.587 117.109 340.448 116.533 340.448C116.042 340.448 115.648 340.555 115.349 340.768C115.05 340.971 114.794 341.237 114.581 341.568L113.525 340.64C113.813 340.16 114.202 339.771 114.693 339.472C115.184 339.173 115.834 339.024 116.645 339.024C117.712 339.024 118.528 339.275 119.093 339.776C119.658 340.277 119.941 340.997 119.941 341.936V348H118.197V342.048ZM125.493 348.192C124.672 348.192 123.973 348.053 123.397 347.776C122.832 347.488 122.336 347.088 121.909 346.576L123.013 345.536C123.333 345.941 123.707 346.251 124.133 346.464C124.56 346.677 125.045 346.784 125.589 346.784C126.165 346.784 126.592 346.683 126.869 346.48C127.157 346.267 127.301 345.968 127.301 345.584C127.301 345.243 127.189 344.981 126.965 344.8C126.752 344.608 126.411 344.48 125.941 344.416L125.125 344.304C124.731 344.251 124.357 344.165 124.005 344.048C123.653 343.931 123.344 343.771 123.077 343.568C122.821 343.365 122.613 343.115 122.453 342.816C122.304 342.517 122.229 342.149 122.229 341.712C122.229 341.285 122.309 340.907 122.469 340.576C122.629 340.235 122.853 339.952 123.141 339.728C123.429 339.493 123.771 339.317 124.165 339.2C124.571 339.083 125.013 339.024 125.493 339.024C126.293 339.024 126.949 339.147 127.461 339.392C127.973 339.627 128.427 339.957 128.821 340.384L127.765 341.44C127.52 341.163 127.205 340.928 126.821 340.736C126.437 340.544 125.995 340.448 125.493 340.448C124.971 340.448 124.576 340.549 124.309 340.752C124.043 340.955 123.909 341.232 123.909 341.584C123.909 341.957 124.032 342.235 124.277 342.416C124.523 342.597 124.885 342.72 125.365 342.784L126.181 342.912C126.597 342.976 126.976 343.067 127.317 343.184C127.669 343.301 127.968 343.461 128.213 343.664C128.459 343.856 128.645 344.096 128.773 344.384C128.912 344.672 128.981 345.019 128.981 345.424C128.981 345.84 128.896 346.219 128.725 346.56C128.565 346.901 128.331 347.195 128.021 347.44C127.723 347.675 127.355 347.861 126.917 348C126.491 348.128 126.016 348.192 125.493 348.192ZM133.205 348C132.597 348 132.144 347.845 131.845 347.536C131.557 347.227 131.413 346.795 131.413 346.24V339.76C131.413 339.504 131.451 339.275 131.525 339.072C131.6 338.869 131.696 338.688 131.813 338.528C131.931 338.357 132.059 338.203 132.197 338.064C132.347 337.915 132.491 337.771 132.629 337.632C132.832 337.44 133.003 337.237 133.141 337.024C133.291 336.811 133.365 336.56 133.365 336.272C133.365 335.899 133.253 335.616 133.029 335.424C132.816 335.232 132.533 335.136 132.181 335.136C131.787 335.136 131.461 335.253 131.205 335.488C130.96 335.712 130.773 336.043 130.645 336.48L129.333 335.744C129.547 335.157 129.893 334.677 130.373 334.304C130.853 333.92 131.515 333.728 132.357 333.728C133.189 333.728 133.845 333.947 134.325 334.384C134.805 334.811 135.045 335.376 135.045 336.08C135.045 336.549 134.939 336.939 134.725 337.248C134.523 337.557 134.299 337.845 134.053 338.112C133.829 338.357 133.621 338.603 133.429 338.848C133.248 339.093 133.157 339.376 133.157 339.696V346.576H134.405V348H133.205ZM139.434 348.192C138.901 348.192 138.416 348.128 137.978 348C137.552 347.872 137.184 347.68 136.874 347.424C136.565 347.168 136.325 346.843 136.154 346.448C135.984 346.053 135.898 345.589 135.898 345.056C135.898 344.448 135.978 343.968 136.138 343.616C136.309 343.253 136.501 342.928 136.714 342.64C136.917 342.373 137.082 342.101 137.21 341.824C137.338 341.547 137.402 341.264 137.402 340.976V340.672H135.786V339.216H137.61C138.09 339.216 138.458 339.333 138.714 339.568C138.981 339.792 139.114 340.101 139.114 340.496V340.608C139.114 340.96 139.05 341.301 138.922 341.632C138.805 341.952 138.624 342.325 138.378 342.752C138.186 343.093 138.032 343.408 137.914 343.696C137.808 343.973 137.754 344.299 137.754 344.672V345.136C137.754 345.669 137.898 346.075 138.186 346.352C138.485 346.629 138.89 346.768 139.402 346.768C139.914 346.768 140.314 346.629 140.602 346.352C140.901 346.075 141.05 345.669 141.05 345.136V343.904C141.05 343.413 140.965 343.035 140.794 342.768C140.634 342.501 140.368 342.368 139.994 342.368H139.69V341.04H140.074C140.394 341.04 140.656 340.949 140.858 340.768C141.061 340.576 141.162 340.267 141.162 339.84V338.896H142.874V339.712C142.874 340.192 142.73 340.597 142.442 340.928C142.165 341.248 141.765 341.451 141.242 341.536V341.632C141.786 341.803 142.197 342.139 142.474 342.64C142.762 343.131 142.906 343.776 142.906 344.576C142.906 345.696 142.618 346.581 142.042 347.232C141.477 347.872 140.608 348.192 139.434 348.192ZM139.995 336.272H141.131V335.712C141.131 335.477 141.083 335.312 140.987 335.216C140.88 335.109 140.694 335.056 140.427 335.056H139.995V333.808H141.067C141.579 333.808 141.968 333.92 142.235 334.144C142.491 334.357 142.619 334.651 142.619 335.024C142.619 335.248 142.56 335.472 142.443 335.696C142.315 335.909 142.128 336.075 141.883 336.192V336.272H144.763V337.52H139.995V336.272ZM144.071 341.68H145.847L148.007 346.592H148.055C148.61 346.592 149.036 346.395 149.335 346C149.634 345.595 149.783 345.024 149.783 344.288V342.912C149.783 342.197 149.628 341.643 149.319 341.248C149.01 340.843 148.583 340.64 148.039 340.64H147.495V339.216H148.071C149.234 339.216 150.119 339.6 150.727 340.368C151.335 341.136 151.639 342.213 151.639 343.6C151.639 344.987 151.324 346.069 150.695 346.848C150.076 347.616 149.207 348 148.087 348H146.855L144.071 341.68ZM157.369 342.048C157.369 341.536 157.236 341.141 156.969 340.864C156.702 340.587 156.281 340.448 155.705 340.448C155.214 340.448 154.82 340.555 154.521 340.768C154.222 340.971 153.966 341.237 153.753 341.568L152.697 340.64C152.985 340.16 153.374 339.771 153.865 339.472C154.356 339.173 155.006 339.024 155.817 339.024C156.884 339.024 157.7 339.275 158.265 339.776C158.83 340.277 159.113 340.997 159.113 341.936V348H157.369V342.048ZM164.329 348.192C163.412 348.192 162.703 347.899 162.201 347.312C161.7 346.715 161.449 345.872 161.449 344.784V339.216H163.193V344.592C163.193 345.275 163.332 345.797 163.609 346.16C163.897 346.512 164.356 346.688 164.985 346.688C165.22 346.688 165.455 346.661 165.689 346.608C165.924 346.544 166.132 346.448 166.313 346.32C166.505 346.192 166.655 346.032 166.761 345.84C166.879 345.637 166.937 345.403 166.937 345.136V339.216H168.681V346.576H169.609V348H168.457C168.009 348 167.673 347.872 167.449 347.616C167.225 347.349 167.103 346.981 167.081 346.512H167.001C166.82 347.003 166.505 347.408 166.057 347.728C165.62 348.037 165.044 348.192 164.329 348.192Z" fill="#3F2436"/>
<path d="M333 347L337 343L333 339" stroke="#C2C6CC" stroke-width="1.5" stroke-linecap="round" stroke-linejoin="round"/>
<defs>
<clipPath id="clip0_71_106794">
<rect width="16" height="16" fill="white" transform="translate(32 67)"/>
</clipPath>
<clipPath id="clip1_71_106794">
<rect width="16" height="16" fill="white" transform="translate(32 153)"/>
</clipPath>
<clipPath id="clip2_71_106794">
<rect width="16" height="16" fill="white" transform="translate(32 239)"/>
</clipPath>
<clipPath id="clip3_71_106794">
<rect width="16" height="16" fill="white" transform="translate(32 287)"/>
</clipPath>
<clipPath id="clip4_71_106794">
<rect width="16" height="16" fill="white" transform="translate(32 335)"/>
</clipPath>
</defs>
</svg>
